<?xml version="1.0" standalone="no"?>
<!DOCTYPE svg PUBLIC "-//W3C//DTD SVG 1.1//EN" "http://www.w3.org/Graphics/SVG/1.1/DTD/svg11.dtd" >
<svg xmlns="http://www.w3.org/2000/svg" xmlns:xlink="http://www.w3.org/1999/xlink" version="1.1">
<metadata>
Created by FontForge 20170731 at Sat Jun 10 18:23:22 2023
 By Aleksey,,,
Copyright (c) 2020 by Seniors Studio. All rights reserved.
</metadata>
<defs>
<font id="Migha-LightSlant" horiz-adv-x="1064" >
  <font-face 
    font-family="Migha Light Slant"
    font-weight="300"
    font-style="italic"
    font-stretch="normal"
    units-per-em="2048"
    panose-1="0 0 0 0 0 0 0 0 0 0"
    ascent="1638"
    descent="-410"
    x-height="1630"
    cap-height="1716"
    bbox="43 -319 2208 2218"
    underline-thickness="102"
    underline-position="-358"
    slope="-12"
    unicode-range="U+000D-20AC"
  />
<missing-glyph horiz-adv-x="1024" 
 />
    <glyph glyph-name="E_T" unicode="ET" horiz-adv-x="1812" 
d="M846 0h-725l366 1716h1639l-10 -45l-402 23l-360 -1694h-140l361 1694l-954 2l-168 -789l465 11l-11 -44l-458 13l-185 -867l592 27z" />
    <glyph glyph-name="T_T" unicode="TT" horiz-adv-x="1896" 
d="M412 1671l10 45h1786l-8 -45l-402 23l-360 -1694h-140l361 1694h-707l-360 -1694h-139l360 1694z" />
    <glyph glyph-name="e_t" unicode="et" horiz-adv-x="1812" 
d="M846 0h-725l348 1630h1638l-10 -43l-401 25l-342 -1612h-140l345 1612h-955l-160 -750l463 10l-8 -41l-459 11l-176 -822l592 23z" />
    <glyph glyph-name="t_t" unicode="tt" horiz-adv-x="1896" 
d="M393 1585l10 45h1788l-10 -45l-401 25l-342 -1610h-140l342 1610h-706l-342 -1610h-139l342 1610z" />
    <glyph glyph-name="F_T" unicode="FT" horiz-adv-x="1818" 
d="M262 0h-141l366 1716h1647l-10 -45l-402 23l-360 -1694h-139l360 1694h-962l-162 -762l491 12l-8 -45l-487 12z" />
    <glyph glyph-name="f_t" unicode="ft" horiz-adv-x="1818" 
d="M262 0h-141l348 1630h1647l-11 -43l-401 23l-342 -1610h-139l342 1610h-961l-153 -725l489 12l-8 -41l-486 10z" />
    <glyph glyph-name=".notdef" horiz-adv-x="1024" 
 />
    <glyph glyph-name="uni0000" horiz-adv-x="0" 
 />
    <glyph glyph-name="uni0000" horiz-adv-x="0" 
 />
    <glyph glyph-name="uni000D" unicode="&#xd;" horiz-adv-x="512" 
 />
    <glyph glyph-name="space" unicode=" " horiz-adv-x="368" 
 />
    <glyph glyph-name="exclam" unicode="!" horiz-adv-x="458" 
d="M668 1718l-361 -1425h-31l244 1425h148zM350 106l-22 -106h-191l23 106h190z" />
    <glyph glyph-name="quotedbl" unicode="&#x22;" horiz-adv-x="759" 
d="M408 1341l241 269h-166l23 106h190l-22 -106l-205 -269h-61zM778 1341h-61l241 269h-165l22 106h191l-23 -106z" />
    <glyph glyph-name="numbersign" unicode="#" horiz-adv-x="1273" 
d="M207 641l6 25h260l164 436h-238l7 26h241l219 588h121l-219 -588h295l221 588h121l-221 -588h262l-4 -26h-268l-164 -436h243l-6 -25h-246l-241 -641h-121l240 641h-295l-240 -641h-121l240 641h-256zM594 666h295l164 436h-295z" />
    <glyph glyph-name="dollar" unicode="$" horiz-adv-x="1081" 
d="M506 -20q-200 9 -277 115t-36 298l26 121h137q-11 -65 -28 -135q-11 -60 -14 -109.5t6 -102t33 -88t73 -58.5t121 -23q144 0 237 105t129 272q12 54 8.5 101t-17.5 86.5t-38 75.5t-54 66.5t-65 61t-70 59.5q-34 27 -51.5 42t-48.5 43t-47.5 46.5t-40 48.5t-35 54.5
t-24.5 59t-16.5 67.5t-2 73.5t10.5 83.5q37 168 163.5 277t293.5 115l36 172h80l-37 -172q357 -22 277 -412l-27 -121h-139q27 125 29 137q8 40 12.5 72.5t6 73t-3.5 71.5t-19.5 62.5t-38.5 51.5t-63 33t-91 13q-88 0 -158.5 -51t-111 -126.5t-60.5 -168.5
q-9 -42 -10.5 -79.5t8 -72.5t18 -62t33 -59.5t38 -50.5t48.5 -50t49.5 -44.5t55.5 -46.5q37 -31 56.5 -47.5t52.5 -47.5t50.5 -53t41 -55t34 -63.5t19.5 -68t7.5 -79.5t-11.5 -88q-41 -188 -163 -301t-312 -125l-39 -172h-78z" />
    <glyph glyph-name="percent" unicode="%" horiz-adv-x="1372" 
d="M508 848q-218 0 -178 190l108 510q42 189 258 189q220 0 178 -189l-108 -510q-40 -190 -258 -190zM1044 -23q-218 0 -178 189l109 512q42 188 258 188q220 0 178 -188l-108 -512q-39 -189 -259 -189zM432 1044q-21 -78 -2 -126t84 -48t102 45t56 129l106 504
q16 83 -2 125.5t-84 42.5q-65 0 -99.5 -42t-53.5 -126zM969 174q-39 -176 82 -176q65 0 101.5 45.5t55.5 130.5l107 504q20 78 0 122t-86 44t-101 -41.5t-51 -124.5zM449 0h-115l952 1718h115z" />
    <glyph glyph-name="ampersand" unicode="&#x26;" horiz-adv-x="1232" 
d="M573 -23q-248 0 -329.5 108.5t-28.5 356.5q37 168 117.5 283.5t234.5 183.5q-93 270 -59 428q40 189 168.5 294.5t318.5 105.5q179 0 257.5 -106.5t39.5 -287.5q-14 -79 -32 -149h-134q41 184 48 231q11 60 7 113.5t-21 93t-62.5 63t-116.5 23.5q-140 0 -226.5 -92.5
t-119.5 -247.5q-15 -60 -8 -136t25 -152.5t50 -161t67 -162.5t75.5 -157t76 -144.5t68.5 -124.5q22 -38 31 -55q33 76 55 180q38 176 96 530h48l-107 -503q-28 -135 -78 -236q18 -33 70 -128.5t70 -127.5h-152q-4 6 -31 55t-43 76q-126 -154 -375 -154zM356 430
q-13 -64 -18.5 -116.5t-3.5 -103t18 -88t44 -66t74.5 -43.5t109.5 -15q240 0 358 154q-236 407 -342 688q-46 -21 -83 -56.5t-61 -74t-44 -91t-30.5 -93.5t-21.5 -95z" />
    <glyph glyph-name="quotesingle" unicode="'" horiz-adv-x="438" 
d="M643 1610h-166l23 106h190l-22 -106l-205 -269h-62z" />
    <glyph glyph-name="parenleft" unicode="(" horiz-adv-x="575" 
d="M487 -92q-113 -1 -170 134.5t-53.5 353t58.5 474.5q53 248 141 460t203 346t227 134l-4 -20q-76 -4 -169 -141t-172.5 -349.5t-127.5 -441.5q-49 -230 -59.5 -441.5t24 -348.5t109.5 -140z" />
    <glyph glyph-name="parenright" unicode=")" horiz-adv-x="575" 
d="M53 -92l4 20q76 3 168.5 140t172 348.5t128.5 441.5t60 442t-23.5 349t-109.5 141l4 20q86 0 141 -79t73 -212.5t6.5 -306.5t-52.5 -364q-53 -250 -141.5 -462t-203.5 -345.5t-227 -132.5z" />
    <glyph glyph-name="asterisk" unicode="*" horiz-adv-x="763" 
d="M616 1384l-233 132l43 51l195 -158l65 309h100l-65 -309l262 158l23 -51l-289 -132l233 -129l-45 -51l-192 158l-68 -309h-100l65 309l-260 -158l-22 51z" />
    <glyph glyph-name="plus" unicode="+" horiz-adv-x="960" 
d="M604 797h-344l10 47h344l84 393h95l-84 -393h346l-11 -47h-344l-84 -394h-94z" />
    <glyph glyph-name="comma" unicode="," horiz-adv-x="452" 
d="M307 0h-166l23 106h190l-22 -106l-205 -268h-61z" />
    <glyph glyph-name="hyphen" unicode="-" horiz-adv-x="847" 
d="M883 750l-15 -68h-612l14 68h613z" />
    <glyph glyph-name="period" unicode="." horiz-adv-x="434" 
d="M336 106l-23 -106h-192l24 106h191z" />
    <glyph glyph-name="slash" unicode="/" horiz-adv-x="790" 
d="M1110 1718l-952 -1718h-109l952 1718h109z" />
    <glyph glyph-name="zero" unicode="0" horiz-adv-x="958" 
d="M475 -23q-62 0 -113 12t-94.5 38.5t-68.5 68t-34 101.5t9 139q105 485 111 516q23 110 112 528q20 95 65.5 166t108 111.5t132 60t147.5 19.5t139 -19t106.5 -61.5t58.5 -110.5t-5 -166q-126 -609 -221 -1044q-20 -96 -65 -167t-107.5 -112t-132 -60.5t-148.5 -19.5z
M311 326q-32 -152 13 -240t155 -88q112 0 194.5 87.5t114.5 240.5q83 399 113 526q3 12 41 194t72 345q32 151 -13 238t-155 87t-192.5 -87t-114.5 -238q-25 -117 -52 -240t-43 -197.5t-22 -101.5q-9 -43 -44 -208t-67 -318z" />
    <glyph glyph-name="one" unicode="1" horiz-adv-x="583" 
d="M442 1602l244 114h131l-364 -1716h-140l359 1690l-242 -142z" />
    <glyph glyph-name="two" unicode="2" horiz-adv-x="1034" 
d="M897 0h-778l28 135q22 107 82 210.5t138.5 188.5t169.5 168.5t181 163.5t167 157.5t133.5 166t75.5 176.5q16 59 10.5 121t-24.5 113t-64.5 83.5t-108.5 32.5q-66 0 -123 -31t-96.5 -84t-67 -115.5t-42.5 -133.5q-3 -12 -11.5 -49t-11.5 -54h-135l14 74
q41 189 165.5 301.5t311.5 112.5q178 0 267 -104.5t53 -276.5q-19 -89 -76.5 -181.5t-135.5 -174.5t-169.5 -165.5t-183 -167.5t-170 -168t-137 -180t-78.5 -190l-23 -106l649 26z" />
    <glyph glyph-name="three" unicode="3" horiz-adv-x="1067" 
d="M500 -23q-185 0 -269.5 98t-50.5 257l37 176h135q-5 -22 -23.5 -111.5t-23.5 -111.5q-27 -124 27 -204.5t172 -80.5q91 0 161.5 34t119.5 100.5t81.5 149.5t55.5 195q27 132 22 227t-65.5 147t-178.5 52q-30 0 -92 -6t-92 -8l10 53q160 -15 179 -16q82 0 147.5 26.5
t108.5 74t70 104.5t42 127q30 144 26 245.5t-55.5 156t-152.5 54.5q-113 0 -203.5 -75.5t-118.5 -210.5q-43 -199 -45 -205h-133q15 85 31 147q37 180 162.5 272.5t312.5 92.5q111 0 182 -23.5t114 -78t46.5 -143.5t-22.5 -220q-26 -127 -99 -225.5t-172 -126.5
q193 -84 119 -443q-29 -136 -70.5 -227t-107.5 -154t-160 -91t-227 -28z" />
    <glyph glyph-name="four" unicode="4" horiz-adv-x="983" 
d="M178 518l846 1198h139l-252 -1186l125 2l-10 -47h-125l-102 -485h-140l105 492l-588 14zM238 526l532 2l244 1143z" />
    <glyph glyph-name="five" unicode="5" horiz-adv-x="1091" 
d="M530 -23q-200 0 -290.5 95.5t-53.5 287.5q3 20 16 78.5t15 69.5h135q-25 -110 -30 -150q-10 -58 -11.5 -105.5t8 -96t33 -81.5t70 -54t113.5 -21q89 0 156 26t112.5 77.5t74.5 118t48 157.5l78 364q17 71 13.5 134t-23 111t-69 76t-124.5 28q-94 0 -179 -54.5
t-139 -142.5h-139l176 821h789l-11 -47l-645 27l-155 -742q66 91 164.5 144t199.5 53q94 0 159 -31t96 -85.5t39 -129.5t-13 -162q-58 -261 -66 -311q-53 -244 -179 -349.5t-368 -105.5z" />
    <glyph glyph-name="six" unicode="6" horiz-adv-x="1013" 
d="M510 -23q-218 0 -291 101.5t-26 320.5l208 981q76 357 492 357q195 0 271 -84.5t36 -278.5l-33 -149h-139q3 10 18 79.5t17 79.5q12 59 17 103t-0.5 89.5t-25.5 74t-61.5 47t-103.5 18.5q-152 0 -230.5 -76.5t-113.5 -240.5q-68 -317 -123 -578q73 94 176.5 150.5
t208.5 56.5q305 0 262 -309q-19 -137 -70 -334q-51 -211 -164 -309.5t-325 -98.5zM330 385q-14 -62 -19.5 -112t0 -103t26 -88.5t65.5 -58.5t112 -23q64 0 115.5 20t85.5 50.5t61 76.5t42 88t28 95q73 322 80 379q9 51 1 98t-27 83t-63 57.5t-108 21.5q-82 0 -169 -54.5
t-146 -132.5q-6 -28 -41 -190.5t-43 -206.5z" />
    <glyph glyph-name="seven" unicode="7" horiz-adv-x="874" 
d="M1176 1696l-832 -1696h-143l833 1696l-592 -27l9 47h729z" />
    <glyph glyph-name="eight" unicode="8" horiz-adv-x="1091" 
d="M184 147q-39 113 8 322t134 326q78 109 188 149q-99 33 -129 146q-28 98 6.5 247.5t106.5 243.5q63 83 164 119.5t256 36.5q160 0 244.5 -37t111.5 -125q30 -94 1 -239t-97 -242q-76 -114 -193 -150q106 -46 133 -174q27 -117 -11 -299t-116 -289q-65 -109 -167.5 -157
t-278.5 -48q-163 0 -248 40.5t-113 129.5zM440 762q-62 -94 -107.5 -301.5t-23.5 -300.5q36 -160 240 -160q61 0 113.5 17.5t91.5 49t66 64t52 74.5q53 85 91.5 266t23.5 270q-25 193 -242 193q-197 0 -305 -172zM606 1548q-41 -72 -72.5 -215.5t-19.5 -212.5
q30 -164 236 -164q208 0 309 162q43 71 72.5 217.5t17.5 218.5q-24 162 -236 162q-216 0 -307 -168z" />
    <glyph glyph-name="nine" unicode="9" horiz-adv-x="1011" 
d="M489 -23q-195 0 -271 84.5t-36 278.5l33 149h139l-43 -198q-17 -88 -14.5 -153t51 -102.5t146.5 -37.5q152 0 230.5 77t113.5 240q8 38 32 150t52 245t39 183q-73 -94 -176.5 -150.5t-209.5 -56.5q-55 0 -98 10t-72.5 24.5t-49 42t-31 51t-13.5 64.5t-1.5 69.5t8.5 78.5
t14 79.5t18 83.5q1 6 2 9q13 59 23 100.5t25.5 91.5t31 85.5t39 74t50 64.5t62 51.5t78 39.5t95.5 23t116 9q218 0 291.5 -101.5t26.5 -318.5l-209 -983q-76 -357 -492 -357zM496 1208q-9 -41 -14.5 -67t-12.5 -68.5t-8.5 -71t-0.5 -65.5t8 -62t21 -51.5t36 -42t54 -25.5
t74 -10q83 0 170 55t146 134q42 179 82 383q14 67 20 119.5t1 107t-26 90.5t-66 59t-112 23q-55 0 -101 -14.5t-79 -41t-59.5 -61.5t-45 -77t-33 -86.5t-25.5 -92.5t-20 -91q-6 -30 -9 -44z" />
    <glyph glyph-name="colon" unicode=":" horiz-adv-x="432" 
d="M391 373l-22 -107h-191l23 107h190zM530 1024l-22 -109h-191l23 109h190z" />
    <glyph glyph-name="semicolon" unicode=";" horiz-adv-x="450" 
d="M365 266h-166l22 107h191l-23 -107l-203 -266h-63zM551 1024l-23 -109h-190l22 109h191z" />
    <glyph glyph-name="less" unicode="&#x3c;" horiz-adv-x="917" 
d="M905 494l-639 284l6 31l762 283l-6 -21l-590 -278l473 -277z" />
    <glyph glyph-name="equal" unicode="=" horiz-adv-x="948" 
d="M250 651h725l-10 -49h-725zM1051 1008h-725l10 47h725z" />
    <glyph glyph-name="greater" unicode="&#x3e;" horiz-adv-x="917" 
d="M987 778l-760 -284l4 22l590 277l-471 278l4 21l639 -283z" />
    <glyph glyph-name="question" unicode="?" horiz-adv-x="987" 
d="M467 1186h-133l37 182q36 167 175 268t312 101q193 0 287 -87t63 -270q-14 -83 -42.5 -153t-66 -120t-82 -93.5t-92.5 -78t-95.5 -68t-92 -70t-82 -76.5t-66 -94.5t-42.5 -118.5q-33 -160 -37 -178h-51q3 18 20.5 100.5t20.5 99.5q17 80 54.5 146.5t84 113.5t99.5 91
t105.5 90.5t98 100t80 132t49.5 174.5q11 64 2.5 124.5t-31 108t-71 76.5t-117.5 29q-125 0 -219.5 -92.5t-122.5 -220.5zM319 0l23 106h190l-22 -106h-191z" />
    <glyph glyph-name="at" unicode="@" horiz-adv-x="1931" 
d="M926 -23q-122 0 -227.5 30t-185.5 85t-140.5 133t-90.5 174t-36.5 206.5t20.5 230.5q42 195 146 363t248 286t325 185t371 67q188 0 337 -61t239.5 -173.5t123.5 -270.5t-10 -351q-24 -116 -83 -232t-142.5 -214.5t-198 -160t-236.5 -61.5h-108l-10 371l-412 12
l-176 -383h-49l620 1311h127l29 -1291q97 17 185.5 85t150.5 162.5t105 195t63 196.5q24 115 24.5 221t-21.5 199.5t-70 170t-117.5 131.5t-167.5 85.5t-216 30.5q-173 0 -332 -70.5t-278.5 -189.5t-204 -274t-120.5 -326q-21 -100 -21.5 -201.5t19 -196t63 -177t106 -144
t153.5 -96.5t200 -35h76l-5 -23h-73zM1257 1487l-393 -873l404 13z" />
    <glyph glyph-name="A" unicode="A" 
d="M109 0h-48l791 1716h127l25 -1716h-148l-2 473l-530 12zM334 506l520 12l-8 1131z" />
    <glyph glyph-name="B" unicode="B" horiz-adv-x="1101" 
d="M541 0h-420l366 1716h467q408 0 316 -397q-68 -293 -281 -358q215 -71 129 -465q-29 -131 -69.5 -219.5t-106.5 -153t-164 -94t-237 -29.5zM274 20h279q78 0 142.5 29t107.5 73t78 110t55.5 127t38.5 137q20 87 23 163.5t-13.5 144t-68 107t-134.5 39.5h-311zM631 1698
l-156 -727h324q71 0 129 29.5t97 81t64 109.5t41 128q80 379 -215 379h-284z" />
    <glyph glyph-name="C" unicode="C" horiz-adv-x="1028" 
d="M530 -23q-67 0 -120 6.5t-100 22.5t-76.5 42.5t-50.5 66.5t-21 94.5t12 126.5q111 520 223 1044q18 84 52 146.5t78.5 102.5t105 64.5t126 34t146.5 9.5q211 0 284 -94t30 -304l-31 -137h-137q3 14 13 64l13 65q9 39 14 65t10 62t5.5 60t-2.5 53.5t-12 48.5t-24 39
t-38 31.5t-55.5 18.5t-73.5 7q-153 0 -240.5 -81t-121.5 -244q-131 -604 -228 -1065q-35 -165 17.5 -246.5t206.5 -81.5q53 0 96 12t74 29.5t56.5 49.5t41 60t30.5 74t22.5 78t18.5 84q3 14 14.5 63.5t14.5 63.5l137 2l-28 -139q-44 -208 -158 -303t-324 -95z" />
    <glyph glyph-name="D" unicode="D" horiz-adv-x="1069" 
d="M578 0h-457l366 1716h455q198 0 271 -115t30 -319l-180 -848q-43 -204 -165 -319t-320 -115zM268 20h305q260 0 342 371q6 34 51 244.5t94 439t52 244.5q79 379 -184 379h-303z" />
    <glyph glyph-name="E" unicode="E" horiz-adv-x="944" 
d="M846 0h-725l366 1716h723l-8 -45l-581 25l-168 -789l465 11l-11 -44l-458 13l-185 -867l592 27z" />
    <glyph glyph-name="F" unicode="F" horiz-adv-x="935" 
d="M121 0l366 1716h754l-10 -45l-608 25l-164 -764l491 12l-8 -45l-487 12l-193 -911h-141z" />
    <glyph glyph-name="G" unicode="G" horiz-adv-x="1069" 
d="M547 -23q-58 0 -105 5t-92 16t-77 30t-58.5 46.5t-37.5 65t-14.5 86.5t11.5 110q111 520 223 1044q22 104 70 175.5t119 110.5t151 55t183 16q213 0 294 -97t37 -301l-26 -127h-138q3 20 25 119q10 49 16 86t8 79.5t-3.5 72.5t-20 59.5t-39.5 47.5t-65 29t-93 11
q-162 0 -251 -78.5t-125 -246.5q-32 -150 -230 -1074q-35 -168 23 -243.5t217 -75.5q54 0 99.5 11.5t78.5 30t60.5 49.5t45.5 61t34 74.5t25.5 81t20.5 87.5q1 6 19.5 95.5t40 190.5t26.5 128l-331 -25l10 45h465l-96 -452q-44 -206 -166 -302t-334 -96z" />
    <glyph glyph-name="H" unicode="H" horiz-adv-x="1134" 
d="M121 0l366 1716h138l-183 -860l621 12l180 848h141l-364 -1716h-141l176 825l-617 11l-178 -836h-139z" />
    <glyph glyph-name="I" unicode="I" horiz-adv-x="438" 
d="M152 0l366 1716h139l-364 -1716h-141z" />
    <glyph glyph-name="J" unicode="J" horiz-adv-x="968" 
d="M436 -23q-207 0 -274 93.5t-23 304.5l31 137h137q-3 -13 -13 -63.5t-13 -63.5q-34 -156 -35 -213q-2 -127 97 -161q41 -13 99 -13q151 0 231 80.5t115 247.5q206 966 291 1370l-346 -27l10 47h480q-79 -375 -168.5 -796t-124.5 -584q-22 -105 -65 -176.5t-108 -111
t-141.5 -55.5t-179.5 -16z" />
    <glyph glyph-name="K" unicode="K" horiz-adv-x="1075" 
d="M262 0h-141l366 1716h140l-185 -862l846 862h53l-716 -698l391 -1018h-152l-354 895l-74 -74z" />
    <glyph glyph-name="L" unicode="L" horiz-adv-x="782" 
d="M266 20l471 27l-10 -47h-606l366 1716h140z" />
    <glyph glyph-name="M" unicode="M" horiz-adv-x="1505" 
d="M166 0h-47l366 1716h144l151 -1628l828 1628h143l-365 -1716h-139l338 1587l-825 -1587h-115l-153 1653z" />
    <glyph glyph-name="N" unicode="N" horiz-adv-x="1093" 
d="M166 0h-47l366 1716h131l365 -1593l311 1593h47l-364 -1716h-113l-373 1640z" />
    <glyph glyph-name="O" unicode="O" horiz-adv-x="1021" 
d="M506 -23q-73 0 -130.5 11t-105.5 37t-73.5 67.5t-34.5 102t10 141.5q111 520 223 1044q75 357 486 357q192 0 282.5 -83t50.5 -274q-174 -822 -221 -1044q-78 -359 -487 -359zM309 326q-34 -160 16 -244t185 -84q273 0 342 328q58 270 225 1065q34 159 -15.5 242
t-184.5 83q-136 0 -221.5 -83t-118.5 -242q-131 -604 -228 -1065z" />
    <glyph glyph-name="P" unicode="P" 
d="M260 0h-139l366 1716h451q85 0 147.5 -15t102 -45.5t61.5 -71t27 -98t-0.5 -119.5t-22.5 -142q-20 -96 -44.5 -167.5t-65.5 -137t-95.5 -106.5t-135 -65t-183.5 -24h-313zM621 1696l-201 -953h315q69 0 128 33.5t98.5 83t72.5 118t51 126t31 119.5q98 473 -178 473h-317z
" />
    <glyph glyph-name="Q" unicode="Q" horiz-adv-x="1062" 
d="M526 -23q-61 0 -112 7.5t-97 25t-77.5 45t-53.5 67.5t-24 93t10 121q111 520 223 1044q21 98 69 169t117.5 111t148 58.5t171.5 18.5q74 0 133 -11t110 -36.5t79 -67t39.5 -101.5t-7.5 -141q-174 -822 -221 -1044q-20 -94 -65.5 -164t-110 -110.5t-138 -61t-161.5 -23.5
q32 -90 260 -90h119l-25 -116h-96q-122 0 -194.5 59t-85.5 147h-11zM309 326q-34 -157 25 -242.5t196 -85.5q140 0 235 84.5t128 243.5q58 270 225 1065q34 156 -25 240.5t-196 84.5q-139 0 -233.5 -84.5t-126.5 -240.5q-131 -604 -228 -1065z" />
    <glyph glyph-name="R" unicode="R" horiz-adv-x="1103" 
d="M260 0h-139l366 1716h437q76 0 133 -11t96.5 -30.5t64.5 -51.5t37 -69t13 -88.5t-6 -104t-21 -120.5q-14 -65 -29 -116.5t-42.5 -112.5t-61.5 -105t-86.5 -81t-116.5 -54l119 -772h-143l-103 754q-36 -4 -67 -4h-291zM424 770h301q69 0 128.5 32t98.5 79t71.5 114
t50.5 125t32 123q12 54 18 101t8 101.5t-9.5 97t-33 78.5t-64 55.5t-101.5 19.5h-303z" />
    <glyph glyph-name="S" unicode="S" horiz-adv-x="1040" 
d="M516 -23q-198 0 -293 109t-53 307l27 121h137q0 -2 -4.5 -20t-11 -49.5t-13.5 -67.5q-33 -168 23 -273.5t190 -105.5q150 0 244.5 103t132.5 274q16 69 9 128t-32 102.5t-62.5 83.5t-83 71.5t-92.5 67t-91.5 69.5t-81 79t-60 96t-28 120t13.5 151q40 179 181.5 286.5
t340.5 107.5q194 0 277 -106t41 -308l-27 -121h-137q4 18 14.5 67.5t14.5 67.5q19 79 16 148t-23 120.5t-66 81t-114 29.5q-145 0 -239.5 -96t-130.5 -250q-12 -53 -12 -100.5t10 -86t28.5 -73t43.5 -63.5t55 -56t61.5 -51t65.5 -48q35 -25 53 -38t49.5 -38.5t47.5 -42.5
t40 -44.5t35.5 -51t24.5 -56t16 -64.5t1 -71.5t-12 -82.5q-46 -206 -181.5 -316t-344.5 -110z" />
    <glyph glyph-name="T" unicode="T" horiz-adv-x="1050" 
d="M412 1671l10 45h942l-10 -45l-402 25l-360 -1696h-139l360 1696z" />
    <glyph glyph-name="U" unicode="U" horiz-adv-x="1040" 
d="M524 -23q-216 0 -298 85t-38 298l289 1356h137l-288 -1362q-37 -178 8 -267t201 -89q196 0 302 87.5t146 276.5l262 1354h47l-288 -1356q-43 -201 -156.5 -292t-323.5 -91z" />
    <glyph glyph-name="V" unicode="V" horiz-adv-x="1079" 
d="M422 1716h141l15 -1622l763 1622h45l-833 -1716h-102z" />
    <glyph glyph-name="W" unicode="W" horiz-adv-x="1765" 
d="M401 1716h142l-8 -1648l679 1648h109l-23 -1648l746 1648h47l-803 -1716h-127l15 1503l-652 -1503h-120z" />
    <glyph glyph-name="X" unicode="X" horiz-adv-x="1128" 
d="M76 0l622 827l-229 889h145l199 -751l533 751h47l-574 -776l244 -940h-148l-210 803l-580 -803h-49z" />
    <glyph glyph-name="Y" unicode="Y" horiz-adv-x="1130" 
d="M668 745l-254 973h151l240 -923l594 923h49l-637 -950l-164 -768h-137z" />
    <glyph glyph-name="Z" unicode="Z" horiz-adv-x="960" 
d="M874 0h-788l4 20l1004 1676l-588 -27l10 47h723l-4 -20l-1004 -1676l652 25z" />
    <glyph glyph-name="bracketleft" unicode="[" horiz-adv-x="530" 
d="M135 0l371 1737h313l-4 -23h-231l-359 -1691h230l-4 -23h-316z" />
    <glyph glyph-name="backslash" unicode="\" horiz-adv-x="741" 
d="M418 1733h92l184 -1749h-92z" />
    <glyph glyph-name="bracketright" unicode="]" horiz-adv-x="591" 
d="M731 1716h-231l6 21h313l-368 -1737h-316l6 23h230z" />
    <glyph glyph-name="asciicircum" unicode="^" horiz-adv-x="917" 
d="M403 1167l400 549h31l167 -549h-22l-188 420l-367 -420h-21z" />
    <glyph glyph-name="underscore" unicode="_" horiz-adv-x="1077" 
d="M899 0l-10 -49h-721l10 49h721z" />
    <glyph glyph-name="grave" unicode="`" horiz-adv-x="567" 
d="M827 1817l-247 294h125l159 -294h-37z" />
    <glyph glyph-name="a" unicode="a" 
d="M109 0h-48l773 1630h127l43 -1630h-148l-8 449l-529 12zM330 481l518 11l-21 1075z" />
    <glyph glyph-name="b" unicode="b" horiz-adv-x="1101" 
d="M121 0l348 1630h467q284 0 326 -180q20 -81 -4 -190t-80 -191q-74 -111 -199 -158q122 -37 149 -168q20 -94 -12 -253.5t-88 -262.5q-65 -119 -179 -173t-308 -54h-420zM274 20h279q239 -3 340 207q47 103 80.5 264.5t23.5 251.5q-16 160 -225 160h-311zM465 922h326
q177 0 258 147q43 78 68.5 191.5t15.5 189.5q-20 162 -234 162h-287z" />
    <glyph glyph-name="c" unicode="c" horiz-adv-x="1028" 
d="M530 -20q-58 0 -104.5 4.5t-89.5 15t-73.5 28t-55.5 43.5t-35 61.5t-12.5 82t12.5 104.5q41 193 70.5 334t56.5 267.5t84 390.5q17 79 50 138.5t77.5 98t104.5 61.5t125.5 32.5t146.5 9.5q210 0 284 -89.5t33 -287.5l-28 -133l-138 2q2 14 12.5 60.5t12.5 60.5
q8 38 13 62t10 59t5 57t-3 50.5t-12 46.5t-24.5 37t-38.5 29.5t-55.5 17.5t-74.5 7q-153 0 -240.5 -77t-120.5 -232q-118 -559 -215 -1012q-33 -155 21.5 -233t206.5 -78q53 0 96 11.5t73.5 28.5t56 47.5t40.5 57t29.5 70t21.5 73t18 79.5q3 13 13.5 60.5t13.5 61.5h137
l-26 -131q-43 -198 -155.5 -287t-322.5 -89z" />
    <glyph glyph-name="d" unicode="d" horiz-adv-x="1069" 
d="M121 0l348 1630h455q198 0 272 -108.5t33 -302.5l-170 -805q-41 -194 -162 -304t-319 -110h-457zM268 20h305q261 0 338 353q10 49 91.5 431.5t95.5 446.5q15 73 15.5 132.5t-16 113.5t-63.5 84.5t-123 30.5h-305z" />
    <glyph glyph-name="e" unicode="e" horiz-adv-x="944" 
d="M846 0h-725l348 1630h725l-10 -43l-580 25l-160 -750l463 10l-8 -41l-459 11l-176 -822l592 23z" />
    <glyph glyph-name="f" unicode="f" horiz-adv-x="935" 
d="M121 0l348 1630h754l-9 -43l-610 25l-153 -727l489 12l-8 -41l-486 10l-184 -866h-141z" />
    <glyph glyph-name="g" unicode="g" horiz-adv-x="1069" 
d="M547 -20q-58 0 -105.5 4.5t-92 15t-77 28t-59 43.5t-38 61.5t-15 82t11.5 104.5q41 193 70.5 334t56.5 267.5t84 390.5q17 79 51.5 139t80.5 97.5t109 61t129.5 33t147.5 9.5q213 0 295 -92t41 -285l-25 -123l-139 2q22 91 25 111q14 68 19.5 114.5t0 98t-28 82.5
t-70.5 51t-122 20q-162 0 -251.5 -74.5t-123.5 -234.5q-71 -329 -120.5 -564t-96.5 -456q-34 -159 25.5 -231t218.5 -72q54 0 99.5 11t78 28.5t59.5 47t44.5 58.5t33 71t24.5 76.5t19 82.5q3 11 39 180.5t45 214.5l-332 -25l9 43h467l-93 -430q-41 -195 -162 -285.5
t-333 -90.5z" />
    <glyph glyph-name="h" unicode="h" horiz-adv-x="1134" 
d="M121 0l348 1630h137l-174 -817l623 10l172 807h139l-346 -1630h-141l168 782l-619 11l-168 -793h-139z" />
    <glyph glyph-name="i" unicode="i" horiz-adv-x="438" 
d="M152 0l348 1630h139l-346 -1630h-141z" />
    <glyph glyph-name="j" unicode="j" horiz-adv-x="968" 
d="M438 -20q-209 0 -277 87.5t-26 288.5l29 131h137q-2 -14 -12.5 -61.5t-12.5 -60.5q-33 -148 -32 -205q1 -122 108 -152q38 -10 90 -10q150 0 229 76.5t113 234.5q178 831 277 1301l-346 -23l10 43h479q-71 -336 -150 -709t-128 -602q-17 -80 -48.5 -139.5t-73.5 -97.5
t-100 -61t-121.5 -32t-144.5 -9z" />
    <glyph glyph-name="k" unicode="k" horiz-adv-x="1075" 
d="M121 0l348 1630h139l-174 -819l836 819h53l-709 -661l402 -969h-152l-364 850l-72 -70l-166 -780h-141z" />
    <glyph glyph-name="l" unicode="l" horiz-adv-x="782" 
d="M266 20l471 23l-10 -43h-606l348 1630h139z" />
    <glyph glyph-name="m" unicode="m" horiz-adv-x="1505" 
d="M119 0l348 1630h143l170 -1546l809 1546h144l-347 -1630h-139l320 1507l-807 -1507h-115l-172 1571l-307 -1571h-47z" />
    <glyph glyph-name="n" unicode="n" horiz-adv-x="1093" 
d="M119 0l348 1630h131l381 -1513l295 1513h47l-346 -1630h-113l-391 1559l-305 -1559h-47z" />
    <glyph glyph-name="o" unicode="o" horiz-adv-x="1021" 
d="M506 -20q-74 0 -131 10.5t-105 34t-73.5 62.5t-35.5 96.5t9 135.5q41 193 70.5 334t56.5 267.5t84 390.5q72 340 481 340q73 0 130.5 -10.5t105.5 -35t74 -63.5t36 -96.5t-8 -134.5q-69 -325 -116.5 -549t-94.5 -443q-20 -95 -64.5 -162.5t-109.5 -105t-140 -54.5
t-169 -17zM305 309q-33 -152 18.5 -231.5t186.5 -79.5q273 0 338 311q97 453 215 1012q33 151 -18.5 230t-186.5 79t-220 -79t-118 -230q-118 -559 -215 -1012z" />
    <glyph glyph-name="p" unicode="p" 
d="M260 0h-139l348 1630h451q125 0 202 -31t109 -90t33.5 -146t-23.5 -198q-20 -93 -44 -161.5t-64 -130.5t-94.5 -101t-134 -61.5t-183.5 -22.5h-313zM412 707h315q69 0 127.5 30t97.5 75.5t70.5 110t49.5 122t32 122.5q14 63 20 119.5t0.5 118t-25.5 105.5t-65.5 73
t-113.5 29h-316z" />
    <glyph glyph-name="q" unicode="q" horiz-adv-x="1062" 
d="M526 -20q-74 0 -133 10.5t-110 34t-79.5 62.5t-40.5 96.5t7 135.5q41 193 70.5 334t56.5 267.5t84 390.5q20 94 67.5 161.5t116.5 105.5t147 55.5t171 17.5t163.5 -17.5t123 -55.5t71.5 -105.5t0 -161.5q-69 -325 -116.5 -549t-94.5 -443q-19 -90 -63.5 -156
t-108.5 -104.5t-137 -57.5t-160 -21q35 -84 260 -84h119l-25 -115h-96q-122 0 -195.5 58t-84.5 141h-13zM305 309q-32 -150 27.5 -230.5t197.5 -80.5q140 0 233.5 79.5t125.5 231.5q97 453 215 1012q32 148 -27.5 228.5t-197.5 80.5t-232.5 -80.5t-126.5 -228.5
q-118 -559 -215 -1012z" />
    <glyph glyph-name="r" unicode="r" horiz-adv-x="1103" 
d="M260 0h-139l348 1630h436q169 0 251.5 -48.5t94.5 -149t-22 -254.5q-14 -63 -29.5 -113t-42.5 -106.5t-60.5 -97.5t-85 -76t-114.5 -52l127 -733h-143l-111 717q-40 -4 -68 -4h-290zM604 1612l-188 -881h301q68 0 126 29.5t97 74t70.5 107t49.5 118.5t32 120
q91 432 -187 432h-301z" />
    <glyph glyph-name="s" unicode="s" horiz-adv-x="1040" 
d="M516 -23q-198 0 -294 104t-56 292l24 114h140q-12 -47 -29 -129q-31 -160 26 -260t191 -100q150 0 243.5 98t129.5 260q15 66 7.5 122t-33 97t-63.5 79.5t-83.5 68t-93 63.5t-92.5 66t-82 75t-61 91.5t-29.5 114t12.5 143.5q38 170 179 272.5t339 102.5q194 0 278 -101
t43 -293l-24 -116h-137q3 17 13 65.5t13 65.5q18 75 14.5 140t-23.5 113.5t-66.5 76.5t-114.5 28q-145 0 -239.5 -92t-127.5 -238q-10 -44 -11.5 -84t6 -73.5t21 -63.5t33.5 -56t43 -49t51 -44.5t55.5 -41t58.5 -40.5q35 -23 53 -35.5t50 -36.5t48.5 -40.5t40.5 -42.5
t36 -48.5t25 -53t16.5 -61t2 -68.5t-10.5 -79q-44 -197 -178.5 -301.5t-343.5 -104.5z" />
    <glyph glyph-name="t" unicode="t" horiz-adv-x="1050" 
d="M393 1587l10 43h943l-11 -43l-401 25l-342 -1612h-139l342 1612z" />
    <glyph glyph-name="u" unicode="u" horiz-adv-x="1040" 
d="M524 -20q-71 0 -125 7.5t-99 24.5t-72 44.5t-43.5 67.5t-15 94t14.5 124l275 1288h137l-274 -1294q-36 -169 10.5 -253.5t202.5 -84.5q194 0 299 82.5t145 265.5l248 1284h47l-275 -1288q-45 -195 -156 -278.5t-319 -83.5z" />
    <glyph glyph-name="v" unicode="v" horiz-adv-x="1079" 
d="M451 0l-48 1630h142l33 -1540l745 1540h45l-815 -1630h-102z" />
    <glyph glyph-name="w" unicode="w" horiz-adv-x="1765" 
d="M383 1630h141l8 -1567l664 1567h109l-7 -1567l730 1567h47l-785 -1630h-127v1430l-637 -1430h-120z" />
    <glyph glyph-name="x" unicode="x" horiz-adv-x="1128" 
d="M76 0l612 786l-237 844h145l207 -715l524 715h47l-565 -737l254 -893h-148l-219 762l-571 -762h-49z" />
    <glyph glyph-name="y" unicode="y" horiz-adv-x="1130" 
d="M662 709l-267 921h152l248 -874l585 874h50l-627 -901l-156 -729h-137z" />
    <glyph glyph-name="z" unicode="z" horiz-adv-x="960" 
d="M874 0h-788l4 18l985 1594l-588 -25l11 43h723l-4 -18l-986 -1594l652 25z" />
    <glyph glyph-name="braceleft" unicode="{" horiz-adv-x="708" 
d="M356 -94q-76 0 -98.5 30.5t-5.5 114.5l108 500q10 46 10.5 80t-6.5 59t-26 46t-42.5 36.5t-62.5 34.5l11 51q80 33 121.5 60.5t70.5 73.5t45 122l105 500q17 82 52.5 112.5t111.5 30.5h260l-9 -39h-294q-8 -18 -142 -649q-31 -153 -254 -238q92 -40 132 -96.5t22 -138.5
q-1 -4 -39 -179.5t-67 -316t-27 -153.5h293l-9 -41h-260z" />
    <glyph glyph-name="bar" unicode="|" horiz-adv-x="669" 
d="M268 -117l416 1954h84l-416 -1954h-84z" />
    <glyph glyph-name="braceright" unicode="}" horiz-adv-x="708" 
d="M43 -94l8 41h293q10 19 68.5 295t72.5 354q34 154 256 235q-92 42 -132 99t-23 139q3 12 19.5 88t35 161.5t37.5 175.5t31.5 152.5t11.5 71.5h-293l8 39h260q75 0 98 -30.5t5 -112.5l-107 -500q-11 -46 -11.5 -80t6 -59t26 -46t43.5 -36.5t63 -34.5l-12 -51
q-117 -48 -164.5 -97t-71.5 -159l-104 -500q-17 -83 -53.5 -114t-112.5 -31h-258z" />
    <glyph glyph-name="asciitilde" unicode="~" horiz-adv-x="872" 
d="M297 649h-35q22 72 72 113t121 41q61 0 112.5 -20.5t96 -41t86.5 -20.5q43 0 79.5 21.5t53.5 56.5h35q-21 -72 -71.5 -114t-121.5 -42q-60 0 -111.5 21t-96.5 42t-87 21t-78 -21t-55 -57z" />
    <glyph glyph-name="exclamdown" unicode="&#xa1;" horiz-adv-x="458" 
d="M156 0l360 1423h31l-244 -1423h-147zM473 1610l25 108h190l-22 -108h-193z" />
    <glyph glyph-name="cent" unicode="&#xa2;" horiz-adv-x="1028" 
d="M494 -20q-75 2 -131 13t-102 35t-68.5 62t-31 95t10.5 134q41 193 70.5 334t56.5 267.5t84 390.5q38 182 154.5 257.5t310.5 80.5l39 176h78l-37 -176q189 -6 252.5 -96t23.5 -279l-28 -133l-138 2q2 14 12.5 60.5t12.5 60.5q8 38 13 62t10 59t5 57t-3 50.5t-12 46.5
t-24.5 37t-38.5 29.5t-55.5 17.5t-74.5 7q-153 0 -240.5 -77t-120.5 -232q-118 -559 -215 -1012q-33 -155 21.5 -233t206.5 -78q53 0 96 11.5t73.5 28.5t56 47.5t40.5 57t29.5 70t21.5 73t18 79.5q3 13 13.5 60.5t13.5 61.5h137l-26 -131q-40 -190 -142 -279.5t-293 -96.5
l-36 -177h-80z" />
    <glyph glyph-name="yen" unicode="&#xa5;" horiz-adv-x="1130" 
d="M319 502l9 43h299l39 192l-297 -2l10 43h283l-248 940h151l240 -923l594 923h49l-631 -940h297l-10 -43h-299l-41 -190h299l-8 -43h-301l-107 -502h-137l106 502h-297z" />
    <glyph glyph-name="dieresis" unicode="&#xa8;" horiz-adv-x="690" 
d="M657 1817h-180l17 81h180zM985 1817h-180l18 79h181z" />
    <glyph glyph-name="copyright" unicode="&#xa9;" horiz-adv-x="1816" 
d="M903 -23q-232 0 -393 107t-223.5 297.5t-12.5 431.5q51 241 194.5 432t351 298.5t440.5 107.5t394 -107.5t222 -299t10 -433.5q-38 -179 -131 -334.5t-222.5 -265t-293 -172t-336.5 -62.5zM401 813q-23 -110 -24 -214t20 -194.5t64.5 -166t106.5 -129t149.5 -83.5
t189.5 -30q154 0 297.5 65.5t253 177.5t189 260t114.5 314q25 134 23 255t-40.5 224.5t-102.5 179t-163.5 118t-222.5 42.5q-154 0 -297.5 -66t-253 -178t-189 -260.5t-114.5 -314.5zM965 182q-156 0 -231.5 58t-45.5 198q49 233 156 733q16 72 51.5 123t88 79t112.5 40
t135 12q156 0 216.5 -68t29.5 -214l-21 -96h-115q2 10 9.5 45t9.5 45q8 35 12.5 58.5t7 54.5t-0.5 51t-12 42t-26.5 35t-46 21t-67.5 8q-112 0 -175.5 -52t-88.5 -165q-37 -174 -64 -299.5t-45.5 -212t-54.5 -258.5q-23 -113 17.5 -166t152.5 -53q54 0 95 16.5t65 39t43 63
t27.5 71.5t19.5 82q2 8 5.5 25t7.5 38t5 27h115l-21 -98q-31 -144 -120.5 -213.5t-245.5 -69.5z" />
    <glyph glyph-name="guillemotleft" unicode="&#xab;" horiz-adv-x="1118" 
d="M672 809l545 283l-5 -21l-428 -278l312 -277l-6 -22l-424 284zM313 809l545 283l-4 -21l-428 -278l311 -277l-6 -22l-424 284z" />
    <glyph glyph-name="acute" unicode="&#xb4;" horiz-adv-x="528" 
d="M512 1817h-35l283 294h127z" />
    <glyph glyph-name="cedilla" unicode="&#xb8;" horiz-adv-x="534" 
d="M410 0h34l-221 -295h-127z" />
    <glyph glyph-name="guillemotright" unicode="&#xbb;" horiz-adv-x="1118" 
d="M604 494l6 22l428 277l-311 278l4 21l426 -283l-6 -31zM246 494l6 22l428 277l-311 278l4 21l426 -283l-6 -31z" />
    <glyph glyph-name="questiondown" unicode="&#xbf;" horiz-adv-x="987" 
d="M176 133q-39 80 -20 205q8 52 27.5 112.5t43.5 100.5q27 66 88 127q44 44 112 93.5t124 89t112.5 88.5t96.5 114.5t57 144.5q3 17 19 90.5t20 90.5h51q-2 -8 -21.5 -100.5t-21.5 -100.5q-21 -98 -68.5 -174.5t-106.5 -129.5t-119.5 -99.5t-120 -109t-93.5 -134.5
q-45 -92 -61 -203q-16 -105 10 -184q45 -154 205 -154q125 0 219.5 92.5t122.5 220.5l47 217h133l-39 -182q-36 -167 -174 -267.5t-311 -100.5q-269 0 -332 153zM831 1610l23 106h190l-22 -106h-191z" />
    <glyph glyph-name="Agrave" unicode="&#xc0;" 
d="M109 0h-48l791 1716h127l25 -1716h-148l-2 473l-528 12zM334 506l520 12l-8 1131zM1069 1868l-250 295h127l158 -295h-35z" />
    <glyph glyph-name="Aacute" unicode="&#xc1;" 
d="M109 0h-48l791 1716h127l25 -1716h-148l-2 473l-528 12zM846 1649l-512 -1143l520 12zM793 1872h-35l282 295h127z" />
    <glyph glyph-name="Acircumflex" unicode="&#xc2;" 
d="M109 0h-48l791 1716h127l25 -1716h-148l-2 473l-528 12zM846 1649l-512 -1143l520 12zM668 1876l278 295h96l154 -295h-37l-178 235l-279 -235h-34z" />
    <glyph glyph-name="Atilde" unicode="&#xc3;" 
d="M61 0l791 1716h127l25 -1716h-148l-2 473l-528 12l-217 -485h-48zM846 1649l-512 -1143l520 12zM717 1872h-35q20 71 64.5 113.5t99.5 42.5q37 0 70 -13t53 -29t47 -29t53 -13q34 0 64 21t45 56h34q-21 -70 -65 -111.5t-100 -41.5q-46 0 -85 20.5t-72.5 41t-66.5 20.5
q-34 0 -62.5 -21.5t-43.5 -56.5z" />
    <glyph glyph-name="Adieresis" unicode="&#xc4;" 
d="M109 0h-48l791 1716h127l25 -1716h-148l-2 473l-528 12zM846 1649l-512 -1143l520 12zM1004 1868l18 80h180l-18 -80h-180zM856 1868h-180l16 80h180z" />
    <glyph glyph-name="Aring" unicode="&#xc5;" 
d="M109 0h-48l791 1716h127l25 -1716h-148l-2 473l-528 12zM334 506l520 12l-8 1131zM930 1868q-84 0 -126.5 49t-27.5 125q17 77 81.5 126.5t148.5 49.5q83 0 125.5 -49.5t25.5 -126.5q-17 -76 -80 -125t-147 -49zM852 2042q-14 -62 8 -105t76 -43q53 0 94 43t53 105
q12 64 -10 106.5t-74 42.5q-53 0 -94 -43t-53 -106z" />
    <glyph glyph-name="Ccedilla" unicode="&#xc7;" horiz-adv-x="1028" 
d="M516 -23q-66 1 -117 8t-96.5 23.5t-74 43.5t-48 66.5t-19 93.5t12.5 124q111 520 223 1044q18 84 52 146.5t78.5 102.5t105 64.5t126 34t146.5 9.5q211 0 284 -94t30 -304l-31 -137h-137q3 14 13 64l13 65q9 39 14 65t10 62t5.5 60t-2.5 53.5t-12 48.5t-24 39t-38 31.5
t-55.5 18.5t-73.5 7q-153 0 -240.5 -81t-121.5 -244q-131 -604 -228 -1065q-35 -165 17.5 -246.5t206.5 -81.5q53 0 96 12t74 29.5t56.5 49.5t41 60t30.5 74t22.5 78t18.5 84q3 14 14.5 63.5t14.5 63.5l137 2l-28 -139q-43 -203 -150.5 -298.5t-306.5 -99.5l-221 -296h-127z
" />
    <glyph glyph-name="Egrave" unicode="&#xc8;" horiz-adv-x="944" 
d="M121 0l366 1716h723l-8 -45l-581 25l-168 -789l465 11l-11 -44l-458 13l-185 -867l592 27l-10 -47h-725zM1008 1872l-250 295h127l157 -295h-34z" />
    <glyph glyph-name="Eacute" unicode="&#xc9;" horiz-adv-x="944" 
d="M121 0l366 1716h723l-8 -45l-581 25l-168 -789l465 11l-11 -44l-458 13l-185 -867l592 27l-10 -47h-725zM731 1870h-35l283 295h127z" />
    <glyph glyph-name="Ecircumflex" unicode="&#xca;" horiz-adv-x="944" 
d="M846 0h-725l366 1716h723l-8 -45l-581 25l-168 -789l465 11l-11 -44l-458 13l-185 -867l592 27zM606 1872l279 295h96l152 -295h-35l-178 235l-279 -235h-35z" />
    <glyph glyph-name="Edieresis" unicode="&#xcb;" horiz-adv-x="944" 
d="M846 0h-725l366 1716h723l-8 -45l-581 25l-168 -789l465 11l-11 -44l-458 13l-185 -867l592 27zM616 1874l17 80h180l-18 -80h-179zM961 1954h180l-17 -82h-180z" />
    <glyph glyph-name="Igrave" unicode="&#xcc;" horiz-adv-x="438" 
d="M152 0l366 1716h139l-364 -1716h-141zM754 1868l-248 295h127l158 -295h-37z" />
    <glyph glyph-name="Iacute" unicode="&#xcd;" horiz-adv-x="438" 
d="M152 0l366 1716h139l-364 -1716h-141zM477 1866h-35l283 295h127z" />
    <glyph glyph-name="Icircumflex" unicode="&#xce;" horiz-adv-x="438" 
d="M293 0h-141l366 1716h139zM389 1872h-35l279 295h94l154 -295h-35l-178 235z" />
    <glyph glyph-name="Idieresis" unicode="&#xcf;" horiz-adv-x="438" 
d="M152 0l366 1716h139l-364 -1716h-141zM543 1872h-181l19 80h178zM872 1872h-180l17 80h180z" />
    <glyph glyph-name="Eth" unicode="&#xd0;" horiz-adv-x="1069" 
d="M121 0l168 784h-158l14 68h158l184 864h455q198 0 271 -115t30 -319l-180 -848q-43 -204 -165 -319t-320 -115h-457zM430 784l-162 -764h305q260 0 342 371q6 34 51 244.5t94 439t52 244.5q79 379 -184 379h-303l-181 -846h254l-14 -68h-254z" />
    <glyph glyph-name="Ntilde" unicode="&#xd1;" horiz-adv-x="1093" 
d="M119 0l366 1716h131l365 -1593l311 1593h47l-364 -1716h-113l-373 1640l-323 -1640h-47zM696 1874q20 70 64.5 112t99.5 42q37 0 70 -13t53.5 -28t47.5 -28t54 -13q34 0 63 21t44 56h35q-20 -71 -64.5 -113t-101.5 -42q-46 0 -85 21t-72 42t-66 21t-62.5 -22t-44.5 -56
h-35z" />
    <glyph glyph-name="Ograve" unicode="&#xd2;" horiz-adv-x="1021" 
d="M506 -23q-73 0 -130.5 11t-105.5 37t-73.5 67.5t-34.5 102t10 141.5q111 520 223 1044q75 357 486 357q192 0 282.5 -83t50.5 -274q-174 -822 -221 -1044q-78 -359 -487 -359zM309 326q-34 -160 16 -244t185 -84q273 0 342 328q58 270 225 1065q34 159 -15.5 242
t-184.5 83q-136 0 -221.5 -83t-118.5 -242q-131 -604 -228 -1065zM1047 1868l-250 295h127l157 -295h-34z" />
    <glyph glyph-name="Oacute" unicode="&#xd3;" horiz-adv-x="1021" 
d="M506 -23q-73 0 -130.5 11t-105.5 37t-73.5 67.5t-34.5 102t10 141.5q111 520 223 1044q75 357 486 357q192 0 282.5 -83t50.5 -274q-174 -822 -221 -1044q-78 -359 -487 -359zM309 326q-34 -160 16 -244t185 -84q273 0 342 328q58 270 225 1065q34 159 -15.5 242
t-184.5 83q-136 0 -221.5 -83t-118.5 -242q-131 -604 -228 -1065zM770 1870h-35l283 295h127z" />
    <glyph glyph-name="Ocircumflex" unicode="&#xd4;" horiz-adv-x="1021" 
d="M506 -23q-73 0 -130.5 11t-105.5 37t-73.5 67.5t-34.5 102t10 141.5q111 520 223 1044q75 357 486 357q192 0 282.5 -83t50.5 -274q-174 -822 -221 -1044q-78 -359 -487 -359zM309 326q-34 -160 16 -244t185 -84q273 0 342 328q58 270 225 1065q34 159 -15.5 242
t-184.5 83q-136 0 -221.5 -83t-118.5 -242q-131 -604 -228 -1065zM680 1870h-35l279 295h96l154 -295h-37l-179 235z" />
    <glyph glyph-name="Otilde" unicode="&#xd5;" horiz-adv-x="1021" 
d="M506 -23q-73 0 -130.5 11t-105.5 37t-73.5 67.5t-34.5 102t10 141.5q111 520 223 1044q75 357 486 357q192 0 282.5 -83t50.5 -274q-174 -822 -221 -1044q-78 -359 -487 -359zM309 326q-34 -160 16 -244t185 -84q273 0 342 328q58 270 225 1065q34 159 -15.5 242
t-184.5 83q-136 0 -221.5 -83t-118.5 -242q-131 -604 -228 -1065zM694 1868h-35q20 71 64.5 113t99.5 42q47 0 86 -21t73 -42t67 -21q34 0 62.5 21.5t43.5 56.5h35q-20 -70 -65 -111.5t-101 -41.5q-46 0 -85 20.5t-72 41t-66 20.5q-34 0 -63 -21.5t-44 -56.5z" />
    <glyph glyph-name="Odieresis" unicode="&#xd6;" horiz-adv-x="1021" 
d="M506 -23q-73 0 -130.5 11t-105.5 37t-73.5 67.5t-34.5 102t10 141.5q111 520 223 1044q75 357 486 357q192 0 282.5 -83t50.5 -274q-174 -822 -221 -1044q-78 -359 -487 -359zM309 326q-34 -160 16 -244t185 -84q273 0 342 328q58 270 225 1065q34 159 -15.5 242
t-184.5 83q-136 0 -221.5 -83t-118.5 -242q-131 -604 -228 -1065zM655 1870l17 80h180l-18 -80h-179zM983 1870l16 80h181l-17 -80h-180z" />
    <glyph glyph-name="Ugrave" unicode="&#xd9;" horiz-adv-x="1040" 
d="M524 -23q-216 0 -298 85t-38 298l289 1356h137l-288 -1362q-37 -178 8 -267t201 -89q196 0 302 87.5t146 276.5l262 1354h47l-288 -1356q-43 -201 -156.5 -292t-323.5 -91zM1057 1874l-250 295h127l158 -295h-35z" />
    <glyph glyph-name="Uacute" unicode="&#xda;" horiz-adv-x="1040" 
d="M524 -23q-216 0 -298 85t-38 298l289 1356h137l-288 -1362q-37 -178 8 -267t201 -89q195 0 301.5 88.5t146.5 275.5l262 1354h47l-288 -1356q-5 -22 -29 -102q-55 -148 -162.5 -214.5t-288.5 -66.5zM846 1870l284 295h127l-374 -295h-37z" />
    <glyph glyph-name="Ucircumflex" unicode="&#xdb;" horiz-adv-x="1040" 
d="M524 -23q-216 0 -298 85t-38 298l289 1356h137l-288 -1362q-37 -178 8 -267t201 -89q195 0 301.5 88.5t146.5 275.5l262 1354h47l-288 -1356q-5 -22 -29 -102q-55 -148 -162.5 -214.5t-288.5 -66.5zM690 1874h-35l279 295h96l152 -295h-35l-178 235z" />
    <glyph glyph-name="Udieresis" unicode="&#xdc;" horiz-adv-x="1040" 
d="M524 -23q-216 0 -298 85t-38 298l289 1356h137l-288 -1362q-37 -178 8 -267t201 -89q195 0 301.5 88.5t146.5 275.5l262 1354h47l-288 -1356q-5 -22 -29 -102q-55 -148 -162.5 -214.5t-288.5 -66.5zM844 1872h-180l16 80h180zM993 1870l17 82h180l-19 -82h-178z" />
    <glyph glyph-name="Yacute" unicode="&#xdd;" horiz-adv-x="1130" 
d="M668 745l-254 973h151l240 -923l594 923h49l-637 -950l-164 -768h-137zM870 1866l285 295h127l-375 -295h-37z" />
    <glyph glyph-name="germandbls" unicode="&#xdf;" horiz-adv-x="1032" 
d="M94 0q24 119 141 671.5t138 655.5q87 410 491 410q68 0 123 -10t103 -33t74.5 -60.5t38 -92.5t-6.5 -130q-81 -380 -629 -493q49 -15 89 -29.5t90 -36.5t86 -44.5t77.5 -54t63.5 -65t44 -78t20 -92.5t-9 -108q-87 -413 -522 -410h-412zM238 20h219q90 0 165.5 33.5
t128 92.5t88 131.5t52.5 156.5q20 91 -5 168.5t-90.5 135t-107 84.5t-110.5 63q-27 14 -37 20l6 27q16 8 72.5 32t98.5 44t103 61.5t104.5 89t84 122.5t59.5 165q27 127 -20 198.5t-179 71.5q-119 0 -215.5 -88.5t-134.5 -263.5q-12 -55 -141.5 -672.5t-140.5 -671.5z" />
    <glyph glyph-name="agrave" unicode="&#xe0;" 
d="M109 0h-48l773 1630h127l43 -1630h-148l-8 449l-529 12zM330 481l518 11l-21 1075zM1051 1784l-250 295h127l157 -295h-34z" />
    <glyph glyph-name="aacute" unicode="&#xe1;" 
d="M109 0h-48l773 1630h127l43 -1630h-148l-8 449l-529 12zM827 1567l-497 -1086l518 11zM774 1784h-35l283 295h127z" />
    <glyph glyph-name="acircumflex" unicode="&#xe2;" 
d="M109 0h-48l773 1630h127l43 -1630h-148l-8 449l-529 12zM827 1567l-497 -1086l518 11zM647 1784l279 295h96l154 -295h-35l-178 233l-279 -233h-37z" />
    <glyph glyph-name="atilde" unicode="&#xe3;" 
d="M61 0l773 1630h127l43 -1630h-148l-8 449l-529 12l-210 -461h-48zM827 1567l-497 -1086l518 11zM696 1776h-34q20 71 64 113t99 42q47 0 86 -21t72.5 -42t65.5 -21q34 0 63.5 21.5t44.5 56.5h35q-20 -70 -65 -111.5t-101 -41.5q-37 0 -69.5 12.5t-53 28t-47.5 28
t-53 12.5q-34 0 -63 -21t-44 -56z" />
    <glyph glyph-name="adieresis" unicode="&#xe4;" 
d="M109 0h-48l773 1630h127l43 -1630h-148l-8 449l-529 12zM827 1567l-497 -1086l518 11zM666 1817l16 81h180l-18 -81h-178zM993 1817l17 79h180l-16 -79h-181z" />
    <glyph glyph-name="aring" unicode="&#xe5;" 
d="M109 0h-48l773 1630h127l43 -1630h-148l-8 449l-529 12zM330 481l518 11l-21 1075zM909 1772q-84 0 -126 49.5t-25 126.5q15 75 79 124.5t148 49.5q83 0 126 -49.5t26 -124.5q-15 -77 -79 -126.5t-149 -49.5zM831 1948q-14 -64 8 -107t76 -43q52 0 94 44t54 106
t-10 104.5t-74 42.5q-53 0 -94.5 -42.5t-53.5 -104.5z" />
    <glyph glyph-name="ccedilla" unicode="&#xe7;" horiz-adv-x="1028" 
d="M514 -20q-56 0 -101 5t-86 16.5t-71 29t-52 44t-33 61.5t-11 81t12 102q41 193 70.5 334t56.5 267.5t84 390.5q17 79 50 138.5t77.5 98t104.5 61.5t125.5 32.5t146.5 9.5q210 0 284 -89.5t33 -287.5l-28 -133l-138 2q2 14 12.5 60.5t12.5 60.5q8 38 13 62t10 59t5 57
t-3 50.5t-12 46.5t-24.5 37t-38.5 29.5t-55.5 17.5t-74.5 7q-153 0 -240.5 -77t-120.5 -232q-118 -559 -215 -1012q-33 -155 21.5 -233t206.5 -78q53 0 96 11.5t73.5 28.5t56 47.5t40.5 57t29.5 70t21.5 73t18 79.5q3 13 13.5 60.5t13.5 61.5h137l-26 -131
q-42 -194 -149 -283.5t-306 -92.5l-215 -287h-127z" />
    <glyph glyph-name="egrave" unicode="&#xe8;" horiz-adv-x="944" 
d="M121 0l348 1630h725l-10 -43l-580 25l-160 -750l463 10l-8 -41l-459 11l-176 -822l592 23l-10 -43h-725zM989 1786l-250 295h127l158 -295h-35z" />
    <glyph glyph-name="eacute" unicode="&#xe9;" horiz-adv-x="944" 
d="M121 0l348 1630h725l-10 -43l-580 25l-160 -750l463 10l-8 -41l-459 11l-176 -822l592 23l-10 -43h-725zM719 1808h-37l285 297h127z" />
    <glyph glyph-name="ecircumflex" unicode="&#xea;" horiz-adv-x="944" 
d="M121 0l348 1630h725l-10 -43l-580 25l-160 -750l463 10l-8 -41l-459 11l-176 -822l592 23l-10 -43h-725zM623 1780h-37l278 295h97l153 -295h-37l-178 233z" />
    <glyph glyph-name="edieresis" unicode="&#xeb;" horiz-adv-x="944" 
d="M846 0h-725l348 1630h725l-10 -43l-580 25l-160 -750l463 10l-8 -41l-459 11l-176 -822l592 23zM942 1868h180l-16 -82h-180zM598 1786l16 82h181l-19 -82h-178z" />
    <glyph glyph-name="igrave" unicode="&#xec;" horiz-adv-x="438" 
d="M152 0l348 1630h139l-346 -1630h-141zM737 1784l-250 295h127l158 -295h-35z" />
    <glyph glyph-name="iacute" unicode="&#xed;" horiz-adv-x="438" 
d="M152 0l348 1630h139l-346 -1630h-141zM461 1784h-37l285 295h127z" />
    <glyph glyph-name="icircumflex" unicode="&#xee;" horiz-adv-x="438" 
d="M152 0l348 1630h139l-346 -1630h-141zM369 1778h-35l278 295h97l151 -295h-35l-178 235z" />
    <glyph glyph-name="idieresis" unicode="&#xef;" horiz-adv-x="438" 
d="M152 0l348 1630h139l-346 -1630h-141zM524 1780h-180l16 82h181zM852 1780h-180l18 82h178z" />
    <glyph glyph-name="ntilde" unicode="&#xf1;" horiz-adv-x="1093" 
d="M119 0l348 1630h131l381 -1513l295 1513h47l-346 -1630h-113l-391 1559l-305 -1559h-47zM680 1802q20 71 65 113.5t101 42.5q46 0 85 -21t72 -42t66 -21q34 0 63 21.5t44 56.5h36q-21 -70 -65 -112t-100 -42q-46 0 -85 20.5t-72.5 41t-66.5 20.5q-34 0 -62.5 -21.5
t-43.5 -56.5h-37z" />
    <glyph glyph-name="ograve" unicode="&#xf2;" horiz-adv-x="1021" 
d="M506 -20q-74 0 -131 10.5t-105 34t-73.5 62.5t-35.5 96.5t9 135.5q41 193 70.5 334t56.5 267.5t84 390.5q72 340 481 340q73 0 130.5 -10.5t105.5 -35t74 -63.5t36 -96.5t-8 -134.5q-69 -325 -116.5 -549t-94.5 -443q-20 -95 -64.5 -162.5t-109.5 -105t-140 -54.5
t-169 -17zM305 309q-33 -152 18.5 -231.5t186.5 -79.5q273 0 338 311q97 453 215 1012q33 151 -18.5 230t-186.5 79t-220 -79t-118 -230q-118 -559 -215 -1012zM1030 1788l-250 295h127l158 -295h-35z" />
    <glyph glyph-name="oacute" unicode="&#xf3;" horiz-adv-x="1021" 
d="M506 -20q-74 0 -131 10.5t-105 34t-73.5 62.5t-35.5 96.5t9 135.5q41 193 70.5 334t56.5 267.5t84 390.5q72 340 481 340q73 0 130.5 -10.5t105.5 -35t74 -63.5t36 -96.5t-8 -134.5q-69 -325 -116.5 -549t-94.5 -443q-20 -95 -64.5 -162.5t-109.5 -105t-140 -54.5
t-169 -17zM305 309q-33 -152 18.5 -231.5t186.5 -79.5q273 0 338 311q97 453 215 1012q33 151 -18.5 230t-186.5 79t-220 -79t-118 -230q-118 -559 -215 -1012zM758 1808h-35l283 295h127z" />
    <glyph glyph-name="ocircumflex" unicode="&#xf4;" horiz-adv-x="1021" 
d="M506 -20q-74 0 -131 10.5t-105 34t-73.5 62.5t-35.5 96.5t9 135.5q41 193 70.5 334t56.5 267.5t84 390.5q72 340 481 340q73 0 130.5 -10.5t105.5 -35t74 -63.5t36 -96.5t-8 -134.5q-69 -325 -116.5 -549t-94.5 -443q-20 -95 -64.5 -162.5t-109.5 -105t-140 -54.5
t-169 -17zM305 309q-33 -152 18.5 -231.5t186.5 -79.5q273 0 338 311q97 453 215 1012q33 151 -18.5 230t-186.5 79t-220 -79t-118 -230q-118 -559 -215 -1012zM662 1780h-35l278 295h94l154 -295h-35l-178 235z" />
    <glyph glyph-name="otilde" unicode="&#xf5;" horiz-adv-x="1021" 
d="M506 -20q-74 0 -131 10.5t-105 34t-73.5 62.5t-35.5 96.5t9 135.5q41 193 70.5 334t56.5 267.5t84 390.5q72 340 481 340q73 0 130.5 -10.5t105.5 -35t74 -63.5t36 -96.5t-8 -134.5q-69 -325 -116.5 -549t-94.5 -443q-20 -95 -64.5 -162.5t-109.5 -105t-140 -54.5
t-169 -17zM305 309q-33 -152 18.5 -231.5t186.5 -79.5q273 0 338 311q97 453 215 1012q33 151 -18.5 230t-186.5 79t-220 -79t-118 -230q-118 -559 -215 -1012zM680 1804h-35q20 71 65 113.5t101 42.5q46 0 85 -20.5t72 -41t66 -20.5q34 0 63 21.5t44 56.5h35
q-19 -71 -63 -113.5t-101 -42.5q-47 0 -86 20.5t-72.5 41t-65.5 20.5q-34 0 -63.5 -21.5t-44.5 -56.5z" />
    <glyph glyph-name="odieresis" unicode="&#xf6;" horiz-adv-x="1021" 
d="M506 -20q-74 0 -131 10.5t-105 34t-73.5 62.5t-35.5 96.5t9 135.5q41 193 70.5 334t56.5 267.5t84 390.5q72 340 481 340q73 0 130.5 -10.5t105.5 -35t74 -63.5t36 -96.5t-8 -134.5q-69 -325 -116.5 -549t-94.5 -443q-20 -95 -64.5 -162.5t-109.5 -105t-140 -54.5
t-169 -17zM305 309q-33 -152 18.5 -231.5t186.5 -79.5q273 0 338 311q97 453 215 1012q33 151 -18.5 230t-186.5 79t-220 -79t-118 -230q-118 -559 -215 -1012zM635 1780l18 82h178l-16 -82h-180zM965 1780l16 80h180l-16 -80h-180z" />
    <glyph glyph-name="ugrave" unicode="&#xf9;" horiz-adv-x="1040" 
d="M524 -20q-71 0 -125 7.5t-99 24.5t-72 44.5t-43.5 67.5t-15 94t14.5 124l275 1288h137l-274 -1294q-36 -169 10.5 -253.5t202.5 -84.5q194 0 299 82.5t145 265.5l248 1284h47l-275 -1288q-45 -195 -156 -278.5t-319 -83.5zM788 2075h125l160 -295h-37z" />
    <glyph glyph-name="uacute" unicode="&#xfa;" horiz-adv-x="1040" 
d="M524 -20q-71 0 -125 7.5t-99 24.5t-72 44.5t-43.5 67.5t-15 94t14.5 124l275 1288h137l-274 -1294q-36 -169 10.5 -253.5t202.5 -84.5q194 0 299 82.5t145 265.5l248 1284h47l-275 -1288q-45 -195 -156 -278.5t-319 -83.5zM823 1780l283 295h127l-375 -295h-35z" />
    <glyph glyph-name="ucircumflex" unicode="&#xfb;" horiz-adv-x="1040" 
d="M524 -20q-71 0 -125 7.5t-99 24.5t-72 44.5t-43.5 67.5t-15 94t14.5 124l275 1288h137l-274 -1294q-36 -169 10.5 -253.5t202.5 -84.5q194 0 299 82.5t145 265.5l248 1284h47l-275 -1288q-45 -195 -156 -278.5t-319 -83.5zM670 1778h-35l278 295h97l151 -295h-35
l-178 235z" />
    <glyph glyph-name="udieresis" unicode="&#xfc;" horiz-adv-x="1040" 
d="M524 -20q-71 0 -125 7.5t-99 24.5t-72 44.5t-43.5 67.5t-15 94t14.5 124l275 1288h137l-274 -1294q-36 -169 10.5 -253.5t202.5 -84.5q194 0 299 82.5t145 265.5l248 1284h47l-275 -1288q-45 -195 -156 -278.5t-319 -83.5zM1153 1782h-180l18 82h180zM825 1784h-180
l17 80h180z" />
    <glyph glyph-name="yacute" unicode="&#xfd;" horiz-adv-x="1130" 
d="M662 709l-267 921h152l248 -874l585 874h50l-627 -901l-156 -729h-137zM840 1776l284 295h127l-374 -295h-37z" />
    <glyph glyph-name="ydieresis" unicode="&#xff;" horiz-adv-x="1130" 
d="M662 709l-267 921h152l248 -874l585 874h50l-627 -901l-156 -729h-137zM690 1784l17 82h180l-17 -82h-180zM1018 1784l18 82h181l-19 -82h-180z" />
    <glyph glyph-name="Scaron" unicode="&#x160;" horiz-adv-x="1040" 
d="M516 -23q-198 0 -293 109t-53 307l27 121h137q0 -2 -4.5 -20t-11 -49.5t-13.5 -67.5q-33 -168 23 -273.5t190 -105.5q150 0 244.5 103t132.5 274q16 69 9 128t-32 102.5t-62.5 83.5t-83 71.5t-92.5 67t-91.5 69.5t-81 79t-60 96t-28 120t13.5 151q40 179 181.5 286.5
t340.5 107.5q194 0 277 -106t41 -308l-27 -121h-137q4 18 14.5 67.5t14.5 67.5q19 79 16 148t-23 120.5t-66 81t-114 29.5q-145 0 -239.5 -96t-130.5 -250q-12 -53 -12 -100.5t10 -86t28.5 -73t43.5 -63.5t55 -56t61.5 -51t65.5 -48q35 -25 53 -38t49.5 -38.5t47.5 -42.5
t40 -44.5t35.5 -51t24.5 -56t16 -64.5t1 -71.5t-12 -82.5q-46 -206 -181.5 -316t-344.5 -110zM715 2161h37l178 -236l278 236h35l-278 -295h-97z" />
    <glyph glyph-name="scaron" unicode="&#x161;" horiz-adv-x="1040" 
d="M516 -23q-198 0 -294 104t-56 292l24 114h140q-12 -47 -29 -129q-31 -160 26 -260t191 -100q150 0 243.5 98t129.5 260q15 66 7.5 122t-33 97t-63.5 79.5t-83.5 68t-93 63.5t-92.5 66t-82 75t-61 91.5t-29.5 114t12.5 143.5q38 170 179 272.5t339 102.5q194 0 278 -101
t43 -293l-24 -116h-137q3 17 13 65.5t13 65.5q18 75 14.5 140t-23.5 113.5t-66.5 76.5t-114.5 28q-145 0 -239.5 -92t-127.5 -238q-10 -44 -11.5 -84t6 -73.5t21 -63.5t33.5 -56t43 -49t51 -44.5t55.5 -41t58.5 -40.5q35 -23 53 -35.5t50 -36.5t48.5 -40.5t40.5 -42.5
t36 -48.5t25 -53t16.5 -61t2 -68.5t-10.5 -79q-44 -197 -178.5 -301.5t-343.5 -104.5zM705 2111h36l179 -235l278 235h35l-279 -294h-96z" />
    <glyph glyph-name="Ydieresis" unicode="&#x178;" horiz-adv-x="1130" 
d="M668 745l-254 973h151l240 -923l594 923h49l-637 -950l-164 -768h-137zM707 1860l16 79h180l-18 -79h-178zM1034 1860l17 79h180l-17 -79h-180z" />
    <glyph glyph-name="Zcaron" unicode="&#x17d;" horiz-adv-x="960" 
d="M874 0h-788l4 20l1004 1676l-588 -27l10 47h723l-4 -20l-1004 -1676l652 25zM829 1866l-153 295h35l178 -236l278 236h37l-278 -295h-97z" />
    <glyph glyph-name="zcaron" unicode="&#x17e;" horiz-adv-x="960" 
d="M874 0h-788l4 18l985 1594l-588 -25l11 43h723l-4 -18l-986 -1594l652 25zM657 2075h35l178 -236l279 236h37l-279 -295h-96z" />
    <glyph glyph-name="circumflex" unicode="&#x2c6;" horiz-adv-x="708" 
d="M477 1817l279 294h96l154 -294h-37l-178 235l-279 -235h-35z" />
    <glyph glyph-name="caron" unicode="&#x2c7;" horiz-adv-x="708" 
d="M692 1817l-151 294h34l179 -235l278 235h35l-279 -294h-96z" />
    <glyph glyph-name="ring" unicode="&#x2da;" horiz-adv-x="542" 
d="M657 1810q-84 0 -127 50t-26 127q15 77 79 126.5t148 49.5t126.5 -49.5t25.5 -126.5q-15 -77 -79 -127t-147 -50zM578 1987q-12 -64 10 -107t74 -43t93.5 44t53.5 106q14 62 -9 105.5t-75 43.5t-93.5 -43.5t-53.5 -105.5z" />
    <glyph glyph-name="tilde" unicode="&#x2dc;" horiz-adv-x="679" 
d="M512 1812h-37q20 71 65 113.5t101 42.5q37 0 70 -13t53 -29t47 -29t53 -13q34 0 64 21.5t45 56.5h35q-20 -71 -64.5 -112.5t-101.5 -41.5q-46 0 -85 20.5t-72.5 41t-66.5 20.5q-34 0 -62.5 -21.5t-43.5 -56.5z" />
    <glyph glyph-name="endash" unicode="&#x2013;" horiz-adv-x="847" 
d="M883 750l-15 -68h-612l14 68h613z" />
    <glyph glyph-name="emdash" unicode="&#x2014;" horiz-adv-x="858" 
d="M893 750l-14 -68h-623l14 68h623z" />
    <glyph glyph-name="quoteleft" unicode="&#x2018;" horiz-adv-x="438" 
d="M449 1448h165l-22 -107h-191l23 107l205 268h61z" />
    <glyph glyph-name="quoteright" unicode="&#x2019;" horiz-adv-x="438" 
d="M643 1610h-166l23 106h190l-22 -106l-205 -269h-62z" />
    <glyph glyph-name="quotesinglbase" unicode="&#x201a;" horiz-adv-x="452" 
d="M307 0h-166l23 106h190l-22 -106l-205 -268h-61z" />
    <glyph glyph-name="quotedblleft" unicode="&#x201c;" horiz-adv-x="718" 
d="M401 1341l23 107l205 268h61l-241 -268h165l-22 -107h-191zM709 1341l22 107l205 268h63l-243 -268h168l-23 -107h-192z" />
    <glyph glyph-name="quotedblright" unicode="&#x201d;" horiz-adv-x="718" 
d="M401 1341l242 269h-166l23 106h190l-22 -106l-205 -269h-62zM709 1341l243 269h-166l23 106h190l-22 -106l-205 -269h-63z" />
    <glyph glyph-name="quotedblbase" unicode="&#x201e;" horiz-adv-x="737" 
d="M66 -268l241 268h-166l23 106h190l-22 -106l-205 -268h-61zM348 -268l242 268h-166l22 106h191l-23 -106l-204 -268h-62z" />
    <glyph glyph-name="bullet" unicode="&#x2022;" horiz-adv-x="464" 
d="M518 805l-41 -187h-225l39 187h227z" />
    <glyph glyph-name="ellipsis" unicode="&#x2026;" horiz-adv-x="1296" 
d="M553 0l22 106h191l-23 -106h-190zM1174 0h-191l23 106h192zM121 0l24 106h191l-23 -106h-192z" />
    <glyph glyph-name="guilsinglleft" unicode="&#x2039;" horiz-adv-x="917" 
d="M905 494l-639 284l6 31l762 283l-6 -21l-590 -278l473 -277z" />
    <glyph glyph-name="guilsinglright" unicode="&#x203a;" horiz-adv-x="917" 
d="M987 778l-760 -284l4 22l590 277l-471 278l4 21l639 -283z" />
    <glyph glyph-name="Euro" unicode="&#x20ac;" horiz-adv-x="1116" 
d="M238 608l10 43h151l76 363h-151l10 41h151l68 325q37 169 156 263t297 94q159 0 235 -77t59 -218q-3 -29 -10 -70l-123 -2q11 53 13 68q19 129 -26 203.5t-153 74.5q-117 0 -196.5 -91t-110.5 -234q-2 -9 -32.5 -154.5t-38.5 -181.5h389l-8 -41h-390q-42 -214 -77 -363
h391l-10 -43h-390q-4 -18 -19 -88t-27 -127t-15 -67q-15 -58 -13 -116.5t16.5 -105.5t57.5 -76.5t109 -29.5q64 0 119 32t93 84t63 111t36 121l123 -2q-38 -176 -148.5 -271.5t-289.5 -95.5q-180 0 -259 94.5t-42 264.5l57 272h-151z" />
    </font>
</defs>
</svg>
