<?xml version="1.0" standalone="no"?>
<!DOCTYPE svg PUBLIC "-//W3C//DTD SVG 1.1//EN" "http://www.w3.org/Graphics/SVG/1.1/DTD/svg11.dtd" >
<svg xmlns="http://www.w3.org/2000/svg" xmlns:xlink="http://www.w3.org/1999/xlink" version="1.1">
<metadata>
Created by FontForge 20170731 at Mon Dec 10 14:52:07 2018
 By Aleksey,,,
Copyright (c) 2018 by Mans Greback. All rights reserved.
</metadata>
<defs>
<font id="JaymontPERSONAL-Light" horiz-adv-x="530" >
  <font-face 
    font-family="Jaymont PERSONAL"
    font-weight="300"
    font-stretch="normal"
    units-per-em="1000"
    panose-1="0 0 0 0 0 0 0 0 0 0"
    ascent="800"
    descent="-200"
    x-height="497"
    cap-height="685"
    bbox="-80 -499 2451 1032.11"
    underline-thickness="50"
    underline-position="-150"
    unicode-range="U+000D-FB02"
  />
<missing-glyph horiz-adv-x="228" 
 />
    <glyph glyph-name="fi" unicode="fi" horiz-adv-x="588" 
d="M330 607h-14l-22 116q-12 5 -24.5 6.5t-26.5 2.5q-23 -4 -36 -16t-20.5 -34t-9.5 -54t-2 -76v-48h307v-458l78 -37v-9h-231v9l71 37v447h-225v-458l86 -25v-10h-242v10l74 25v458h-98v11h98v57q0 52 8.5 87t25 56t41 30t55.5 9q37 0 62.5 -5.5t52.5 -18.5zM497 621
q0 -23 -13.5 -35.5t-33.5 -12.5q-22 0 -35.5 12.5t-13.5 35.5q0 21 13.5 33.5t35.5 12.5q20 0 33.5 -12.5t13.5 -33.5z" />
    <glyph glyph-name="fl" unicode="fl" horiz-adv-x="546" 
d="M453 99q0 -32 4 -52t13.5 -29.5t26 -11t40.5 3.5l-1 -11q-46 -9 -77.5 -8t-51 13.5t-28 36t-8.5 58.5v615q-30 12 -90 13q-23 -2 -42.5 -11t-33.5 -28.5t-22.5 -50.5t-8.5 -77v-41h99v-12h-99v-470l94 -31v-6h-250v6l74 30v471h-99v12h99v30q0 52 13 88t38 58.5t61 32
t81 9.5q49 0 87.5 -6t80.5 -23v-609z" />
    <glyph glyph-name="T_h" unicode="Th" horiz-adv-x="1026" 
d="M135 10l102 33v632q-51 -2 -91 -5.5t-68 -7.5l-40 -155h-13l-15 155q11 2 31.5 6t53 8.5t77 8t103.5 4.5q94 0 185 -6t160 -19v-250q35 48 80.5 72.5t96.5 24.5q42 0 71 -11t46.5 -33t25 -53.5t7.5 -72.5v-302l73 -29v-10h-230v10l77 29v334q0 58 -19.5 89t-72.5 31
q-39 0 -80 -24.5t-75 -76.5v-357l71 -25v-10h-235v10l82 34v619q-50 6 -107.5 9t-111.5 4v-634l101 -32v-10h-285v10z" />
    <glyph glyph-name="f_t" unicode="ft" horiz-adv-x="604" 
d="M330 607h-14l-22 116q-12 5 -24.5 6.5t-26.5 2.5q-23 -4 -36 -16t-20.5 -34t-9.5 -54t-2 -76v-33h198l60 145h21v-145h159v-12h-159v-348q0 -53 7 -85t23.5 -47t43.5 -15t66 12v-10q-53 -20 -94 -22.5t-69.5 15.5t-43.5 58t-15 105v337h-197v-471l94 -26v-10h-250v10
l74 25v472h-98v12h98v42q0 52 8.5 87t25 56t41 30t55.5 9q37 0 62.5 -5.5t52.5 -18.5z" />
    <glyph glyph-name="t_f" unicode="tf" horiz-adv-x="604" 
d="M-30 518l99 2l58 144h21v-145h243v42q0 52 9 87t25.5 56t41 30t55.5 9q36 0 61.5 -5.5t53.5 -18.5l-9 -112h-14l-21 116q-12 5 -24.5 6.5t-26.5 2.5q-23 -4 -36 -16t-20.5 -34t-9.5 -54t-2 -76v-33h141v-12h-141v-471l94 -26v-10h-284q-53 -13 -93.5 -12.5t-68.5 19
t-42 58.5t-14 105v337h-94zM148 159q0 -53 6.5 -87t22 -51t42 -19t65.5 8l107 27v470h-243v-348z" />
    <glyph glyph-name="t_h" unicode="th" horiz-adv-x="858" 
d="M-30 518l99 2l58 144h21v-145h149v-12h-149v-348q0 -56 8 -89.5t25 -50t43 -17.5t62 8l10 -5l-10 -5q-53 -13 -93.5 -12.5t-69 19t-43 58.5t-14.5 105v337h-94zM616 10l78 29v334q0 58 -19.5 89t-72.5 31q-40 0 -81 -24.5t-75 -76.5v-357l71 -25v-10h-232v10l79 33v648
l-71 8l-3 11l133 33h23v-329q35 48 80.5 72.5t96.5 24.5q42 0 71 -11t46.5 -33t25 -53.5t7.5 -72.5v-302l74 -29v-10h-231v10z" />
    <glyph glyph-name=".notdef" horiz-adv-x="228" 
 />
    <glyph glyph-name=".null" horiz-adv-x="0" 
 />
    <glyph glyph-name="nonmarkingreturn" unicode="&#xd;" horiz-adv-x="228" 
 />
    <glyph glyph-name="NULL" horiz-adv-x="0" 
 />
    <glyph glyph-name="NULL" horiz-adv-x="0" 
 />
    <glyph glyph-name="space" unicode=" " horiz-adv-x="280" 
 />
    <glyph glyph-name="exclam" unicode="!" horiz-adv-x="282" 
d="M130 187l-35 486h86l-34 -486h-17zM186 38q0 -21 -13 -34t-35 -13q-20 0 -33.5 13t-13.5 34q0 20 13.5 34t33.5 14q22 0 35 -14t13 -34z" />
    <glyph glyph-name="quotedbl" unicode="&#x22;" horiz-adv-x="294" 
d="M136 750l-64 -245h-14l12 245h66zM273 750l-64 -245h-14l12 245h66z" />
    <glyph glyph-name="numbersign" unicode="#" horiz-adv-x="562" 
d="M468 199h-82l-13 -126h-16l13 126h-216l-13 -126h-17l13 126h-73v16h75l25 230h-73v17h75l13 115h17l-13 -115h216l13 115h16l-13 -115h80v-17h-82l-25 -230h80v-16zM156 215h216l25 230h-216z" />
    <glyph glyph-name="dollar" unicode="$" horiz-adv-x="576" 
d="M448 434h-12l-45 130l4 -1q-26 20 -55 30.5t-74 10.5q-66 0 -101.5 -32t-35.5 -82q0 -19 5 -38t20 -36t41.5 -33t70.5 -29q59 -18 100.5 -36.5t67.5 -41t38 -50t12 -63.5q0 -75 -51.5 -119.5t-151.5 -47.5v-97h-11v97q-66 0 -122 19t-101 67l15 129h13l47 -153
q29 -25 64.5 -38t82.5 -12q85 0 127 32.5t42 83.5q0 27 -10.5 48.5t-34 39.5t-61.5 34.5t-93 33.5q-48 14 -79 33.5t-49.5 43t-25.5 49t-7 52.5q2 69 51 113.5t140 45.5v103h12v-103q65 -2 107.5 -20.5t74.5 -50.5z" />
    <glyph glyph-name="percent" unicode="%" horiz-adv-x="612" 
d="M121 0h-25l391 617h26zM172 371q-23 0 -44 7.5t-37 23t-25 38.5t-9 55q0 57 33 89.5t82 32.5q48 0 80 -33t32 -88q0 -57 -32.5 -91t-79.5 -34zM170 388q34 0 53.5 28t19.5 79q0 52 -21 79.5t-52 27.5q-32 0 -52.5 -27t-20.5 -80q0 -54 21 -80.5t52 -26.5zM437 0
q-23 0 -44 8t-36.5 23.5t-25 38.5t-9.5 53q0 57 33 89.5t82 32.5q48 0 80 -31.5t32 -89.5q0 -29 -9 -51.5t-24 -39t-35.5 -25t-43.5 -8.5zM436 15q31 0 52 28.5t21 80.5q0 51 -21.5 79t-51.5 28q-32 0 -53 -29.5t-21 -79.5q0 -51 21.5 -79t52.5 -28z" />
    <glyph glyph-name="ampersand" unicode="&#x26;" horiz-adv-x="602" 
d="M593 303l-89 -31q1 -60 -16.5 -108t-50.5 -83q43 -47 81 -53t78 19l1 -11q-57 -35 -106.5 -35t-99.5 42q-77 -49 -188 -49q-41 0 -73.5 14t-54 37.5t-30 54.5t-0.5 66q6 28 23 50.5t40 40t49.5 31t53.5 25.5q-11 23 -22.5 47.5t-23.5 50.5q-18 42 -16.5 77.5t18 62.5
t45 43t63.5 18q63 5 101.5 -25.5t41.5 -85.5q2 -58 -34.5 -99t-102.5 -71q45 -87 80.5 -146.5t67.5 -95.5q30 32 47.5 76.5t15.5 104.5l-93 28v15h194v-10zM261 18q68 3 120 33q-75 69 -164 249q-41 -23 -69 -46.5t-36 -56.5q-10 -27 -4 -60t26 -61t52.5 -45.5t74.5 -12.5z
M221 455q14 -31 27.5 -59t27.5 -54q40 22 66.5 54.5t23.5 84.5q-7 51 -30.5 85t-61.5 33q-24 0 -40 -12.5t-23 -32.5t-5 -45.5t15 -53.5z" />
    <glyph glyph-name="quotesingle" unicode="'" horiz-adv-x="137" 
d="M126 750l-64 -245h-14l12 245h66z" />
    <glyph glyph-name="parenleft" unicode="(" horiz-adv-x="440" 
d="M177 281q0 -88 11 -154t35.5 -116.5t64 -88t95.5 -69.5l-7 -9q-77 33 -130 77t-86 98.5t-47.5 120t-14.5 141.5q0 145 65 254.5t213 182.5l7 -9q-59 -33 -98.5 -72.5t-63.5 -90.5t-34 -116t-10 -149z" />
    <glyph glyph-name="parenright" unicode=")" horiz-adv-x="440" 
d="M267 281q0 88 -11 154t-35.5 116t-63.5 88t-96 70l7 9q77 -33 130 -77t86 -98.5t47.5 -120t14.5 -141.5q0 -146 -65 -255t-213 -182l-7 9q58 33 97.5 73t63.5 91t34.5 115.5t10.5 148.5z" />
    <glyph glyph-name="asterisk" unicode="*" horiz-adv-x="517" 
d="M297 688l-31 -166l152 76l23 -68l-171 -23l124 -121l-59 -48l-77 158l-76 -158l-60 48l124 121l-171 23l22 68l153 -76l-31 166h78z" />
    <glyph glyph-name="plus" unicode="+" horiz-adv-x="497" 
d="M251 483v-157h156v-19h-156v-156h-20v156h-156v19h156v157h20z" />
    <glyph glyph-name="comma" unicode="," horiz-adv-x="266" 
d="M174 122l-90 -254h-16l32 254h74z" />
    <glyph glyph-name="hyphen" unicode="-" horiz-adv-x="497" 
d="M389 263h-295v20h295v-20z" />
    <glyph glyph-name="period" unicode="." horiz-adv-x="240" 
d="M170 47q0 -21 -12.5 -34t-34.5 -13q-21 0 -34 13t-13 34q0 20 13 34t34 14q22 0 34.5 -14t12.5 -34z" />
    <glyph glyph-name="slash" unicode="/" horiz-adv-x="547" 
d="M88 -100h-27l401 862h27z" />
    <glyph glyph-name="zero" unicode="0" horiz-adv-x="1871" 
d="M196 193l-30 -161l-29 161h-42l-4 -257h40l1 105l20 -105h30l21 106l2 -106h37l-2 257h-44zM1032 694q-53 0 -62 52q-2 11 -2 22v22q0 24 -1 51.5t5 50.5q6 20 21.5 29.5t34.5 10.5q20 1 37.5 -7t24.5 -28q8 -22 7.5 -49.5t-0.5 -51.5q0 -14 -0.5 -27.5t-3.5 -26.5
q-11 -48 -61 -48zM971 428q-25 0 -41 12.5t-21 36.5q-2 12 -1.5 23.5t0.5 24.5q0 23 -1 49.5t4 49.5q6 21 21 30.5t35 9.5q21 1 38 -6t24 -27q9 -23 7 -50.5t-2 -50.5q0 -16 0.5 -28.5t-2.5 -26.5q-9 -47 -61 -47zM352 70l-44 123h-33v-257h40v126l45 -126h32v257h-40v-123z
M676 32h26v-16.5t-2 -22t-7.5 -17t-16.5 -2.5q-7 2 -10 9t-4 15.5t-0.5 17t0.5 13.5v61q0 12 -0.5 27.5t2.5 28.5q3 5 8.5 8.5t11.5 2.5q13 -4 14 -16q2 -9 1.5 -18.5t-0.5 -20.5h43q0 22 -3 47t-25 39q-12 8 -28 8.5t-30 -4.5q-17 -5 -25.5 -20t-11.5 -32q-2 -18 -1.5 -37
t0.5 -38q0 -18 -0.5 -35.5t1.5 -35.5q2 -15 7.5 -30.5t19.5 -22.5q13 -9 32 -8.5t30 11.5l1 -8h34v134h-67v-38zM686 696v235q23 0 47.5 0.5t44.5 -10.5q12 -8 19 -23.5t7 -32.5t-7 -31.5t-21 -19.5l31 -118h-31l-31 111h-25v-111h-34zM568 70l-21 23q-7 7 -13.5 13t-9.5 17
q-3 8 -0.5 21.5t15.5 12.5q7 -1 10 -7t4.5 -13.5t2 -15.5t0.5 -14l40 2q0 24 -5 48t-28 34q-14 6 -28 5t-25.5 -7t-19 -17.5t-8.5 -26.5q-2 -15 0.5 -31t11.5 -28q3 -8 9.5 -13t12.5 -12q12 -14 26 -29.5t14 -35.5q0 -8 -1.5 -14.5t-8.5 -7.5q-6 -2 -10 1t-6 8
q-6 11 -7 22.5t-2 23.5l-40 -3q0 -17 1.5 -32t8.5 -30q8 -18 25.5 -26t36.5 -4q20 4 31.5 19t13.5 32q6 48 -30 85zM431 696v235h49q18 0 33.5 -4t24.5 -22q5 -10 7.5 -22.5t1.5 -24.5t-6 -23t-14 -18q-13 -11 -31 -11h-33v-110h-32zM1067 430v233h22l66 -156v156h29v-233
h-22l-68 159v-159h-27zM1129 696v235h22l65 -156v156h28v-235h-21l-68 159v-159h-26zM1268 696l49 235h32l49 -235h-30l-12 58h-47l-11 -58h-30zM520 431q-21 -8 -46 -1t-34 32q-5 12 -6 25.5t-1 30.5v145h31v-156q0 -13 2 -30t17 -25q13 -4 21.5 0t13 12t6.5 18.5t2 20.5
q1 20 0.5 37.5t-0.5 37.5v85h33v-107q0 -15 0.5 -34t-2 -37t-11 -33t-26.5 -21zM647 428q-30 0 -45 19t-17 48l31 8q1 -11 2.5 -22t8.5 -19q8 -9 19 -10t19 7q10 8 9 22t-8 23q-5 7 -11.5 14t-14.5 12q-11 11 -24 21.5t-21 23.5q-7 11 -9 24.5t1.5 26.5t11.5 23t22 14
q13 3 29 2t28 -9q11 -8 15 -22.5t5 -28.5l-25 -9q-2 14 -6.5 27.5t-19.5 16.5q-11 2 -19.5 -3.5t-10.5 -17.5q-3 -9 0 -17t9 -15t13.5 -12.5t13.5 -11.5q16 -14 29.5 -28t17.5 -36q7 -27 -8.5 -49t-44.5 -22zM891 694q-29 0 -45.5 19.5t-17.5 47.5l30 8q2 -11 4 -22.5
t9 -18.5q8 -8 19 -9t19 6q9 8 8.5 22t-7.5 25q-6 10 -26 25q-11 10 -23.5 20.5t-20.5 22.5t-10 26.5t1 27t11.5 22.5t22.5 14q13 3 29 1.5t27 -9.5q12 -8 16 -22t5 -28l-25 -8q-2 12 -6.5 26t-19.5 18q-11 1 -20 -4.5t-11 -15.5t1 -18.5t9 -15.5t13.5 -13t14.5 -11
q15 -14 29 -28.5t19 -34.5q5 -29 -10 -51t-45 -22zM752 -96h37l73 322h-41zM728 430v233h91v-25h-58v-76h47v-24h-47v-87h58v-21h-91zM570 696v235h90v-25h-58v-76h47v-24h-47v-87h59v-23h-91zM1369 430v48q0 9 1 18t-1 17q-2 13 -6.5 23.5t-9.5 21.5l-33 105h30l35 -112
l34 112h32l-16 -48t-16 -49l-16 -48q-3 -8 -2.5 -16t0.5 -14v-58h-32zM955 455q7 -4 16 -4t14 4q9 5 12.5 13.5t5.5 17.5q1 5 0.5 12t-0.5 12v83q0 10 -1 20.5t-9 18.5q-13 13 -29 8q-16 -4 -23 -22q-3 -17 -2 -37t1 -37v-42q0 -12 1.5 -26t13.5 -21zM1019 721q13 -5 29 0
q10 5 12.5 13.5t3.5 16.5v109q0 10 -1 20.5t-9 17.5q-5 8 -12.5 9t-15.5 -1q-17 -1 -22 -20q-5 -17 -3 -37.5t2 -37.5v-43q0 -12 1 -26t15 -21zM1423 696v235h32v-212h60v-23h-92zM1220 430v233h32v-212h59v-21h-91zM462 -399q-15 0 -22 6.5t-9.5 16t-2.5 21v20.5
q0 11 0.5 22t4 19t11 12.5t21.5 3.5q12 -1 18.5 -7t9 -15t2.5 -19.5v-19.5v-19.5t-3 -19.5t-10 -15t-20 -6zM563 -251q-14 0 -21 6.5t-9.5 16.5t-2.5 21.5v21.5t0.5 20.5t4 18.5t10.5 13t21 4q12 -1 18 -7t9 -15t3 -19.5v-19.5t-0.5 -20t-3.5 -20t-9.5 -15t-19.5 -6z
M1468 -399q-14 0 -21 6.5t-9.5 16t-2.5 21v20.5q0 11 0.5 22t4 19t11 12.5t21.5 3.5q13 -1 18.5 -7t7.5 -15t1.5 -19.5t-0.5 -19.5v-19.5t-2.5 -19.5t-9 -15t-19.5 -6zM1398 -249v119q11 0 26 0.5t26 -8.5t10 -24.5t-1 -27.5t0.5 -28.5t-13.5 -24.5q-9 -8 -23 -7t-25 1z
M764 -398v119q12 0 24 1t22 -4q7 -4 10.5 -12t3.5 -17t-4 -16.5t-11 -10.5l17 -60h-16l-14 57h-13v-57h-19zM607 -398l2 119h17l21 -95l21 95h17l1 -119h-11l-2 88l-21 -88h-11l-18 88l-2 -88h-14zM510 -398l2 119h18l21 -95l20 95h16l2 -119h-13l-1 88l-20 -88h-11l-19 88
l-1 -88h-14zM1254 -398v119q11 0 23 1t23 -4q6 -4 10 -12t4 -17t-3.5 -16.5t-10.5 -10.5l15 -60h-15l-15 57h-14v-57h-17zM612 -249v119q11 0 22.5 1t21.5 -4q7 -4 11 -12.5t4.5 -17.5t-3 -16.5t-12.5 -10.5l18 -59h-17l-17 55h-12v-55h-16zM624 252v121h30t26 -12
q4 -11 3 -25t-9 -21q-8 -6 -16.5 -6.5t-17.5 -0.5v-56h-16zM782 -249v119h15v-52h31v52h18v-119h-18v55h-31v-55h-15zM1519 -398v119h10l35 -79v79h13v-119h-11l-35 82v-82h-12zM1320 -249v119h10l35 -79v79h13v-119h-10l-34 80v-80h-14zM807 252l26 121h16l26 -121h-18
l-5 32h-25l-5 -32h-15zM1242 -249l23 119h18l25 -119h-16l-6 30h-24l-7 -30h-13zM948 -398l25 119h17l25 -119h-15l-5 31h-26l-5 -31h-16zM1478 480l-9 183h30l-10 -183h-11zM463 830q8 0 16 -0.5t18 1.5q12 3 15.5 12.5t3.5 20.5q1 13 -2 25t-17 16q-10 2 -18 1.5t-16 -0.5
v-76zM1061 -249q-17 -5 -29.5 2.5t-16.5 24.5q-2 8 -1 15t1 13v64h15v-53q0 -5 -0.5 -14.5t0.5 -18.5t4.5 -16t11.5 -7t12 7t5.5 16t1 18.5t-0.5 14.5v53h14v-54q0 -8 0.5 -17.5t-0.5 -19t-4.5 -17.5t-12.5 -11zM384 -399q-15 0 -22 9t-9 21.5t-1.5 27t0.5 25.5q0 16 8.5 28
t28.5 10q18 -2 22 -14.5t4 -26.5h-16q0 5 0.5 10.5t-2.5 10.5q-2 8 -11 9t-13 -7q-6 -6 -4.5 -20t1.5 -23q0 -7 -1.5 -20t5.5 -21q3 -7 12 -5.5t11 9.5q3 5 2.5 11t-0.5 11h16q0 -15 -5 -30t-26 -15zM871 -399q-16 0 -22.5 9t-8 21.5t-0.5 27t1 25.5q0 16 7.5 28t27.5 10
q19 -2 23 -14.5t4 -26.5h-18q0 5 1 10.5t-2 10.5q-2 8 -10.5 9t-13.5 -7q-6 -6 -5 -20t1 -23q0 -7 -1 -20t6 -21q4 -7 12.5 -5.5t10.5 9.5q3 5 2 11t-1 11h18q0 -15 -5 -30t-27 -15zM1360 -399q-16 0 -23.5 10.5t-9.5 24.5l16 4q0 -6 2 -13.5t8 -9.5q9 -5 14 -0.5t5 11.5
q0 12 -10.5 21.5t-18.5 15.5q-11 11 -15 26.5t10 25.5q7 5 16.5 6t15.5 -3q8 -2 11.5 -10.5t4.5 -16.5l-14 -5l-2 12t-6 11q-16 4 -20 -9q-4 -9 3.5 -16t14.5 -13q7 -8 14.5 -15.5t9.5 -18.5q5 -14 -3 -26t-23 -12zM720 830h16t17 2q11 5 14.5 15.5t1.5 23.5q0 11 -2.5 19
t-13.5 13q-8 4 -17 3.5t-16 -0.5v-76zM914 251q-14 0 -22.5 10t-9.5 25l16 5q0 -6 2 -14t8 -12q8 -2 13.5 2.5t5.5 11.5q0 12 -10.5 21.5t-18.5 17.5q-11 9 -15 24t9 27q7 4 16 4.5t16 -1.5q9 -4 12.5 -12.5t4.5 -16.5l-14 -3q-1 5 -2.5 11t-6.5 11q-6 2 -11.5 0t-7.5 -10
q-3 -8 4 -16t12 -14q8 -6 16 -13.5t10 -18.5q5 -14 -3 -26.5t-24 -12.5zM1188 251q-16 0 -23 10t-8 25l16 5q0 -6 2.5 -14t8.5 -12q8 -2 12.5 2.5t4.5 11.5q1 12 -9.5 21.5t-18.5 17.5q-11 9 -15.5 24t8.5 27q17 8 33 3q8 -4 11.5 -12.5t4.5 -16.5l-14 -3q-1 5 -2.5 11
t-6.5 11q-5 2 -10.5 0t-6.5 -10q-6 -8 2 -16l14 -14q7 -6 14.5 -13.5t9.5 -18.5q5 -14 -2.5 -26.5t-24.5 -12.5zM1070 252l-27 121h18l17 -88l19 88h13l-25 -121h-15zM1141 -398l-27 119h15l20 -87l16 87h17l-28 -119h-13zM1194 -398v119h48v-10h-31v-39h25v-13h-25v-45h31
v-12h-48zM955 252v121h48v-11h-31v-41h25v-12h-25v-45h32v-12h-49zM705 -398v119h47v-10h-30v-39h25v-13h-25v-45h30v-12h-47zM555 -237q10 -5 14.5 -1t6.5 11.5t2 16.5v15q0 4 0.5 12t0.5 16t-2 14.5t-6 9.5q-11 6 -18 -2t-7 -18v-19q0 -4 -0.5 -12.5t-0.5 -17t2 -16
t8 -9.5zM864 -249v119h46v-12h-29v-40h25v-12h-25v-45h29v-10h-46zM753 252v121h46v-11h-31v-41h26v-12h-26v-45h31v-12h-46zM453 -382q10 -6 15 -2.5t7 10.5t2 16v15q0 4 0.5 12t0 15.5t-2 14t-5.5 8.5q-13 8 -18.5 0t-5.5 -17q-1 -5 -0.5 -9.5t0.5 -8.5q0 -5 -0.5 -13
t-0.5 -17t1.5 -16t6.5 -8zM1460 -382q10 -6 15 -2.5t7.5 10.5t2.5 16v15q0 4 0.5 12t-0.5 15.5t-3 14t-6 8.5q-12 8 -17 0t-5 -17v-18q0 -5 -1 -13t-1 -17t1.5 -16t6.5 -8zM474 -249v119h46v-12h-28v-40h22v-12h-22v-55h-18zM1414 -239q11 0 18.5 2t9.5 15v63q-1 13 -9 15
t-19 2v-97zM735 -249v107h-22v12h61v-12h-22v-107h-17zM1154 -249v119h17v-109h30v-10h-47zM960 -249v119h45v-12h-32v-40h24v-12h-24v-55h-13zM1281 252v110h-23v11h58v-11h-20v-110h-15zM1097 -249v119h16v-109h30v-10h-46zM695 252v121h15v-109h31v-12h-46zM1028 -398
v119h15v-107h32v-12h-47zM1313 778h40l-20 107zM1230 252v121h18v-121h-18zM919 -398v119h17v-119h-17zM420 -64h43v48h-43v-48zM1125 252v121h16v-121h-16zM1402 -398v119h15v-119h-15zM640 320h9t10 2q6 3 7 9t1 13q-1 14 -8.5 16t-18.5 2v-42zM1469 430v33h30v-33h-30z
M628 -182q11 0 19 3.5t8 17.5t-8 16.5t-19 2.5v-40zM1271 -328q11 0 19 2.5t8 16.5q0 12 -8 16t-19 4v-39zM783 -328q11 0 18 2.5t7 16.5q0 12 -7 16t-18 4v-39zM828 295h22l-9 55zM1264 -207h21l-11 54zM971 -356h21l-10 55zM1337 193l-30 -161l-29 161h-42l-4 -257h40
l1 105l20 -105h30l21 106l2 -106h37l-2 257h-44zM906 193v-204q0 -19 -16 -17q-7 1 -10 7t-4.5 13.5t-2 15.5t-0.5 14l-40 -2q0 -24 5 -48t28 -34q8 -4 15.5 -5t15.5 0q20 2 36 16t16 38v206h-43zM1013 193l-47 -257h43l10 61h28l8 -61h43l-45 257h-40zM1025 35l8 51l7 -51
h-15zM1174 -64v77l46 180h-43l-24 -120l-22 120h-43l43 -176v-81h43zM1766 -64v212h36v45h-116v-45h37v-212h43zM1520 110q0 19 -2.5 35t-9 27.5t-17.5 18t-28 6.5q-35 0 -46 -25t-11 -62v-90q0 -19 2.5 -35t9 -27.5t17.5 -18t28 -6.5q34 0 45.5 24.5t11.5 62.5v90zM1480 22
v-15t-1.5 -16.5t-5 -13t-10.5 -5.5t-10.5 5.5t-5 13t-1.5 16.5v15v86v15t1.5 16.5t5 13t10.5 5.5t10.5 -5.5t5 -13t1.5 -16.5v-15v-86zM1623 70l-44 123h-33v-257h40v126l45 -126h32v257h-40v-123z" />
    <glyph glyph-name="one" unicode="1" horiz-adv-x="1871" 
d="M196 193l-30 -161l-29 161h-42l-4 -257h40l1 105l20 -105h30l21 106l2 -106h37l-2 257h-44zM1032 694q-53 0 -62 52q-2 11 -2 22v22q0 24 -1 51.5t5 50.5q6 20 21.5 29.5t34.5 10.5q20 1 37.5 -7t24.5 -28q8 -22 7.5 -49.5t-0.5 -51.5q0 -14 -0.5 -27.5t-3.5 -26.5
q-11 -48 -61 -48zM971 428q-25 0 -41 12.5t-21 36.5q-2 12 -1.5 23.5t0.5 24.5q0 23 -1 49.5t4 49.5q6 21 21 30.5t35 9.5q21 1 38 -6t24 -27q9 -23 7 -50.5t-2 -50.5q0 -16 0.5 -28.5t-2.5 -26.5q-9 -47 -61 -47zM352 70l-44 123h-33v-257h40v126l45 -126h32v257h-40v-123z
M676 32h26v-16.5t-2 -22t-7.5 -17t-16.5 -2.5q-7 2 -10 9t-4 15.5t-0.5 17t0.5 13.5v61q0 12 -0.5 27.5t2.5 28.5q3 5 8.5 8.5t11.5 2.5q13 -4 14 -16q2 -9 1.5 -18.5t-0.5 -20.5h43q0 22 -3 47t-25 39q-12 8 -28 8.5t-30 -4.5q-17 -5 -25.5 -20t-11.5 -32q-2 -18 -1.5 -37
t0.5 -38q0 -18 -0.5 -35.5t1.5 -35.5q2 -15 7.5 -30.5t19.5 -22.5q13 -9 32 -8.5t30 11.5l1 -8h34v134h-67v-38zM686 696v235q23 0 47.5 0.5t44.5 -10.5q12 -8 19 -23.5t7 -32.5t-7 -31.5t-21 -19.5l31 -118h-31l-31 111h-25v-111h-34zM568 70l-21 23q-7 7 -13.5 13t-9.5 17
q-3 8 -0.5 21.5t15.5 12.5q7 -1 10 -7t4.5 -13.5t2 -15.5t0.5 -14l40 2q0 24 -5 48t-28 34q-14 6 -28 5t-25.5 -7t-19 -17.5t-8.5 -26.5q-2 -15 0.5 -31t11.5 -28q3 -8 9.5 -13t12.5 -12q12 -14 26 -29.5t14 -35.5q0 -8 -1.5 -14.5t-8.5 -7.5q-6 -2 -10 1t-6 8
q-6 11 -7 22.5t-2 23.5l-40 -3q0 -17 1.5 -32t8.5 -30q8 -18 25.5 -26t36.5 -4q20 4 31.5 19t13.5 32q6 48 -30 85zM431 696v235h49q18 0 33.5 -4t24.5 -22q5 -10 7.5 -22.5t1.5 -24.5t-6 -23t-14 -18q-13 -11 -31 -11h-33v-110h-32zM1067 430v233h22l66 -156v156h29v-233
h-22l-68 159v-159h-27zM1129 696v235h22l65 -156v156h28v-235h-21l-68 159v-159h-26zM1268 696l49 235h32l49 -235h-30l-12 58h-47l-11 -58h-30zM520 431q-21 -8 -46 -1t-34 32q-5 12 -6 25.5t-1 30.5v145h31v-156q0 -13 2 -30t17 -25q13 -4 21.5 0t13 12t6.5 18.5t2 20.5
q1 20 0.5 37.5t-0.5 37.5v85h33v-107q0 -15 0.5 -34t-2 -37t-11 -33t-26.5 -21zM647 428q-30 0 -45 19t-17 48l31 8q1 -11 2.5 -22t8.5 -19q8 -9 19 -10t19 7q10 8 9 22t-8 23q-5 7 -11.5 14t-14.5 12q-11 11 -24 21.5t-21 23.5q-7 11 -9 24.5t1.5 26.5t11.5 23t22 14
q13 3 29 2t28 -9q11 -8 15 -22.5t5 -28.5l-25 -9q-2 14 -6.5 27.5t-19.5 16.5q-11 2 -19.5 -3.5t-10.5 -17.5q-3 -9 0 -17t9 -15t13.5 -12.5t13.5 -11.5q16 -14 29.5 -28t17.5 -36q7 -27 -8.5 -49t-44.5 -22zM891 694q-29 0 -45.5 19.5t-17.5 47.5l30 8q2 -11 4 -22.5
t9 -18.5q8 -8 19 -9t19 6q9 8 8.5 22t-7.5 25q-6 10 -26 25q-11 10 -23.5 20.5t-20.5 22.5t-10 26.5t1 27t11.5 22.5t22.5 14q13 3 29 1.5t27 -9.5q12 -8 16 -22t5 -28l-25 -8q-2 12 -6.5 26t-19.5 18q-11 1 -20 -4.5t-11 -15.5t1 -18.5t9 -15.5t13.5 -13t14.5 -11
q15 -14 29 -28.5t19 -34.5q5 -29 -10 -51t-45 -22zM752 -96h37l73 322h-41zM728 430v233h91v-25h-58v-76h47v-24h-47v-87h58v-21h-91zM570 696v235h90v-25h-58v-76h47v-24h-47v-87h59v-23h-91zM1369 430v48q0 9 1 18t-1 17q-2 13 -6.5 23.5t-9.5 21.5l-33 105h30l35 -112
l34 112h32l-16 -48t-16 -49l-16 -48q-3 -8 -2.5 -16t0.5 -14v-58h-32zM955 455q7 -4 16 -4t14 4q9 5 12.5 13.5t5.5 17.5q1 5 0.5 12t-0.5 12v83q0 10 -1 20.5t-9 18.5q-13 13 -29 8q-16 -4 -23 -22q-3 -17 -2 -37t1 -37v-42q0 -12 1.5 -26t13.5 -21zM1019 721q13 -5 29 0
q10 5 12.5 13.5t3.5 16.5v109q0 10 -1 20.5t-9 17.5q-5 8 -12.5 9t-15.5 -1q-17 -1 -22 -20q-5 -17 -3 -37.5t2 -37.5v-43q0 -12 1 -26t15 -21zM1423 696v235h32v-212h60v-23h-92zM1220 430v233h32v-212h59v-21h-91zM462 -399q-15 0 -22 6.5t-9.5 16t-2.5 21v20.5
q0 11 0.5 22t4 19t11 12.5t21.5 3.5q12 -1 18.5 -7t9 -15t2.5 -19.5v-19.5v-19.5t-3 -19.5t-10 -15t-20 -6zM563 -251q-14 0 -21 6.5t-9.5 16.5t-2.5 21.5v21.5t0.5 20.5t4 18.5t10.5 13t21 4q12 -1 18 -7t9 -15t3 -19.5v-19.5t-0.5 -20t-3.5 -20t-9.5 -15t-19.5 -6z
M1468 -399q-14 0 -21 6.5t-9.5 16t-2.5 21v20.5q0 11 0.5 22t4 19t11 12.5t21.5 3.5q13 -1 18.5 -7t7.5 -15t1.5 -19.5t-0.5 -19.5v-19.5t-2.5 -19.5t-9 -15t-19.5 -6zM1398 -249v119q11 0 26 0.5t26 -8.5t10 -24.5t-1 -27.5t0.5 -28.5t-13.5 -24.5q-9 -8 -23 -7t-25 1z
M764 -398v119q12 0 24 1t22 -4q7 -4 10.5 -12t3.5 -17t-4 -16.5t-11 -10.5l17 -60h-16l-14 57h-13v-57h-19zM607 -398l2 119h17l21 -95l21 95h17l1 -119h-11l-2 88l-21 -88h-11l-18 88l-2 -88h-14zM510 -398l2 119h18l21 -95l20 95h16l2 -119h-13l-1 88l-20 -88h-11l-19 88
l-1 -88h-14zM1254 -398v119q11 0 23 1t23 -4q6 -4 10 -12t4 -17t-3.5 -16.5t-10.5 -10.5l15 -60h-15l-15 57h-14v-57h-17zM612 -249v119q11 0 22.5 1t21.5 -4q7 -4 11 -12.5t4.5 -17.5t-3 -16.5t-12.5 -10.5l18 -59h-17l-17 55h-12v-55h-16zM624 252v121h30t26 -12
q4 -11 3 -25t-9 -21q-8 -6 -16.5 -6.5t-17.5 -0.5v-56h-16zM782 -249v119h15v-52h31v52h18v-119h-18v55h-31v-55h-15zM1519 -398v119h10l35 -79v79h13v-119h-11l-35 82v-82h-12zM1320 -249v119h10l35 -79v79h13v-119h-10l-34 80v-80h-14zM807 252l26 121h16l26 -121h-18
l-5 32h-25l-5 -32h-15zM1242 -249l23 119h18l25 -119h-16l-6 30h-24l-7 -30h-13zM948 -398l25 119h17l25 -119h-15l-5 31h-26l-5 -31h-16zM1478 480l-9 183h30l-10 -183h-11zM463 830q8 0 16 -0.5t18 1.5q12 3 15.5 12.5t3.5 20.5q1 13 -2 25t-17 16q-10 2 -18 1.5t-16 -0.5
v-76zM1061 -249q-17 -5 -29.5 2.5t-16.5 24.5q-2 8 -1 15t1 13v64h15v-53q0 -5 -0.5 -14.5t0.5 -18.5t4.5 -16t11.5 -7t12 7t5.5 16t1 18.5t-0.5 14.5v53h14v-54q0 -8 0.5 -17.5t-0.5 -19t-4.5 -17.5t-12.5 -11zM384 -399q-15 0 -22 9t-9 21.5t-1.5 27t0.5 25.5q0 16 8.5 28
t28.5 10q18 -2 22 -14.5t4 -26.5h-16q0 5 0.5 10.5t-2.5 10.5q-2 8 -11 9t-13 -7q-6 -6 -4.5 -20t1.5 -23q0 -7 -1.5 -20t5.5 -21q3 -7 12 -5.5t11 9.5q3 5 2.5 11t-0.5 11h16q0 -15 -5 -30t-26 -15zM871 -399q-16 0 -22.5 9t-8 21.5t-0.5 27t1 25.5q0 16 7.5 28t27.5 10
q19 -2 23 -14.5t4 -26.5h-18q0 5 1 10.5t-2 10.5q-2 8 -10.5 9t-13.5 -7q-6 -6 -5 -20t1 -23q0 -7 -1 -20t6 -21q4 -7 12.5 -5.5t10.5 9.5q3 5 2 11t-1 11h18q0 -15 -5 -30t-27 -15zM1360 -399q-16 0 -23.5 10.5t-9.5 24.5l16 4q0 -6 2 -13.5t8 -9.5q9 -5 14 -0.5t5 11.5
q0 12 -10.5 21.5t-18.5 15.5q-11 11 -15 26.5t10 25.5q7 5 16.5 6t15.5 -3q8 -2 11.5 -10.5t4.5 -16.5l-14 -5l-2 12t-6 11q-16 4 -20 -9q-4 -9 3.5 -16t14.5 -13q7 -8 14.5 -15.5t9.5 -18.5q5 -14 -3 -26t-23 -12zM720 830h16t17 2q11 5 14.5 15.5t1.5 23.5q0 11 -2.5 19
t-13.5 13q-8 4 -17 3.5t-16 -0.5v-76zM914 251q-14 0 -22.5 10t-9.5 25l16 5q0 -6 2 -14t8 -12q8 -2 13.5 2.5t5.5 11.5q0 12 -10.5 21.5t-18.5 17.5q-11 9 -15 24t9 27q7 4 16 4.5t16 -1.5q9 -4 12.5 -12.5t4.5 -16.5l-14 -3q-1 5 -2.5 11t-6.5 11q-6 2 -11.5 0t-7.5 -10
q-3 -8 4 -16t12 -14q8 -6 16 -13.5t10 -18.5q5 -14 -3 -26.5t-24 -12.5zM1188 251q-16 0 -23 10t-8 25l16 5q0 -6 2.5 -14t8.5 -12q8 -2 12.5 2.5t4.5 11.5q1 12 -9.5 21.5t-18.5 17.5q-11 9 -15.5 24t8.5 27q17 8 33 3q8 -4 11.5 -12.5t4.5 -16.5l-14 -3q-1 5 -2.5 11
t-6.5 11q-5 2 -10.5 0t-6.5 -10q-6 -8 2 -16l14 -14q7 -6 14.5 -13.5t9.5 -18.5q5 -14 -2.5 -26.5t-24.5 -12.5zM1070 252l-27 121h18l17 -88l19 88h13l-25 -121h-15zM1141 -398l-27 119h15l20 -87l16 87h17l-28 -119h-13zM1194 -398v119h48v-10h-31v-39h25v-13h-25v-45h31
v-12h-48zM955 252v121h48v-11h-31v-41h25v-12h-25v-45h32v-12h-49zM705 -398v119h47v-10h-30v-39h25v-13h-25v-45h30v-12h-47zM555 -237q10 -5 14.5 -1t6.5 11.5t2 16.5v15q0 4 0.5 12t0.5 16t-2 14.5t-6 9.5q-11 6 -18 -2t-7 -18v-19q0 -4 -0.5 -12.5t-0.5 -17t2 -16
t8 -9.5zM864 -249v119h46v-12h-29v-40h25v-12h-25v-45h29v-10h-46zM753 252v121h46v-11h-31v-41h26v-12h-26v-45h31v-12h-46zM453 -382q10 -6 15 -2.5t7 10.5t2 16v15q0 4 0.5 12t0 15.5t-2 14t-5.5 8.5q-13 8 -18.5 0t-5.5 -17q-1 -5 -0.5 -9.5t0.5 -8.5q0 -5 -0.5 -13
t-0.5 -17t1.5 -16t6.5 -8zM1460 -382q10 -6 15 -2.5t7.5 10.5t2.5 16v15q0 4 0.5 12t-0.5 15.5t-3 14t-6 8.5q-12 8 -17 0t-5 -17v-18q0 -5 -1 -13t-1 -17t1.5 -16t6.5 -8zM474 -249v119h46v-12h-28v-40h22v-12h-22v-55h-18zM1414 -239q11 0 18.5 2t9.5 15v63q-1 13 -9 15
t-19 2v-97zM735 -249v107h-22v12h61v-12h-22v-107h-17zM1154 -249v119h17v-109h30v-10h-47zM960 -249v119h45v-12h-32v-40h24v-12h-24v-55h-13zM1281 252v110h-23v11h58v-11h-20v-110h-15zM1097 -249v119h16v-109h30v-10h-46zM695 252v121h15v-109h31v-12h-46zM1028 -398
v119h15v-107h32v-12h-47zM1313 778h40l-20 107zM1230 252v121h18v-121h-18zM919 -398v119h17v-119h-17zM420 -64h43v48h-43v-48zM1125 252v121h16v-121h-16zM1402 -398v119h15v-119h-15zM640 320h9t10 2q6 3 7 9t1 13q-1 14 -8.5 16t-18.5 2v-42zM1469 430v33h30v-33h-30z
M628 -182q11 0 19 3.5t8 17.5t-8 16.5t-19 2.5v-40zM1271 -328q11 0 19 2.5t8 16.5q0 12 -8 16t-19 4v-39zM783 -328q11 0 18 2.5t7 16.5q0 12 -7 16t-18 4v-39zM828 295h22l-9 55zM1264 -207h21l-11 54zM971 -356h21l-10 55zM1337 193l-30 -161l-29 161h-42l-4 -257h40
l1 105l20 -105h30l21 106l2 -106h37l-2 257h-44zM906 193v-204q0 -19 -16 -17q-7 1 -10 7t-4.5 13.5t-2 15.5t-0.5 14l-40 -2q0 -24 5 -48t28 -34q8 -4 15.5 -5t15.5 0q20 2 36 16t16 38v206h-43zM1013 193l-47 -257h43l10 61h28l8 -61h43l-45 257h-40zM1025 35l8 51l7 -51
h-15zM1174 -64v77l46 180h-43l-24 -120l-22 120h-43l43 -176v-81h43zM1766 -64v212h36v45h-116v-45h37v-212h43zM1520 110q0 19 -2.5 35t-9 27.5t-17.5 18t-28 6.5q-35 0 -46 -25t-11 -62v-90q0 -19 2.5 -35t9 -27.5t17.5 -18t28 -6.5q34 0 45.5 24.5t11.5 62.5v90zM1480 22
v-15t-1.5 -16.5t-5 -13t-10.5 -5.5t-10.5 5.5t-5 13t-1.5 16.5v15v86v15t1.5 16.5t5 13t10.5 5.5t10.5 -5.5t5 -13t1.5 -16.5v-15v-86zM1623 70l-44 123h-33v-257h40v126l45 -126h32v257h-40v-123z" />
    <glyph glyph-name="two" unicode="2" horiz-adv-x="1871" 
d="M196 193l-30 -161l-29 161h-42l-4 -257h40l1 105l20 -105h30l21 106l2 -106h37l-2 257h-44zM1032 694q-53 0 -62 52q-2 11 -2 22v22q0 24 -1 51.5t5 50.5q6 20 21.5 29.5t34.5 10.5q20 1 37.5 -7t24.5 -28q8 -22 7.5 -49.5t-0.5 -51.5q0 -14 -0.5 -27.5t-3.5 -26.5
q-11 -48 -61 -48zM971 428q-25 0 -41 12.5t-21 36.5q-2 12 -1.5 23.5t0.5 24.5q0 23 -1 49.5t4 49.5q6 21 21 30.5t35 9.5q21 1 38 -6t24 -27q9 -23 7 -50.5t-2 -50.5q0 -16 0.5 -28.5t-2.5 -26.5q-9 -47 -61 -47zM352 70l-44 123h-33v-257h40v126l45 -126h32v257h-40v-123z
M676 32h26v-16.5t-2 -22t-7.5 -17t-16.5 -2.5q-7 2 -10 9t-4 15.5t-0.5 17t0.5 13.5v61q0 12 -0.5 27.5t2.5 28.5q3 5 8.5 8.5t11.5 2.5q13 -4 14 -16q2 -9 1.5 -18.5t-0.5 -20.5h43q0 22 -3 47t-25 39q-12 8 -28 8.5t-30 -4.5q-17 -5 -25.5 -20t-11.5 -32q-2 -18 -1.5 -37
t0.5 -38q0 -18 -0.5 -35.5t1.5 -35.5q2 -15 7.5 -30.5t19.5 -22.5q13 -9 32 -8.5t30 11.5l1 -8h34v134h-67v-38zM686 696v235q23 0 47.5 0.5t44.5 -10.5q12 -8 19 -23.5t7 -32.5t-7 -31.5t-21 -19.5l31 -118h-31l-31 111h-25v-111h-34zM568 70l-21 23q-7 7 -13.5 13t-9.5 17
q-3 8 -0.5 21.5t15.5 12.5q7 -1 10 -7t4.5 -13.5t2 -15.5t0.5 -14l40 2q0 24 -5 48t-28 34q-14 6 -28 5t-25.5 -7t-19 -17.5t-8.5 -26.5q-2 -15 0.5 -31t11.5 -28q3 -8 9.5 -13t12.5 -12q12 -14 26 -29.5t14 -35.5q0 -8 -1.5 -14.5t-8.5 -7.5q-6 -2 -10 1t-6 8
q-6 11 -7 22.5t-2 23.5l-40 -3q0 -17 1.5 -32t8.5 -30q8 -18 25.5 -26t36.5 -4q20 4 31.5 19t13.5 32q6 48 -30 85zM431 696v235h49q18 0 33.5 -4t24.5 -22q5 -10 7.5 -22.5t1.5 -24.5t-6 -23t-14 -18q-13 -11 -31 -11h-33v-110h-32zM1067 430v233h22l66 -156v156h29v-233
h-22l-68 159v-159h-27zM1129 696v235h22l65 -156v156h28v-235h-21l-68 159v-159h-26zM1268 696l49 235h32l49 -235h-30l-12 58h-47l-11 -58h-30zM520 431q-21 -8 -46 -1t-34 32q-5 12 -6 25.5t-1 30.5v145h31v-156q0 -13 2 -30t17 -25q13 -4 21.5 0t13 12t6.5 18.5t2 20.5
q1 20 0.5 37.5t-0.5 37.5v85h33v-107q0 -15 0.5 -34t-2 -37t-11 -33t-26.5 -21zM647 428q-30 0 -45 19t-17 48l31 8q1 -11 2.5 -22t8.5 -19q8 -9 19 -10t19 7q10 8 9 22t-8 23q-5 7 -11.5 14t-14.5 12q-11 11 -24 21.5t-21 23.5q-7 11 -9 24.5t1.5 26.5t11.5 23t22 14
q13 3 29 2t28 -9q11 -8 15 -22.5t5 -28.5l-25 -9q-2 14 -6.5 27.5t-19.5 16.5q-11 2 -19.5 -3.5t-10.5 -17.5q-3 -9 0 -17t9 -15t13.5 -12.5t13.5 -11.5q16 -14 29.5 -28t17.5 -36q7 -27 -8.5 -49t-44.5 -22zM891 694q-29 0 -45.5 19.5t-17.5 47.5l30 8q2 -11 4 -22.5
t9 -18.5q8 -8 19 -9t19 6q9 8 8.5 22t-7.5 25q-6 10 -26 25q-11 10 -23.5 20.5t-20.5 22.5t-10 26.5t1 27t11.5 22.5t22.5 14q13 3 29 1.5t27 -9.5q12 -8 16 -22t5 -28l-25 -8q-2 12 -6.5 26t-19.5 18q-11 1 -20 -4.5t-11 -15.5t1 -18.5t9 -15.5t13.5 -13t14.5 -11
q15 -14 29 -28.5t19 -34.5q5 -29 -10 -51t-45 -22zM752 -96h37l73 322h-41zM728 430v233h91v-25h-58v-76h47v-24h-47v-87h58v-21h-91zM570 696v235h90v-25h-58v-76h47v-24h-47v-87h59v-23h-91zM1369 430v48q0 9 1 18t-1 17q-2 13 -6.5 23.5t-9.5 21.5l-33 105h30l35 -112
l34 112h32l-16 -48t-16 -49l-16 -48q-3 -8 -2.5 -16t0.5 -14v-58h-32zM955 455q7 -4 16 -4t14 4q9 5 12.5 13.5t5.5 17.5q1 5 0.5 12t-0.5 12v83q0 10 -1 20.5t-9 18.5q-13 13 -29 8q-16 -4 -23 -22q-3 -17 -2 -37t1 -37v-42q0 -12 1.5 -26t13.5 -21zM1019 721q13 -5 29 0
q10 5 12.5 13.5t3.5 16.5v109q0 10 -1 20.5t-9 17.5q-5 8 -12.5 9t-15.5 -1q-17 -1 -22 -20q-5 -17 -3 -37.5t2 -37.5v-43q0 -12 1 -26t15 -21zM1423 696v235h32v-212h60v-23h-92zM1220 430v233h32v-212h59v-21h-91zM462 -399q-15 0 -22 6.5t-9.5 16t-2.5 21v20.5
q0 11 0.5 22t4 19t11 12.5t21.5 3.5q12 -1 18.5 -7t9 -15t2.5 -19.5v-19.5v-19.5t-3 -19.5t-10 -15t-20 -6zM563 -251q-14 0 -21 6.5t-9.5 16.5t-2.5 21.5v21.5t0.5 20.5t4 18.5t10.5 13t21 4q12 -1 18 -7t9 -15t3 -19.5v-19.5t-0.5 -20t-3.5 -20t-9.5 -15t-19.5 -6z
M1468 -399q-14 0 -21 6.5t-9.5 16t-2.5 21v20.5q0 11 0.5 22t4 19t11 12.5t21.5 3.5q13 -1 18.5 -7t7.5 -15t1.5 -19.5t-0.5 -19.5v-19.5t-2.5 -19.5t-9 -15t-19.5 -6zM1398 -249v119q11 0 26 0.5t26 -8.5t10 -24.5t-1 -27.5t0.5 -28.5t-13.5 -24.5q-9 -8 -23 -7t-25 1z
M764 -398v119q12 0 24 1t22 -4q7 -4 10.5 -12t3.5 -17t-4 -16.5t-11 -10.5l17 -60h-16l-14 57h-13v-57h-19zM607 -398l2 119h17l21 -95l21 95h17l1 -119h-11l-2 88l-21 -88h-11l-18 88l-2 -88h-14zM510 -398l2 119h18l21 -95l20 95h16l2 -119h-13l-1 88l-20 -88h-11l-19 88
l-1 -88h-14zM1254 -398v119q11 0 23 1t23 -4q6 -4 10 -12t4 -17t-3.5 -16.5t-10.5 -10.5l15 -60h-15l-15 57h-14v-57h-17zM612 -249v119q11 0 22.5 1t21.5 -4q7 -4 11 -12.5t4.5 -17.5t-3 -16.5t-12.5 -10.5l18 -59h-17l-17 55h-12v-55h-16zM624 252v121h30t26 -12
q4 -11 3 -25t-9 -21q-8 -6 -16.5 -6.5t-17.5 -0.5v-56h-16zM782 -249v119h15v-52h31v52h18v-119h-18v55h-31v-55h-15zM1519 -398v119h10l35 -79v79h13v-119h-11l-35 82v-82h-12zM1320 -249v119h10l35 -79v79h13v-119h-10l-34 80v-80h-14zM807 252l26 121h16l26 -121h-18
l-5 32h-25l-5 -32h-15zM1242 -249l23 119h18l25 -119h-16l-6 30h-24l-7 -30h-13zM948 -398l25 119h17l25 -119h-15l-5 31h-26l-5 -31h-16zM1478 480l-9 183h30l-10 -183h-11zM463 830q8 0 16 -0.5t18 1.5q12 3 15.5 12.5t3.5 20.5q1 13 -2 25t-17 16q-10 2 -18 1.5t-16 -0.5
v-76zM1061 -249q-17 -5 -29.5 2.5t-16.5 24.5q-2 8 -1 15t1 13v64h15v-53q0 -5 -0.5 -14.5t0.5 -18.5t4.5 -16t11.5 -7t12 7t5.5 16t1 18.5t-0.5 14.5v53h14v-54q0 -8 0.5 -17.5t-0.5 -19t-4.5 -17.5t-12.5 -11zM384 -399q-15 0 -22 9t-9 21.5t-1.5 27t0.5 25.5q0 16 8.5 28
t28.5 10q18 -2 22 -14.5t4 -26.5h-16q0 5 0.5 10.5t-2.5 10.5q-2 8 -11 9t-13 -7q-6 -6 -4.5 -20t1.5 -23q0 -7 -1.5 -20t5.5 -21q3 -7 12 -5.5t11 9.5q3 5 2.5 11t-0.5 11h16q0 -15 -5 -30t-26 -15zM871 -399q-16 0 -22.5 9t-8 21.5t-0.5 27t1 25.5q0 16 7.5 28t27.5 10
q19 -2 23 -14.5t4 -26.5h-18q0 5 1 10.5t-2 10.5q-2 8 -10.5 9t-13.5 -7q-6 -6 -5 -20t1 -23q0 -7 -1 -20t6 -21q4 -7 12.5 -5.5t10.5 9.5q3 5 2 11t-1 11h18q0 -15 -5 -30t-27 -15zM1360 -399q-16 0 -23.5 10.5t-9.5 24.5l16 4q0 -6 2 -13.5t8 -9.5q9 -5 14 -0.5t5 11.5
q0 12 -10.5 21.5t-18.5 15.5q-11 11 -15 26.5t10 25.5q7 5 16.5 6t15.5 -3q8 -2 11.5 -10.5t4.5 -16.5l-14 -5l-2 12t-6 11q-16 4 -20 -9q-4 -9 3.5 -16t14.5 -13q7 -8 14.5 -15.5t9.5 -18.5q5 -14 -3 -26t-23 -12zM720 830h16t17 2q11 5 14.5 15.5t1.5 23.5q0 11 -2.5 19
t-13.5 13q-8 4 -17 3.5t-16 -0.5v-76zM914 251q-14 0 -22.5 10t-9.5 25l16 5q0 -6 2 -14t8 -12q8 -2 13.5 2.5t5.5 11.5q0 12 -10.5 21.5t-18.5 17.5q-11 9 -15 24t9 27q7 4 16 4.5t16 -1.5q9 -4 12.5 -12.5t4.5 -16.5l-14 -3q-1 5 -2.5 11t-6.5 11q-6 2 -11.5 0t-7.5 -10
q-3 -8 4 -16t12 -14q8 -6 16 -13.5t10 -18.5q5 -14 -3 -26.5t-24 -12.5zM1188 251q-16 0 -23 10t-8 25l16 5q0 -6 2.5 -14t8.5 -12q8 -2 12.5 2.5t4.5 11.5q1 12 -9.5 21.5t-18.5 17.5q-11 9 -15.5 24t8.5 27q17 8 33 3q8 -4 11.5 -12.5t4.5 -16.5l-14 -3q-1 5 -2.5 11
t-6.5 11q-5 2 -10.5 0t-6.5 -10q-6 -8 2 -16l14 -14q7 -6 14.5 -13.5t9.5 -18.5q5 -14 -2.5 -26.5t-24.5 -12.5zM1070 252l-27 121h18l17 -88l19 88h13l-25 -121h-15zM1141 -398l-27 119h15l20 -87l16 87h17l-28 -119h-13zM1194 -398v119h48v-10h-31v-39h25v-13h-25v-45h31
v-12h-48zM955 252v121h48v-11h-31v-41h25v-12h-25v-45h32v-12h-49zM705 -398v119h47v-10h-30v-39h25v-13h-25v-45h30v-12h-47zM555 -237q10 -5 14.5 -1t6.5 11.5t2 16.5v15q0 4 0.5 12t0.5 16t-2 14.5t-6 9.5q-11 6 -18 -2t-7 -18v-19q0 -4 -0.5 -12.5t-0.5 -17t2 -16
t8 -9.5zM864 -249v119h46v-12h-29v-40h25v-12h-25v-45h29v-10h-46zM753 252v121h46v-11h-31v-41h26v-12h-26v-45h31v-12h-46zM453 -382q10 -6 15 -2.5t7 10.5t2 16v15q0 4 0.5 12t0 15.5t-2 14t-5.5 8.5q-13 8 -18.5 0t-5.5 -17q-1 -5 -0.5 -9.5t0.5 -8.5q0 -5 -0.5 -13
t-0.5 -17t1.5 -16t6.5 -8zM1460 -382q10 -6 15 -2.5t7.5 10.5t2.5 16v15q0 4 0.5 12t-0.5 15.5t-3 14t-6 8.5q-12 8 -17 0t-5 -17v-18q0 -5 -1 -13t-1 -17t1.5 -16t6.5 -8zM474 -249v119h46v-12h-28v-40h22v-12h-22v-55h-18zM1414 -239q11 0 18.5 2t9.5 15v63q-1 13 -9 15
t-19 2v-97zM735 -249v107h-22v12h61v-12h-22v-107h-17zM1154 -249v119h17v-109h30v-10h-47zM960 -249v119h45v-12h-32v-40h24v-12h-24v-55h-13zM1281 252v110h-23v11h58v-11h-20v-110h-15zM1097 -249v119h16v-109h30v-10h-46zM695 252v121h15v-109h31v-12h-46zM1028 -398
v119h15v-107h32v-12h-47zM1313 778h40l-20 107zM1230 252v121h18v-121h-18zM919 -398v119h17v-119h-17zM420 -64h43v48h-43v-48zM1125 252v121h16v-121h-16zM1402 -398v119h15v-119h-15zM640 320h9t10 2q6 3 7 9t1 13q-1 14 -8.5 16t-18.5 2v-42zM1469 430v33h30v-33h-30z
M628 -182q11 0 19 3.5t8 17.5t-8 16.5t-19 2.5v-40zM1271 -328q11 0 19 2.5t8 16.5q0 12 -8 16t-19 4v-39zM783 -328q11 0 18 2.5t7 16.5q0 12 -7 16t-18 4v-39zM828 295h22l-9 55zM1264 -207h21l-11 54zM971 -356h21l-10 55zM1337 193l-30 -161l-29 161h-42l-4 -257h40
l1 105l20 -105h30l21 106l2 -106h37l-2 257h-44zM906 193v-204q0 -19 -16 -17q-7 1 -10 7t-4.5 13.5t-2 15.5t-0.5 14l-40 -2q0 -24 5 -48t28 -34q8 -4 15.5 -5t15.5 0q20 2 36 16t16 38v206h-43zM1013 193l-47 -257h43l10 61h28l8 -61h43l-45 257h-40zM1025 35l8 51l7 -51
h-15zM1174 -64v77l46 180h-43l-24 -120l-22 120h-43l43 -176v-81h43zM1766 -64v212h36v45h-116v-45h37v-212h43zM1520 110q0 19 -2.5 35t-9 27.5t-17.5 18t-28 6.5q-35 0 -46 -25t-11 -62v-90q0 -19 2.5 -35t9 -27.5t17.5 -18t28 -6.5q34 0 45.5 24.5t11.5 62.5v90zM1480 22
v-15t-1.5 -16.5t-5 -13t-10.5 -5.5t-10.5 5.5t-5 13t-1.5 16.5v15v86v15t1.5 16.5t5 13t10.5 5.5t10.5 -5.5t5 -13t1.5 -16.5v-15v-86zM1623 70l-44 123h-33v-257h40v126l45 -126h32v257h-40v-123z" />
    <glyph glyph-name="three" unicode="3" horiz-adv-x="1871" 
d="M196 193l-30 -161l-29 161h-42l-4 -257h40l1 105l20 -105h30l21 106l2 -106h37l-2 257h-44zM1032 694q-53 0 -62 52q-2 11 -2 22v22q0 24 -1 51.5t5 50.5q6 20 21.5 29.5t34.5 10.5q20 1 37.5 -7t24.5 -28q8 -22 7.5 -49.5t-0.5 -51.5q0 -14 -0.5 -27.5t-3.5 -26.5
q-11 -48 -61 -48zM971 428q-25 0 -41 12.5t-21 36.5q-2 12 -1.5 23.5t0.5 24.5q0 23 -1 49.5t4 49.5q6 21 21 30.5t35 9.5q21 1 38 -6t24 -27q9 -23 7 -50.5t-2 -50.5q0 -16 0.5 -28.5t-2.5 -26.5q-9 -47 -61 -47zM352 70l-44 123h-33v-257h40v126l45 -126h32v257h-40v-123z
M676 32h26v-16.5t-2 -22t-7.5 -17t-16.5 -2.5q-7 2 -10 9t-4 15.5t-0.5 17t0.5 13.5v61q0 12 -0.5 27.5t2.5 28.5q3 5 8.5 8.5t11.5 2.5q13 -4 14 -16q2 -9 1.5 -18.5t-0.5 -20.5h43q0 22 -3 47t-25 39q-12 8 -28 8.5t-30 -4.5q-17 -5 -25.5 -20t-11.5 -32q-2 -18 -1.5 -37
t0.5 -38q0 -18 -0.5 -35.5t1.5 -35.5q2 -15 7.5 -30.5t19.5 -22.5q13 -9 32 -8.5t30 11.5l1 -8h34v134h-67v-38zM686 696v235q23 0 47.5 0.5t44.5 -10.5q12 -8 19 -23.5t7 -32.5t-7 -31.5t-21 -19.5l31 -118h-31l-31 111h-25v-111h-34zM568 70l-21 23q-7 7 -13.5 13t-9.5 17
q-3 8 -0.5 21.5t15.5 12.5q7 -1 10 -7t4.5 -13.5t2 -15.5t0.5 -14l40 2q0 24 -5 48t-28 34q-14 6 -28 5t-25.5 -7t-19 -17.5t-8.5 -26.5q-2 -15 0.5 -31t11.5 -28q3 -8 9.5 -13t12.5 -12q12 -14 26 -29.5t14 -35.5q0 -8 -1.5 -14.5t-8.5 -7.5q-6 -2 -10 1t-6 8
q-6 11 -7 22.5t-2 23.5l-40 -3q0 -17 1.5 -32t8.5 -30q8 -18 25.5 -26t36.5 -4q20 4 31.5 19t13.5 32q6 48 -30 85zM431 696v235h49q18 0 33.5 -4t24.5 -22q5 -10 7.5 -22.5t1.5 -24.5t-6 -23t-14 -18q-13 -11 -31 -11h-33v-110h-32zM1067 430v233h22l66 -156v156h29v-233
h-22l-68 159v-159h-27zM1129 696v235h22l65 -156v156h28v-235h-21l-68 159v-159h-26zM1268 696l49 235h32l49 -235h-30l-12 58h-47l-11 -58h-30zM520 431q-21 -8 -46 -1t-34 32q-5 12 -6 25.5t-1 30.5v145h31v-156q0 -13 2 -30t17 -25q13 -4 21.5 0t13 12t6.5 18.5t2 20.5
q1 20 0.5 37.5t-0.5 37.5v85h33v-107q0 -15 0.5 -34t-2 -37t-11 -33t-26.5 -21zM647 428q-30 0 -45 19t-17 48l31 8q1 -11 2.5 -22t8.5 -19q8 -9 19 -10t19 7q10 8 9 22t-8 23q-5 7 -11.5 14t-14.5 12q-11 11 -24 21.5t-21 23.5q-7 11 -9 24.5t1.5 26.5t11.5 23t22 14
q13 3 29 2t28 -9q11 -8 15 -22.5t5 -28.5l-25 -9q-2 14 -6.5 27.5t-19.5 16.5q-11 2 -19.5 -3.5t-10.5 -17.5q-3 -9 0 -17t9 -15t13.5 -12.5t13.5 -11.5q16 -14 29.5 -28t17.5 -36q7 -27 -8.5 -49t-44.5 -22zM891 694q-29 0 -45.5 19.5t-17.5 47.5l30 8q2 -11 4 -22.5
t9 -18.5q8 -8 19 -9t19 6q9 8 8.5 22t-7.5 25q-6 10 -26 25q-11 10 -23.5 20.5t-20.5 22.5t-10 26.5t1 27t11.5 22.5t22.5 14q13 3 29 1.5t27 -9.5q12 -8 16 -22t5 -28l-25 -8q-2 12 -6.5 26t-19.5 18q-11 1 -20 -4.5t-11 -15.5t1 -18.5t9 -15.5t13.5 -13t14.5 -11
q15 -14 29 -28.5t19 -34.5q5 -29 -10 -51t-45 -22zM752 -96h37l73 322h-41zM728 430v233h91v-25h-58v-76h47v-24h-47v-87h58v-21h-91zM570 696v235h90v-25h-58v-76h47v-24h-47v-87h59v-23h-91zM1369 430v48q0 9 1 18t-1 17q-2 13 -6.5 23.5t-9.5 21.5l-33 105h30l35 -112
l34 112h32l-16 -48t-16 -49l-16 -48q-3 -8 -2.5 -16t0.5 -14v-58h-32zM955 455q7 -4 16 -4t14 4q9 5 12.5 13.5t5.5 17.5q1 5 0.5 12t-0.5 12v83q0 10 -1 20.5t-9 18.5q-13 13 -29 8q-16 -4 -23 -22q-3 -17 -2 -37t1 -37v-42q0 -12 1.5 -26t13.5 -21zM1019 721q13 -5 29 0
q10 5 12.5 13.5t3.5 16.5v109q0 10 -1 20.5t-9 17.5q-5 8 -12.5 9t-15.5 -1q-17 -1 -22 -20q-5 -17 -3 -37.5t2 -37.5v-43q0 -12 1 -26t15 -21zM1423 696v235h32v-212h60v-23h-92zM1220 430v233h32v-212h59v-21h-91zM462 -399q-15 0 -22 6.5t-9.5 16t-2.5 21v20.5
q0 11 0.5 22t4 19t11 12.5t21.5 3.5q12 -1 18.5 -7t9 -15t2.5 -19.5v-19.5v-19.5t-3 -19.5t-10 -15t-20 -6zM563 -251q-14 0 -21 6.5t-9.5 16.5t-2.5 21.5v21.5t0.5 20.5t4 18.5t10.5 13t21 4q12 -1 18 -7t9 -15t3 -19.5v-19.5t-0.5 -20t-3.5 -20t-9.5 -15t-19.5 -6z
M1468 -399q-14 0 -21 6.5t-9.5 16t-2.5 21v20.5q0 11 0.5 22t4 19t11 12.5t21.5 3.5q13 -1 18.5 -7t7.5 -15t1.5 -19.5t-0.5 -19.5v-19.5t-2.5 -19.5t-9 -15t-19.5 -6zM1398 -249v119q11 0 26 0.5t26 -8.5t10 -24.5t-1 -27.5t0.5 -28.5t-13.5 -24.5q-9 -8 -23 -7t-25 1z
M764 -398v119q12 0 24 1t22 -4q7 -4 10.5 -12t3.5 -17t-4 -16.5t-11 -10.5l17 -60h-16l-14 57h-13v-57h-19zM607 -398l2 119h17l21 -95l21 95h17l1 -119h-11l-2 88l-21 -88h-11l-18 88l-2 -88h-14zM510 -398l2 119h18l21 -95l20 95h16l2 -119h-13l-1 88l-20 -88h-11l-19 88
l-1 -88h-14zM1254 -398v119q11 0 23 1t23 -4q6 -4 10 -12t4 -17t-3.5 -16.5t-10.5 -10.5l15 -60h-15l-15 57h-14v-57h-17zM612 -249v119q11 0 22.5 1t21.5 -4q7 -4 11 -12.5t4.5 -17.5t-3 -16.5t-12.5 -10.5l18 -59h-17l-17 55h-12v-55h-16zM624 252v121h30t26 -12
q4 -11 3 -25t-9 -21q-8 -6 -16.5 -6.5t-17.5 -0.5v-56h-16zM782 -249v119h15v-52h31v52h18v-119h-18v55h-31v-55h-15zM1519 -398v119h10l35 -79v79h13v-119h-11l-35 82v-82h-12zM1320 -249v119h10l35 -79v79h13v-119h-10l-34 80v-80h-14zM807 252l26 121h16l26 -121h-18
l-5 32h-25l-5 -32h-15zM1242 -249l23 119h18l25 -119h-16l-6 30h-24l-7 -30h-13zM948 -398l25 119h17l25 -119h-15l-5 31h-26l-5 -31h-16zM1478 480l-9 183h30l-10 -183h-11zM463 830q8 0 16 -0.5t18 1.5q12 3 15.5 12.5t3.5 20.5q1 13 -2 25t-17 16q-10 2 -18 1.5t-16 -0.5
v-76zM1061 -249q-17 -5 -29.5 2.5t-16.5 24.5q-2 8 -1 15t1 13v64h15v-53q0 -5 -0.5 -14.5t0.5 -18.5t4.5 -16t11.5 -7t12 7t5.5 16t1 18.5t-0.5 14.5v53h14v-54q0 -8 0.5 -17.5t-0.5 -19t-4.5 -17.5t-12.5 -11zM384 -399q-15 0 -22 9t-9 21.5t-1.5 27t0.5 25.5q0 16 8.5 28
t28.5 10q18 -2 22 -14.5t4 -26.5h-16q0 5 0.5 10.5t-2.5 10.5q-2 8 -11 9t-13 -7q-6 -6 -4.5 -20t1.5 -23q0 -7 -1.5 -20t5.5 -21q3 -7 12 -5.5t11 9.5q3 5 2.5 11t-0.5 11h16q0 -15 -5 -30t-26 -15zM871 -399q-16 0 -22.5 9t-8 21.5t-0.5 27t1 25.5q0 16 7.5 28t27.5 10
q19 -2 23 -14.5t4 -26.5h-18q0 5 1 10.5t-2 10.5q-2 8 -10.5 9t-13.5 -7q-6 -6 -5 -20t1 -23q0 -7 -1 -20t6 -21q4 -7 12.5 -5.5t10.5 9.5q3 5 2 11t-1 11h18q0 -15 -5 -30t-27 -15zM1360 -399q-16 0 -23.5 10.5t-9.5 24.5l16 4q0 -6 2 -13.5t8 -9.5q9 -5 14 -0.5t5 11.5
q0 12 -10.5 21.5t-18.5 15.5q-11 11 -15 26.5t10 25.5q7 5 16.5 6t15.5 -3q8 -2 11.5 -10.5t4.5 -16.5l-14 -5l-2 12t-6 11q-16 4 -20 -9q-4 -9 3.5 -16t14.5 -13q7 -8 14.5 -15.5t9.5 -18.5q5 -14 -3 -26t-23 -12zM720 830h16t17 2q11 5 14.5 15.5t1.5 23.5q0 11 -2.5 19
t-13.5 13q-8 4 -17 3.5t-16 -0.5v-76zM914 251q-14 0 -22.5 10t-9.5 25l16 5q0 -6 2 -14t8 -12q8 -2 13.5 2.5t5.5 11.5q0 12 -10.5 21.5t-18.5 17.5q-11 9 -15 24t9 27q7 4 16 4.5t16 -1.5q9 -4 12.5 -12.5t4.5 -16.5l-14 -3q-1 5 -2.5 11t-6.5 11q-6 2 -11.5 0t-7.5 -10
q-3 -8 4 -16t12 -14q8 -6 16 -13.5t10 -18.5q5 -14 -3 -26.5t-24 -12.5zM1188 251q-16 0 -23 10t-8 25l16 5q0 -6 2.5 -14t8.5 -12q8 -2 12.5 2.5t4.5 11.5q1 12 -9.5 21.5t-18.5 17.5q-11 9 -15.5 24t8.5 27q17 8 33 3q8 -4 11.5 -12.5t4.5 -16.5l-14 -3q-1 5 -2.5 11
t-6.5 11q-5 2 -10.5 0t-6.5 -10q-6 -8 2 -16l14 -14q7 -6 14.5 -13.5t9.5 -18.5q5 -14 -2.5 -26.5t-24.5 -12.5zM1070 252l-27 121h18l17 -88l19 88h13l-25 -121h-15zM1141 -398l-27 119h15l20 -87l16 87h17l-28 -119h-13zM1194 -398v119h48v-10h-31v-39h25v-13h-25v-45h31
v-12h-48zM955 252v121h48v-11h-31v-41h25v-12h-25v-45h32v-12h-49zM705 -398v119h47v-10h-30v-39h25v-13h-25v-45h30v-12h-47zM555 -237q10 -5 14.5 -1t6.5 11.5t2 16.5v15q0 4 0.5 12t0.5 16t-2 14.5t-6 9.5q-11 6 -18 -2t-7 -18v-19q0 -4 -0.5 -12.5t-0.5 -17t2 -16
t8 -9.5zM864 -249v119h46v-12h-29v-40h25v-12h-25v-45h29v-10h-46zM753 252v121h46v-11h-31v-41h26v-12h-26v-45h31v-12h-46zM453 -382q10 -6 15 -2.5t7 10.5t2 16v15q0 4 0.5 12t0 15.5t-2 14t-5.5 8.5q-13 8 -18.5 0t-5.5 -17q-1 -5 -0.5 -9.5t0.5 -8.5q0 -5 -0.5 -13
t-0.5 -17t1.5 -16t6.5 -8zM1460 -382q10 -6 15 -2.5t7.5 10.5t2.5 16v15q0 4 0.5 12t-0.5 15.5t-3 14t-6 8.5q-12 8 -17 0t-5 -17v-18q0 -5 -1 -13t-1 -17t1.5 -16t6.5 -8zM474 -249v119h46v-12h-28v-40h22v-12h-22v-55h-18zM1414 -239q11 0 18.5 2t9.5 15v63q-1 13 -9 15
t-19 2v-97zM735 -249v107h-22v12h61v-12h-22v-107h-17zM1154 -249v119h17v-109h30v-10h-47zM960 -249v119h45v-12h-32v-40h24v-12h-24v-55h-13zM1281 252v110h-23v11h58v-11h-20v-110h-15zM1097 -249v119h16v-109h30v-10h-46zM695 252v121h15v-109h31v-12h-46zM1028 -398
v119h15v-107h32v-12h-47zM1313 778h40l-20 107zM1230 252v121h18v-121h-18zM919 -398v119h17v-119h-17zM420 -64h43v48h-43v-48zM1125 252v121h16v-121h-16zM1402 -398v119h15v-119h-15zM640 320h9t10 2q6 3 7 9t1 13q-1 14 -8.5 16t-18.5 2v-42zM1469 430v33h30v-33h-30z
M628 -182q11 0 19 3.5t8 17.5t-8 16.5t-19 2.5v-40zM1271 -328q11 0 19 2.5t8 16.5q0 12 -8 16t-19 4v-39zM783 -328q11 0 18 2.5t7 16.5q0 12 -7 16t-18 4v-39zM828 295h22l-9 55zM1264 -207h21l-11 54zM971 -356h21l-10 55zM1337 193l-30 -161l-29 161h-42l-4 -257h40
l1 105l20 -105h30l21 106l2 -106h37l-2 257h-44zM906 193v-204q0 -19 -16 -17q-7 1 -10 7t-4.5 13.5t-2 15.5t-0.5 14l-40 -2q0 -24 5 -48t28 -34q8 -4 15.5 -5t15.5 0q20 2 36 16t16 38v206h-43zM1013 193l-47 -257h43l10 61h28l8 -61h43l-45 257h-40zM1025 35l8 51l7 -51
h-15zM1174 -64v77l46 180h-43l-24 -120l-22 120h-43l43 -176v-81h43zM1766 -64v212h36v45h-116v-45h37v-212h43zM1520 110q0 19 -2.5 35t-9 27.5t-17.5 18t-28 6.5q-35 0 -46 -25t-11 -62v-90q0 -19 2.5 -35t9 -27.5t17.5 -18t28 -6.5q34 0 45.5 24.5t11.5 62.5v90zM1480 22
v-15t-1.5 -16.5t-5 -13t-10.5 -5.5t-10.5 5.5t-5 13t-1.5 16.5v15v86v15t1.5 16.5t5 13t10.5 5.5t10.5 -5.5t5 -13t1.5 -16.5v-15v-86zM1623 70l-44 123h-33v-257h40v126l45 -126h32v257h-40v-123z" />
    <glyph glyph-name="four" unicode="4" horiz-adv-x="1871" 
d="M196 193l-30 -161l-29 161h-42l-4 -257h40l1 105l20 -105h30l21 106l2 -106h37l-2 257h-44zM1032 694q-53 0 -62 52q-2 11 -2 22v22q0 24 -1 51.5t5 50.5q6 20 21.5 29.5t34.5 10.5q20 1 37.5 -7t24.5 -28q8 -22 7.5 -49.5t-0.5 -51.5q0 -14 -0.5 -27.5t-3.5 -26.5
q-11 -48 -61 -48zM971 428q-25 0 -41 12.5t-21 36.5q-2 12 -1.5 23.5t0.5 24.5q0 23 -1 49.5t4 49.5q6 21 21 30.5t35 9.5q21 1 38 -6t24 -27q9 -23 7 -50.5t-2 -50.5q0 -16 0.5 -28.5t-2.5 -26.5q-9 -47 -61 -47zM352 70l-44 123h-33v-257h40v126l45 -126h32v257h-40v-123z
M676 32h26v-16.5t-2 -22t-7.5 -17t-16.5 -2.5q-7 2 -10 9t-4 15.5t-0.5 17t0.5 13.5v61q0 12 -0.5 27.5t2.5 28.5q3 5 8.5 8.5t11.5 2.5q13 -4 14 -16q2 -9 1.5 -18.5t-0.5 -20.5h43q0 22 -3 47t-25 39q-12 8 -28 8.5t-30 -4.5q-17 -5 -25.5 -20t-11.5 -32q-2 -18 -1.5 -37
t0.5 -38q0 -18 -0.5 -35.5t1.5 -35.5q2 -15 7.5 -30.5t19.5 -22.5q13 -9 32 -8.5t30 11.5l1 -8h34v134h-67v-38zM686 696v235q23 0 47.5 0.5t44.5 -10.5q12 -8 19 -23.5t7 -32.5t-7 -31.5t-21 -19.5l31 -118h-31l-31 111h-25v-111h-34zM568 70l-21 23q-7 7 -13.5 13t-9.5 17
q-3 8 -0.5 21.5t15.5 12.5q7 -1 10 -7t4.5 -13.5t2 -15.5t0.5 -14l40 2q0 24 -5 48t-28 34q-14 6 -28 5t-25.5 -7t-19 -17.5t-8.5 -26.5q-2 -15 0.5 -31t11.5 -28q3 -8 9.5 -13t12.5 -12q12 -14 26 -29.5t14 -35.5q0 -8 -1.5 -14.5t-8.5 -7.5q-6 -2 -10 1t-6 8
q-6 11 -7 22.5t-2 23.5l-40 -3q0 -17 1.5 -32t8.5 -30q8 -18 25.5 -26t36.5 -4q20 4 31.5 19t13.5 32q6 48 -30 85zM431 696v235h49q18 0 33.5 -4t24.5 -22q5 -10 7.5 -22.5t1.5 -24.5t-6 -23t-14 -18q-13 -11 -31 -11h-33v-110h-32zM1067 430v233h22l66 -156v156h29v-233
h-22l-68 159v-159h-27zM1129 696v235h22l65 -156v156h28v-235h-21l-68 159v-159h-26zM1268 696l49 235h32l49 -235h-30l-12 58h-47l-11 -58h-30zM520 431q-21 -8 -46 -1t-34 32q-5 12 -6 25.5t-1 30.5v145h31v-156q0 -13 2 -30t17 -25q13 -4 21.5 0t13 12t6.5 18.5t2 20.5
q1 20 0.5 37.5t-0.5 37.5v85h33v-107q0 -15 0.5 -34t-2 -37t-11 -33t-26.5 -21zM647 428q-30 0 -45 19t-17 48l31 8q1 -11 2.5 -22t8.5 -19q8 -9 19 -10t19 7q10 8 9 22t-8 23q-5 7 -11.5 14t-14.5 12q-11 11 -24 21.5t-21 23.5q-7 11 -9 24.5t1.5 26.5t11.5 23t22 14
q13 3 29 2t28 -9q11 -8 15 -22.5t5 -28.5l-25 -9q-2 14 -6.5 27.5t-19.5 16.5q-11 2 -19.5 -3.5t-10.5 -17.5q-3 -9 0 -17t9 -15t13.5 -12.5t13.5 -11.5q16 -14 29.5 -28t17.5 -36q7 -27 -8.5 -49t-44.5 -22zM891 694q-29 0 -45.5 19.5t-17.5 47.5l30 8q2 -11 4 -22.5
t9 -18.5q8 -8 19 -9t19 6q9 8 8.5 22t-7.5 25q-6 10 -26 25q-11 10 -23.5 20.5t-20.5 22.5t-10 26.5t1 27t11.5 22.5t22.5 14q13 3 29 1.5t27 -9.5q12 -8 16 -22t5 -28l-25 -8q-2 12 -6.5 26t-19.5 18q-11 1 -20 -4.5t-11 -15.5t1 -18.5t9 -15.5t13.5 -13t14.5 -11
q15 -14 29 -28.5t19 -34.5q5 -29 -10 -51t-45 -22zM752 -96h37l73 322h-41zM728 430v233h91v-25h-58v-76h47v-24h-47v-87h58v-21h-91zM570 696v235h90v-25h-58v-76h47v-24h-47v-87h59v-23h-91zM1369 430v48q0 9 1 18t-1 17q-2 13 -6.5 23.5t-9.5 21.5l-33 105h30l35 -112
l34 112h32l-16 -48t-16 -49l-16 -48q-3 -8 -2.5 -16t0.5 -14v-58h-32zM955 455q7 -4 16 -4t14 4q9 5 12.5 13.5t5.5 17.5q1 5 0.5 12t-0.5 12v83q0 10 -1 20.5t-9 18.5q-13 13 -29 8q-16 -4 -23 -22q-3 -17 -2 -37t1 -37v-42q0 -12 1.5 -26t13.5 -21zM1019 721q13 -5 29 0
q10 5 12.5 13.5t3.5 16.5v109q0 10 -1 20.5t-9 17.5q-5 8 -12.5 9t-15.5 -1q-17 -1 -22 -20q-5 -17 -3 -37.5t2 -37.5v-43q0 -12 1 -26t15 -21zM1423 696v235h32v-212h60v-23h-92zM1220 430v233h32v-212h59v-21h-91zM462 -399q-15 0 -22 6.5t-9.5 16t-2.5 21v20.5
q0 11 0.5 22t4 19t11 12.5t21.5 3.5q12 -1 18.5 -7t9 -15t2.5 -19.5v-19.5v-19.5t-3 -19.5t-10 -15t-20 -6zM563 -251q-14 0 -21 6.5t-9.5 16.5t-2.5 21.5v21.5t0.5 20.5t4 18.5t10.5 13t21 4q12 -1 18 -7t9 -15t3 -19.5v-19.5t-0.5 -20t-3.5 -20t-9.5 -15t-19.5 -6z
M1468 -399q-14 0 -21 6.5t-9.5 16t-2.5 21v20.5q0 11 0.5 22t4 19t11 12.5t21.5 3.5q13 -1 18.5 -7t7.5 -15t1.5 -19.5t-0.5 -19.5v-19.5t-2.5 -19.5t-9 -15t-19.5 -6zM1398 -249v119q11 0 26 0.5t26 -8.5t10 -24.5t-1 -27.5t0.5 -28.5t-13.5 -24.5q-9 -8 -23 -7t-25 1z
M764 -398v119q12 0 24 1t22 -4q7 -4 10.5 -12t3.5 -17t-4 -16.5t-11 -10.5l17 -60h-16l-14 57h-13v-57h-19zM607 -398l2 119h17l21 -95l21 95h17l1 -119h-11l-2 88l-21 -88h-11l-18 88l-2 -88h-14zM510 -398l2 119h18l21 -95l20 95h16l2 -119h-13l-1 88l-20 -88h-11l-19 88
l-1 -88h-14zM1254 -398v119q11 0 23 1t23 -4q6 -4 10 -12t4 -17t-3.5 -16.5t-10.5 -10.5l15 -60h-15l-15 57h-14v-57h-17zM612 -249v119q11 0 22.5 1t21.5 -4q7 -4 11 -12.5t4.5 -17.5t-3 -16.5t-12.5 -10.5l18 -59h-17l-17 55h-12v-55h-16zM624 252v121h30t26 -12
q4 -11 3 -25t-9 -21q-8 -6 -16.5 -6.5t-17.5 -0.5v-56h-16zM782 -249v119h15v-52h31v52h18v-119h-18v55h-31v-55h-15zM1519 -398v119h10l35 -79v79h13v-119h-11l-35 82v-82h-12zM1320 -249v119h10l35 -79v79h13v-119h-10l-34 80v-80h-14zM807 252l26 121h16l26 -121h-18
l-5 32h-25l-5 -32h-15zM1242 -249l23 119h18l25 -119h-16l-6 30h-24l-7 -30h-13zM948 -398l25 119h17l25 -119h-15l-5 31h-26l-5 -31h-16zM1478 480l-9 183h30l-10 -183h-11zM463 830q8 0 16 -0.5t18 1.5q12 3 15.5 12.5t3.5 20.5q1 13 -2 25t-17 16q-10 2 -18 1.5t-16 -0.5
v-76zM1061 -249q-17 -5 -29.5 2.5t-16.5 24.5q-2 8 -1 15t1 13v64h15v-53q0 -5 -0.5 -14.5t0.5 -18.5t4.5 -16t11.5 -7t12 7t5.5 16t1 18.5t-0.5 14.5v53h14v-54q0 -8 0.5 -17.5t-0.5 -19t-4.5 -17.5t-12.5 -11zM384 -399q-15 0 -22 9t-9 21.5t-1.5 27t0.5 25.5q0 16 8.5 28
t28.5 10q18 -2 22 -14.5t4 -26.5h-16q0 5 0.5 10.5t-2.5 10.5q-2 8 -11 9t-13 -7q-6 -6 -4.5 -20t1.5 -23q0 -7 -1.5 -20t5.5 -21q3 -7 12 -5.5t11 9.5q3 5 2.5 11t-0.5 11h16q0 -15 -5 -30t-26 -15zM871 -399q-16 0 -22.5 9t-8 21.5t-0.5 27t1 25.5q0 16 7.5 28t27.5 10
q19 -2 23 -14.5t4 -26.5h-18q0 5 1 10.5t-2 10.5q-2 8 -10.5 9t-13.5 -7q-6 -6 -5 -20t1 -23q0 -7 -1 -20t6 -21q4 -7 12.5 -5.5t10.5 9.5q3 5 2 11t-1 11h18q0 -15 -5 -30t-27 -15zM1360 -399q-16 0 -23.5 10.5t-9.5 24.5l16 4q0 -6 2 -13.5t8 -9.5q9 -5 14 -0.5t5 11.5
q0 12 -10.5 21.5t-18.5 15.5q-11 11 -15 26.5t10 25.5q7 5 16.5 6t15.5 -3q8 -2 11.5 -10.5t4.5 -16.5l-14 -5l-2 12t-6 11q-16 4 -20 -9q-4 -9 3.5 -16t14.5 -13q7 -8 14.5 -15.5t9.5 -18.5q5 -14 -3 -26t-23 -12zM720 830h16t17 2q11 5 14.5 15.5t1.5 23.5q0 11 -2.5 19
t-13.5 13q-8 4 -17 3.5t-16 -0.5v-76zM914 251q-14 0 -22.5 10t-9.5 25l16 5q0 -6 2 -14t8 -12q8 -2 13.5 2.5t5.5 11.5q0 12 -10.5 21.5t-18.5 17.5q-11 9 -15 24t9 27q7 4 16 4.5t16 -1.5q9 -4 12.5 -12.5t4.5 -16.5l-14 -3q-1 5 -2.5 11t-6.5 11q-6 2 -11.5 0t-7.5 -10
q-3 -8 4 -16t12 -14q8 -6 16 -13.5t10 -18.5q5 -14 -3 -26.5t-24 -12.5zM1188 251q-16 0 -23 10t-8 25l16 5q0 -6 2.5 -14t8.5 -12q8 -2 12.5 2.5t4.5 11.5q1 12 -9.5 21.5t-18.5 17.5q-11 9 -15.5 24t8.5 27q17 8 33 3q8 -4 11.5 -12.5t4.5 -16.5l-14 -3q-1 5 -2.5 11
t-6.5 11q-5 2 -10.5 0t-6.5 -10q-6 -8 2 -16l14 -14q7 -6 14.5 -13.5t9.5 -18.5q5 -14 -2.5 -26.5t-24.5 -12.5zM1070 252l-27 121h18l17 -88l19 88h13l-25 -121h-15zM1141 -398l-27 119h15l20 -87l16 87h17l-28 -119h-13zM1194 -398v119h48v-10h-31v-39h25v-13h-25v-45h31
v-12h-48zM955 252v121h48v-11h-31v-41h25v-12h-25v-45h32v-12h-49zM705 -398v119h47v-10h-30v-39h25v-13h-25v-45h30v-12h-47zM555 -237q10 -5 14.5 -1t6.5 11.5t2 16.5v15q0 4 0.5 12t0.5 16t-2 14.5t-6 9.5q-11 6 -18 -2t-7 -18v-19q0 -4 -0.5 -12.5t-0.5 -17t2 -16
t8 -9.5zM864 -249v119h46v-12h-29v-40h25v-12h-25v-45h29v-10h-46zM753 252v121h46v-11h-31v-41h26v-12h-26v-45h31v-12h-46zM453 -382q10 -6 15 -2.5t7 10.5t2 16v15q0 4 0.5 12t0 15.5t-2 14t-5.5 8.5q-13 8 -18.5 0t-5.5 -17q-1 -5 -0.5 -9.5t0.5 -8.5q0 -5 -0.5 -13
t-0.5 -17t1.5 -16t6.5 -8zM1460 -382q10 -6 15 -2.5t7.5 10.5t2.5 16v15q0 4 0.5 12t-0.5 15.5t-3 14t-6 8.5q-12 8 -17 0t-5 -17v-18q0 -5 -1 -13t-1 -17t1.5 -16t6.5 -8zM474 -249v119h46v-12h-28v-40h22v-12h-22v-55h-18zM1414 -239q11 0 18.5 2t9.5 15v63q-1 13 -9 15
t-19 2v-97zM735 -249v107h-22v12h61v-12h-22v-107h-17zM1154 -249v119h17v-109h30v-10h-47zM960 -249v119h45v-12h-32v-40h24v-12h-24v-55h-13zM1281 252v110h-23v11h58v-11h-20v-110h-15zM1097 -249v119h16v-109h30v-10h-46zM695 252v121h15v-109h31v-12h-46zM1028 -398
v119h15v-107h32v-12h-47zM1313 778h40l-20 107zM1230 252v121h18v-121h-18zM919 -398v119h17v-119h-17zM420 -64h43v48h-43v-48zM1125 252v121h16v-121h-16zM1402 -398v119h15v-119h-15zM640 320h9t10 2q6 3 7 9t1 13q-1 14 -8.5 16t-18.5 2v-42zM1469 430v33h30v-33h-30z
M628 -182q11 0 19 3.5t8 17.5t-8 16.5t-19 2.5v-40zM1271 -328q11 0 19 2.5t8 16.5q0 12 -8 16t-19 4v-39zM783 -328q11 0 18 2.5t7 16.5q0 12 -7 16t-18 4v-39zM828 295h22l-9 55zM1264 -207h21l-11 54zM971 -356h21l-10 55zM1337 193l-30 -161l-29 161h-42l-4 -257h40
l1 105l20 -105h30l21 106l2 -106h37l-2 257h-44zM906 193v-204q0 -19 -16 -17q-7 1 -10 7t-4.5 13.5t-2 15.5t-0.5 14l-40 -2q0 -24 5 -48t28 -34q8 -4 15.5 -5t15.5 0q20 2 36 16t16 38v206h-43zM1013 193l-47 -257h43l10 61h28l8 -61h43l-45 257h-40zM1025 35l8 51l7 -51
h-15zM1174 -64v77l46 180h-43l-24 -120l-22 120h-43l43 -176v-81h43zM1766 -64v212h36v45h-116v-45h37v-212h43zM1520 110q0 19 -2.5 35t-9 27.5t-17.5 18t-28 6.5q-35 0 -46 -25t-11 -62v-90q0 -19 2.5 -35t9 -27.5t17.5 -18t28 -6.5q34 0 45.5 24.5t11.5 62.5v90zM1480 22
v-15t-1.5 -16.5t-5 -13t-10.5 -5.5t-10.5 5.5t-5 13t-1.5 16.5v15v86v15t1.5 16.5t5 13t10.5 5.5t10.5 -5.5t5 -13t1.5 -16.5v-15v-86zM1623 70l-44 123h-33v-257h40v126l45 -126h32v257h-40v-123z" />
    <glyph glyph-name="five" unicode="5" horiz-adv-x="1871" 
d="M196 193l-30 -161l-29 161h-42l-4 -257h40l1 105l20 -105h30l21 106l2 -106h37l-2 257h-44zM1032 694q-53 0 -62 52q-2 11 -2 22v22q0 24 -1 51.5t5 50.5q6 20 21.5 29.5t34.5 10.5q20 1 37.5 -7t24.5 -28q8 -22 7.5 -49.5t-0.5 -51.5q0 -14 -0.5 -27.5t-3.5 -26.5
q-11 -48 -61 -48zM971 428q-25 0 -41 12.5t-21 36.5q-2 12 -1.5 23.5t0.5 24.5q0 23 -1 49.5t4 49.5q6 21 21 30.5t35 9.5q21 1 38 -6t24 -27q9 -23 7 -50.5t-2 -50.5q0 -16 0.5 -28.5t-2.5 -26.5q-9 -47 -61 -47zM352 70l-44 123h-33v-257h40v126l45 -126h32v257h-40v-123z
M676 32h26v-16.5t-2 -22t-7.5 -17t-16.5 -2.5q-7 2 -10 9t-4 15.5t-0.5 17t0.5 13.5v61q0 12 -0.5 27.5t2.5 28.5q3 5 8.5 8.5t11.5 2.5q13 -4 14 -16q2 -9 1.5 -18.5t-0.5 -20.5h43q0 22 -3 47t-25 39q-12 8 -28 8.5t-30 -4.5q-17 -5 -25.5 -20t-11.5 -32q-2 -18 -1.5 -37
t0.5 -38q0 -18 -0.5 -35.5t1.5 -35.5q2 -15 7.5 -30.5t19.5 -22.5q13 -9 32 -8.5t30 11.5l1 -8h34v134h-67v-38zM686 696v235q23 0 47.5 0.5t44.5 -10.5q12 -8 19 -23.5t7 -32.5t-7 -31.5t-21 -19.5l31 -118h-31l-31 111h-25v-111h-34zM568 70l-21 23q-7 7 -13.5 13t-9.5 17
q-3 8 -0.5 21.5t15.5 12.5q7 -1 10 -7t4.5 -13.5t2 -15.5t0.5 -14l40 2q0 24 -5 48t-28 34q-14 6 -28 5t-25.5 -7t-19 -17.5t-8.5 -26.5q-2 -15 0.5 -31t11.5 -28q3 -8 9.5 -13t12.5 -12q12 -14 26 -29.5t14 -35.5q0 -8 -1.5 -14.5t-8.5 -7.5q-6 -2 -10 1t-6 8
q-6 11 -7 22.5t-2 23.5l-40 -3q0 -17 1.5 -32t8.5 -30q8 -18 25.5 -26t36.5 -4q20 4 31.5 19t13.5 32q6 48 -30 85zM431 696v235h49q18 0 33.5 -4t24.5 -22q5 -10 7.5 -22.5t1.5 -24.5t-6 -23t-14 -18q-13 -11 -31 -11h-33v-110h-32zM1067 430v233h22l66 -156v156h29v-233
h-22l-68 159v-159h-27zM1129 696v235h22l65 -156v156h28v-235h-21l-68 159v-159h-26zM1268 696l49 235h32l49 -235h-30l-12 58h-47l-11 -58h-30zM520 431q-21 -8 -46 -1t-34 32q-5 12 -6 25.5t-1 30.5v145h31v-156q0 -13 2 -30t17 -25q13 -4 21.5 0t13 12t6.5 18.5t2 20.5
q1 20 0.5 37.5t-0.5 37.5v85h33v-107q0 -15 0.5 -34t-2 -37t-11 -33t-26.5 -21zM647 428q-30 0 -45 19t-17 48l31 8q1 -11 2.5 -22t8.5 -19q8 -9 19 -10t19 7q10 8 9 22t-8 23q-5 7 -11.5 14t-14.5 12q-11 11 -24 21.5t-21 23.5q-7 11 -9 24.5t1.5 26.5t11.5 23t22 14
q13 3 29 2t28 -9q11 -8 15 -22.5t5 -28.5l-25 -9q-2 14 -6.5 27.5t-19.5 16.5q-11 2 -19.5 -3.5t-10.5 -17.5q-3 -9 0 -17t9 -15t13.5 -12.5t13.5 -11.5q16 -14 29.5 -28t17.5 -36q7 -27 -8.5 -49t-44.5 -22zM891 694q-29 0 -45.5 19.5t-17.5 47.5l30 8q2 -11 4 -22.5
t9 -18.5q8 -8 19 -9t19 6q9 8 8.5 22t-7.5 25q-6 10 -26 25q-11 10 -23.5 20.5t-20.5 22.5t-10 26.5t1 27t11.5 22.5t22.5 14q13 3 29 1.5t27 -9.5q12 -8 16 -22t5 -28l-25 -8q-2 12 -6.5 26t-19.5 18q-11 1 -20 -4.5t-11 -15.5t1 -18.5t9 -15.5t13.5 -13t14.5 -11
q15 -14 29 -28.5t19 -34.5q5 -29 -10 -51t-45 -22zM752 -96h37l73 322h-41zM728 430v233h91v-25h-58v-76h47v-24h-47v-87h58v-21h-91zM570 696v235h90v-25h-58v-76h47v-24h-47v-87h59v-23h-91zM1369 430v48q0 9 1 18t-1 17q-2 13 -6.5 23.5t-9.5 21.5l-33 105h30l35 -112
l34 112h32l-16 -48t-16 -49l-16 -48q-3 -8 -2.5 -16t0.5 -14v-58h-32zM955 455q7 -4 16 -4t14 4q9 5 12.5 13.5t5.5 17.5q1 5 0.5 12t-0.5 12v83q0 10 -1 20.5t-9 18.5q-13 13 -29 8q-16 -4 -23 -22q-3 -17 -2 -37t1 -37v-42q0 -12 1.5 -26t13.5 -21zM1019 721q13 -5 29 0
q10 5 12.5 13.5t3.5 16.5v109q0 10 -1 20.5t-9 17.5q-5 8 -12.5 9t-15.5 -1q-17 -1 -22 -20q-5 -17 -3 -37.5t2 -37.5v-43q0 -12 1 -26t15 -21zM1423 696v235h32v-212h60v-23h-92zM1220 430v233h32v-212h59v-21h-91zM462 -399q-15 0 -22 6.5t-9.5 16t-2.5 21v20.5
q0 11 0.5 22t4 19t11 12.5t21.5 3.5q12 -1 18.5 -7t9 -15t2.5 -19.5v-19.5v-19.5t-3 -19.5t-10 -15t-20 -6zM563 -251q-14 0 -21 6.5t-9.5 16.5t-2.5 21.5v21.5t0.5 20.5t4 18.5t10.5 13t21 4q12 -1 18 -7t9 -15t3 -19.5v-19.5t-0.5 -20t-3.5 -20t-9.5 -15t-19.5 -6z
M1468 -399q-14 0 -21 6.5t-9.5 16t-2.5 21v20.5q0 11 0.5 22t4 19t11 12.5t21.5 3.5q13 -1 18.5 -7t7.5 -15t1.5 -19.5t-0.5 -19.5v-19.5t-2.5 -19.5t-9 -15t-19.5 -6zM1398 -249v119q11 0 26 0.5t26 -8.5t10 -24.5t-1 -27.5t0.5 -28.5t-13.5 -24.5q-9 -8 -23 -7t-25 1z
M764 -398v119q12 0 24 1t22 -4q7 -4 10.5 -12t3.5 -17t-4 -16.5t-11 -10.5l17 -60h-16l-14 57h-13v-57h-19zM607 -398l2 119h17l21 -95l21 95h17l1 -119h-11l-2 88l-21 -88h-11l-18 88l-2 -88h-14zM510 -398l2 119h18l21 -95l20 95h16l2 -119h-13l-1 88l-20 -88h-11l-19 88
l-1 -88h-14zM1254 -398v119q11 0 23 1t23 -4q6 -4 10 -12t4 -17t-3.5 -16.5t-10.5 -10.5l15 -60h-15l-15 57h-14v-57h-17zM612 -249v119q11 0 22.5 1t21.5 -4q7 -4 11 -12.5t4.5 -17.5t-3 -16.5t-12.5 -10.5l18 -59h-17l-17 55h-12v-55h-16zM624 252v121h30t26 -12
q4 -11 3 -25t-9 -21q-8 -6 -16.5 -6.5t-17.5 -0.5v-56h-16zM782 -249v119h15v-52h31v52h18v-119h-18v55h-31v-55h-15zM1519 -398v119h10l35 -79v79h13v-119h-11l-35 82v-82h-12zM1320 -249v119h10l35 -79v79h13v-119h-10l-34 80v-80h-14zM807 252l26 121h16l26 -121h-18
l-5 32h-25l-5 -32h-15zM1242 -249l23 119h18l25 -119h-16l-6 30h-24l-7 -30h-13zM948 -398l25 119h17l25 -119h-15l-5 31h-26l-5 -31h-16zM1478 480l-9 183h30l-10 -183h-11zM463 830q8 0 16 -0.5t18 1.5q12 3 15.5 12.5t3.5 20.5q1 13 -2 25t-17 16q-10 2 -18 1.5t-16 -0.5
v-76zM1061 -249q-17 -5 -29.5 2.5t-16.5 24.5q-2 8 -1 15t1 13v64h15v-53q0 -5 -0.5 -14.5t0.5 -18.5t4.5 -16t11.5 -7t12 7t5.5 16t1 18.5t-0.5 14.5v53h14v-54q0 -8 0.5 -17.5t-0.5 -19t-4.5 -17.5t-12.5 -11zM384 -399q-15 0 -22 9t-9 21.5t-1.5 27t0.5 25.5q0 16 8.5 28
t28.5 10q18 -2 22 -14.5t4 -26.5h-16q0 5 0.5 10.5t-2.5 10.5q-2 8 -11 9t-13 -7q-6 -6 -4.5 -20t1.5 -23q0 -7 -1.5 -20t5.5 -21q3 -7 12 -5.5t11 9.5q3 5 2.5 11t-0.5 11h16q0 -15 -5 -30t-26 -15zM871 -399q-16 0 -22.5 9t-8 21.5t-0.5 27t1 25.5q0 16 7.5 28t27.5 10
q19 -2 23 -14.5t4 -26.5h-18q0 5 1 10.5t-2 10.5q-2 8 -10.5 9t-13.5 -7q-6 -6 -5 -20t1 -23q0 -7 -1 -20t6 -21q4 -7 12.5 -5.5t10.5 9.5q3 5 2 11t-1 11h18q0 -15 -5 -30t-27 -15zM1360 -399q-16 0 -23.5 10.5t-9.5 24.5l16 4q0 -6 2 -13.5t8 -9.5q9 -5 14 -0.5t5 11.5
q0 12 -10.5 21.5t-18.5 15.5q-11 11 -15 26.5t10 25.5q7 5 16.5 6t15.5 -3q8 -2 11.5 -10.5t4.5 -16.5l-14 -5l-2 12t-6 11q-16 4 -20 -9q-4 -9 3.5 -16t14.5 -13q7 -8 14.5 -15.5t9.5 -18.5q5 -14 -3 -26t-23 -12zM720 830h16t17 2q11 5 14.5 15.5t1.5 23.5q0 11 -2.5 19
t-13.5 13q-8 4 -17 3.5t-16 -0.5v-76zM914 251q-14 0 -22.5 10t-9.5 25l16 5q0 -6 2 -14t8 -12q8 -2 13.5 2.5t5.5 11.5q0 12 -10.5 21.5t-18.5 17.5q-11 9 -15 24t9 27q7 4 16 4.5t16 -1.5q9 -4 12.5 -12.5t4.5 -16.5l-14 -3q-1 5 -2.5 11t-6.5 11q-6 2 -11.5 0t-7.5 -10
q-3 -8 4 -16t12 -14q8 -6 16 -13.5t10 -18.5q5 -14 -3 -26.5t-24 -12.5zM1188 251q-16 0 -23 10t-8 25l16 5q0 -6 2.5 -14t8.5 -12q8 -2 12.5 2.5t4.5 11.5q1 12 -9.5 21.5t-18.5 17.5q-11 9 -15.5 24t8.5 27q17 8 33 3q8 -4 11.5 -12.5t4.5 -16.5l-14 -3q-1 5 -2.5 11
t-6.5 11q-5 2 -10.5 0t-6.5 -10q-6 -8 2 -16l14 -14q7 -6 14.5 -13.5t9.5 -18.5q5 -14 -2.5 -26.5t-24.5 -12.5zM1070 252l-27 121h18l17 -88l19 88h13l-25 -121h-15zM1141 -398l-27 119h15l20 -87l16 87h17l-28 -119h-13zM1194 -398v119h48v-10h-31v-39h25v-13h-25v-45h31
v-12h-48zM955 252v121h48v-11h-31v-41h25v-12h-25v-45h32v-12h-49zM705 -398v119h47v-10h-30v-39h25v-13h-25v-45h30v-12h-47zM555 -237q10 -5 14.5 -1t6.5 11.5t2 16.5v15q0 4 0.5 12t0.5 16t-2 14.5t-6 9.5q-11 6 -18 -2t-7 -18v-19q0 -4 -0.5 -12.5t-0.5 -17t2 -16
t8 -9.5zM864 -249v119h46v-12h-29v-40h25v-12h-25v-45h29v-10h-46zM753 252v121h46v-11h-31v-41h26v-12h-26v-45h31v-12h-46zM453 -382q10 -6 15 -2.5t7 10.5t2 16v15q0 4 0.5 12t0 15.5t-2 14t-5.5 8.5q-13 8 -18.5 0t-5.5 -17q-1 -5 -0.5 -9.5t0.5 -8.5q0 -5 -0.5 -13
t-0.5 -17t1.5 -16t6.5 -8zM1460 -382q10 -6 15 -2.5t7.5 10.5t2.5 16v15q0 4 0.5 12t-0.5 15.5t-3 14t-6 8.5q-12 8 -17 0t-5 -17v-18q0 -5 -1 -13t-1 -17t1.5 -16t6.5 -8zM474 -249v119h46v-12h-28v-40h22v-12h-22v-55h-18zM1414 -239q11 0 18.5 2t9.5 15v63q-1 13 -9 15
t-19 2v-97zM735 -249v107h-22v12h61v-12h-22v-107h-17zM1154 -249v119h17v-109h30v-10h-47zM960 -249v119h45v-12h-32v-40h24v-12h-24v-55h-13zM1281 252v110h-23v11h58v-11h-20v-110h-15zM1097 -249v119h16v-109h30v-10h-46zM695 252v121h15v-109h31v-12h-46zM1028 -398
v119h15v-107h32v-12h-47zM1313 778h40l-20 107zM1230 252v121h18v-121h-18zM919 -398v119h17v-119h-17zM420 -64h43v48h-43v-48zM1125 252v121h16v-121h-16zM1402 -398v119h15v-119h-15zM640 320h9t10 2q6 3 7 9t1 13q-1 14 -8.5 16t-18.5 2v-42zM1469 430v33h30v-33h-30z
M628 -182q11 0 19 3.5t8 17.5t-8 16.5t-19 2.5v-40zM1271 -328q11 0 19 2.5t8 16.5q0 12 -8 16t-19 4v-39zM783 -328q11 0 18 2.5t7 16.5q0 12 -7 16t-18 4v-39zM828 295h22l-9 55zM1264 -207h21l-11 54zM971 -356h21l-10 55zM1337 193l-30 -161l-29 161h-42l-4 -257h40
l1 105l20 -105h30l21 106l2 -106h37l-2 257h-44zM906 193v-204q0 -19 -16 -17q-7 1 -10 7t-4.5 13.5t-2 15.5t-0.5 14l-40 -2q0 -24 5 -48t28 -34q8 -4 15.5 -5t15.5 0q20 2 36 16t16 38v206h-43zM1013 193l-47 -257h43l10 61h28l8 -61h43l-45 257h-40zM1025 35l8 51l7 -51
h-15zM1174 -64v77l46 180h-43l-24 -120l-22 120h-43l43 -176v-81h43zM1766 -64v212h36v45h-116v-45h37v-212h43zM1520 110q0 19 -2.5 35t-9 27.5t-17.5 18t-28 6.5q-35 0 -46 -25t-11 -62v-90q0 -19 2.5 -35t9 -27.5t17.5 -18t28 -6.5q34 0 45.5 24.5t11.5 62.5v90zM1480 22
v-15t-1.5 -16.5t-5 -13t-10.5 -5.5t-10.5 5.5t-5 13t-1.5 16.5v15v86v15t1.5 16.5t5 13t10.5 5.5t10.5 -5.5t5 -13t1.5 -16.5v-15v-86zM1623 70l-44 123h-33v-257h40v126l45 -126h32v257h-40v-123z" />
    <glyph glyph-name="six" unicode="6" horiz-adv-x="1871" 
d="M196 193l-30 -161l-29 161h-42l-4 -257h40l1 105l20 -105h30l21 106l2 -106h37l-2 257h-44zM1032 694q-53 0 -62 52q-2 11 -2 22v22q0 24 -1 51.5t5 50.5q6 20 21.5 29.5t34.5 10.5q20 1 37.5 -7t24.5 -28q8 -22 7.5 -49.5t-0.5 -51.5q0 -14 -0.5 -27.5t-3.5 -26.5
q-11 -48 -61 -48zM971 428q-25 0 -41 12.5t-21 36.5q-2 12 -1.5 23.5t0.5 24.5q0 23 -1 49.5t4 49.5q6 21 21 30.5t35 9.5q21 1 38 -6t24 -27q9 -23 7 -50.5t-2 -50.5q0 -16 0.5 -28.5t-2.5 -26.5q-9 -47 -61 -47zM352 70l-44 123h-33v-257h40v126l45 -126h32v257h-40v-123z
M676 32h26v-16.5t-2 -22t-7.5 -17t-16.5 -2.5q-7 2 -10 9t-4 15.5t-0.5 17t0.5 13.5v61q0 12 -0.5 27.5t2.5 28.5q3 5 8.5 8.5t11.5 2.5q13 -4 14 -16q2 -9 1.5 -18.5t-0.5 -20.5h43q0 22 -3 47t-25 39q-12 8 -28 8.5t-30 -4.5q-17 -5 -25.5 -20t-11.5 -32q-2 -18 -1.5 -37
t0.5 -38q0 -18 -0.5 -35.5t1.5 -35.5q2 -15 7.5 -30.5t19.5 -22.5q13 -9 32 -8.5t30 11.5l1 -8h34v134h-67v-38zM686 696v235q23 0 47.5 0.5t44.5 -10.5q12 -8 19 -23.5t7 -32.5t-7 -31.5t-21 -19.5l31 -118h-31l-31 111h-25v-111h-34zM568 70l-21 23q-7 7 -13.5 13t-9.5 17
q-3 8 -0.5 21.5t15.5 12.5q7 -1 10 -7t4.5 -13.5t2 -15.5t0.5 -14l40 2q0 24 -5 48t-28 34q-14 6 -28 5t-25.5 -7t-19 -17.5t-8.5 -26.5q-2 -15 0.5 -31t11.5 -28q3 -8 9.5 -13t12.5 -12q12 -14 26 -29.5t14 -35.5q0 -8 -1.5 -14.5t-8.5 -7.5q-6 -2 -10 1t-6 8
q-6 11 -7 22.5t-2 23.5l-40 -3q0 -17 1.5 -32t8.5 -30q8 -18 25.5 -26t36.5 -4q20 4 31.5 19t13.5 32q6 48 -30 85zM431 696v235h49q18 0 33.5 -4t24.5 -22q5 -10 7.5 -22.5t1.5 -24.5t-6 -23t-14 -18q-13 -11 -31 -11h-33v-110h-32zM1067 430v233h22l66 -156v156h29v-233
h-22l-68 159v-159h-27zM1129 696v235h22l65 -156v156h28v-235h-21l-68 159v-159h-26zM1268 696l49 235h32l49 -235h-30l-12 58h-47l-11 -58h-30zM520 431q-21 -8 -46 -1t-34 32q-5 12 -6 25.5t-1 30.5v145h31v-156q0 -13 2 -30t17 -25q13 -4 21.5 0t13 12t6.5 18.5t2 20.5
q1 20 0.5 37.5t-0.5 37.5v85h33v-107q0 -15 0.5 -34t-2 -37t-11 -33t-26.5 -21zM647 428q-30 0 -45 19t-17 48l31 8q1 -11 2.5 -22t8.5 -19q8 -9 19 -10t19 7q10 8 9 22t-8 23q-5 7 -11.5 14t-14.5 12q-11 11 -24 21.5t-21 23.5q-7 11 -9 24.5t1.5 26.5t11.5 23t22 14
q13 3 29 2t28 -9q11 -8 15 -22.5t5 -28.5l-25 -9q-2 14 -6.5 27.5t-19.5 16.5q-11 2 -19.5 -3.5t-10.5 -17.5q-3 -9 0 -17t9 -15t13.5 -12.5t13.5 -11.5q16 -14 29.5 -28t17.5 -36q7 -27 -8.5 -49t-44.5 -22zM891 694q-29 0 -45.5 19.5t-17.5 47.5l30 8q2 -11 4 -22.5
t9 -18.5q8 -8 19 -9t19 6q9 8 8.5 22t-7.5 25q-6 10 -26 25q-11 10 -23.5 20.5t-20.5 22.5t-10 26.5t1 27t11.5 22.5t22.5 14q13 3 29 1.5t27 -9.5q12 -8 16 -22t5 -28l-25 -8q-2 12 -6.5 26t-19.5 18q-11 1 -20 -4.5t-11 -15.5t1 -18.5t9 -15.5t13.5 -13t14.5 -11
q15 -14 29 -28.5t19 -34.5q5 -29 -10 -51t-45 -22zM752 -96h37l73 322h-41zM728 430v233h91v-25h-58v-76h47v-24h-47v-87h58v-21h-91zM570 696v235h90v-25h-58v-76h47v-24h-47v-87h59v-23h-91zM1369 430v48q0 9 1 18t-1 17q-2 13 -6.5 23.5t-9.5 21.5l-33 105h30l35 -112
l34 112h32l-16 -48t-16 -49l-16 -48q-3 -8 -2.5 -16t0.5 -14v-58h-32zM955 455q7 -4 16 -4t14 4q9 5 12.5 13.5t5.5 17.5q1 5 0.5 12t-0.5 12v83q0 10 -1 20.5t-9 18.5q-13 13 -29 8q-16 -4 -23 -22q-3 -17 -2 -37t1 -37v-42q0 -12 1.5 -26t13.5 -21zM1019 721q13 -5 29 0
q10 5 12.5 13.5t3.5 16.5v109q0 10 -1 20.5t-9 17.5q-5 8 -12.5 9t-15.5 -1q-17 -1 -22 -20q-5 -17 -3 -37.5t2 -37.5v-43q0 -12 1 -26t15 -21zM1423 696v235h32v-212h60v-23h-92zM1220 430v233h32v-212h59v-21h-91zM462 -399q-15 0 -22 6.5t-9.5 16t-2.5 21v20.5
q0 11 0.5 22t4 19t11 12.5t21.5 3.5q12 -1 18.5 -7t9 -15t2.5 -19.5v-19.5v-19.5t-3 -19.5t-10 -15t-20 -6zM563 -251q-14 0 -21 6.5t-9.5 16.5t-2.5 21.5v21.5t0.5 20.5t4 18.5t10.5 13t21 4q12 -1 18 -7t9 -15t3 -19.5v-19.5t-0.5 -20t-3.5 -20t-9.5 -15t-19.5 -6z
M1468 -399q-14 0 -21 6.5t-9.5 16t-2.5 21v20.5q0 11 0.5 22t4 19t11 12.5t21.5 3.5q13 -1 18.5 -7t7.5 -15t1.5 -19.5t-0.5 -19.5v-19.5t-2.5 -19.5t-9 -15t-19.5 -6zM1398 -249v119q11 0 26 0.5t26 -8.5t10 -24.5t-1 -27.5t0.5 -28.5t-13.5 -24.5q-9 -8 -23 -7t-25 1z
M764 -398v119q12 0 24 1t22 -4q7 -4 10.5 -12t3.5 -17t-4 -16.5t-11 -10.5l17 -60h-16l-14 57h-13v-57h-19zM607 -398l2 119h17l21 -95l21 95h17l1 -119h-11l-2 88l-21 -88h-11l-18 88l-2 -88h-14zM510 -398l2 119h18l21 -95l20 95h16l2 -119h-13l-1 88l-20 -88h-11l-19 88
l-1 -88h-14zM1254 -398v119q11 0 23 1t23 -4q6 -4 10 -12t4 -17t-3.5 -16.5t-10.5 -10.5l15 -60h-15l-15 57h-14v-57h-17zM612 -249v119q11 0 22.5 1t21.5 -4q7 -4 11 -12.5t4.5 -17.5t-3 -16.5t-12.5 -10.5l18 -59h-17l-17 55h-12v-55h-16zM624 252v121h30t26 -12
q4 -11 3 -25t-9 -21q-8 -6 -16.5 -6.5t-17.5 -0.5v-56h-16zM782 -249v119h15v-52h31v52h18v-119h-18v55h-31v-55h-15zM1519 -398v119h10l35 -79v79h13v-119h-11l-35 82v-82h-12zM1320 -249v119h10l35 -79v79h13v-119h-10l-34 80v-80h-14zM807 252l26 121h16l26 -121h-18
l-5 32h-25l-5 -32h-15zM1242 -249l23 119h18l25 -119h-16l-6 30h-24l-7 -30h-13zM948 -398l25 119h17l25 -119h-15l-5 31h-26l-5 -31h-16zM1478 480l-9 183h30l-10 -183h-11zM463 830q8 0 16 -0.5t18 1.5q12 3 15.5 12.5t3.5 20.5q1 13 -2 25t-17 16q-10 2 -18 1.5t-16 -0.5
v-76zM1061 -249q-17 -5 -29.5 2.5t-16.5 24.5q-2 8 -1 15t1 13v64h15v-53q0 -5 -0.5 -14.5t0.5 -18.5t4.5 -16t11.5 -7t12 7t5.5 16t1 18.5t-0.5 14.5v53h14v-54q0 -8 0.5 -17.5t-0.5 -19t-4.5 -17.5t-12.5 -11zM384 -399q-15 0 -22 9t-9 21.5t-1.5 27t0.5 25.5q0 16 8.5 28
t28.5 10q18 -2 22 -14.5t4 -26.5h-16q0 5 0.5 10.5t-2.5 10.5q-2 8 -11 9t-13 -7q-6 -6 -4.5 -20t1.5 -23q0 -7 -1.5 -20t5.5 -21q3 -7 12 -5.5t11 9.5q3 5 2.5 11t-0.5 11h16q0 -15 -5 -30t-26 -15zM871 -399q-16 0 -22.5 9t-8 21.5t-0.5 27t1 25.5q0 16 7.5 28t27.5 10
q19 -2 23 -14.5t4 -26.5h-18q0 5 1 10.5t-2 10.5q-2 8 -10.5 9t-13.5 -7q-6 -6 -5 -20t1 -23q0 -7 -1 -20t6 -21q4 -7 12.5 -5.5t10.5 9.5q3 5 2 11t-1 11h18q0 -15 -5 -30t-27 -15zM1360 -399q-16 0 -23.5 10.5t-9.5 24.5l16 4q0 -6 2 -13.5t8 -9.5q9 -5 14 -0.5t5 11.5
q0 12 -10.5 21.5t-18.5 15.5q-11 11 -15 26.5t10 25.5q7 5 16.5 6t15.5 -3q8 -2 11.5 -10.5t4.5 -16.5l-14 -5l-2 12t-6 11q-16 4 -20 -9q-4 -9 3.5 -16t14.5 -13q7 -8 14.5 -15.5t9.5 -18.5q5 -14 -3 -26t-23 -12zM720 830h16t17 2q11 5 14.5 15.5t1.5 23.5q0 11 -2.5 19
t-13.5 13q-8 4 -17 3.5t-16 -0.5v-76zM914 251q-14 0 -22.5 10t-9.5 25l16 5q0 -6 2 -14t8 -12q8 -2 13.5 2.5t5.5 11.5q0 12 -10.5 21.5t-18.5 17.5q-11 9 -15 24t9 27q7 4 16 4.5t16 -1.5q9 -4 12.5 -12.5t4.5 -16.5l-14 -3q-1 5 -2.5 11t-6.5 11q-6 2 -11.5 0t-7.5 -10
q-3 -8 4 -16t12 -14q8 -6 16 -13.5t10 -18.5q5 -14 -3 -26.5t-24 -12.5zM1188 251q-16 0 -23 10t-8 25l16 5q0 -6 2.5 -14t8.5 -12q8 -2 12.5 2.5t4.5 11.5q1 12 -9.5 21.5t-18.5 17.5q-11 9 -15.5 24t8.5 27q17 8 33 3q8 -4 11.5 -12.5t4.5 -16.5l-14 -3q-1 5 -2.5 11
t-6.5 11q-5 2 -10.5 0t-6.5 -10q-6 -8 2 -16l14 -14q7 -6 14.5 -13.5t9.5 -18.5q5 -14 -2.5 -26.5t-24.5 -12.5zM1070 252l-27 121h18l17 -88l19 88h13l-25 -121h-15zM1141 -398l-27 119h15l20 -87l16 87h17l-28 -119h-13zM1194 -398v119h48v-10h-31v-39h25v-13h-25v-45h31
v-12h-48zM955 252v121h48v-11h-31v-41h25v-12h-25v-45h32v-12h-49zM705 -398v119h47v-10h-30v-39h25v-13h-25v-45h30v-12h-47zM555 -237q10 -5 14.5 -1t6.5 11.5t2 16.5v15q0 4 0.5 12t0.5 16t-2 14.5t-6 9.5q-11 6 -18 -2t-7 -18v-19q0 -4 -0.5 -12.5t-0.5 -17t2 -16
t8 -9.5zM864 -249v119h46v-12h-29v-40h25v-12h-25v-45h29v-10h-46zM753 252v121h46v-11h-31v-41h26v-12h-26v-45h31v-12h-46zM453 -382q10 -6 15 -2.5t7 10.5t2 16v15q0 4 0.5 12t0 15.5t-2 14t-5.5 8.5q-13 8 -18.5 0t-5.5 -17q-1 -5 -0.5 -9.5t0.5 -8.5q0 -5 -0.5 -13
t-0.5 -17t1.5 -16t6.5 -8zM1460 -382q10 -6 15 -2.5t7.5 10.5t2.5 16v15q0 4 0.5 12t-0.5 15.5t-3 14t-6 8.5q-12 8 -17 0t-5 -17v-18q0 -5 -1 -13t-1 -17t1.5 -16t6.5 -8zM474 -249v119h46v-12h-28v-40h22v-12h-22v-55h-18zM1414 -239q11 0 18.5 2t9.5 15v63q-1 13 -9 15
t-19 2v-97zM735 -249v107h-22v12h61v-12h-22v-107h-17zM1154 -249v119h17v-109h30v-10h-47zM960 -249v119h45v-12h-32v-40h24v-12h-24v-55h-13zM1281 252v110h-23v11h58v-11h-20v-110h-15zM1097 -249v119h16v-109h30v-10h-46zM695 252v121h15v-109h31v-12h-46zM1028 -398
v119h15v-107h32v-12h-47zM1313 778h40l-20 107zM1230 252v121h18v-121h-18zM919 -398v119h17v-119h-17zM420 -64h43v48h-43v-48zM1125 252v121h16v-121h-16zM1402 -398v119h15v-119h-15zM640 320h9t10 2q6 3 7 9t1 13q-1 14 -8.5 16t-18.5 2v-42zM1469 430v33h30v-33h-30z
M628 -182q11 0 19 3.5t8 17.5t-8 16.5t-19 2.5v-40zM1271 -328q11 0 19 2.5t8 16.5q0 12 -8 16t-19 4v-39zM783 -328q11 0 18 2.5t7 16.5q0 12 -7 16t-18 4v-39zM828 295h22l-9 55zM1264 -207h21l-11 54zM971 -356h21l-10 55zM1337 193l-30 -161l-29 161h-42l-4 -257h40
l1 105l20 -105h30l21 106l2 -106h37l-2 257h-44zM906 193v-204q0 -19 -16 -17q-7 1 -10 7t-4.5 13.5t-2 15.5t-0.5 14l-40 -2q0 -24 5 -48t28 -34q8 -4 15.5 -5t15.5 0q20 2 36 16t16 38v206h-43zM1013 193l-47 -257h43l10 61h28l8 -61h43l-45 257h-40zM1025 35l8 51l7 -51
h-15zM1174 -64v77l46 180h-43l-24 -120l-22 120h-43l43 -176v-81h43zM1766 -64v212h36v45h-116v-45h37v-212h43zM1520 110q0 19 -2.5 35t-9 27.5t-17.5 18t-28 6.5q-35 0 -46 -25t-11 -62v-90q0 -19 2.5 -35t9 -27.5t17.5 -18t28 -6.5q34 0 45.5 24.5t11.5 62.5v90zM1480 22
v-15t-1.5 -16.5t-5 -13t-10.5 -5.5t-10.5 5.5t-5 13t-1.5 16.5v15v86v15t1.5 16.5t5 13t10.5 5.5t10.5 -5.5t5 -13t1.5 -16.5v-15v-86zM1623 70l-44 123h-33v-257h40v126l45 -126h32v257h-40v-123z" />
    <glyph glyph-name="seven" unicode="7" horiz-adv-x="1871" 
d="M196 193l-30 -161l-29 161h-42l-4 -257h40l1 105l20 -105h30l21 106l2 -106h37l-2 257h-44zM1032 694q-53 0 -62 52q-2 11 -2 22v22q0 24 -1 51.5t5 50.5q6 20 21.5 29.5t34.5 10.5q20 1 37.5 -7t24.5 -28q8 -22 7.5 -49.5t-0.5 -51.5q0 -14 -0.5 -27.5t-3.5 -26.5
q-11 -48 -61 -48zM971 428q-25 0 -41 12.5t-21 36.5q-2 12 -1.5 23.5t0.5 24.5q0 23 -1 49.5t4 49.5q6 21 21 30.5t35 9.5q21 1 38 -6t24 -27q9 -23 7 -50.5t-2 -50.5q0 -16 0.5 -28.5t-2.5 -26.5q-9 -47 -61 -47zM352 70l-44 123h-33v-257h40v126l45 -126h32v257h-40v-123z
M676 32h26v-16.5t-2 -22t-7.5 -17t-16.5 -2.5q-7 2 -10 9t-4 15.5t-0.5 17t0.5 13.5v61q0 12 -0.5 27.5t2.5 28.5q3 5 8.5 8.5t11.5 2.5q13 -4 14 -16q2 -9 1.5 -18.5t-0.5 -20.5h43q0 22 -3 47t-25 39q-12 8 -28 8.5t-30 -4.5q-17 -5 -25.5 -20t-11.5 -32q-2 -18 -1.5 -37
t0.5 -38q0 -18 -0.5 -35.5t1.5 -35.5q2 -15 7.5 -30.5t19.5 -22.5q13 -9 32 -8.5t30 11.5l1 -8h34v134h-67v-38zM686 696v235q23 0 47.5 0.5t44.5 -10.5q12 -8 19 -23.5t7 -32.5t-7 -31.5t-21 -19.5l31 -118h-31l-31 111h-25v-111h-34zM568 70l-21 23q-7 7 -13.5 13t-9.5 17
q-3 8 -0.5 21.5t15.5 12.5q7 -1 10 -7t4.5 -13.5t2 -15.5t0.5 -14l40 2q0 24 -5 48t-28 34q-14 6 -28 5t-25.5 -7t-19 -17.5t-8.5 -26.5q-2 -15 0.5 -31t11.5 -28q3 -8 9.5 -13t12.5 -12q12 -14 26 -29.5t14 -35.5q0 -8 -1.5 -14.5t-8.5 -7.5q-6 -2 -10 1t-6 8
q-6 11 -7 22.5t-2 23.5l-40 -3q0 -17 1.5 -32t8.5 -30q8 -18 25.5 -26t36.5 -4q20 4 31.5 19t13.5 32q6 48 -30 85zM431 696v235h49q18 0 33.5 -4t24.5 -22q5 -10 7.5 -22.5t1.5 -24.5t-6 -23t-14 -18q-13 -11 -31 -11h-33v-110h-32zM1067 430v233h22l66 -156v156h29v-233
h-22l-68 159v-159h-27zM1129 696v235h22l65 -156v156h28v-235h-21l-68 159v-159h-26zM1268 696l49 235h32l49 -235h-30l-12 58h-47l-11 -58h-30zM520 431q-21 -8 -46 -1t-34 32q-5 12 -6 25.5t-1 30.5v145h31v-156q0 -13 2 -30t17 -25q13 -4 21.5 0t13 12t6.5 18.5t2 20.5
q1 20 0.5 37.5t-0.5 37.5v85h33v-107q0 -15 0.5 -34t-2 -37t-11 -33t-26.5 -21zM647 428q-30 0 -45 19t-17 48l31 8q1 -11 2.5 -22t8.5 -19q8 -9 19 -10t19 7q10 8 9 22t-8 23q-5 7 -11.5 14t-14.5 12q-11 11 -24 21.5t-21 23.5q-7 11 -9 24.5t1.5 26.5t11.5 23t22 14
q13 3 29 2t28 -9q11 -8 15 -22.5t5 -28.5l-25 -9q-2 14 -6.5 27.5t-19.5 16.5q-11 2 -19.5 -3.5t-10.5 -17.5q-3 -9 0 -17t9 -15t13.5 -12.5t13.5 -11.5q16 -14 29.5 -28t17.5 -36q7 -27 -8.5 -49t-44.5 -22zM891 694q-29 0 -45.5 19.5t-17.5 47.5l30 8q2 -11 4 -22.5
t9 -18.5q8 -8 19 -9t19 6q9 8 8.5 22t-7.5 25q-6 10 -26 25q-11 10 -23.5 20.5t-20.5 22.5t-10 26.5t1 27t11.5 22.5t22.5 14q13 3 29 1.5t27 -9.5q12 -8 16 -22t5 -28l-25 -8q-2 12 -6.5 26t-19.5 18q-11 1 -20 -4.5t-11 -15.5t1 -18.5t9 -15.5t13.5 -13t14.5 -11
q15 -14 29 -28.5t19 -34.5q5 -29 -10 -51t-45 -22zM752 -96h37l73 322h-41zM728 430v233h91v-25h-58v-76h47v-24h-47v-87h58v-21h-91zM570 696v235h90v-25h-58v-76h47v-24h-47v-87h59v-23h-91zM1369 430v48q0 9 1 18t-1 17q-2 13 -6.5 23.5t-9.5 21.5l-33 105h30l35 -112
l34 112h32l-16 -48t-16 -49l-16 -48q-3 -8 -2.5 -16t0.5 -14v-58h-32zM955 455q7 -4 16 -4t14 4q9 5 12.5 13.5t5.5 17.5q1 5 0.5 12t-0.5 12v83q0 10 -1 20.5t-9 18.5q-13 13 -29 8q-16 -4 -23 -22q-3 -17 -2 -37t1 -37v-42q0 -12 1.5 -26t13.5 -21zM1019 721q13 -5 29 0
q10 5 12.5 13.5t3.5 16.5v109q0 10 -1 20.5t-9 17.5q-5 8 -12.5 9t-15.5 -1q-17 -1 -22 -20q-5 -17 -3 -37.5t2 -37.5v-43q0 -12 1 -26t15 -21zM1423 696v235h32v-212h60v-23h-92zM1220 430v233h32v-212h59v-21h-91zM462 -399q-15 0 -22 6.5t-9.5 16t-2.5 21v20.5
q0 11 0.5 22t4 19t11 12.5t21.5 3.5q12 -1 18.5 -7t9 -15t2.5 -19.5v-19.5v-19.5t-3 -19.5t-10 -15t-20 -6zM563 -251q-14 0 -21 6.5t-9.5 16.5t-2.5 21.5v21.5t0.5 20.5t4 18.5t10.5 13t21 4q12 -1 18 -7t9 -15t3 -19.5v-19.5t-0.5 -20t-3.5 -20t-9.5 -15t-19.5 -6z
M1468 -399q-14 0 -21 6.5t-9.5 16t-2.5 21v20.5q0 11 0.5 22t4 19t11 12.5t21.5 3.5q13 -1 18.5 -7t7.5 -15t1.5 -19.5t-0.5 -19.5v-19.5t-2.5 -19.5t-9 -15t-19.5 -6zM1398 -249v119q11 0 26 0.5t26 -8.5t10 -24.5t-1 -27.5t0.5 -28.5t-13.5 -24.5q-9 -8 -23 -7t-25 1z
M764 -398v119q12 0 24 1t22 -4q7 -4 10.5 -12t3.5 -17t-4 -16.5t-11 -10.5l17 -60h-16l-14 57h-13v-57h-19zM607 -398l2 119h17l21 -95l21 95h17l1 -119h-11l-2 88l-21 -88h-11l-18 88l-2 -88h-14zM510 -398l2 119h18l21 -95l20 95h16l2 -119h-13l-1 88l-20 -88h-11l-19 88
l-1 -88h-14zM1254 -398v119q11 0 23 1t23 -4q6 -4 10 -12t4 -17t-3.5 -16.5t-10.5 -10.5l15 -60h-15l-15 57h-14v-57h-17zM612 -249v119q11 0 22.5 1t21.5 -4q7 -4 11 -12.5t4.5 -17.5t-3 -16.5t-12.5 -10.5l18 -59h-17l-17 55h-12v-55h-16zM624 252v121h30t26 -12
q4 -11 3 -25t-9 -21q-8 -6 -16.5 -6.5t-17.5 -0.5v-56h-16zM782 -249v119h15v-52h31v52h18v-119h-18v55h-31v-55h-15zM1519 -398v119h10l35 -79v79h13v-119h-11l-35 82v-82h-12zM1320 -249v119h10l35 -79v79h13v-119h-10l-34 80v-80h-14zM807 252l26 121h16l26 -121h-18
l-5 32h-25l-5 -32h-15zM1242 -249l23 119h18l25 -119h-16l-6 30h-24l-7 -30h-13zM948 -398l25 119h17l25 -119h-15l-5 31h-26l-5 -31h-16zM1478 480l-9 183h30l-10 -183h-11zM463 830q8 0 16 -0.5t18 1.5q12 3 15.5 12.5t3.5 20.5q1 13 -2 25t-17 16q-10 2 -18 1.5t-16 -0.5
v-76zM1061 -249q-17 -5 -29.5 2.5t-16.5 24.5q-2 8 -1 15t1 13v64h15v-53q0 -5 -0.5 -14.5t0.5 -18.5t4.5 -16t11.5 -7t12 7t5.5 16t1 18.5t-0.5 14.5v53h14v-54q0 -8 0.5 -17.5t-0.5 -19t-4.5 -17.5t-12.5 -11zM384 -399q-15 0 -22 9t-9 21.5t-1.5 27t0.5 25.5q0 16 8.5 28
t28.5 10q18 -2 22 -14.5t4 -26.5h-16q0 5 0.5 10.5t-2.5 10.5q-2 8 -11 9t-13 -7q-6 -6 -4.5 -20t1.5 -23q0 -7 -1.5 -20t5.5 -21q3 -7 12 -5.5t11 9.5q3 5 2.5 11t-0.5 11h16q0 -15 -5 -30t-26 -15zM871 -399q-16 0 -22.5 9t-8 21.5t-0.5 27t1 25.5q0 16 7.5 28t27.5 10
q19 -2 23 -14.5t4 -26.5h-18q0 5 1 10.5t-2 10.5q-2 8 -10.5 9t-13.5 -7q-6 -6 -5 -20t1 -23q0 -7 -1 -20t6 -21q4 -7 12.5 -5.5t10.5 9.5q3 5 2 11t-1 11h18q0 -15 -5 -30t-27 -15zM1360 -399q-16 0 -23.5 10.5t-9.5 24.5l16 4q0 -6 2 -13.5t8 -9.5q9 -5 14 -0.5t5 11.5
q0 12 -10.5 21.5t-18.5 15.5q-11 11 -15 26.5t10 25.5q7 5 16.5 6t15.5 -3q8 -2 11.5 -10.5t4.5 -16.5l-14 -5l-2 12t-6 11q-16 4 -20 -9q-4 -9 3.5 -16t14.5 -13q7 -8 14.5 -15.5t9.5 -18.5q5 -14 -3 -26t-23 -12zM720 830h16t17 2q11 5 14.5 15.5t1.5 23.5q0 11 -2.5 19
t-13.5 13q-8 4 -17 3.5t-16 -0.5v-76zM914 251q-14 0 -22.5 10t-9.5 25l16 5q0 -6 2 -14t8 -12q8 -2 13.5 2.5t5.5 11.5q0 12 -10.5 21.5t-18.5 17.5q-11 9 -15 24t9 27q7 4 16 4.5t16 -1.5q9 -4 12.5 -12.5t4.5 -16.5l-14 -3q-1 5 -2.5 11t-6.5 11q-6 2 -11.5 0t-7.5 -10
q-3 -8 4 -16t12 -14q8 -6 16 -13.5t10 -18.5q5 -14 -3 -26.5t-24 -12.5zM1188 251q-16 0 -23 10t-8 25l16 5q0 -6 2.5 -14t8.5 -12q8 -2 12.5 2.5t4.5 11.5q1 12 -9.5 21.5t-18.5 17.5q-11 9 -15.5 24t8.5 27q17 8 33 3q8 -4 11.5 -12.5t4.5 -16.5l-14 -3q-1 5 -2.5 11
t-6.5 11q-5 2 -10.5 0t-6.5 -10q-6 -8 2 -16l14 -14q7 -6 14.5 -13.5t9.5 -18.5q5 -14 -2.5 -26.5t-24.5 -12.5zM1070 252l-27 121h18l17 -88l19 88h13l-25 -121h-15zM1141 -398l-27 119h15l20 -87l16 87h17l-28 -119h-13zM1194 -398v119h48v-10h-31v-39h25v-13h-25v-45h31
v-12h-48zM955 252v121h48v-11h-31v-41h25v-12h-25v-45h32v-12h-49zM705 -398v119h47v-10h-30v-39h25v-13h-25v-45h30v-12h-47zM555 -237q10 -5 14.5 -1t6.5 11.5t2 16.5v15q0 4 0.5 12t0.5 16t-2 14.5t-6 9.5q-11 6 -18 -2t-7 -18v-19q0 -4 -0.5 -12.5t-0.5 -17t2 -16
t8 -9.5zM864 -249v119h46v-12h-29v-40h25v-12h-25v-45h29v-10h-46zM753 252v121h46v-11h-31v-41h26v-12h-26v-45h31v-12h-46zM453 -382q10 -6 15 -2.5t7 10.5t2 16v15q0 4 0.5 12t0 15.5t-2 14t-5.5 8.5q-13 8 -18.5 0t-5.5 -17q-1 -5 -0.5 -9.5t0.5 -8.5q0 -5 -0.5 -13
t-0.5 -17t1.5 -16t6.5 -8zM1460 -382q10 -6 15 -2.5t7.5 10.5t2.5 16v15q0 4 0.5 12t-0.5 15.5t-3 14t-6 8.5q-12 8 -17 0t-5 -17v-18q0 -5 -1 -13t-1 -17t1.5 -16t6.5 -8zM474 -249v119h46v-12h-28v-40h22v-12h-22v-55h-18zM1414 -239q11 0 18.5 2t9.5 15v63q-1 13 -9 15
t-19 2v-97zM735 -249v107h-22v12h61v-12h-22v-107h-17zM1154 -249v119h17v-109h30v-10h-47zM960 -249v119h45v-12h-32v-40h24v-12h-24v-55h-13zM1281 252v110h-23v11h58v-11h-20v-110h-15zM1097 -249v119h16v-109h30v-10h-46zM695 252v121h15v-109h31v-12h-46zM1028 -398
v119h15v-107h32v-12h-47zM1313 778h40l-20 107zM1230 252v121h18v-121h-18zM919 -398v119h17v-119h-17zM420 -64h43v48h-43v-48zM1125 252v121h16v-121h-16zM1402 -398v119h15v-119h-15zM640 320h9t10 2q6 3 7 9t1 13q-1 14 -8.5 16t-18.5 2v-42zM1469 430v33h30v-33h-30z
M628 -182q11 0 19 3.5t8 17.5t-8 16.5t-19 2.5v-40zM1271 -328q11 0 19 2.5t8 16.5q0 12 -8 16t-19 4v-39zM783 -328q11 0 18 2.5t7 16.5q0 12 -7 16t-18 4v-39zM828 295h22l-9 55zM1264 -207h21l-11 54zM971 -356h21l-10 55zM1337 193l-30 -161l-29 161h-42l-4 -257h40
l1 105l20 -105h30l21 106l2 -106h37l-2 257h-44zM906 193v-204q0 -19 -16 -17q-7 1 -10 7t-4.5 13.5t-2 15.5t-0.5 14l-40 -2q0 -24 5 -48t28 -34q8 -4 15.5 -5t15.5 0q20 2 36 16t16 38v206h-43zM1013 193l-47 -257h43l10 61h28l8 -61h43l-45 257h-40zM1025 35l8 51l7 -51
h-15zM1174 -64v77l46 180h-43l-24 -120l-22 120h-43l43 -176v-81h43zM1766 -64v212h36v45h-116v-45h37v-212h43zM1520 110q0 19 -2.5 35t-9 27.5t-17.5 18t-28 6.5q-35 0 -46 -25t-11 -62v-90q0 -19 2.5 -35t9 -27.5t17.5 -18t28 -6.5q34 0 45.5 24.5t11.5 62.5v90zM1480 22
v-15t-1.5 -16.5t-5 -13t-10.5 -5.5t-10.5 5.5t-5 13t-1.5 16.5v15v86v15t1.5 16.5t5 13t10.5 5.5t10.5 -5.5t5 -13t1.5 -16.5v-15v-86zM1623 70l-44 123h-33v-257h40v126l45 -126h32v257h-40v-123z" />
    <glyph glyph-name="eight" unicode="8" horiz-adv-x="1871" 
d="M196 193l-30 -161l-29 161h-42l-4 -257h40l1 105l20 -105h30l21 106l2 -106h37l-2 257h-44zM1032 694q-53 0 -62 52q-2 11 -2 22v22q0 24 -1 51.5t5 50.5q6 20 21.5 29.5t34.5 10.5q20 1 37.5 -7t24.5 -28q8 -22 7.5 -49.5t-0.5 -51.5q0 -14 -0.5 -27.5t-3.5 -26.5
q-11 -48 -61 -48zM971 428q-25 0 -41 12.5t-21 36.5q-2 12 -1.5 23.5t0.5 24.5q0 23 -1 49.5t4 49.5q6 21 21 30.5t35 9.5q21 1 38 -6t24 -27q9 -23 7 -50.5t-2 -50.5q0 -16 0.5 -28.5t-2.5 -26.5q-9 -47 -61 -47zM352 70l-44 123h-33v-257h40v126l45 -126h32v257h-40v-123z
M676 32h26v-16.5t-2 -22t-7.5 -17t-16.5 -2.5q-7 2 -10 9t-4 15.5t-0.5 17t0.5 13.5v61q0 12 -0.5 27.5t2.5 28.5q3 5 8.5 8.5t11.5 2.5q13 -4 14 -16q2 -9 1.5 -18.5t-0.5 -20.5h43q0 22 -3 47t-25 39q-12 8 -28 8.5t-30 -4.5q-17 -5 -25.5 -20t-11.5 -32q-2 -18 -1.5 -37
t0.5 -38q0 -18 -0.5 -35.5t1.5 -35.5q2 -15 7.5 -30.5t19.5 -22.5q13 -9 32 -8.5t30 11.5l1 -8h34v134h-67v-38zM686 696v235q23 0 47.5 0.5t44.5 -10.5q12 -8 19 -23.5t7 -32.5t-7 -31.5t-21 -19.5l31 -118h-31l-31 111h-25v-111h-34zM568 70l-21 23q-7 7 -13.5 13t-9.5 17
q-3 8 -0.5 21.5t15.5 12.5q7 -1 10 -7t4.5 -13.5t2 -15.5t0.5 -14l40 2q0 24 -5 48t-28 34q-14 6 -28 5t-25.5 -7t-19 -17.5t-8.5 -26.5q-2 -15 0.5 -31t11.5 -28q3 -8 9.5 -13t12.5 -12q12 -14 26 -29.5t14 -35.5q0 -8 -1.5 -14.5t-8.5 -7.5q-6 -2 -10 1t-6 8
q-6 11 -7 22.5t-2 23.5l-40 -3q0 -17 1.5 -32t8.5 -30q8 -18 25.5 -26t36.5 -4q20 4 31.5 19t13.5 32q6 48 -30 85zM431 696v235h49q18 0 33.5 -4t24.5 -22q5 -10 7.5 -22.5t1.5 -24.5t-6 -23t-14 -18q-13 -11 -31 -11h-33v-110h-32zM1067 430v233h22l66 -156v156h29v-233
h-22l-68 159v-159h-27zM1129 696v235h22l65 -156v156h28v-235h-21l-68 159v-159h-26zM1268 696l49 235h32l49 -235h-30l-12 58h-47l-11 -58h-30zM520 431q-21 -8 -46 -1t-34 32q-5 12 -6 25.5t-1 30.5v145h31v-156q0 -13 2 -30t17 -25q13 -4 21.5 0t13 12t6.5 18.5t2 20.5
q1 20 0.5 37.5t-0.5 37.5v85h33v-107q0 -15 0.5 -34t-2 -37t-11 -33t-26.5 -21zM647 428q-30 0 -45 19t-17 48l31 8q1 -11 2.5 -22t8.5 -19q8 -9 19 -10t19 7q10 8 9 22t-8 23q-5 7 -11.5 14t-14.5 12q-11 11 -24 21.5t-21 23.5q-7 11 -9 24.5t1.5 26.5t11.5 23t22 14
q13 3 29 2t28 -9q11 -8 15 -22.5t5 -28.5l-25 -9q-2 14 -6.5 27.5t-19.5 16.5q-11 2 -19.5 -3.5t-10.5 -17.5q-3 -9 0 -17t9 -15t13.5 -12.5t13.5 -11.5q16 -14 29.5 -28t17.5 -36q7 -27 -8.5 -49t-44.5 -22zM891 694q-29 0 -45.5 19.5t-17.5 47.5l30 8q2 -11 4 -22.5
t9 -18.5q8 -8 19 -9t19 6q9 8 8.5 22t-7.5 25q-6 10 -26 25q-11 10 -23.5 20.5t-20.5 22.5t-10 26.5t1 27t11.5 22.5t22.5 14q13 3 29 1.5t27 -9.5q12 -8 16 -22t5 -28l-25 -8q-2 12 -6.5 26t-19.5 18q-11 1 -20 -4.5t-11 -15.5t1 -18.5t9 -15.5t13.5 -13t14.5 -11
q15 -14 29 -28.5t19 -34.5q5 -29 -10 -51t-45 -22zM752 -96h37l73 322h-41zM728 430v233h91v-25h-58v-76h47v-24h-47v-87h58v-21h-91zM570 696v235h90v-25h-58v-76h47v-24h-47v-87h59v-23h-91zM1369 430v48q0 9 1 18t-1 17q-2 13 -6.5 23.5t-9.5 21.5l-33 105h30l35 -112
l34 112h32l-16 -48t-16 -49l-16 -48q-3 -8 -2.5 -16t0.5 -14v-58h-32zM955 455q7 -4 16 -4t14 4q9 5 12.5 13.5t5.5 17.5q1 5 0.5 12t-0.5 12v83q0 10 -1 20.5t-9 18.5q-13 13 -29 8q-16 -4 -23 -22q-3 -17 -2 -37t1 -37v-42q0 -12 1.5 -26t13.5 -21zM1019 721q13 -5 29 0
q10 5 12.5 13.5t3.5 16.5v109q0 10 -1 20.5t-9 17.5q-5 8 -12.5 9t-15.5 -1q-17 -1 -22 -20q-5 -17 -3 -37.5t2 -37.5v-43q0 -12 1 -26t15 -21zM1423 696v235h32v-212h60v-23h-92zM1220 430v233h32v-212h59v-21h-91zM462 -399q-15 0 -22 6.5t-9.5 16t-2.5 21v20.5
q0 11 0.5 22t4 19t11 12.5t21.5 3.5q12 -1 18.5 -7t9 -15t2.5 -19.5v-19.5v-19.5t-3 -19.5t-10 -15t-20 -6zM563 -251q-14 0 -21 6.5t-9.5 16.5t-2.5 21.5v21.5t0.5 20.5t4 18.5t10.5 13t21 4q12 -1 18 -7t9 -15t3 -19.5v-19.5t-0.5 -20t-3.5 -20t-9.5 -15t-19.5 -6z
M1468 -399q-14 0 -21 6.5t-9.5 16t-2.5 21v20.5q0 11 0.5 22t4 19t11 12.5t21.5 3.5q13 -1 18.5 -7t7.5 -15t1.5 -19.5t-0.5 -19.5v-19.5t-2.5 -19.5t-9 -15t-19.5 -6zM1398 -249v119q11 0 26 0.5t26 -8.5t10 -24.5t-1 -27.5t0.5 -28.5t-13.5 -24.5q-9 -8 -23 -7t-25 1z
M764 -398v119q12 0 24 1t22 -4q7 -4 10.5 -12t3.5 -17t-4 -16.5t-11 -10.5l17 -60h-16l-14 57h-13v-57h-19zM607 -398l2 119h17l21 -95l21 95h17l1 -119h-11l-2 88l-21 -88h-11l-18 88l-2 -88h-14zM510 -398l2 119h18l21 -95l20 95h16l2 -119h-13l-1 88l-20 -88h-11l-19 88
l-1 -88h-14zM1254 -398v119q11 0 23 1t23 -4q6 -4 10 -12t4 -17t-3.5 -16.5t-10.5 -10.5l15 -60h-15l-15 57h-14v-57h-17zM612 -249v119q11 0 22.5 1t21.5 -4q7 -4 11 -12.5t4.5 -17.5t-3 -16.5t-12.5 -10.5l18 -59h-17l-17 55h-12v-55h-16zM624 252v121h30t26 -12
q4 -11 3 -25t-9 -21q-8 -6 -16.5 -6.5t-17.5 -0.5v-56h-16zM782 -249v119h15v-52h31v52h18v-119h-18v55h-31v-55h-15zM1519 -398v119h10l35 -79v79h13v-119h-11l-35 82v-82h-12zM1320 -249v119h10l35 -79v79h13v-119h-10l-34 80v-80h-14zM807 252l26 121h16l26 -121h-18
l-5 32h-25l-5 -32h-15zM1242 -249l23 119h18l25 -119h-16l-6 30h-24l-7 -30h-13zM948 -398l25 119h17l25 -119h-15l-5 31h-26l-5 -31h-16zM1478 480l-9 183h30l-10 -183h-11zM463 830q8 0 16 -0.5t18 1.5q12 3 15.5 12.5t3.5 20.5q1 13 -2 25t-17 16q-10 2 -18 1.5t-16 -0.5
v-76zM1061 -249q-17 -5 -29.5 2.5t-16.5 24.5q-2 8 -1 15t1 13v64h15v-53q0 -5 -0.5 -14.5t0.5 -18.5t4.5 -16t11.5 -7t12 7t5.5 16t1 18.5t-0.5 14.5v53h14v-54q0 -8 0.5 -17.5t-0.5 -19t-4.5 -17.5t-12.5 -11zM384 -399q-15 0 -22 9t-9 21.5t-1.5 27t0.5 25.5q0 16 8.5 28
t28.5 10q18 -2 22 -14.5t4 -26.5h-16q0 5 0.5 10.5t-2.5 10.5q-2 8 -11 9t-13 -7q-6 -6 -4.5 -20t1.5 -23q0 -7 -1.5 -20t5.5 -21q3 -7 12 -5.5t11 9.5q3 5 2.5 11t-0.5 11h16q0 -15 -5 -30t-26 -15zM871 -399q-16 0 -22.5 9t-8 21.5t-0.5 27t1 25.5q0 16 7.5 28t27.5 10
q19 -2 23 -14.5t4 -26.5h-18q0 5 1 10.5t-2 10.5q-2 8 -10.5 9t-13.5 -7q-6 -6 -5 -20t1 -23q0 -7 -1 -20t6 -21q4 -7 12.5 -5.5t10.5 9.5q3 5 2 11t-1 11h18q0 -15 -5 -30t-27 -15zM1360 -399q-16 0 -23.5 10.5t-9.5 24.5l16 4q0 -6 2 -13.5t8 -9.5q9 -5 14 -0.5t5 11.5
q0 12 -10.5 21.5t-18.5 15.5q-11 11 -15 26.5t10 25.5q7 5 16.5 6t15.5 -3q8 -2 11.5 -10.5t4.5 -16.5l-14 -5l-2 12t-6 11q-16 4 -20 -9q-4 -9 3.5 -16t14.5 -13q7 -8 14.5 -15.5t9.5 -18.5q5 -14 -3 -26t-23 -12zM720 830h16t17 2q11 5 14.5 15.5t1.5 23.5q0 11 -2.5 19
t-13.5 13q-8 4 -17 3.5t-16 -0.5v-76zM914 251q-14 0 -22.5 10t-9.5 25l16 5q0 -6 2 -14t8 -12q8 -2 13.5 2.5t5.5 11.5q0 12 -10.5 21.5t-18.5 17.5q-11 9 -15 24t9 27q7 4 16 4.5t16 -1.5q9 -4 12.5 -12.5t4.5 -16.5l-14 -3q-1 5 -2.5 11t-6.5 11q-6 2 -11.5 0t-7.5 -10
q-3 -8 4 -16t12 -14q8 -6 16 -13.5t10 -18.5q5 -14 -3 -26.5t-24 -12.5zM1188 251q-16 0 -23 10t-8 25l16 5q0 -6 2.5 -14t8.5 -12q8 -2 12.5 2.5t4.5 11.5q1 12 -9.5 21.5t-18.5 17.5q-11 9 -15.5 24t8.5 27q17 8 33 3q8 -4 11.5 -12.5t4.5 -16.5l-14 -3q-1 5 -2.5 11
t-6.5 11q-5 2 -10.5 0t-6.5 -10q-6 -8 2 -16l14 -14q7 -6 14.5 -13.5t9.5 -18.5q5 -14 -2.5 -26.5t-24.5 -12.5zM1070 252l-27 121h18l17 -88l19 88h13l-25 -121h-15zM1141 -398l-27 119h15l20 -87l16 87h17l-28 -119h-13zM1194 -398v119h48v-10h-31v-39h25v-13h-25v-45h31
v-12h-48zM955 252v121h48v-11h-31v-41h25v-12h-25v-45h32v-12h-49zM705 -398v119h47v-10h-30v-39h25v-13h-25v-45h30v-12h-47zM555 -237q10 -5 14.5 -1t6.5 11.5t2 16.5v15q0 4 0.5 12t0.5 16t-2 14.5t-6 9.5q-11 6 -18 -2t-7 -18v-19q0 -4 -0.5 -12.5t-0.5 -17t2 -16
t8 -9.5zM864 -249v119h46v-12h-29v-40h25v-12h-25v-45h29v-10h-46zM753 252v121h46v-11h-31v-41h26v-12h-26v-45h31v-12h-46zM453 -382q10 -6 15 -2.5t7 10.5t2 16v15q0 4 0.5 12t0 15.5t-2 14t-5.5 8.5q-13 8 -18.5 0t-5.5 -17q-1 -5 -0.5 -9.5t0.5 -8.5q0 -5 -0.5 -13
t-0.5 -17t1.5 -16t6.5 -8zM1460 -382q10 -6 15 -2.5t7.5 10.5t2.5 16v15q0 4 0.5 12t-0.5 15.5t-3 14t-6 8.5q-12 8 -17 0t-5 -17v-18q0 -5 -1 -13t-1 -17t1.5 -16t6.5 -8zM474 -249v119h46v-12h-28v-40h22v-12h-22v-55h-18zM1414 -239q11 0 18.5 2t9.5 15v63q-1 13 -9 15
t-19 2v-97zM735 -249v107h-22v12h61v-12h-22v-107h-17zM1154 -249v119h17v-109h30v-10h-47zM960 -249v119h45v-12h-32v-40h24v-12h-24v-55h-13zM1281 252v110h-23v11h58v-11h-20v-110h-15zM1097 -249v119h16v-109h30v-10h-46zM695 252v121h15v-109h31v-12h-46zM1028 -398
v119h15v-107h32v-12h-47zM1313 778h40l-20 107zM1230 252v121h18v-121h-18zM919 -398v119h17v-119h-17zM420 -64h43v48h-43v-48zM1125 252v121h16v-121h-16zM1402 -398v119h15v-119h-15zM640 320h9t10 2q6 3 7 9t1 13q-1 14 -8.5 16t-18.5 2v-42zM1469 430v33h30v-33h-30z
M628 -182q11 0 19 3.5t8 17.5t-8 16.5t-19 2.5v-40zM1271 -328q11 0 19 2.5t8 16.5q0 12 -8 16t-19 4v-39zM783 -328q11 0 18 2.5t7 16.5q0 12 -7 16t-18 4v-39zM828 295h22l-9 55zM1264 -207h21l-11 54zM971 -356h21l-10 55zM1337 193l-30 -161l-29 161h-42l-4 -257h40
l1 105l20 -105h30l21 106l2 -106h37l-2 257h-44zM906 193v-204q0 -19 -16 -17q-7 1 -10 7t-4.5 13.5t-2 15.5t-0.5 14l-40 -2q0 -24 5 -48t28 -34q8 -4 15.5 -5t15.5 0q20 2 36 16t16 38v206h-43zM1013 193l-47 -257h43l10 61h28l8 -61h43l-45 257h-40zM1025 35l8 51l7 -51
h-15zM1174 -64v77l46 180h-43l-24 -120l-22 120h-43l43 -176v-81h43zM1766 -64v212h36v45h-116v-45h37v-212h43zM1520 110q0 19 -2.5 35t-9 27.5t-17.5 18t-28 6.5q-35 0 -46 -25t-11 -62v-90q0 -19 2.5 -35t9 -27.5t17.5 -18t28 -6.5q34 0 45.5 24.5t11.5 62.5v90zM1480 22
v-15t-1.5 -16.5t-5 -13t-10.5 -5.5t-10.5 5.5t-5 13t-1.5 16.5v15v86v15t1.5 16.5t5 13t10.5 5.5t10.5 -5.5t5 -13t1.5 -16.5v-15v-86zM1623 70l-44 123h-33v-257h40v126l45 -126h32v257h-40v-123z" />
    <glyph glyph-name="nine" unicode="9" horiz-adv-x="1871" 
d="M196 193l-30 -161l-29 161h-42l-4 -257h40l1 105l20 -105h30l21 106l2 -106h37l-2 257h-44zM1032 694q-53 0 -62 52q-2 11 -2 22v22q0 24 -1 51.5t5 50.5q6 20 21.5 29.5t34.5 10.5q20 1 37.5 -7t24.5 -28q8 -22 7.5 -49.5t-0.5 -51.5q0 -14 -0.5 -27.5t-3.5 -26.5
q-11 -48 -61 -48zM971 428q-25 0 -41 12.5t-21 36.5q-2 12 -1.5 23.5t0.5 24.5q0 23 -1 49.5t4 49.5q6 21 21 30.5t35 9.5q21 1 38 -6t24 -27q9 -23 7 -50.5t-2 -50.5q0 -16 0.5 -28.5t-2.5 -26.5q-9 -47 -61 -47zM352 70l-44 123h-33v-257h40v126l45 -126h32v257h-40v-123z
M676 32h26v-16.5t-2 -22t-7.5 -17t-16.5 -2.5q-7 2 -10 9t-4 15.5t-0.5 17t0.5 13.5v61q0 12 -0.5 27.5t2.5 28.5q3 5 8.5 8.5t11.5 2.5q13 -4 14 -16q2 -9 1.5 -18.5t-0.5 -20.5h43q0 22 -3 47t-25 39q-12 8 -28 8.5t-30 -4.5q-17 -5 -25.5 -20t-11.5 -32q-2 -18 -1.5 -37
t0.5 -38q0 -18 -0.5 -35.5t1.5 -35.5q2 -15 7.5 -30.5t19.5 -22.5q13 -9 32 -8.5t30 11.5l1 -8h34v134h-67v-38zM686 696v235q23 0 47.5 0.5t44.5 -10.5q12 -8 19 -23.5t7 -32.5t-7 -31.5t-21 -19.5l31 -118h-31l-31 111h-25v-111h-34zM568 70l-21 23q-7 7 -13.5 13t-9.5 17
q-3 8 -0.5 21.5t15.5 12.5q7 -1 10 -7t4.5 -13.5t2 -15.5t0.5 -14l40 2q0 24 -5 48t-28 34q-14 6 -28 5t-25.5 -7t-19 -17.5t-8.5 -26.5q-2 -15 0.5 -31t11.5 -28q3 -8 9.5 -13t12.5 -12q12 -14 26 -29.5t14 -35.5q0 -8 -1.5 -14.5t-8.5 -7.5q-6 -2 -10 1t-6 8
q-6 11 -7 22.5t-2 23.5l-40 -3q0 -17 1.5 -32t8.5 -30q8 -18 25.5 -26t36.5 -4q20 4 31.5 19t13.5 32q6 48 -30 85zM431 696v235h49q18 0 33.5 -4t24.5 -22q5 -10 7.5 -22.5t1.5 -24.5t-6 -23t-14 -18q-13 -11 -31 -11h-33v-110h-32zM1067 430v233h22l66 -156v156h29v-233
h-22l-68 159v-159h-27zM1129 696v235h22l65 -156v156h28v-235h-21l-68 159v-159h-26zM1268 696l49 235h32l49 -235h-30l-12 58h-47l-11 -58h-30zM520 431q-21 -8 -46 -1t-34 32q-5 12 -6 25.5t-1 30.5v145h31v-156q0 -13 2 -30t17 -25q13 -4 21.5 0t13 12t6.5 18.5t2 20.5
q1 20 0.5 37.5t-0.5 37.5v85h33v-107q0 -15 0.5 -34t-2 -37t-11 -33t-26.5 -21zM647 428q-30 0 -45 19t-17 48l31 8q1 -11 2.5 -22t8.5 -19q8 -9 19 -10t19 7q10 8 9 22t-8 23q-5 7 -11.5 14t-14.5 12q-11 11 -24 21.5t-21 23.5q-7 11 -9 24.5t1.5 26.5t11.5 23t22 14
q13 3 29 2t28 -9q11 -8 15 -22.5t5 -28.5l-25 -9q-2 14 -6.5 27.5t-19.5 16.5q-11 2 -19.5 -3.5t-10.5 -17.5q-3 -9 0 -17t9 -15t13.5 -12.5t13.5 -11.5q16 -14 29.5 -28t17.5 -36q7 -27 -8.5 -49t-44.5 -22zM891 694q-29 0 -45.5 19.5t-17.5 47.5l30 8q2 -11 4 -22.5
t9 -18.5q8 -8 19 -9t19 6q9 8 8.5 22t-7.5 25q-6 10 -26 25q-11 10 -23.5 20.5t-20.5 22.5t-10 26.5t1 27t11.5 22.5t22.5 14q13 3 29 1.5t27 -9.5q12 -8 16 -22t5 -28l-25 -8q-2 12 -6.5 26t-19.5 18q-11 1 -20 -4.5t-11 -15.5t1 -18.5t9 -15.5t13.5 -13t14.5 -11
q15 -14 29 -28.5t19 -34.5q5 -29 -10 -51t-45 -22zM752 -96h37l73 322h-41zM728 430v233h91v-25h-58v-76h47v-24h-47v-87h58v-21h-91zM570 696v235h90v-25h-58v-76h47v-24h-47v-87h59v-23h-91zM1369 430v48q0 9 1 18t-1 17q-2 13 -6.5 23.5t-9.5 21.5l-33 105h30l35 -112
l34 112h32l-16 -48t-16 -49l-16 -48q-3 -8 -2.5 -16t0.5 -14v-58h-32zM955 455q7 -4 16 -4t14 4q9 5 12.5 13.5t5.5 17.5q1 5 0.5 12t-0.5 12v83q0 10 -1 20.5t-9 18.5q-13 13 -29 8q-16 -4 -23 -22q-3 -17 -2 -37t1 -37v-42q0 -12 1.5 -26t13.5 -21zM1019 721q13 -5 29 0
q10 5 12.5 13.5t3.5 16.5v109q0 10 -1 20.5t-9 17.5q-5 8 -12.5 9t-15.5 -1q-17 -1 -22 -20q-5 -17 -3 -37.5t2 -37.5v-43q0 -12 1 -26t15 -21zM1423 696v235h32v-212h60v-23h-92zM1220 430v233h32v-212h59v-21h-91zM462 -399q-15 0 -22 6.5t-9.5 16t-2.5 21v20.5
q0 11 0.5 22t4 19t11 12.5t21.5 3.5q12 -1 18.5 -7t9 -15t2.5 -19.5v-19.5v-19.5t-3 -19.5t-10 -15t-20 -6zM563 -251q-14 0 -21 6.5t-9.5 16.5t-2.5 21.5v21.5t0.5 20.5t4 18.5t10.5 13t21 4q12 -1 18 -7t9 -15t3 -19.5v-19.5t-0.5 -20t-3.5 -20t-9.5 -15t-19.5 -6z
M1468 -399q-14 0 -21 6.5t-9.5 16t-2.5 21v20.5q0 11 0.5 22t4 19t11 12.5t21.5 3.5q13 -1 18.5 -7t7.5 -15t1.5 -19.5t-0.5 -19.5v-19.5t-2.5 -19.5t-9 -15t-19.5 -6zM1398 -249v119q11 0 26 0.5t26 -8.5t10 -24.5t-1 -27.5t0.5 -28.5t-13.5 -24.5q-9 -8 -23 -7t-25 1z
M764 -398v119q12 0 24 1t22 -4q7 -4 10.5 -12t3.5 -17t-4 -16.5t-11 -10.5l17 -60h-16l-14 57h-13v-57h-19zM607 -398l2 119h17l21 -95l21 95h17l1 -119h-11l-2 88l-21 -88h-11l-18 88l-2 -88h-14zM510 -398l2 119h18l21 -95l20 95h16l2 -119h-13l-1 88l-20 -88h-11l-19 88
l-1 -88h-14zM1254 -398v119q11 0 23 1t23 -4q6 -4 10 -12t4 -17t-3.5 -16.5t-10.5 -10.5l15 -60h-15l-15 57h-14v-57h-17zM612 -249v119q11 0 22.5 1t21.5 -4q7 -4 11 -12.5t4.5 -17.5t-3 -16.5t-12.5 -10.5l18 -59h-17l-17 55h-12v-55h-16zM624 252v121h30t26 -12
q4 -11 3 -25t-9 -21q-8 -6 -16.5 -6.5t-17.5 -0.5v-56h-16zM782 -249v119h15v-52h31v52h18v-119h-18v55h-31v-55h-15zM1519 -398v119h10l35 -79v79h13v-119h-11l-35 82v-82h-12zM1320 -249v119h10l35 -79v79h13v-119h-10l-34 80v-80h-14zM807 252l26 121h16l26 -121h-18
l-5 32h-25l-5 -32h-15zM1242 -249l23 119h18l25 -119h-16l-6 30h-24l-7 -30h-13zM948 -398l25 119h17l25 -119h-15l-5 31h-26l-5 -31h-16zM1478 480l-9 183h30l-10 -183h-11zM463 830q8 0 16 -0.5t18 1.5q12 3 15.5 12.5t3.5 20.5q1 13 -2 25t-17 16q-10 2 -18 1.5t-16 -0.5
v-76zM1061 -249q-17 -5 -29.5 2.5t-16.5 24.5q-2 8 -1 15t1 13v64h15v-53q0 -5 -0.5 -14.5t0.5 -18.5t4.5 -16t11.5 -7t12 7t5.5 16t1 18.5t-0.5 14.5v53h14v-54q0 -8 0.5 -17.5t-0.5 -19t-4.5 -17.5t-12.5 -11zM384 -399q-15 0 -22 9t-9 21.5t-1.5 27t0.5 25.5q0 16 8.5 28
t28.5 10q18 -2 22 -14.5t4 -26.5h-16q0 5 0.5 10.5t-2.5 10.5q-2 8 -11 9t-13 -7q-6 -6 -4.5 -20t1.5 -23q0 -7 -1.5 -20t5.5 -21q3 -7 12 -5.5t11 9.5q3 5 2.5 11t-0.5 11h16q0 -15 -5 -30t-26 -15zM871 -399q-16 0 -22.5 9t-8 21.5t-0.5 27t1 25.5q0 16 7.5 28t27.5 10
q19 -2 23 -14.5t4 -26.5h-18q0 5 1 10.5t-2 10.5q-2 8 -10.5 9t-13.5 -7q-6 -6 -5 -20t1 -23q0 -7 -1 -20t6 -21q4 -7 12.5 -5.5t10.5 9.5q3 5 2 11t-1 11h18q0 -15 -5 -30t-27 -15zM1360 -399q-16 0 -23.5 10.5t-9.5 24.5l16 4q0 -6 2 -13.5t8 -9.5q9 -5 14 -0.5t5 11.5
q0 12 -10.5 21.5t-18.5 15.5q-11 11 -15 26.5t10 25.5q7 5 16.5 6t15.5 -3q8 -2 11.5 -10.5t4.5 -16.5l-14 -5l-2 12t-6 11q-16 4 -20 -9q-4 -9 3.5 -16t14.5 -13q7 -8 14.5 -15.5t9.5 -18.5q5 -14 -3 -26t-23 -12zM720 830h16t17 2q11 5 14.5 15.5t1.5 23.5q0 11 -2.5 19
t-13.5 13q-8 4 -17 3.5t-16 -0.5v-76zM914 251q-14 0 -22.5 10t-9.5 25l16 5q0 -6 2 -14t8 -12q8 -2 13.5 2.5t5.5 11.5q0 12 -10.5 21.5t-18.5 17.5q-11 9 -15 24t9 27q7 4 16 4.5t16 -1.5q9 -4 12.5 -12.5t4.5 -16.5l-14 -3q-1 5 -2.5 11t-6.5 11q-6 2 -11.5 0t-7.5 -10
q-3 -8 4 -16t12 -14q8 -6 16 -13.5t10 -18.5q5 -14 -3 -26.5t-24 -12.5zM1188 251q-16 0 -23 10t-8 25l16 5q0 -6 2.5 -14t8.5 -12q8 -2 12.5 2.5t4.5 11.5q1 12 -9.5 21.5t-18.5 17.5q-11 9 -15.5 24t8.5 27q17 8 33 3q8 -4 11.5 -12.5t4.5 -16.5l-14 -3q-1 5 -2.5 11
t-6.5 11q-5 2 -10.5 0t-6.5 -10q-6 -8 2 -16l14 -14q7 -6 14.5 -13.5t9.5 -18.5q5 -14 -2.5 -26.5t-24.5 -12.5zM1070 252l-27 121h18l17 -88l19 88h13l-25 -121h-15zM1141 -398l-27 119h15l20 -87l16 87h17l-28 -119h-13zM1194 -398v119h48v-10h-31v-39h25v-13h-25v-45h31
v-12h-48zM955 252v121h48v-11h-31v-41h25v-12h-25v-45h32v-12h-49zM705 -398v119h47v-10h-30v-39h25v-13h-25v-45h30v-12h-47zM555 -237q10 -5 14.5 -1t6.5 11.5t2 16.5v15q0 4 0.5 12t0.5 16t-2 14.5t-6 9.5q-11 6 -18 -2t-7 -18v-19q0 -4 -0.5 -12.5t-0.5 -17t2 -16
t8 -9.5zM864 -249v119h46v-12h-29v-40h25v-12h-25v-45h29v-10h-46zM753 252v121h46v-11h-31v-41h26v-12h-26v-45h31v-12h-46zM453 -382q10 -6 15 -2.5t7 10.5t2 16v15q0 4 0.5 12t0 15.5t-2 14t-5.5 8.5q-13 8 -18.5 0t-5.5 -17q-1 -5 -0.5 -9.5t0.5 -8.5q0 -5 -0.5 -13
t-0.5 -17t1.5 -16t6.5 -8zM1460 -382q10 -6 15 -2.5t7.5 10.5t2.5 16v15q0 4 0.5 12t-0.5 15.5t-3 14t-6 8.5q-12 8 -17 0t-5 -17v-18q0 -5 -1 -13t-1 -17t1.5 -16t6.5 -8zM474 -249v119h46v-12h-28v-40h22v-12h-22v-55h-18zM1414 -239q11 0 18.5 2t9.5 15v63q-1 13 -9 15
t-19 2v-97zM735 -249v107h-22v12h61v-12h-22v-107h-17zM1154 -249v119h17v-109h30v-10h-47zM960 -249v119h45v-12h-32v-40h24v-12h-24v-55h-13zM1281 252v110h-23v11h58v-11h-20v-110h-15zM1097 -249v119h16v-109h30v-10h-46zM695 252v121h15v-109h31v-12h-46zM1028 -398
v119h15v-107h32v-12h-47zM1313 778h40l-20 107zM1230 252v121h18v-121h-18zM919 -398v119h17v-119h-17zM420 -64h43v48h-43v-48zM1125 252v121h16v-121h-16zM1402 -398v119h15v-119h-15zM640 320h9t10 2q6 3 7 9t1 13q-1 14 -8.5 16t-18.5 2v-42zM1469 430v33h30v-33h-30z
M628 -182q11 0 19 3.5t8 17.5t-8 16.5t-19 2.5v-40zM1271 -328q11 0 19 2.5t8 16.5q0 12 -8 16t-19 4v-39zM783 -328q11 0 18 2.5t7 16.5q0 12 -7 16t-18 4v-39zM828 295h22l-9 55zM1264 -207h21l-11 54zM971 -356h21l-10 55zM1337 193l-30 -161l-29 161h-42l-4 -257h40
l1 105l20 -105h30l21 106l2 -106h37l-2 257h-44zM906 193v-204q0 -19 -16 -17q-7 1 -10 7t-4.5 13.5t-2 15.5t-0.5 14l-40 -2q0 -24 5 -48t28 -34q8 -4 15.5 -5t15.5 0q20 2 36 16t16 38v206h-43zM1013 193l-47 -257h43l10 61h28l8 -61h43l-45 257h-40zM1025 35l8 51l7 -51
h-15zM1174 -64v77l46 180h-43l-24 -120l-22 120h-43l43 -176v-81h43zM1766 -64v212h36v45h-116v-45h37v-212h43zM1520 110q0 19 -2.5 35t-9 27.5t-17.5 18t-28 6.5q-35 0 -46 -25t-11 -62v-90q0 -19 2.5 -35t9 -27.5t17.5 -18t28 -6.5q34 0 45.5 24.5t11.5 62.5v90zM1480 22
v-15t-1.5 -16.5t-5 -13t-10.5 -5.5t-10.5 5.5t-5 13t-1.5 16.5v15v86v15t1.5 16.5t5 13t10.5 5.5t10.5 -5.5t5 -13t1.5 -16.5v-15v-86zM1623 70l-44 123h-33v-257h40v126l45 -126h32v257h-40v-123z" />
    <glyph glyph-name="colon" unicode=":" horiz-adv-x="288" 
d="M191 47q0 -21 -12.5 -34t-34.5 -13q-21 0 -34 13t-13 34q0 20 13 34t34 14q22 0 34.5 -14t12.5 -34zM191 425q0 -21 -12.5 -34t-34.5 -13q-21 0 -34 13t-13 34q0 20 13 34t34 14q22 0 34.5 -14t12.5 -34z" />
    <glyph glyph-name="semicolon" unicode=";" horiz-adv-x="277" 
d="M184 122l-90 -254h-16l32 254h74zM184 425q0 -21 -12.5 -34t-34.5 -13q-21 0 -34 13t-13 34q0 20 13 34t34 14q22 0 34.5 -14t12.5 -34z" />
    <glyph glyph-name="less" unicode="&#x3c;" horiz-adv-x="441" 
d="M338 18l-245 220v13l244 228l9 -9l-175 -224l176 -221z" />
    <glyph glyph-name="equal" unicode="=" horiz-adv-x="497" 
d="M407 374h-332v22h332v-22zM407 222h-332v22h332v-22z" />
    <glyph glyph-name="greater" unicode="&#x3e;" horiz-adv-x="441" 
d="M103 477l246 -220v-13l-244 -228l-9 8l175 224l-176 221z" />
    <glyph glyph-name="question" unicode="?" horiz-adv-x="469" 
d="M15 613q56 43 108.5 61t116.5 18q41 0 74.5 -11t57 -30t37 -45.5t14.5 -57.5q1 -51 -25.5 -99t-77.5 -83q-34 -25 -57.5 -43t-37 -37t-18 -43t-1.5 -60h-12q-5 35 -5.5 59.5t7 46t23.5 43.5t43 53q33 34 56.5 77t22.5 92q0 54 -32 89t-90 35q-39 0 -75 -14.5t-70 -39.5
l-42 -121h-13zM247 38q0 -21 -13 -34t-35 -13q-20 0 -33.5 13t-13.5 34q0 20 13.5 34t33.5 14q22 0 35 -14t13 -34z" />
    <glyph glyph-name="at" unicode="@" horiz-adv-x="993" 
d="M707 -110q-33 -29 -93 -49t-135 -20q-90 0 -168.5 33t-136.5 92t-91 139t-33 175t35.5 175t95.5 138t140.5 90.5t170.5 32.5q95 0 175.5 -34.5t139 -93.5t91.5 -139t33 -170q0 -130 -45.5 -189.5t-137.5 -59.5q-70 0 -110 24.5t-44 74.5q-20 -51 -63.5 -84t-101.5 -35
q-72 -2 -114.5 29t-42.5 94q0 30 10.5 56.5t44.5 49t97.5 41t169.5 32.5v85q0 71 -23 104t-74 33q-32 0 -63 -14.5t-56 -33.5l-48 -114h-16l-4 111q45 35 96.5 49.5t101.5 14.5q86 0 127 -44t41 -136v-227q0 -26 7 -43.5t19.5 -27.5t30.5 -14t41 -4q28 0 53 12t43.5 39
t29 70.5t10.5 106.5q0 87 -31.5 163t-87.5 132.5t-133 89.5t-168 33q-86 0 -162 -31.5t-132.5 -87t-89.5 -132t-33 -167.5t31 -168t85 -133t127.5 -87.5t159.5 -31.5q63 0 121.5 19t96.5 48zM454 19q48 1 82.5 35.5t57.5 82.5v144q-77 -12 -124 -27t-72.5 -35t-34.5 -45
t-9 -55q0 -55 29 -78t71 -22z" />
    <glyph glyph-name="A" unicode="A" horiz-adv-x="609" 
d="M363 10l103 26q-9 46 -23 96t-24 85h-297q-8 -32 -22 -80t-28 -103l118 -24v-10h-214v10l82 23q27 106 58.5 209t63 190t59 153.5t47.5 99.5h41q30 -68 62 -146t62 -162t57 -171.5t47 -174.5l67 -21v-10h-259v10zM414 230q-6 25 -17.5 60.5t-25 75t-28 80t-28 75
t-24.5 61t-17 37.5q-6 -9 -18 -35.5t-26.5 -62.5t-30 -78.5t-30 -82.5t-26 -74.5t-17.5 -55.5h288z" />
    <glyph glyph-name="B" unicode="B" horiz-adv-x="538" 
d="M-8 685h294q46 0 79.5 -14t54.5 -38t29.5 -57t5.5 -70q-5 -44 -27 -81.5t-73 -63.5q56 -9 96.5 -45.5t48.5 -109.5q4 -45 -7.5 -82.5t-39 -65t-71.5 -43t-104 -15.5h-286v10l72 36v593l-72 36v10zM416 205q-6 65 -30 98.5t-56 46.5q-34 -13 -79 -20t-104 -7v-311h129
q79 0 113.5 52t26.5 141zM147 336q70 -1 115 12t70.5 37t36 56.5t12.5 71.5q5 85 -25 122.5t-84 37.5h-125v-337z" />
    <glyph glyph-name="C" unicode="C" 
d="M484 494h-15l-22 135q-23 26 -60.5 40.5t-81.5 12.5q-49 -1 -87.5 -27t-64 -71.5t-37.5 -108t-9 -136.5q3 -76 19 -137t44 -104.5t66.5 -67t85.5 -24.5q42 -2 86.5 13t80.5 43l6 -10q-39 -30 -88.5 -46t-101.5 -16q-66 0 -118 27.5t-88 75t-54.5 111t-18.5 135.5
t18.5 136.5t54.5 113t88 77.5t118 29q34 0 65 -6.5t57 -17.5t46 -25.5t31 -29.5z" />
    <glyph glyph-name="D" unicode="D" horiz-adv-x="559" 
d="M-10 685h265q124 0 193.5 -86.5t69.5 -267.5q0 -72 -15 -132.5t-47.5 -105t-82 -69t-118.5 -24.5h-265v10l73 37v592l-73 36v10zM145 13l112 -1q89 0 132.5 76.5t43.5 242.5q0 97 -13 162.5t-36 105.5t-55.5 57t-71.5 17h-112v-660z" />
    <glyph glyph-name="E" unicode="E" horiz-adv-x="528" 
d="M390 251l-39 82h-207v-321h123q38 0 79 2.5t83 7.5l61 136h10v-139q-62 -11 -119 -15t-114 -4h-278v10l72 36v593l-72 36v10h291q54 0 102 -3t102 -15v-141h-9l-61 140q-32 5 -65 6t-68 1h-137v-328h206l40 86h10v-180h-10z" />
    <glyph glyph-name="F" unicode="F" horiz-adv-x="446" 
d="M465 534l-58 131q-30 5 -60.5 6.5t-57.5 1.5h-145v-359h191l39 90h10v-192h-10l-39 90h-191v-261l104 -31v-10h-259v10l72 36v593l-72 36v10h336q44 0 79.5 -3.5t70.5 -13.5v-134h-10z" />
    <glyph glyph-name="G" unicode="G" horiz-adv-x="605" 
d="M514 494h-16l-23 136q-23 26 -60 39.5t-80 11.5q-111 -2 -171.5 -91t-55.5 -250q3 -78 20.5 -139.5t49 -104t75 -66t97.5 -24.5q34 -2 67 8.5t62 30.5l-1 256q-12 4 -31.5 6t-41 1.5t-43.5 -2t-40 -2.5l-2 13q59 5 117 4t106 -19v-236l-32 -13l2 -1q-39 -30 -82.5 -46
t-95.5 -16q-76 0 -134 27t-97 74t-58.5 111t-19.5 138q0 75 19.5 139.5t58.5 112.5t97 75.5t134 27.5q34 0 65 -6.5t57 -17.5t46 -25.5t31 -29.5z" />
    <glyph glyph-name="H" unicode="H" horiz-adv-x="616" 
d="M360 10l87 37v283h-295v-283l84 -37v-10h-232v10l66 33v597l-67 35v10h233v-10l-84 -37v-296h295v295l-87 38v10h236v-10l-66 -34v-597l66 -34v-10h-236v10z" />
    <glyph glyph-name="I" unicode="I" horiz-adv-x="329" 
d="M294 675l-91 -38v-589l97 -38v-10h-272v10l92 38v589l-88 38v10h262v-10z" />
    <glyph glyph-name="J" unicode="J" horiz-adv-x="521" 
d="M516 675l-68 -30v-417q0 -62 -15.5 -107t-44.5 -74t-70 -43t-91 -14q-62 0 -118 22.5t-94 54.5l17 133h16l29 -153q30 -19 69 -32.5t81 -12.5q63 1 101 43t38 126v476l-104 28v10h254v-10z" />
    <glyph glyph-name="K" unicode="K" horiz-adv-x="552" 
d="M226 675l-86 -43v-344l117 68q107 62 147.5 133.5t20.5 145.5l-82 40v10h149q8 -30 7 -65.5t-20.5 -75t-61 -82t-113.5 -85.5q46 -42 75 -75t49.5 -68.5t36.5 -80t37 -110.5l69 -33v-10h-236v10l81 36q-16 54 -28.5 93t-29.5 71.5t-41 64t-63 71.5l-114 -70v-229l87 -37
v-10h-236v10l67 34v591l-67 40v10h235v-10z" />
    <glyph glyph-name="L" unicode="L" horiz-adv-x="492" 
d="M250 675l-104 -36v-627h108q35 0 72 2.5t74 7.5l52 146h11l5 -146q-54 -11 -107 -16.5t-107 -5.5h-263v10l73 37v594l-73 34v10h259v-10z" />
    <glyph glyph-name="M" unicode="M" horiz-adv-x="750" 
d="M494 10l98 30q-18 224 -30.5 366t-20.5 187q-14 -25 -36.5 -82t-48 -131t-51.5 -157t-47 -158h-38q-12 42 -28 95.5t-34.5 110.5t-37 113.5t-35.5 104t-31 82t-21 48.5q-15 -78 -29.5 -228t-30.5 -350l126 -31v-10h-226v10l87 31q9 106 16 193t14.5 158.5t14.5 129.5
t16 107l-80 46v10h140q9 -12 23 -44t30.5 -77t35 -99t36.5 -110t34.5 -110.5t30.5 -100.5q13 47 29.5 101t34.5 109.5t36.5 108.5t36 97.5t32 77.5t24.5 47h124v-10l-79 -28q8 -43 15.5 -97.5t15 -127t16 -166.5t18.5 -216l67 -30v-10h-247v10z" />
    <glyph glyph-name="N" unicode="N" horiz-adv-x="583" 
d="M140 685q25 -18 62 -74.5t82 -139t97 -185t109 -213.5v562l-110 40v10h208v-10l-86 -39l-2 -636h-52q-35 68 -70.5 137.5t-69 134.5t-65 124.5t-59 108.5t-50.5 85t-40 55v-595l136 -40v-10h-231v10l82 39v600l-78 26v10h137v0z" />
    <glyph glyph-name="O" unicode="O" horiz-adv-x="616" 
d="M114 326q5 -164 52 -243.5t136 -79.5q85 0 131 79t41 244q-3 100 -19 168t-41 110t-58.5 60.5t-70.5 18.5q-33 0 -65 -17.5t-56.5 -59t-38.5 -110t-11 -170.5zM30 326q0 96 21 165.5t57 114.5t83.5 67t101.5 22q55 0 103 -22t84 -67t56.5 -114.5t20.5 -165.5
q0 -77 -17.5 -139t-51.5 -106t-83 -67.5t-112 -23.5q-62 0 -111 23.5t-83 67.5t-51.5 106t-17.5 139z" />
    <glyph glyph-name="P" unicode="P" horiz-adv-x="508" 
d="M-10 685h301q53 0 94 -14.5t68 -40.5t40.5 -62.5t12.5 -81.5q-1 -42 -17.5 -86t-55 -80t-102 -59t-157.5 -23h-27v-194l106 -34v-10h-263v10l74 37v591l-74 37v10zM147 250h28q74 0 121 20t74.5 52.5t38.5 73.5t12 84q1 52 -8 88.5t-27 59.5t-42.5 34t-52.5 11h-144v-423
z" />
    <glyph glyph-name="Q" unicode="Q" horiz-adv-x="620" 
d="M30 326q0 96 21 165.5t57 114.5t83.5 67t101.5 22q55 0 103 -22t84 -67t56.5 -114.5t20.5 -165.5q0 -110 -35.5 -188t-101.5 -116q10 -24 21.5 -41.5t26 -28.5t34 -16.5t46.5 -6.5v-68q-43 1 -64.5 12.5t-33 31.5t-18.5 48t-22 63q-26 -12 -55 -19t-62 -7
q-62 0 -111 23.5t-83 67.5t-51.5 106t-17.5 139zM114 326q5 -164 55 -243.5t133 -79.5q85 0 131 79t41 244q-3 101 -19 169.5t-41.5 110t-58.5 59.5t-70 18q-33 0 -65 -17.5t-56.5 -59t-38.5 -110t-11 -170.5z" />
    <glyph glyph-name="R" unicode="R" horiz-adv-x="555" 
d="M341 10l80 25q-12 57 -23 99.5t-23.5 75.5t-28.5 59.5t-39 50.5q-56 -12 -128 -12h-28v-279l84 -19v-10h-240v10l74 40v584l-74 41v10h305q49 0 86 -13.5t61 -37.5t34.5 -56.5t7.5 -71.5q-5 -57 -35.5 -100.5t-93.5 -69.5q30 -26 49.5 -53.5t34.5 -62t28.5 -79
t31.5 -102.5l69 -29v-10h-232v10zM151 321q10 -1 19.5 -1h17.5q60 0 101.5 14t68 39.5t38.5 60.5t14 78q3 83 -31 122t-91 39h-137v-352z" />
    <glyph glyph-name="S" unicode="S" horiz-adv-x="546" 
d="M462 492h-13l-40 137q-28 23 -65 38t-85 15q-31 0 -58.5 -10.5t-48 -29t-32.5 -42.5t-12 -50q0 -29 9.5 -51.5t29 -41t50.5 -33.5t76 -29q118 -36 171.5 -87.5t53.5 -123.5q0 -41 -14 -76t-41 -61.5t-67 -41.5t-92 -15q-35 0 -71.5 7.5t-70.5 22t-64 34t-52 43.5l15 131
h13l43 -157q40 -32 86 -50.5t101 -18.5q44 0 75.5 12.5t52 32.5t30.5 46.5t10 55.5q0 55 -48.5 97t-158.5 76q-96 29 -139 74.5t-42 117.5q1 35 15 67.5t39.5 57.5t61 40t80.5 16q35 0 67 -7t59.5 -19t50.5 -27.5t40 -31.5z" />
    <glyph glyph-name="T" unicode="T" horiz-adv-x="466" 
d="M83 10l102 33v632q-51 -2 -91 -5.5t-68 -7.5l-40 -155h-13l-15 155q11 2 31.5 6t53 8.5t77 8t103.5 4.5q62 0 135.5 -2t142.5 -15l-15 -154h-13l-40 151q-41 5 -84 6t-82 2v-634l107 -33v-10h-291v10z" />
    <glyph glyph-name="U" unicode="U" horiz-adv-x="602" 
d="M216 675l-86 -37v-443q0 -96 41.5 -144.5t109.5 -48.5q54 0 95 17.5t67 49.5v569l-86 37v10h248v-10l-79 -37v-530q-17 -24 -41.5 -45t-55.5 -37t-68.5 -26t-79.5 -10q-51 -1 -94 13.5t-74 45.5t-48.5 79.5t-17.5 115.5v394l-83 37v10h252v-10z" />
    <glyph glyph-name="V" unicode="V" horiz-adv-x="513" 
d="M187 675l-97 -38q7 -51 24 -119t42.5 -145t60 -158.5t76.5 -159.5l185 581l-132 39v10h233v-10l-88 -39l-201 -636h-59q-52 93 -90 182t-64.5 170.5t-42.5 153.5t-25 131l-83 38v10h261v-10z" />
    <glyph glyph-name="W" unicode="W" horiz-adv-x="704" 
d="M221 84l132 361l-18 140h79l11 -120l115 -410q31 69 54.5 148t41 155.5t29.5 145.5t20 119l-127 52v10h149q-9 -66 -23 -150.5t-34.5 -176.5t-49 -184.5t-66.5 -173.5h-57l-118 422l-155 -422h-45l-168 647l-71 28v10h240v-10l-85 -23z" />
    <glyph glyph-name="X" unicode="X" horiz-adv-x="576" 
d="M575 675l-88 -28l-186 -266l212 -335l81 -36v-10h-245v10l82 26l-177 279l-192 -274l120 -31v-10h-215v10l78 27l202 289l-205 324l-72 25v10h246v-10l-82 -29l160 -253l177 252l-112 30v10h216v-10z" />
    <glyph glyph-name="Y" unicode="Y" horiz-adv-x="486" 
d="M112 10l96 43v203q-36 48 -67.5 99t-57 100.5t-44 94.5t-28.5 83l-87 42v10h267v-10l-103 -42q10 -35 27 -76t41 -86.5t54.5 -94t67.5 -97.5l180 358l-123 38v10h235v-10l-99 -38l-185 -368v-215l99 -44v-10h-273v10z" />
    <glyph glyph-name="Z" unicode="Z" horiz-adv-x="535" 
d="M507 0h-476v16q55 124 100.5 218t88.5 170t87 140t96 129h-296l-58 -155h-13v167h452v-17q-37 -44 -68.5 -85.5t-60.5 -85.5t-57.5 -92.5t-58.5 -107t-63.5 -128.5t-72.5 -157h332l56 163h12v-175z" />
    <glyph glyph-name="bracketleft" unicode="[" horiz-adv-x="420" 
d="M343 -136h-195v839h195v-12h-162v-816h162v-11z" />
    <glyph glyph-name="backslash" unicode="\" horiz-adv-x="558" 
d="M60 762h26l404 -862h-26z" />
    <glyph glyph-name="bracketright" unicode="]" horiz-adv-x="420" 
d="M53 703h196v-839h-196v11h163v816h-163v12z" />
    <glyph glyph-name="asciicircum" unicode="^" horiz-adv-x="439" 
d="M77 483l137 168h12l137 -168l-8 -9l-135 122l-135 -122z" />
    <glyph glyph-name="underscore" unicode="_" horiz-adv-x="497" 
d="M435 -65h-377v20h377v-20z" />
    <glyph glyph-name="grave" unicode="`" horiz-adv-x="319" 
d="M222 572l-168 171l58 36l121 -200z" />
    <glyph glyph-name="a" unicode="a" 
d="M69 448q45 34 96 48.5t102 14.5q86 0 127 -44t41 -135v-228q0 -58 21.5 -74t74.5 -3v-12q-33 -12 -64 -14t-55.5 7.5t-40.5 30.5t-18 55q-23 -44 -61.5 -73t-95.5 -31q-72 -2 -116 29t-44 94q0 29 11 55.5t44.5 49.5t96 41.5t165.5 32.5v75q0 71 -24.5 101t-76.5 30
q-35 0 -65.5 -10.5t-56.5 -27.5l-42 -120h-15zM218 11q47 1 80.5 33t54.5 76v161q-76 -12 -122.5 -26.5t-71.5 -34.5t-33 -45t-8 -58q0 -59 29 -82.5t71 -23.5z" />
    <glyph glyph-name="b" unicode="b" horiz-adv-x="517" 
d="M-23 710l133 33h21v-284q29 20 65 36t79 16q103 0 147.5 -63t44.5 -185q0 -61 -12.5 -111t-37.5 -86t-62 -56t-86 -20q-62 0 -113.5 20t-106.5 70v611l-69 8zM257 494q-32 0 -64.5 -13.5t-61.5 -30.5v-397q30 -28 60 -39t70 -11q63 0 95 65t31 195q-1 62 -8 106
t-22.5 71.5t-40 40.5t-59.5 13z" />
    <glyph glyph-name="c" unicode="c" horiz-adv-x="481" 
d="M413 319h-14l-40 138q-20 19 -44.5 29.5t-54.5 10.5q-77 0 -109 -64t-29 -185q1 -54 11.5 -98.5t31 -76t51 -49.5t71.5 -18q37 0 71.5 12.5t63.5 34.5l6 -10q-30 -23 -71 -38t-89 -15q-58 0 -100.5 20.5t-70.5 56t-41.5 82t-13.5 98.5q0 54 12 102t38 84t67 57t99 21
q53 0 93.5 -17t70.5 -48z" />
    <glyph glyph-name="d" unicode="d" horiz-adv-x="543" 
d="M536 2q-77 -20 -116 -5t-47 72q-56 -79 -155 -79q-45 0 -80.5 19.5t-59.5 55.5t-35 87t-8 114q7 119 56.5 182t157.5 63q33 0 62.5 -6t59.5 -17v204l-89 11l-3 12l139 28h35v-654q0 -28 4 -45t13.5 -25t25.5 -9t41 4zM242 8q38 0 70.5 21.5t58.5 60.5v385
q-29 12 -58.5 18.5t-58.5 4.5q-73 -2 -105.5 -59t-35.5 -176q0 -120 31.5 -187.5t97.5 -67.5z" />
    <glyph glyph-name="e" unicode="e" horiz-adv-x="510" 
d="M456 54q-37 -23 -85 -43.5t-103 -20.5q-57 0 -99 20.5t-70 56.5t-42 83.5t-14 101.5q0 52 12.5 99t38.5 82.5t67.5 56.5t98.5 21q44 0 80.5 -14.5t63 -41.5t41 -66t14.5 -87q-25 -11 -61 -23.5t-79 -23.5t-91.5 -21t-97.5 -16q4 -49 16.5 -88.5t33.5 -67t51.5 -42
t70.5 -12.5q41 2 80 19.5t68 36.5zM258 499q-37 0 -63.5 -20t-42.5 -55.5t-22 -85t-1 -107.5v-1q38 5 75.5 12t71 15.5t61 17t46.5 16.5q0 36 -8 73t-23 67t-38.5 49t-55.5 19z" />
    <glyph glyph-name="f" unicode="f" horiz-adv-x="306" 
d="M-5 519h98v42q0 52 8.5 87t25 56t41 30t55.5 9q37 0 62.5 -5.5t52.5 -18.5l-8 -112h-14l-22 116q-12 5 -24.5 6.5t-26.5 2.5q-23 -4 -36 -16t-20.5 -34t-9.5 -54t-2 -76v-33h142v-12h-142v-471l94 -26v-10h-250v10l74 25v472h-98v12z" />
    <glyph glyph-name="g" unicode="g" horiz-adv-x="541" 
d="M104 -7q-30 -36 -33.5 -71t15.5 -62t58.5 -43.5t96.5 -17.5q51 0 87.5 7.5t60 22t35 35.5t13.5 47q4 54 -42 91.5t-139 42.5q-34 2 -53.5 2.5t-35.5 0.5q-16 9 -26.5 24.5t-14 33.5t-1 36t12.5 31q-50 20 -76.5 58.5t-26.5 93.5q0 86 58 136t160 50q53 0 95.5 -15
t71.5 -44q-24 82 7.5 113.5t101.5 8.5l-1 -47q-51 5 -71 -17.5t-18 -79.5q31 -43 31 -100q0 -79 -57 -128t-160 -49q-60 0 -103 15q-8 -9 -9 -22t4.5 -25.5t16.5 -24t29 -17.5q12 3 28 4.5t33 3.5q56 4 100.5 -4.5t75.5 -27t47.5 -46t16.5 -62.5q0 -71 -61.5 -115.5
t-187.5 -44.5q-88 1 -141 23.5t-72.5 54t-7 67t54.5 62.5zM114 325q4 -86 41.5 -122.5t103.5 -36.5q69 0 102 42.5t30 121.5q-3 86 -42.5 127.5t-103.5 41.5t-99.5 -46t-31.5 -128z" />
    <glyph glyph-name="h" unicode="h" horiz-adv-x="560" 
d="M318 10l78 29v334q0 58 -19.5 89t-72.5 31q-40 0 -81 -24.5t-75 -76.5v-357l71 -25v-10h-232v10l79 33v648l-71 8l-3 11l133 33h23v-329q35 48 80.5 72.5t96.5 24.5q42 0 71 -11t46.5 -33t25 -53.5t7.5 -72.5v-302l74 -29v-10h-231v10z" />
    <glyph glyph-name="i" unicode="i" horiz-adv-x="279" 
d="M28 470l120 27h31v-456l78 -31v-10h-236v10l76 32v400l-69 18v10zM193 623q0 -23 -14.5 -37t-40.5 -14q-23 0 -38 14t-15 37q0 22 15 35t38 13q26 0 40.5 -13t14.5 -35z" />
    <glyph glyph-name="j" unicode="j" horiz-adv-x="245" 
d="M21 470l119 27h31v-475q0 -49 -5 -81t-20 -57t-43.5 -47t-74.5 -50l-8 9q23 15 37 26.5t21 26.5t9 35t2 51v506l-68 19v10zM186 623q0 -23 -14.5 -37t-40.5 -14q-25 0 -39 14t-14 37q0 20 14.5 34t39.5 14q23 0 38.5 -13t15.5 -35z" />
    <glyph glyph-name="k" unicode="k" horiz-adv-x="529" 
d="M-5 710l132 33h24v-528q35 15 62.5 28t49 24.5t38.5 23t32 25.5q32 27 47 63.5t8 75.5l-79 36v6h151q12 -46 1.5 -85t-48.5 -74q-16 -15 -35.5 -28t-45.5 -27l126 -229l90 -44v-10h-233v10l71 29l-113 216q-26 -12 -56.5 -25t-65.5 -28v-170l74 -22v-10h-235v10l79 29
v651l-72 9z" />
    <glyph glyph-name="l" unicode="l" horiz-adv-x="238" 
d="M-12 710l136 33h26v-652q0 -30 4 -48t13.5 -27t25.5 -10t41 4l-1 -11q-46 -9 -77.5 -8t-51 13.5t-28 36t-8.5 58.5v592l-78 8z" />
    <glyph glyph-name="m" unicode="m" horiz-adv-x="840" 
d="M382 398q0 49 -22.5 70.5t-61.5 21.5q-34 0 -71.5 -28t-65.5 -88v-337l76 -27v-10h-234v10l77 28v404l-69 14v10l110 31h8l31 -96q30 54 72 82t89 28q56 0 91 -26.5t41 -80.5q30 53 72 80t91 27q67 0 101.5 -36t34.5 -103v-325l72 -37v-10h-145v397q0 49 -22 71t-64 22
q-34 0 -72.5 -27t-65.5 -85v-337l61 -31v-10h-134v398z" />
    <glyph glyph-name="n" unicode="n" horiz-adv-x="582" 
d="M16 466l111 31h7l33 -108q30 63 79 92.5t104 29.5q77 0 109 -43.5t32 -119.5v-311l74 -27v-10h-153v380q0 51 -18.5 80t-68.5 29q-43 0 -86.5 -30t-71.5 -99v-319l76 -31v-10h-233v10l75 32v400l-69 14v10z" />
    <glyph glyph-name="o" unicode="o" horiz-adv-x="543" 
d="M119 241q1 -61 13.5 -105.5t33.5 -74t48.5 -44t58.5 -14.5t58 14.5t46 44t29 74t9 105.5q-2 72 -15 121t-34 79.5t-48 44t-58 13.5t-58 -13t-46 -43.5t-29 -80t-8 -121.5zM35 243q-3 67 13.5 117.5t47 84t73.5 50t94 16.5q49 0 91.5 -15.5t74.5 -47t50.5 -80.5t19.5 -116
q0 -61 -17 -109.5t-47.5 -82.5t-72.5 -52t-90 -18q-49 0 -91.5 16.5t-74 48.5t-50 79t-21.5 109z" />
    <glyph glyph-name="p" unicode="p" horiz-adv-x="540" 
d="M0 466l110 31h8l31 -61q28 32 65 54t88 22q45 0 79.5 -19.5t57.5 -55t34.5 -84t10.5 -106.5q-5 -123 -54 -190t-149 -67q-37 0 -68.5 7.5t-62.5 20.5v-195l79 -26v-10h-160v656l-69 13v10zM279 490q-42 1 -72.5 -21t-56.5 -57v-382q28 -12 57.5 -19.5t58.5 -7.5
q73 0 101.5 61.5t30.5 177.5q2 118 -28.5 182.5t-90.5 65.5z" />
    <glyph glyph-name="q" unicode="q" horiz-adv-x="514" 
d="M276 -203l87 23v192q-27 -11 -54 -16.5t-60 -5.5q-96 0 -153.5 62.5t-63.5 180.5q-3 61 10.5 112.5t41 88t69 57t93.5 20.5q57 0 108.5 -14t89.5 -44v-637l58 -19v-10h-225zM249 3q28 -2 55.5 4t58.5 19v440q-22 17 -51.5 25t-64.5 8q-39 0 -66 -19.5t-43.5 -54
t-22.5 -82t-4 -103.5q5 -121 42.5 -178t95.5 -59z" />
    <glyph glyph-name="r" unicode="r" horiz-adv-x="395" 
d="M26 466l102 31h8l31 -118q5 65 34.5 97.5t69.5 34.5q29 2 53.5 -6.5t37.5 -17.5l-18 -128h-15l-26 114q-10 6 -21 8t-24 2q-39 -1 -61 -37.5t-20 -100.5v-304l116 -30v-11h-272v11l74 28v403l-69 14v10z" />
    <glyph glyph-name="s" unicode="s" horiz-adv-x="493" 
d="M42 154h13l42 -114q28 -17 63.5 -27.5t77.5 -10.5q43 0 73 10.5t48 26.5t26.5 36t8.5 40q0 23 -7 42.5t-25.5 34.5t-51 26t-82.5 18q-93 13 -131 49t-36 89q1 27 12.5 52t32.5 44t52 30t71 11q50 0 91.5 -12.5t80.5 -36.5l12 -3l-13 -101h-12l-39 112q-26 14 -55.5 21.5
t-65.5 7.5q-32 0 -56.5 -8.5t-41 -22.5t-25 -31.5t-8.5 -36.5t6.5 -34.5t23.5 -28t45.5 -21t72.5 -13.5q56 -6 93 -19t59 -32.5t30.5 -45.5t8.5 -58q-1 -31 -12.5 -59.5t-36 -50.5t-61.5 -35t-89 -13q-57 0 -106 14.5t-84 37.5l-16 4z" />
    <glyph glyph-name="t" unicode="t" horiz-adv-x="298" 
d="M-30 518l99 2l57 144h22v-145h158v-12h-158v-348q0 -53 7 -85t23.5 -47t43.5 -15t66 12v-10q-53 -20 -94 -22.5t-69.5 15.5t-43.5 58t-15 105v337h-94z" />
    <glyph glyph-name="u" unicode="u" horiz-adv-x="559" 
d="M463 103q0 -34 6 -53t17.5 -27t28.5 -7.5t38 5.5v-11q-32 -12 -60.5 -13.5t-51 6t-37 23.5t-18.5 39q-30 -33 -68.5 -53t-84.5 -21q-84 -5 -124 40t-40 128v295l-81 34v9h163v-376q0 -49 21 -80.5t71 -33.5q42 -1 76.5 19.5t61.5 53.5v373l-84 34v10h166v-394z" />
    <glyph glyph-name="v" unicode="v" horiz-adv-x="483" 
d="M197 489l-88 -39l156 -391q31 58 56.5 108t45 96t34.5 89t25 87l-118 50v8h143q-8 -53 -25.5 -109t-44 -117t-61.5 -128t-78 -143h-31l-179 437l-74 52v8h239v-8z" />
    <glyph glyph-name="w" unicode="w" horiz-adv-x="678" 
d="M473 54q57 108 90 200t50 182l-127 52v9h155q-8 -49 -20.5 -102.5t-34 -114.5t-53.5 -130.5t-78 -149.5h-33l-93 278l-111 -278h-35l-156 459l-64 29v9h227v-9l-86 -30l128 -379q7 13 18 39t24 56.5t25.5 62.5t23.5 58l-33 113l67 19l37 -134z" />
    <glyph glyph-name="x" unicode="x" horiz-adv-x="522" 
d="M296 10l68 26l-133 177l-5 7l-148 -173l115 -37v-10h-212v10l75 29l163 191l-155 213l-86 45v9h226v-9l-55 -35l117 -168l141 166l-113 37v9h214v-9l-83 -33l-152 -179l11 -16l165 -219l80 -31v-10h-233v10z" />
    <glyph glyph-name="y" unicode="y" horiz-adv-x="495" 
d="M193 488l-80 -37l183 -391q36 72 59 125t37 95.5t20 78t8 71.5l-119 58v9h197v-9l-61 -48q-2 -39 -10 -79t-24.5 -88t-44 -109t-69.5 -142q-65 -123 -125.5 -177.5t-122.5 -59.5l-24 67q43 -1 75.5 3t59.5 18t51 40t50 69l-224 470l-69 36v9h233v-9z" />
    <glyph glyph-name="z" unicode="z" horiz-adv-x="472" 
d="M455 12v-12h-432v15q57 114 102 190t83.5 127.5t73.5 86.5t71 67h-253l-44 -120h-12l-10 120v11h403l4 -14q-41 -36 -77 -72.5t-74.5 -88t-82.5 -125.5t-100 -185h281l46 116h12z" />
    <glyph glyph-name="braceleft" unicode="{" horiz-adv-x="454" 
d="M84 287q40 0 62.5 17t33.5 45t13.5 63.5t3.5 71.5q1 43 5.5 85t22 75.5t51.5 54t94 20.5l1 -11q-35 -2 -54.5 -18.5t-28.5 -44t-11.5 -63.5t-2.5 -78q0 -33 -3 -68.5t-15 -67t-36 -55.5t-67 -32q40 -9 64 -29.5t36 -48t16 -59.5t4 -62q1 -48 2.5 -89t10.5 -71.5
t28.5 -48.5t56.5 -19l-1 -11q-60 0 -94.5 21t-51.5 55t-21.5 77t-5.5 86q-1 36 -4 70.5t-14 62t-33.5 44t-61.5 16.5v12z" />
    <glyph glyph-name="bar" unicode="|" horiz-adv-x="345" 
d="M181 726v-920h-18v920h18z" />
    <glyph glyph-name="braceright" unicode="}" horiz-adv-x="454" 
d="M364 275q-40 0 -62.5 -17t-33.5 -45t-13.5 -63.5t-3.5 -72.5q-1 -43 -5.5 -85t-22 -75t-51.5 -53.5t-94 -20.5l-1 11q35 2 54.5 18.5t28.5 43.5t11.5 63.5t2.5 78.5q0 33 3 68.5t15 67t36 55t67 32.5q-40 8 -63.5 29t-35.5 48.5t-16 59.5t-4 62q-1 48 -3 88.5t-11 71
t-28.5 48.5t-56.5 20l1 11q60 0 94.5 -21t51.5 -55.5t21.5 -77.5t5.5 -86q1 -36 4 -70.5t14 -61.5t33.5 -43.5t61.5 -16.5v-12z" />
    <glyph glyph-name="asciitilde" unicode="~" horiz-adv-x="502" 
d="M413 364q3 -29 -1.5 -54t-16.5 -44t-31 -29.5t-44 -9.5q-24 1 -43 11.5t-36.5 23.5t-35 23.5t-39.5 10.5q-29 1 -45.5 -18.5t-16.5 -50.5h-12q-3 30 2.5 56t19 44.5t33.5 28.5t44 8q23 -2 41 -13t35.5 -24t35 -23t38.5 -10q29 0 44.5 20t15.5 50h12z" />
    <glyph glyph-name="uni00A0" unicode="&#xa0;" horiz-adv-x="280" 
 />
    <glyph glyph-name="exclamdown" unicode="&#xa1;" horiz-adv-x="281" 
d="M147.008 377.012l34.998 -485.971h-85.9951l33.998 485.971h16.999zM91.0117 526.002q0 20.999 12.999 33.998t34.998 12.999q19.998 0 33.498 -12.999q13.499 -12.999 13.499 -33.998q0 -19.998 -13.499 -33.998q-13.5 -13.999 -33.498 -13.999
q-21.999 0 -34.998 13.999q-12.999 14 -12.999 33.998z" />
    <glyph glyph-name="cent" unicode="&#xa2;" horiz-adv-x="575" 
d="M461 422h-12l-34 136q-18 21 -43 37t-58 16q-80 0 -119.5 -77t-36.5 -219q4 -142 42.5 -220.5t119.5 -80.5q43 -1 79 14t72 43l6 -9q-36 -28 -72 -44t-82 -18v-101h-12v101h-2q-61 0 -105 22.5t-72.5 63.5t-42 99t-13.5 130q0 71 14 127.5t43 96.5t73 61.5t103 22.5v100
h12v-100q32 -1 57 -7.5t45 -17.5t35 -25t26 -29z" />
    <glyph glyph-name="sterling" unicode="&#xa3;" horiz-adv-x="565" 
d="M352 283h-165v-262h108q35 0 73.5 2.5t76.5 7.5l40 126h10l13 -126q-54 -11 -107 -16.5t-106 -5.5h-263v10l73 42v222h-53v12h53q0 76 9.5 135.5t33.5 100t66.5 62t108.5 21.5q28 0 57.5 -4.5t49.5 -12.5l-9 -123h-12l-33 120q-13 5 -26.5 6.5t-25.5 -0.5
q-44 -2 -71.5 -19.5t-42 -54t-19.5 -93.5t-4 -138h169z" />
    <glyph glyph-name="currency" unicode="&#xa4;" 
d="M268 181q-26 0 -48.5 8t-39.5 25l-58 -57l-19 19l59 59q-24 33 -24 85q0 49 23 84l-59 60l20 19l58 -59q34 34 88 34q49 0 84 -33l58 58l20 -19l-59 -59q11 -17 17.5 -38.5t6.5 -45.5q0 -25 -7 -46.5t-19 -39.5l60 -59l-19 -19l-59 57q-33 -33 -83 -33zM266 193
q41 0 63 36.5t22 90.5q0 55 -23.5 90.5t-61.5 35.5q-39 0 -62.5 -34.5t-23.5 -91.5q0 -58 24 -92.5t62 -34.5z" />
    <glyph glyph-name="yen" unicode="&#xa5;" horiz-adv-x="686" 
d="M205 18l93 43v58h-110v11h110v71h-110v12h110v39q-71 94 -123 171t-73 141l-88 40v10h269v-10l-102 -36q20 -61 70 -135.5t117 -164.5l171 294l-119 42v10h234v-10l-104 -45l-174 -300v-46h122l-3 -12h-119v-71h96l-3 -11h-93v-53l102 -48v-9h-273v9z" />
    <glyph glyph-name="brokenbar" unicode="&#xa6;" horiz-adv-x="345" 
d="M184 216v-410h-24v410h24zM184 726v-411h-24v411h24z" />
    <glyph glyph-name="section" unicode="&#xa7;" horiz-adv-x="588" 
d="M91 -13l16 102h9l43 -119q28 -14 63 -23t73 -9q42 0 72.5 9.5t49.5 25.5t28.5 35.5t9.5 40.5q0 23 -7.5 42.5t-27 35t-52 26.5t-82.5 18q-92 14 -130.5 47t-36.5 86q1 38 23.5 68.5t64.5 46.5q-51 17 -70.5 47.5t-17.5 71.5q1 27 12.5 52t33 44t52.5 30t70 11
q100 0 177 -52l7 -1l-11 -101h-9l-43 116q-27 12 -58 19t-64 7q-32 0 -56.5 -8.5t-41 -22.5t-25 -31.5t-8.5 -36.5t7 -34.5t24 -28t45.5 -21t72.5 -13.5q55 -6 92 -19t59 -32.5t31 -45.5t8 -58t-17.5 -59t-44.5 -50q35 -20 49 -50t13 -70q-1 -31 -12.5 -59.5t-35.5 -50.5
t-61.5 -35t-88.5 -13q-59 0 -109 16t-85 38l-12 3zM306 236q35 -4 63 -10t49 -16q41 35 41 79q0 23 -8 41.5t-28 32.5t-53.5 23.5t-83.5 15.5q-17 2 -31 4.5t-27 6.5q-38 -11 -59 -34.5t-21 -51.5q0 -19 7.5 -34t26 -26t49 -19t75.5 -12z" />
    <glyph glyph-name="dieresis" unicode="&#xa8;" horiz-adv-x="421" 
d="M151.75 638.565q0 -20.3584 -12.1143 -32.9619t-33.4346 -12.6035q-20.3516 0 -32.9502 12.6035t-12.5986 32.9619q0 19.3896 12.5986 32.9629q12.5986 13.5723 32.9502 13.5723q21.3203 0 33.4346 -13.5723q12.1143 -13.5732 12.1143 -32.9629zM361.314 639.445
q0 -20.3057 -12.082 -32.875q-12.082 -12.5703 -33.3467 -12.5703q-20.2979 0 -32.8623 12.5703q-12.5654 12.5693 -12.5654 32.875q0 19.3379 12.5654 32.875q12.5645 13.5371 32.8623 13.5371q21.2646 0 33.3467 -13.5371t12.082 -32.875z" />
    <glyph glyph-name="copyright" unicode="&#xa9;" horiz-adv-x="1018" 
d="M498 -179q-90 0 -169.5 33t-139.5 92t-94.5 139t-34.5 175t35 175t95 138t140 90.5t170 32.5t170 -32.5t140 -90.5t95 -138t35 -175t-35 -175t-95.5 -139t-141 -92t-170.5 -33zM498 -160q86 0 162.5 31.5t134 87.5t91 133t33.5 168t-33 167t-90 131t-133.5 86t-162.5 31
t-162 -31t-133 -86t-90.5 -131t-33.5 -167t33 -168t89.5 -133t132.5 -87.5t162 -31.5zM655 328h-14l-43 151l6 -3q-47 31 -101 31q-77 0 -109 -64.5t-30 -184.5q1 -54 12 -98.5t31.5 -76.5t51 -50t71.5 -18q36 0 70.5 13t63.5 34l7 -10q-30 -23 -71.5 -38t-89.5 -15
q-58 0 -100.5 20.5t-70 56t-41 82t-13.5 98.5q0 54 12 102t38 84t67 57t98 21q53 0 93.5 -17t70.5 -48z" />
    <glyph glyph-name="ordfeminine" unicode="&#xaa;" horiz-adv-x="553" 
d="M92.2148 663.043q39.2705 29.6777 83.7773 42.334t89.0137 12.6562q75.0508 0 110.83 -38.4062q35.7803 -38.4053 35.7803 -117.836v-199.014q0 -50.626 18.7627 -64.5918t65.0146 -2.61816v-10.4746q-28.7988 -10.4746 -55.8516 -12.2197
q-27.0537 -1.74609 -48.4336 6.5459q-21.3809 8.29297 -35.3438 26.623t-15.708 48.0068q-20.0723 -38.4053 -53.6699 -63.7188q-33.5986 -25.3125 -83.3418 -27.0586q-62.832 -1.74609 -101.23 25.3125q-38.3984 27.0596 -38.3984 82.0498q0 25.3125 9.59961 48.4434
t38.835 43.207q29.2344 20.0762 83.7773 36.2236q54.542 16.1484 144.429 28.3682v65.4648q0 61.9736 -21.3809 88.1592q-21.3809 26.1865 -66.7598 26.1865q-30.5439 0 -57.1611 -9.16504q-26.6162 -9.16504 -49.3066 -24.0039l-36.6523 -104.744h-13.0898z
M222.244 281.602q41.0166 0.873047 70.251 28.8047q29.2354 27.9316 47.5615 66.3379v140.53q-66.3242 -10.4736 -106.903 -23.1309q-40.5801 -12.6562 -62.3975 -30.1133q-21.8164 -17.458 -28.7979 -39.2793t-6.98145 -50.626q0 -51.499 25.3076 -72.0107
q25.3076 -20.5127 61.96 -20.5127z" />
    <glyph glyph-name="guillemotleft" unicode="&#xab;" horiz-adv-x="654" 
d="M536 12l-228 226v10l227 235l8 -7l-176 -230l177 -226zM327 12l-228 226v10l227 235l8 -7l-176 -230l177 -226z" />
    <glyph glyph-name="logicalnot" unicode="&#xac;" horiz-adv-x="497" 
d="M407 324v-175h-22v154h-310v21h332z" />
    <glyph glyph-name="uni00AD" unicode="&#xad;" horiz-adv-x="497" 
d="M390 259h-297v28h297v-28z" />
    <glyph glyph-name="registered" unicode="&#xae;" horiz-adv-x="1018" 
d="M498 -179q-90 0 -169.5 33t-139.5 92t-94.5 139t-34.5 175t35 175t95 138t140 90.5t170 32.5t170 -32.5t140 -90.5t95 -138t35 -175t-35 -175t-95.5 -139t-141 -92t-170.5 -33zM498 -160q86 0 162.5 31.5t134 87.5t91 133t33.5 168t-33 167t-90 131t-133.5 86t-162.5 31
t-162 -31t-133 -86t-90.5 -131t-33.5 -167t33 -168t89.5 -133t132.5 -87.5t162 -31.5zM576 -15l75 29q-12 43 -22 72.5t-22 52t-27 40.5t-36 37q-53 -9 -124 -9h-31v-186l83 -36v-9h-239v9l74 34v480l-74 43v10h301q94 0 144 -46.5t45 -122.5q-5 -57 -35.5 -97t-99.5 -60
q23 -18 42 -37t36 -42.5t33 -54t33 -70.5l73 -37v-9h-229v9zM389 220q8 -1 16 -1h15q60 0 101.5 8.5t67.5 28t38.5 49.5t14.5 74q3 81 -30 120.5t-94 39.5h-129v-319z" />
    <glyph glyph-name="macron" unicode="&#xaf;" horiz-adv-x="461" 
d="M397 634h-328v22h328v-22z" />
    <glyph glyph-name="degree" unicode="&#xb0;" horiz-adv-x="380" 
d="M189 384q-22 0 -41.5 7.5t-34.5 22.5t-24 36.5t-9 50.5q0 51 30.5 83.5t78.5 32.5q47 0 76.5 -32.5t29.5 -82.5q0 -25 -8 -46.5t-22 -37.5t-33.5 -25t-42.5 -9zM188 396q37 0 57 30.5t20 75.5q0 46 -21.5 75t-55.5 29q-36 0 -57.5 -28t-21.5 -76q0 -49 22 -77.5t57 -28.5
z" />
    <glyph glyph-name="plusminus" unicode="&#xb1;" horiz-adv-x="497" 
d="M252 542v-158h158v-22h-158v-157h-22v157h-157v22h157v158h22zM410 104h-337v22h337v-22z" />
    <glyph glyph-name="twosuperior" unicode="&#xb2;" horiz-adv-x="457" 
d="M188.404 361.705l-27 -144.904l-26.1006 144.904h-37.8018l-3.59961 -231.307h36.001l0.899414 94.5029l18.001 -94.5029h27.001l18.9004 95.4023l1.7998 -95.4023h33.3008l-1.7998 231.307h-39.6016zM940.825 812.617q-47.7012 0 -55.8018 46.8008
q-1.7998 9.90039 -1.7998 19.8008v19.8008q0 21.6006 -0.900391 46.3506q-0.899414 24.751 4.50098 45.4521q5.39941 18 19.3496 26.5498q13.9512 8.55078 31.0508 9.4502q18.001 0.900391 33.751 -6.2998q15.751 -7.2002 22.0508 -25.2002q7.2002 -19.8008 6.75 -44.5518
q-0.449219 -24.751 -0.449219 -46.3506q0 -12.6006 -0.450195 -24.751t-3.15039 -23.8506q-9.90039 -43.2012 -54.9014 -43.2012zM885.924 573.211q-22.501 0 -36.9014 11.25t-18.9004 32.8506q-1.7998 10.8008 -1.34961 21.1504q0.450195 10.3506 0.450195 22.0508
q0 20.7002 -0.900391 44.5518q-0.900391 23.8506 3.59961 44.5508q5.40039 18.9004 18.9004 27.4512q13.501 8.5498 31.501 8.5498q18.9014 0.900391 34.2012 -5.40039q15.3008 -6.2998 21.6006 -24.3008q8.10059 -20.7002 6.30078 -45.4512
q-1.80078 -24.75 -1.80078 -45.4512q0 -14.4004 0.450195 -25.6504t-2.25 -23.8506q-8.10059 -42.3008 -54.9014 -42.3008zM328.809 251.002l-39.6016 110.703h-29.7002v-231.307h36.001v113.403l40.501 -113.403h28.8008v231.307h-36.001v-110.703zM620.416 216.801
h23.4014v-14.8506t-1.7998 -19.8008q-1.80078 -9.4502 -6.75098 -15.2998q-4.9502 -5.85059 -14.8506 -2.25q-6.2998 1.7998 -9 8.09961q-2.7002 6.30078 -3.59961 13.9512q-0.900391 7.64941 -0.450195 15.2998t0.450195 12.1504v54.9014q0 10.8008 -0.450195 24.751
t2.25 25.6504q2.7002 4.5 7.65039 7.65039t10.3506 2.25q11.7002 -3.59961 12.5996 -14.4004q1.80078 -8.10059 1.35059 -16.6504t-0.450195 -18.4502h38.7012q0 19.8008 -2.7002 42.3008q-2.7002 22.501 -22.501 35.1016q-10.7998 7.19922 -25.2002 7.64941
t-27.001 -4.0498q-15.3008 -4.5 -22.9502 -18q-7.65039 -13.501 -10.3506 -28.8008q-1.7998 -16.2012 -1.35059 -33.3018q0.450195 -17.1006 0.450195 -34.2002q0 -16.2012 -0.450195 -31.9512q-0.449219 -15.75 1.35059 -31.9512q1.7998 -13.5 6.75 -27.4502
t17.5508 -20.251q11.7002 -8.09961 28.8008 -7.65039q17.1006 0.450195 27 10.3506l0.900391 -7.2002h30.6006v120.604h-60.3018v-34.2012zM629.417 814.417v211.506q20.7002 0 42.751 0.450195q22.0508 0.449219 40.0508 -9.4502q10.8008 -7.2002 17.1006 -21.1514
q6.2998 -13.9502 6.2998 -29.25q0 -15.3008 -6.2998 -28.3516q-6.2998 -13.0498 -18.9004 -17.5498l27.9004 -106.203h-27.9004l-27.9004 99.9023h-22.501v-99.9023h-30.6006zM523.214 251.002l-18.9004 20.7002q-6.2998 6.2998 -12.1504 11.7002t-8.5498 15.3008
q-2.7002 7.2002 -0.450195 19.3506t13.9502 11.25q6.2998 -0.899414 9 -6.2998t4.0498 -12.1504q1.35059 -6.75 1.80078 -13.9502t0.450195 -12.6006l36 1.7998q0 21.6006 -4.5 43.2012t-25.2002 30.6006q-12.6006 5.40039 -25.2012 4.5
q-12.5996 -0.899414 -22.9502 -6.2998t-17.1006 -15.75q-6.75 -10.3506 -7.65039 -23.8506q-1.7998 -13.501 0.450195 -27.9014t10.3506 -25.2002q2.7002 -7.2002 8.5498 -11.7002q5.85059 -4.50098 11.25 -10.8008q10.8008 -12.6006 23.4014 -26.5508t12.6006 -31.9502
q0 -7.20117 -1.35059 -13.0508q-1.34961 -5.85059 -7.65039 -6.75q-5.39941 -1.80078 -9 0.899414t-5.40039 7.2002q-5.39941 9.90039 -6.2998 20.251t-1.7998 21.1504l-36.001 -2.7002q0 -15.2998 1.34961 -28.8008q1.34961 -13.5 7.65039 -27
q7.2002 -16.2012 22.9502 -23.4014q15.751 -7.2002 32.8516 -3.59961q18 3.59961 28.3506 17.1006q10.3496 13.5 12.1504 28.8008q5.40039 43.2012 -27.001 76.502zM399.91 814.417v211.506h44.1016q16.2002 0 30.1504 -3.60059q13.9512 -3.59961 22.0508 -19.7998
q4.5 -9.00098 6.75 -20.251t1.35059 -22.0508q-0.900391 -10.7998 -5.40039 -20.7002t-12.6006 -16.2002q-11.7002 -9.90039 -27.9004 -9.90039h-29.7012v-99.0029h-28.8008zM972.326 575.011v209.705h19.8008l59.4014 -140.403v140.403h26.1006v-209.705h-19.8008
l-61.2012 143.104v-143.104h-24.3008zM1028.13 814.417v211.506h19.7998l58.502 -140.404v140.404h25.2012v-211.506h-18.9014l-61.2012 143.104v-143.104h-23.4004zM1153.23 814.417l44.1016 211.506h28.8008l44.1016 -211.506h-27.001l-10.7998 52.2012h-42.3018
l-9.90039 -52.2012h-27.001zM480.013 575.91q-18.9004 -7.2002 -41.4014 -0.899414q-22.5 6.2998 -30.6006 28.8008q-4.5 10.7998 -5.40039 22.9502q-0.899414 12.1504 -0.899414 27.4512v130.503h27.9004v-140.403q0 -11.7002 1.7998 -27.001
q1.7998 -15.2998 15.3008 -22.501q11.7002 -3.59961 19.3506 0q7.65039 3.60059 11.7002 10.8008t5.85059 16.6504q1.7998 9.4502 1.7998 18.4502q0.899414 18.001 0.450195 33.751q-0.450195 15.751 -0.450195 33.751v76.502h29.7002v-96.3018q0 -13.501 0.450195 -30.6016
t-1.7998 -33.3008t-9.90039 -29.7012q-7.65039 -13.5 -23.8506 -18.9004zM594.315 573.211q-27 0 -40.501 17.0996q-13.5 17.1006 -15.2998 43.2012l27.9004 7.2002q0.900391 -9.89941 2.25 -19.7998q1.35059 -9.90039 7.65039 -17.1006q7.2002 -8.10059 17.1006 -9.00098
q9.90039 -0.899414 17.1006 6.30078q9 7.2002 8.09961 19.8008q-0.899414 12.5996 -7.2002 20.7002q-4.5 6.2998 -10.3496 12.6006q-5.85059 6.2998 -13.0508 10.7998q-9.90039 9.90039 -21.6006 19.3506t-18.9004 21.1504q-6.2998 9.90039 -8.10059 22.0508
q-1.7998 12.1504 1.35059 23.8506q3.14941 11.7002 10.3496 20.7012q7.2002 9 19.8008 12.5996q11.7002 2.7002 26.1006 1.80078q14.4004 -0.900391 25.2012 -8.10059q9.90039 -7.2002 13.5 -20.251q3.60059 -13.0498 4.5 -25.6504l-22.5 -8.10059
q-1.80078 12.6006 -5.85059 24.751t-17.5508 14.8506q-9.89941 1.7998 -17.5498 -3.15039t-9.4502 -15.75q-2.7002 -8.10059 0 -15.3008t8.09961 -13.5q5.40039 -6.30078 12.1504 -11.25q6.75 -4.9502 12.1504 -10.3506q14.4004 -12.6006 26.5508 -25.2012
q12.1504 -12.5996 15.751 -32.4004q6.2998 -24.3008 -7.65039 -44.1016q-13.9512 -19.7998 -40.0518 -19.7998zM813.922 812.617q-26.1006 0 -40.9512 17.5498q-14.8506 17.5508 -15.75 42.752l27 7.2002q1.80078 -9.90039 3.60059 -20.251t8.09961 -16.6504
q7.2002 -7.2002 17.1006 -8.10059q9.90039 -0.899414 17.1006 5.40039q8.10059 7.2002 7.65039 19.8008t-6.75 22.5q-5.40039 9.00098 -23.4014 22.501q-9.89941 9 -21.1504 18.4502q-11.25 9.45117 -18.4502 20.251t-9 23.8506t0.899414 24.3008
q2.7002 11.25 10.3506 20.25q7.65039 9.00098 20.251 12.6006q11.7002 2.7002 26.1006 1.35059q14.4004 -1.35059 24.3008 -8.55078q10.7998 -7.2002 14.4004 -19.8008q3.59961 -12.5996 4.5 -25.2002l-22.501 -7.2002q-1.7998 10.8008 -5.84961 23.4004
q-4.05078 12.6006 -17.5508 16.2012q-9.90039 0.899414 -18.001 -4.05078q-8.09961 -4.9502 -9.89941 -13.9502q-1.80078 -9 0.899414 -16.6504t8.10059 -13.9502q5.40039 -6.30078 12.1504 -11.7002q6.75 -5.40039 13.0498 -9.90039q13.501 -12.6006 26.1006 -25.6514
q12.6006 -13.0498 17.1006 -31.0508q4.5 -26.1006 -9 -45.9004q-13.5 -19.8008 -40.501 -19.8008zM688.818 101.598h33.3008l65.7021 289.808h-36.9014zM667.218 575.011v209.705h81.9023v-22.5h-52.2012v-68.4023h42.3008v-21.6006h-42.3008v-78.3018h52.2012v-18.9004
h-81.9023zM525.014 814.417v211.506h81.002v-22.501h-52.2012v-68.4014h42.3018v-21.6006h-42.3018v-78.3027h53.1016v-20.7002h-81.9023zM1244.13 575.011v43.2012q0 8.09961 0.899414 16.2002q0.900391 8.10059 -0.899414 15.3008q-1.80078 11.7002 -5.85059 21.1504
t-8.5498 19.3506l-29.7012 94.502h27.001l31.501 -100.803l30.6006 100.803h28.8008l-14.4004 -43.2012t-14.4004 -44.1006l-14.4004 -43.2012q-2.7002 -7.2002 -2.25 -14.4004t0.450195 -12.6006v-52.2012h-28.8008zM871.523 597.511q6.2998 -3.59961 14.4004 -3.59961
q8.09961 0 12.6006 3.59961q8.09961 4.50098 11.25 12.1504q3.15039 7.65039 4.9502 15.751q0.900391 4.5 0.450195 10.7998q-0.450195 6.30078 -0.450195 10.8008v74.7021q0 9 -0.900391 18.4502q-0.899414 9.4502 -8.09961 16.6504q-11.7012 11.7002 -26.1016 7.2002
q-14.4004 -3.59961 -20.7002 -19.8008q-2.7002 -15.2998 -1.7998 -33.3008q0.900391 -18 0.900391 -33.3008v-37.8008q0 -10.8008 1.34961 -23.4004q1.34961 -12.6006 12.1504 -18.9014zM929.125 836.918q11.7002 -4.5 26.1006 0q9 4.5 11.25 12.1504
q2.25 7.64941 3.15039 14.8496v98.1035q0 9 -0.900391 18.4502q-0.899414 9.4502 -8.09961 15.75q-4.5 7.2002 -11.251 8.10059q-6.75 0.900391 -13.9502 -0.900391q-15.2998 -0.899414 -19.7998 -18q-4.50098 -15.3008 -2.7002 -33.751q1.7998 -18.4502 1.7998 -33.751
v-38.7012q0 -10.8008 0.900391 -23.4004q0.899414 -12.6006 13.5 -18.9004zM1292.73 814.417v211.506h28.8008v-190.806h54.002v-20.7002h-82.8027zM1110.03 575.011v209.705h28.8008v-190.805h53.1016v-18.9004h-81.9023zM427.812 -171.109q-13.501 0 -19.8008 5.84961
q-6.2998 5.85059 -8.5498 14.4004q-2.25 8.55078 -2.25 18.9004v18.4512q0 9.90039 0.449219 19.7998q0.450195 9.90039 3.60059 17.1006q3.14941 7.2002 9.90039 11.251q6.75 4.0498 19.3506 3.14941q10.7998 -0.899414 16.6504 -6.2998q5.84961 -5.40039 8.09961 -13.501
q2.25 -8.09961 2.25 -17.5498v-17.5508v-17.5508t-2.69922 -17.5498q-2.7002 -8.10059 -9.00098 -13.501q-6.2998 -5.39941 -18 -5.39941zM518.714 -37.9062q-12.6006 0 -18.9004 5.85059q-6.30078 5.84961 -8.55078 14.8506q-2.25 9 -2.25 19.3496v19.3506
q0 9.00098 0.450195 18.4512t3.60059 16.6504q3.14941 7.2002 9.4502 11.7002q6.2998 4.5 18.9004 3.59961q10.7998 -0.899414 16.2002 -6.2998t8.10059 -13.5q2.69922 -8.10059 2.69922 -17.5508v-17.5508q0 -8.09961 -0.449219 -18q-0.450195 -9.90039 -3.15039 -18.001
q-2.7002 -8.09961 -8.5498 -13.5q-5.85059 -5.40039 -17.5508 -5.40039zM1333.24 -171.109q-12.6006 0 -18.9014 5.84961q-6.2998 5.85059 -8.5498 14.4004q-2.25 8.55078 -2.25 18.9004v18.4512q0 9.90039 0.450195 19.7998q0.450195 9.90039 3.59961 17.1006
q3.15039 7.2002 9.90039 11.251q6.75 4.0498 19.3506 3.14941q11.7002 -0.899414 16.6504 -6.2998t6.75 -13.501q1.80078 -8.09961 1.35059 -17.5498t-0.450195 -17.5508v-17.5508t-2.25 -17.5498q-2.25 -8.10059 -8.10059 -13.501q-5.84961 -5.39941 -17.5498 -5.39941z
M1270.23 -36.1064v107.104q9.90039 0 23.4004 0.450195q13.5 0.449219 23.4004 -7.65039q9.90039 -8.10059 9 -22.0508q-0.899414 -13.9502 -0.899414 -24.751q0 -10.7998 0.450195 -25.6504q0.449219 -14.8506 -12.1504 -22.0508q-8.10059 -7.2002 -20.7012 -6.2998
q-12.5996 0.899414 -22.5 0.899414zM699.619 -170.21v107.104q10.7998 0 21.5996 0.899414q10.8008 0.900391 19.8008 -3.59961q6.30078 -3.60059 9.4502 -10.8008q3.15039 -7.2002 3.15039 -15.2998q0 -8.10059 -3.60059 -14.8506q-3.59961 -6.75 -9.89941 -9.4502
l15.2998 -54.002h-14.4004l-12.5996 51.3018h-11.7012v-51.3018h-17.0996zM558.314 -170.21l1.80078 107.104h15.2998l18.9004 -85.5029l18.9014 85.5029h15.2998l0.900391 -107.104h-9.90039l-1.7998 79.2021l-18.9004 -79.2021h-9.90039l-16.2012 79.2021
l-1.7998 -79.2021h-12.6006zM471.013 -170.21l1.7998 107.104h16.2002l18.9004 -85.5029l18.001 85.5029h14.4004l1.7998 -107.104h-11.7002l-0.900391 79.2021l-18 -79.2021h-9.90039l-17.1006 79.2021l-0.899414 -79.2021h-12.6006zM1140.63 -170.21v107.104
q9.90039 0 20.7002 0.899414q10.8008 0.900391 20.7002 -3.59961q5.40039 -3.60059 9.00098 -10.8008q3.59961 -7.2002 3.59961 -15.2998q0 -8.10059 -3.14941 -14.8506q-3.15039 -6.75 -9.45117 -9.4502l13.501 -54.002h-13.501l-13.5 51.3018h-12.6006v-51.3018h-15.2998z
M562.814 -36.1064v107.104q9.90039 0 20.251 0.899414q10.3506 0.900391 19.3506 -3.59961q6.2998 -3.60059 9.90039 -11.25q3.59961 -7.65039 4.0498 -15.751t-2.7002 -14.8506q-3.14941 -6.75 -11.25 -9.4502l16.2002 -53.1016h-15.2998l-15.3008 49.502h-10.8008v-49.502
h-14.4004zM573.615 414.807v108.902h27.001t23.4004 -10.7998q3.60059 -9.90039 2.7002 -22.501t-8.10059 -18.9004q-7.2002 -5.40039 -14.8506 -5.85059q-7.64941 -0.450195 -15.75 -0.450195v-50.4004h-14.4004zM715.819 -36.1064v107.104h13.5v-46.8018h27.9014v46.8018
h16.2002v-107.104h-16.2002v49.502h-27.9014v-49.502h-13.5zM1379.14 -170.21v107.104h9.00098l31.501 -71.1025v71.1025h11.7002v-107.104h-9.90039l-31.501 73.8018v-73.8018h-10.8008zM1200.03 -36.1064v107.104h9l31.501 -71.1025v71.1025h11.7002v-107.104h-9
l-30.6006 72.002v-72.002h-12.6006zM738.319 414.807l23.4014 108.902h14.4004l23.4004 -108.902h-16.2002l-4.50098 28.8008h-22.5l-4.5 -28.8008h-13.501zM1129.83 -36.1064l20.7012 107.104h16.2002l22.501 -107.104h-14.4004l-5.40039 27.001h-21.6006l-6.30078 -27.001
h-11.7002zM865.223 -170.21l22.501 107.104h15.3008l22.5 -107.104h-13.5l-4.5 27.9014h-23.4004l-4.50098 -27.9014h-14.4004zM1342.24 620.012l-8.10059 164.704h27.001l-9 -164.704h-9.90039zM428.711 935.021q7.2002 0 14.4004 -0.450195t16.2012 1.34961
q10.7998 2.7002 13.9502 11.251q3.14941 8.5498 3.14941 18.4502q0.900391 11.7002 -1.7998 22.501q-2.7002 10.7998 -15.2998 14.4004q-9.00098 1.7998 -16.2012 1.34961t-14.4004 -0.450195v-68.4014zM966.926 -36.1064q-15.3008 -4.5 -26.5508 2.25
q-11.25 6.75098 -14.8506 22.0508q-1.7998 7.2002 -0.899414 13.501q0.899414 6.2998 0.899414 11.7002v57.6016h13.501v-47.7012q0 -4.50098 -0.450195 -13.0508t0.450195 -16.6504q0.899414 -8.10059 4.0498 -14.4004t10.3506 -6.2998t10.7998 6.2998
q3.60059 6.2998 4.9502 14.4004q1.35059 8.10059 0.900391 16.6504t-0.450195 13.0508v47.7012h12.6006v-48.6016q0 -7.2002 0.450195 -15.75q0.449219 -8.55078 -0.450195 -17.1006q-0.900391 -8.55078 -4.05078 -15.751q-3.14941 -7.2002 -11.25 -9.90039z
M357.609 -171.109q-13.5 0 -19.8008 8.09961q-6.2998 8.10059 -8.09961 19.3506q-1.80078 11.251 -1.35059 24.3008q0.450195 13.0508 0.450195 22.9502q0 14.4004 7.65039 25.2012t25.6504 9q16.2002 -1.7998 19.8008 -13.0498q3.59961 -11.251 3.59961 -23.8506h-14.4004
q0 4.5 0.450195 9.4502t-2.25 9.4502q-1.7998 7.2002 -9.90039 8.09961q-8.09961 0.900391 -11.7002 -6.2998q-5.40039 -5.40039 -4.0498 -18.001q1.34961 -12.5996 1.34961 -20.7002q0 -6.2998 -1.34961 -18q-1.35059 -11.7002 4.9502 -18.9014
q2.7002 -6.2998 10.7998 -4.94922q8.10059 1.34961 9.90039 8.5498q2.7002 4.5 2.25 9.90039t-0.450195 9.90039h14.4004q0 -13.501 -4.5 -27.001t-23.4004 -13.5zM795.921 -171.109q-14.4004 0 -20.25 8.09961q-5.85059 8.10059 -7.2002 19.3506
q-1.35059 11.251 -0.450195 24.3008q0.900391 13.0508 0.900391 22.9502q0 14.4004 6.75 25.2012t24.751 9q17.0996 -1.7998 20.7002 -13.0498q3.59961 -11.251 3.59961 -23.8506h-16.2002q0 4.5 0.900391 9.4502q0.899414 4.9502 -1.80078 9.4502
q-1.7998 7.2002 -9.4502 8.09961q-7.64941 0.900391 -12.1494 -6.2998q-5.40039 -5.40039 -4.50098 -18.001q0.900391 -12.5996 0.900391 -20.7002q0 -6.2998 -0.900391 -18q-0.899414 -11.7002 5.40039 -18.9014q3.60059 -6.2998 11.25 -4.94922
q7.65039 1.34961 9.4502 8.5498q2.7002 4.5 1.80078 9.90039q-0.900391 5.40039 -0.900391 9.90039h16.2002q0 -13.501 -4.5 -27.001t-24.3008 -13.5zM1236.03 -171.109q-14.4004 0 -21.1504 9.4502t-8.55078 22.0498l14.4004 3.60059q0 -5.40039 1.80078 -12.1504
q1.7998 -6.75 7.2002 -8.5498q8.09961 -4.5 12.5996 -0.450195q4.50098 4.0498 4.50098 10.3506q0 10.7998 -9.45117 19.3496q-9.4502 8.55078 -16.6504 13.9512q-9.90039 9.90039 -13.5 23.8506t9 22.9502q6.30078 4.5 14.8506 5.40039t13.9502 -2.7002
q7.2002 -1.7998 10.3506 -9.4502t4.0498 -14.8506l-12.5996 -4.5q-0.900391 5.40039 -1.80078 10.7998q-0.899414 5.40039 -5.40039 9.90039q-14.4004 3.60059 -18 -8.09961q-3.59961 -8.10059 3.15039 -14.4004q6.75 -6.30078 13.0498 -11.7002
q6.30078 -7.2002 13.0508 -13.9512q6.75 -6.75 8.5498 -16.6504q4.5 -12.5996 -2.7002 -23.4004q-7.2002 -10.7998 -20.7002 -10.7998zM660.018 935.021h14.4004t15.3008 1.7998q9.90039 4.5 13.0498 13.9502q3.15039 9.4502 1.35059 21.1504q0 9.90039 -2.25 17.1006
t-12.1504 11.7002q-7.2002 3.60059 -15.3008 3.15039t-14.4004 -0.450195v-68.4014zM834.622 413.906q-12.6006 0 -20.25 9q-7.65039 9 -8.55078 22.501l14.4004 4.5q0 -5.40039 1.7998 -12.6006q1.80078 -7.2002 7.20117 -10.7998q7.19922 -1.80078 12.1494 2.25
q4.9502 4.0498 4.9502 10.3496q0 10.8008 -9.4502 19.3506q-9.4502 8.55078 -16.6504 15.751q-9.90039 8.09961 -13.5 21.6006q-3.60059 13.5 8.10059 24.3008q6.2998 3.59961 14.4004 4.0498q8.09961 0.450195 14.4004 -1.35059q8.09961 -3.59961 11.25 -11.25
t4.0498 -14.8506l-12.6006 -2.7002q-0.899414 4.50098 -2.25 9.90039q-1.34961 5.40039 -5.84961 9.90039q-5.40039 1.80078 -10.3506 0q-4.9502 -1.7998 -6.75 -9q-2.7002 -7.2002 3.59961 -14.4004q6.30078 -7.2002 10.8008 -12.6006q7.2002 -5.39941 14.4004 -12.1504
q7.2002 -6.75 9 -16.6504q4.5 -12.6006 -2.7002 -23.8506t-21.6006 -11.25zM1081.23 413.906q-14.4004 0 -20.7002 9t-7.2002 22.501l14.4004 4.5q0 -5.40039 2.25 -12.6006t7.65039 -10.7998q7.2002 -1.80078 11.25 2.25q4.05078 4.0498 4.05078 10.3496
q0.899414 10.8008 -8.55078 19.3506q-9.4502 8.55078 -16.6504 15.751q-9.90039 8.09961 -13.9502 21.6006q-4.0498 13.5 7.65039 24.3008q15.2998 7.2002 29.7002 2.69922q7.2002 -3.59961 10.3506 -11.25t4.0498 -14.8506l-12.5996 -2.7002
q-0.900391 4.50098 -2.25 9.90039q-1.35059 5.40039 -5.85059 9.90039q-4.5 1.80078 -9.4502 0q-4.9502 -1.7998 -5.85059 -9q-5.39941 -7.2002 1.80078 -14.4004t12.5996 -12.6006q6.30078 -5.39941 13.0508 -12.1504q6.75 -6.75 8.5498 -16.6504
q4.5 -12.6006 -2.25 -23.8506t-22.0508 -11.25zM975.026 414.807l-24.3008 108.902h16.2002l15.3008 -79.2021l17.1006 79.2021h11.7002l-22.501 -108.902h-13.5zM1038.93 -170.21l-24.3008 107.104h13.501l18 -78.3027l14.4004 78.3027h15.3008l-25.2012 -107.104h-11.7002
zM1086.63 -170.21v107.104h43.2012v-9.00098h-27.9004v-35.1006h22.5v-11.7002h-22.5v-40.501h27.9004v-10.8008h-43.2012zM871.523 414.807v108.902h43.2012v-9.90039h-27.9004v-36.9004h22.5v-10.8008h-22.5v-40.501h28.8008v-10.7998h-44.1016zM646.518 -170.21v107.104
h42.3008v-9.00098h-27.001v-35.1006h22.501v-11.7002h-22.501v-40.501h27.001v-10.8008h-42.3008zM511.514 -25.3057q9 -4.5 13.0498 -0.900391q4.05078 3.60059 5.85059 10.3506t1.7998 14.8506v13.5q0 3.60059 0.450195 10.8008t0.450195 14.4004t-1.7998 13.0498
q-1.80078 5.85059 -5.40039 8.55078q-9.90039 5.39941 -16.2002 -1.80078q-6.30078 -7.2002 -6.30078 -16.2002v-17.1006q0 -3.59961 -0.450195 -11.25q-0.449219 -7.65039 -0.449219 -15.3008t1.7998 -14.4004t7.2002 -8.5498zM789.621 -36.1064v107.104h41.4014v-10.8008
h-26.1006v-36.001h22.5v-10.7998h-22.5v-40.501h26.1006v-9.00098h-41.4014zM689.719 414.807v108.902h41.4004v-9.90039h-27.9004v-36.9004h23.4004v-10.8008h-23.4004v-40.501h27.9004v-10.7998h-41.4004zM419.711 -155.81q9 -5.39941 13.5 -2.25
q4.50098 3.15039 6.30078 9.4502q1.7998 6.30078 1.7998 14.4004v13.501q0 3.59961 0.450195 10.7998t0 13.9502q-0.450195 6.75098 -1.7998 12.6006q-1.35059 5.85059 -4.9502 7.65039q-11.7002 7.2002 -16.6504 0t-4.9502 -15.3008q-0.900391 -4.5 -0.450195 -8.5498
t0.450195 -7.65039q0 -4.5 -0.450195 -11.7002t-0.450195 -15.3008q0 -8.09961 1.35059 -14.4004q1.34961 -6.2998 5.84961 -7.2002zM1326.04 -155.81q9.00098 -5.39941 13.501 -2.25q4.5 3.15039 6.75 9.4502q2.25 6.30078 2.25 14.4004v13.501q0 3.59961 0.450195 10.7998
t-0.450195 13.9502q-0.899414 6.75098 -2.7002 12.6006q-1.7998 5.85059 -5.40039 7.65039q-10.7998 7.2002 -15.2998 0t-4.5 -15.3008v-16.2002q0 -4.5 -0.900391 -11.7002q-0.899414 -7.2002 -0.899414 -15.3008q0 -8.09961 1.34961 -14.4004
q1.34961 -6.2998 5.84961 -7.2002zM438.611 -36.1064v107.104h41.4014v-10.8008h-25.2002v-36.001h19.7998v-10.7998h-19.7998v-49.502h-16.2012zM1284.63 -27.1055q9.90039 0 16.6504 1.7998t8.5498 13.5v56.7021q-0.899414 11.7002 -8.09961 13.5t-17.1006 1.7998
v-87.3018zM673.518 -36.1064v96.3027h-19.7998v10.8008h54.9014v-10.8008h-19.8008v-96.3027h-15.3008zM1050.63 -36.1064v107.104h15.3008v-98.1025h27.001v-9.00098h-42.3018zM876.023 -36.1064v107.104h40.501v-10.8008h-28.8008v-36.001h21.6006v-10.7998h-21.6006
v-49.502h-11.7002zM1164.93 414.807v99.002h-20.7012v9.90039h52.2012v-9.90039h-18v-99.002h-13.5zM999.327 -36.1064v107.104h14.4004v-98.1025h27v-9.00098h-41.4004zM637.517 414.807v108.902h13.501v-98.1025h27.9004v-10.7998h-41.4014zM937.225 -170.21v107.104
h13.501v-96.3027h28.8008v-10.8008h-42.3018zM1193.73 888.219h36.001l-18.001 96.3027zM1119.03 414.807v108.902h16.2002v-108.902h-16.2002zM839.122 -170.21v107.104h15.3008v-107.104h-15.3008zM390.01 130.398h38.7012v43.2012h-38.7012v-43.2012zM1024.53 414.807
v108.902h14.4004v-108.902h-14.4004zM1273.83 -170.21v107.104h13.501v-107.104h-13.501zM588.016 476.008h8.10059q4.5 0 9 1.7998q5.40039 2.7002 6.2998 8.10059q0.900391 5.40039 0.900391 11.7002q-0.900391 12.6006 -7.65039 14.4004t-16.6504 1.7998v-37.8008z
M1334.14 575.011v29.7002h27.001v-29.7002h-27.001zM577.215 24.1953q9.90039 0 17.1006 3.15039t7.2002 15.75q0 12.6006 -7.2002 14.8506t-17.1006 2.25v-36.001zM1155.93 -107.208q9.90039 0 17.1006 2.25t7.2002 14.8506q0 10.7998 -7.2002 14.4004
q-7.2002 3.59961 -17.1006 3.59961v-35.1006zM716.719 -107.208q9.90039 0 16.2012 2.25q6.2998 2.25 6.2998 14.8506q0 10.7998 -6.2998 14.4004q-6.30078 3.59961 -16.2012 3.59961v-35.1006zM757.221 453.507h19.7998l-8.09961 49.502zM1149.63 1.69531h18.9004
l-9.90039 48.6006zM885.924 -132.408h18.9004l-9 49.501zM1215.33 361.705l-27.001 -144.904l-26.1006 144.904h-37.8018l-3.59961 -231.307h36.001l0.900391 94.5029l18 -94.5029h27.001l18.9004 95.4023l1.7998 -95.4023h33.3008l-1.7998 231.307h-39.6006z
M827.422 361.705v-183.605q0 -17.1006 -14.4004 -15.3008q-6.2998 0.900391 -9 6.30078t-4.0498 12.1504q-1.35059 6.75 -1.80078 13.9502q-0.449219 7.2002 -0.449219 12.6006l-36.001 -1.80078q0 -21.5996 4.5 -43.2012q4.5 -21.5996 25.2002 -30.6006
q7.2002 -3.59961 13.9502 -4.5q6.75098 -0.899414 13.9512 0q18 1.7998 32.4004 14.4004t14.4004 34.2012v185.405h-38.7012zM923.725 361.705l-42.3008 -231.307h38.7012l9 54.9014h25.2002l7.2002 -54.9014h38.7012l-40.501 231.307h-36.001zM934.525 219.501
l7.2002 45.9014l6.2998 -45.9014h-13.5zM1068.63 130.398v69.3018l41.4004 162.005h-38.7002l-21.6006 -108.003l-19.8008 108.003h-38.7012l38.7012 -158.404v-72.9023h38.7012zM1601.44 130.398v190.805h32.4004v40.502h-104.402v-40.502h33.3008v-190.805h38.7012z
M1380.04 287.003q0 17.1006 -2.25 31.501t-8.10059 24.75q-5.84961 10.3506 -15.75 16.2012q-9.90039 5.84961 -25.2012 5.84961q-31.501 0 -41.4004 -22.5q-9.90039 -22.501 -9.90039 -55.8018v-81.0029q0 -17.0996 2.25 -31.5t8.09961 -24.751
q5.85059 -10.3506 15.751 -16.2002q9.90039 -5.85059 25.2002 -5.85059q30.6016 0 40.9512 22.0508q10.3506 22.0508 10.3506 56.251v81.0029zM1344.04 207.801v-13.501q0 -8.09961 -1.34961 -14.8496q-1.35059 -6.75098 -4.50098 -11.7012
q-3.14941 -4.9502 -9.4502 -4.9502q-6.2998 0 -9.4502 4.9502q-3.14941 4.9502 -4.5 11.7012q-1.34961 6.75 -1.34961 14.8496v13.501v77.4023v13.5q0 8.09961 1.34961 14.8506q1.35059 6.75 4.5 11.7002q3.15039 4.9502 9.4502 4.9502q6.30078 0 9.4502 -4.9502
q3.15039 -4.9502 4.50098 -11.7002q1.34961 -6.75098 1.34961 -14.8506v-13.5v-77.4023zM1472.74 251.002l-39.6006 110.703h-29.7012v-231.307h36.001v113.403l40.501 -113.403h28.8008v231.307h-36.001v-110.703z" />
    <glyph glyph-name="threesuperior" unicode="&#xb3;" horiz-adv-x="451" 
d="M191.404 361.705l-27 -144.904l-26.1006 144.904h-37.8018l-3.59961 -231.307h36.001l0.899414 94.5029l18.001 -94.5029h27.001l18.9004 95.4023l1.7998 -95.4023h33.3008l-1.7998 231.307h-39.6016zM943.825 812.617q-47.7012 0 -55.8018 46.8008
q-1.7998 9.90039 -1.7998 19.8008v19.8008q0 21.6006 -0.900391 46.3506q-0.899414 24.751 4.50098 45.4521q5.39941 18 19.3496 26.5498q13.9512 8.55078 31.0508 9.4502q18.001 0.900391 33.751 -6.2998q15.751 -7.2002 22.0508 -25.2002q7.2002 -19.8008 6.75 -44.5518
q-0.449219 -24.751 -0.449219 -46.3506q0 -12.6006 -0.450195 -24.751t-3.15039 -23.8506q-9.90039 -43.2012 -54.9014 -43.2012zM888.924 573.211q-22.501 0 -36.9014 11.25t-18.9004 32.8506q-1.7998 10.8008 -1.34961 21.1504q0.450195 10.3506 0.450195 22.0508
q0 20.7002 -0.900391 44.5518q-0.900391 23.8506 3.59961 44.5508q5.40039 18.9004 18.9004 27.4512q13.501 8.5498 31.501 8.5498q18.9014 0.900391 34.2012 -5.40039q15.3008 -6.2998 21.6006 -24.3008q8.10059 -20.7002 6.30078 -45.4512
q-1.80078 -24.75 -1.80078 -45.4512q0 -14.4004 0.450195 -25.6504t-2.25 -23.8506q-8.10059 -42.3008 -54.9014 -42.3008zM331.809 251.002l-39.6016 110.703h-29.7002v-231.307h36.001v113.403l40.501 -113.403h28.8008v231.307h-36.001v-110.703zM623.416 216.801
h23.4014v-14.8506t-1.7998 -19.8008q-1.80078 -9.4502 -6.75098 -15.2998q-4.9502 -5.85059 -14.8506 -2.25q-6.2998 1.7998 -9 8.09961q-2.7002 6.30078 -3.59961 13.9512q-0.900391 7.64941 -0.450195 15.2998t0.450195 12.1504v54.9014q0 10.8008 -0.450195 24.751
t2.25 25.6504q2.7002 4.5 7.65039 7.65039t10.3506 2.25q11.7002 -3.59961 12.5996 -14.4004q1.80078 -8.10059 1.35059 -16.6504t-0.450195 -18.4502h38.7012q0 19.8008 -2.7002 42.3008q-2.7002 22.501 -22.501 35.1016q-10.7998 7.19922 -25.2002 7.64941
t-27.001 -4.0498q-15.3008 -4.5 -22.9502 -18q-7.65039 -13.501 -10.3506 -28.8008q-1.7998 -16.2012 -1.35059 -33.3018q0.450195 -17.1006 0.450195 -34.2002q0 -16.2012 -0.450195 -31.9512q-0.449219 -15.75 1.35059 -31.9512q1.7998 -13.5 6.75 -27.4502
t17.5508 -20.251q11.7002 -8.09961 28.8008 -7.65039q17.1006 0.450195 27 10.3506l0.900391 -7.2002h30.6006v120.604h-60.3018v-34.2012zM632.417 814.417v211.506q20.7002 0 42.751 0.450195q22.0508 0.449219 40.0508 -9.4502q10.8008 -7.2002 17.1006 -21.1514
q6.2998 -13.9502 6.2998 -29.25q0 -15.3008 -6.2998 -28.3516q-6.2998 -13.0498 -18.9004 -17.5498l27.9004 -106.203h-27.9004l-27.9004 99.9023h-22.501v-99.9023h-30.6006zM526.214 251.002l-18.9004 20.7002q-6.2998 6.2998 -12.1504 11.7002t-8.5498 15.3008
q-2.7002 7.2002 -0.450195 19.3506t13.9502 11.25q6.2998 -0.899414 9 -6.2998t4.0498 -12.1504q1.35059 -6.75 1.80078 -13.9502t0.450195 -12.6006l36 1.7998q0 21.6006 -4.5 43.2012t-25.2002 30.6006q-12.6006 5.40039 -25.2012 4.5
q-12.5996 -0.899414 -22.9502 -6.2998t-17.1006 -15.75q-6.75 -10.3506 -7.65039 -23.8506q-1.7998 -13.501 0.450195 -27.9014t10.3506 -25.2002q2.7002 -7.2002 8.5498 -11.7002q5.85059 -4.50098 11.25 -10.8008q10.8008 -12.6006 23.4014 -26.5508t12.6006 -31.9502
q0 -7.20117 -1.35059 -13.0508q-1.34961 -5.85059 -7.65039 -6.75q-5.39941 -1.80078 -9 0.899414t-5.40039 7.2002q-5.39941 9.90039 -6.2998 20.251t-1.7998 21.1504l-36.001 -2.7002q0 -15.2998 1.34961 -28.8008q1.34961 -13.5 7.65039 -27
q7.2002 -16.2012 22.9502 -23.4014q15.751 -7.2002 32.8516 -3.59961q18 3.59961 28.3506 17.1006q10.3496 13.5 12.1504 28.8008q5.40039 43.2012 -27.001 76.502zM402.91 814.417v211.506h44.1016q16.2002 0 30.1504 -3.60059q13.9512 -3.59961 22.0508 -19.7998
q4.5 -9.00098 6.75 -20.251t1.35059 -22.0508q-0.900391 -10.7998 -5.40039 -20.7002t-12.6006 -16.2002q-11.7002 -9.90039 -27.9004 -9.90039h-29.7012v-99.0029h-28.8008zM975.326 575.011v209.705h19.8008l59.4014 -140.403v140.403h26.1006v-209.705h-19.8008
l-61.2012 143.104v-143.104h-24.3008zM1031.13 814.417v211.506h19.7998l58.502 -140.404v140.404h25.2012v-211.506h-18.9014l-61.2012 143.104v-143.104h-23.4004zM1156.23 814.417l44.1016 211.506h28.8008l44.1016 -211.506h-27.001l-10.7998 52.2012h-42.3018
l-9.90039 -52.2012h-27.001zM483.013 575.91q-18.9004 -7.2002 -41.4014 -0.899414q-22.5 6.2998 -30.6006 28.8008q-4.5 10.7998 -5.40039 22.9502q-0.899414 12.1504 -0.899414 27.4512v130.503h27.9004v-140.403q0 -11.7002 1.7998 -27.001
q1.7998 -15.2998 15.3008 -22.501q11.7002 -3.59961 19.3506 0q7.65039 3.60059 11.7002 10.8008t5.85059 16.6504q1.7998 9.4502 1.7998 18.4502q0.899414 18.001 0.450195 33.751q-0.450195 15.751 -0.450195 33.751v76.502h29.7002v-96.3018q0 -13.501 0.450195 -30.6016
t-1.7998 -33.3008t-9.90039 -29.7012q-7.65039 -13.5 -23.8506 -18.9004zM597.315 573.211q-27 0 -40.501 17.0996q-13.5 17.1006 -15.2998 43.2012l27.9004 7.2002q0.900391 -9.89941 2.25 -19.7998q1.35059 -9.90039 7.65039 -17.1006q7.2002 -8.10059 17.1006 -9.00098
q9.90039 -0.899414 17.1006 6.30078q9 7.2002 8.09961 19.8008q-0.899414 12.5996 -7.2002 20.7002q-4.5 6.2998 -10.3496 12.6006q-5.85059 6.2998 -13.0508 10.7998q-9.90039 9.90039 -21.6006 19.3506t-18.9004 21.1504q-6.2998 9.90039 -8.10059 22.0508
q-1.7998 12.1504 1.35059 23.8506q3.14941 11.7002 10.3496 20.7012q7.2002 9 19.8008 12.5996q11.7002 2.7002 26.1006 1.80078q14.4004 -0.900391 25.2012 -8.10059q9.90039 -7.2002 13.5 -20.251q3.60059 -13.0498 4.5 -25.6504l-22.5 -8.10059
q-1.80078 12.6006 -5.85059 24.751t-17.5508 14.8506q-9.89941 1.7998 -17.5498 -3.15039t-9.4502 -15.75q-2.7002 -8.10059 0 -15.3008t8.09961 -13.5q5.40039 -6.30078 12.1504 -11.25q6.75 -4.9502 12.1504 -10.3506q14.4004 -12.6006 26.5508 -25.2012
q12.1504 -12.5996 15.751 -32.4004q6.2998 -24.3008 -7.65039 -44.1016q-13.9512 -19.7998 -40.0518 -19.7998zM816.922 812.617q-26.1006 0 -40.9512 17.5498q-14.8506 17.5508 -15.75 42.752l27 7.2002q1.80078 -9.90039 3.60059 -20.251t8.09961 -16.6504
q7.2002 -7.2002 17.1006 -8.10059q9.90039 -0.899414 17.1006 5.40039q8.10059 7.2002 7.65039 19.8008t-6.75 22.5q-5.40039 9.00098 -23.4014 22.501q-9.89941 9 -21.1504 18.4502q-11.25 9.45117 -18.4502 20.251t-9 23.8506t0.899414 24.3008
q2.7002 11.25 10.3506 20.25q7.65039 9.00098 20.251 12.6006q11.7002 2.7002 26.1006 1.35059q14.4004 -1.35059 24.3008 -8.55078q10.7998 -7.2002 14.4004 -19.8008q3.59961 -12.5996 4.5 -25.2002l-22.501 -7.2002q-1.7998 10.8008 -5.84961 23.4004
q-4.05078 12.6006 -17.5508 16.2012q-9.90039 0.899414 -18.001 -4.05078q-8.09961 -4.9502 -9.89941 -13.9502q-1.80078 -9 0.899414 -16.6504t8.10059 -13.9502q5.40039 -6.30078 12.1504 -11.7002q6.75 -5.40039 13.0498 -9.90039q13.501 -12.6006 26.1006 -25.6514
q12.6006 -13.0498 17.1006 -31.0508q4.5 -26.1006 -9 -45.9004q-13.5 -19.8008 -40.501 -19.8008zM691.818 101.598h33.3008l65.7021 289.808h-36.9014zM670.218 575.011v209.705h81.9023v-22.5h-52.2012v-68.4023h42.3008v-21.6006h-42.3008v-78.3018h52.2012v-18.9004
h-81.9023zM528.014 814.417v211.506h81.002v-22.501h-52.2012v-68.4014h42.3018v-21.6006h-42.3018v-78.3027h53.1016v-20.7002h-81.9023zM1247.13 575.011v43.2012q0 8.09961 0.899414 16.2002q0.900391 8.10059 -0.899414 15.3008q-1.80078 11.7002 -5.85059 21.1504
t-8.5498 19.3506l-29.7012 94.502h27.001l31.501 -100.803l30.6006 100.803h28.8008l-14.4004 -43.2012t-14.4004 -44.1006l-14.4004 -43.2012q-2.7002 -7.2002 -2.25 -14.4004t0.450195 -12.6006v-52.2012h-28.8008zM874.523 597.511q6.2998 -3.59961 14.4004 -3.59961
q8.09961 0 12.6006 3.59961q8.09961 4.50098 11.25 12.1504q3.15039 7.65039 4.9502 15.751q0.900391 4.5 0.450195 10.7998q-0.450195 6.30078 -0.450195 10.8008v74.7021q0 9 -0.900391 18.4502q-0.899414 9.4502 -8.09961 16.6504q-11.7012 11.7002 -26.1016 7.2002
q-14.4004 -3.59961 -20.7002 -19.8008q-2.7002 -15.2998 -1.7998 -33.3008q0.900391 -18 0.900391 -33.3008v-37.8008q0 -10.8008 1.34961 -23.4004q1.34961 -12.6006 12.1504 -18.9014zM932.125 836.918q11.7002 -4.5 26.1006 0q9 4.5 11.25 12.1504
q2.25 7.64941 3.15039 14.8496v98.1035q0 9 -0.900391 18.4502q-0.899414 9.4502 -8.09961 15.75q-4.5 7.2002 -11.251 8.10059q-6.75 0.900391 -13.9502 -0.900391q-15.2998 -0.899414 -19.7998 -18q-4.50098 -15.3008 -2.7002 -33.751q1.7998 -18.4502 1.7998 -33.751
v-38.7012q0 -10.8008 0.900391 -23.4004q0.899414 -12.6006 13.5 -18.9004zM1295.73 814.417v211.506h28.8008v-190.806h54.002v-20.7002h-82.8027zM1113.03 575.011v209.705h28.8008v-190.805h53.1016v-18.9004h-81.9023zM430.812 -171.109q-13.501 0 -19.8008 5.84961
q-6.2998 5.85059 -8.5498 14.4004q-2.25 8.55078 -2.25 18.9004v18.4512q0 9.90039 0.449219 19.7998q0.450195 9.90039 3.60059 17.1006q3.14941 7.2002 9.90039 11.251q6.75 4.0498 19.3506 3.14941q10.7998 -0.899414 16.6504 -6.2998q5.84961 -5.40039 8.09961 -13.501
q2.25 -8.09961 2.25 -17.5498v-17.5508v-17.5508t-2.69922 -17.5498q-2.7002 -8.10059 -9.00098 -13.501q-6.2998 -5.39941 -18 -5.39941zM521.714 -37.9062q-12.6006 0 -18.9004 5.85059q-6.30078 5.84961 -8.55078 14.8506q-2.25 9 -2.25 19.3496v19.3506
q0 9.00098 0.450195 18.4512t3.60059 16.6504q3.14941 7.2002 9.4502 11.7002q6.2998 4.5 18.9004 3.59961q10.7998 -0.899414 16.2002 -6.2998t8.10059 -13.5q2.69922 -8.10059 2.69922 -17.5508v-17.5508q0 -8.09961 -0.449219 -18q-0.450195 -9.90039 -3.15039 -18.001
q-2.7002 -8.09961 -8.5498 -13.5q-5.85059 -5.40039 -17.5508 -5.40039zM1336.24 -171.109q-12.6006 0 -18.9014 5.84961q-6.2998 5.85059 -8.5498 14.4004q-2.25 8.55078 -2.25 18.9004v18.4512q0 9.90039 0.450195 19.7998q0.450195 9.90039 3.59961 17.1006
q3.15039 7.2002 9.90039 11.251q6.75 4.0498 19.3506 3.14941q11.7002 -0.899414 16.6504 -6.2998t6.75 -13.501q1.80078 -8.09961 1.35059 -17.5498t-0.450195 -17.5508v-17.5508t-2.25 -17.5498q-2.25 -8.10059 -8.10059 -13.501q-5.84961 -5.39941 -17.5498 -5.39941z
M1273.23 -36.1064v107.104q9.90039 0 23.4004 0.450195q13.5 0.449219 23.4004 -7.65039q9.90039 -8.10059 9 -22.0508q-0.899414 -13.9502 -0.899414 -24.751q0 -10.7998 0.450195 -25.6504q0.449219 -14.8506 -12.1504 -22.0508q-8.10059 -7.2002 -20.7012 -6.2998
q-12.5996 0.899414 -22.5 0.899414zM702.619 -170.21v107.104q10.7998 0 21.5996 0.899414q10.8008 0.900391 19.8008 -3.59961q6.30078 -3.60059 9.4502 -10.8008q3.15039 -7.2002 3.15039 -15.2998q0 -8.10059 -3.60059 -14.8506q-3.59961 -6.75 -9.89941 -9.4502
l15.2998 -54.002h-14.4004l-12.5996 51.3018h-11.7012v-51.3018h-17.0996zM561.314 -170.21l1.80078 107.104h15.2998l18.9004 -85.5029l18.9014 85.5029h15.2998l0.900391 -107.104h-9.90039l-1.7998 79.2021l-18.9004 -79.2021h-9.90039l-16.2012 79.2021
l-1.7998 -79.2021h-12.6006zM474.013 -170.21l1.7998 107.104h16.2002l18.9004 -85.5029l18.001 85.5029h14.4004l1.7998 -107.104h-11.7002l-0.900391 79.2021l-18 -79.2021h-9.90039l-17.1006 79.2021l-0.899414 -79.2021h-12.6006zM1143.63 -170.21v107.104
q9.90039 0 20.7002 0.899414q10.8008 0.900391 20.7002 -3.59961q5.40039 -3.60059 9.00098 -10.8008q3.59961 -7.2002 3.59961 -15.2998q0 -8.10059 -3.14941 -14.8506q-3.15039 -6.75 -9.45117 -9.4502l13.501 -54.002h-13.501l-13.5 51.3018h-12.6006v-51.3018h-15.2998z
M565.814 -36.1064v107.104q9.90039 0 20.251 0.899414q10.3506 0.900391 19.3506 -3.59961q6.2998 -3.60059 9.90039 -11.25q3.59961 -7.65039 4.0498 -15.751t-2.7002 -14.8506q-3.14941 -6.75 -11.25 -9.4502l16.2002 -53.1016h-15.2998l-15.3008 49.502h-10.8008v-49.502
h-14.4004zM576.615 414.807v108.902h27.001t23.4004 -10.7998q3.60059 -9.90039 2.7002 -22.501t-8.10059 -18.9004q-7.2002 -5.40039 -14.8506 -5.85059q-7.64941 -0.450195 -15.75 -0.450195v-50.4004h-14.4004zM718.819 -36.1064v107.104h13.5v-46.8018h27.9014v46.8018
h16.2002v-107.104h-16.2002v49.502h-27.9014v-49.502h-13.5zM1382.14 -170.21v107.104h9.00098l31.501 -71.1025v71.1025h11.7002v-107.104h-9.90039l-31.501 73.8018v-73.8018h-10.8008zM1203.03 -36.1064v107.104h9l31.501 -71.1025v71.1025h11.7002v-107.104h-9
l-30.6006 72.002v-72.002h-12.6006zM741.319 414.807l23.4014 108.902h14.4004l23.4004 -108.902h-16.2002l-4.50098 28.8008h-22.5l-4.5 -28.8008h-13.501zM1132.83 -36.1064l20.7012 107.104h16.2002l22.501 -107.104h-14.4004l-5.40039 27.001h-21.6006l-6.30078 -27.001
h-11.7002zM868.223 -170.21l22.501 107.104h15.3008l22.5 -107.104h-13.5l-4.5 27.9014h-23.4004l-4.50098 -27.9014h-14.4004zM1345.24 620.012l-8.10059 164.704h27.001l-9 -164.704h-9.90039zM431.711 935.021q7.2002 0 14.4004 -0.450195t16.2012 1.34961
q10.7998 2.7002 13.9502 11.251q3.14941 8.5498 3.14941 18.4502q0.900391 11.7002 -1.7998 22.501q-2.7002 10.7998 -15.2998 14.4004q-9.00098 1.7998 -16.2012 1.34961t-14.4004 -0.450195v-68.4014zM969.926 -36.1064q-15.3008 -4.5 -26.5508 2.25
q-11.25 6.75098 -14.8506 22.0508q-1.7998 7.2002 -0.899414 13.501q0.899414 6.2998 0.899414 11.7002v57.6016h13.501v-47.7012q0 -4.50098 -0.450195 -13.0508t0.450195 -16.6504q0.899414 -8.10059 4.0498 -14.4004t10.3506 -6.2998t10.7998 6.2998
q3.60059 6.2998 4.9502 14.4004q1.35059 8.10059 0.900391 16.6504t-0.450195 13.0508v47.7012h12.6006v-48.6016q0 -7.2002 0.450195 -15.75q0.449219 -8.55078 -0.450195 -17.1006q-0.900391 -8.55078 -4.05078 -15.751q-3.14941 -7.2002 -11.25 -9.90039z
M360.609 -171.109q-13.5 0 -19.8008 8.09961q-6.2998 8.10059 -8.09961 19.3506q-1.80078 11.251 -1.35059 24.3008q0.450195 13.0508 0.450195 22.9502q0 14.4004 7.65039 25.2012t25.6504 9q16.2002 -1.7998 19.8008 -13.0498q3.59961 -11.251 3.59961 -23.8506h-14.4004
q0 4.5 0.450195 9.4502t-2.25 9.4502q-1.7998 7.2002 -9.90039 8.09961q-8.09961 0.900391 -11.7002 -6.2998q-5.40039 -5.40039 -4.0498 -18.001q1.34961 -12.5996 1.34961 -20.7002q0 -6.2998 -1.34961 -18q-1.35059 -11.7002 4.9502 -18.9014
q2.7002 -6.2998 10.7998 -4.94922q8.10059 1.34961 9.90039 8.5498q2.7002 4.5 2.25 9.90039t-0.450195 9.90039h14.4004q0 -13.501 -4.5 -27.001t-23.4004 -13.5zM798.921 -171.109q-14.4004 0 -20.25 8.09961q-5.85059 8.10059 -7.2002 19.3506
q-1.35059 11.251 -0.450195 24.3008q0.900391 13.0508 0.900391 22.9502q0 14.4004 6.75 25.2012t24.751 9q17.0996 -1.7998 20.7002 -13.0498q3.59961 -11.251 3.59961 -23.8506h-16.2002q0 4.5 0.900391 9.4502q0.899414 4.9502 -1.80078 9.4502
q-1.7998 7.2002 -9.4502 8.09961q-7.64941 0.900391 -12.1494 -6.2998q-5.40039 -5.40039 -4.50098 -18.001q0.900391 -12.5996 0.900391 -20.7002q0 -6.2998 -0.900391 -18q-0.899414 -11.7002 5.40039 -18.9014q3.60059 -6.2998 11.25 -4.94922
q7.65039 1.34961 9.4502 8.5498q2.7002 4.5 1.80078 9.90039q-0.900391 5.40039 -0.900391 9.90039h16.2002q0 -13.501 -4.5 -27.001t-24.3008 -13.5zM1239.03 -171.109q-14.4004 0 -21.1504 9.4502t-8.55078 22.0498l14.4004 3.60059q0 -5.40039 1.80078 -12.1504
q1.7998 -6.75 7.2002 -8.5498q8.09961 -4.5 12.5996 -0.450195q4.50098 4.0498 4.50098 10.3506q0 10.7998 -9.45117 19.3496q-9.4502 8.55078 -16.6504 13.9512q-9.90039 9.90039 -13.5 23.8506t9 22.9502q6.30078 4.5 14.8506 5.40039t13.9502 -2.7002
q7.2002 -1.7998 10.3506 -9.4502t4.0498 -14.8506l-12.5996 -4.5q-0.900391 5.40039 -1.80078 10.7998q-0.899414 5.40039 -5.40039 9.90039q-14.4004 3.60059 -18 -8.09961q-3.59961 -8.10059 3.15039 -14.4004q6.75 -6.30078 13.0498 -11.7002
q6.30078 -7.2002 13.0508 -13.9512q6.75 -6.75 8.5498 -16.6504q4.5 -12.5996 -2.7002 -23.4004q-7.2002 -10.7998 -20.7002 -10.7998zM663.018 935.021h14.4004t15.3008 1.7998q9.90039 4.5 13.0498 13.9502q3.15039 9.4502 1.35059 21.1504q0 9.90039 -2.25 17.1006
t-12.1504 11.7002q-7.2002 3.60059 -15.3008 3.15039t-14.4004 -0.450195v-68.4014zM837.622 413.906q-12.6006 0 -20.25 9q-7.65039 9 -8.55078 22.501l14.4004 4.5q0 -5.40039 1.7998 -12.6006q1.80078 -7.2002 7.20117 -10.7998q7.19922 -1.80078 12.1494 2.25
q4.9502 4.0498 4.9502 10.3496q0 10.8008 -9.4502 19.3506q-9.4502 8.55078 -16.6504 15.751q-9.90039 8.09961 -13.5 21.6006q-3.60059 13.5 8.10059 24.3008q6.2998 3.59961 14.4004 4.0498q8.09961 0.450195 14.4004 -1.35059q8.09961 -3.59961 11.25 -11.25
t4.0498 -14.8506l-12.6006 -2.7002q-0.899414 4.50098 -2.25 9.90039q-1.34961 5.40039 -5.84961 9.90039q-5.40039 1.80078 -10.3506 0q-4.9502 -1.7998 -6.75 -9q-2.7002 -7.2002 3.59961 -14.4004q6.30078 -7.2002 10.8008 -12.6006q7.2002 -5.39941 14.4004 -12.1504
q7.2002 -6.75 9 -16.6504q4.5 -12.6006 -2.7002 -23.8506t-21.6006 -11.25zM1084.23 413.906q-14.4004 0 -20.7002 9t-7.2002 22.501l14.4004 4.5q0 -5.40039 2.25 -12.6006t7.65039 -10.7998q7.2002 -1.80078 11.25 2.25q4.05078 4.0498 4.05078 10.3496
q0.899414 10.8008 -8.55078 19.3506q-9.4502 8.55078 -16.6504 15.751q-9.90039 8.09961 -13.9502 21.6006q-4.0498 13.5 7.65039 24.3008q15.2998 7.2002 29.7002 2.69922q7.2002 -3.59961 10.3506 -11.25t4.0498 -14.8506l-12.5996 -2.7002
q-0.900391 4.50098 -2.25 9.90039q-1.35059 5.40039 -5.85059 9.90039q-4.5 1.80078 -9.4502 0q-4.9502 -1.7998 -5.85059 -9q-5.39941 -7.2002 1.80078 -14.4004t12.5996 -12.6006q6.30078 -5.39941 13.0508 -12.1504q6.75 -6.75 8.5498 -16.6504
q4.5 -12.6006 -2.25 -23.8506t-22.0508 -11.25zM978.026 414.807l-24.3008 108.902h16.2002l15.3008 -79.2021l17.1006 79.2021h11.7002l-22.501 -108.902h-13.5zM1041.93 -170.21l-24.3008 107.104h13.501l18 -78.3027l14.4004 78.3027h15.3008l-25.2012 -107.104h-11.7002
zM1089.63 -170.21v107.104h43.2012v-9.00098h-27.9004v-35.1006h22.5v-11.7002h-22.5v-40.501h27.9004v-10.8008h-43.2012zM874.523 414.807v108.902h43.2012v-9.90039h-27.9004v-36.9004h22.5v-10.8008h-22.5v-40.501h28.8008v-10.7998h-44.1016zM649.518 -170.21v107.104
h42.3008v-9.00098h-27.001v-35.1006h22.501v-11.7002h-22.501v-40.501h27.001v-10.8008h-42.3008zM514.514 -25.3057q9 -4.5 13.0498 -0.900391q4.05078 3.60059 5.85059 10.3506t1.7998 14.8506v13.5q0 3.60059 0.450195 10.8008t0.450195 14.4004t-1.7998 13.0498
q-1.80078 5.85059 -5.40039 8.55078q-9.90039 5.39941 -16.2002 -1.80078q-6.30078 -7.2002 -6.30078 -16.2002v-17.1006q0 -3.59961 -0.450195 -11.25q-0.449219 -7.65039 -0.449219 -15.3008t1.7998 -14.4004t7.2002 -8.5498zM792.621 -36.1064v107.104h41.4014v-10.8008
h-26.1006v-36.001h22.5v-10.7998h-22.5v-40.501h26.1006v-9.00098h-41.4014zM692.719 414.807v108.902h41.4004v-9.90039h-27.9004v-36.9004h23.4004v-10.8008h-23.4004v-40.501h27.9004v-10.7998h-41.4004zM422.711 -155.81q9 -5.39941 13.5 -2.25
q4.50098 3.15039 6.30078 9.4502q1.7998 6.30078 1.7998 14.4004v13.501q0 3.59961 0.450195 10.7998t0 13.9502q-0.450195 6.75098 -1.7998 12.6006q-1.35059 5.85059 -4.9502 7.65039q-11.7002 7.2002 -16.6504 0t-4.9502 -15.3008q-0.900391 -4.5 -0.450195 -8.5498
t0.450195 -7.65039q0 -4.5 -0.450195 -11.7002t-0.450195 -15.3008q0 -8.09961 1.35059 -14.4004q1.34961 -6.2998 5.84961 -7.2002zM1329.04 -155.81q9.00098 -5.39941 13.501 -2.25q4.5 3.15039 6.75 9.4502q2.25 6.30078 2.25 14.4004v13.501q0 3.59961 0.450195 10.7998
t-0.450195 13.9502q-0.899414 6.75098 -2.7002 12.6006q-1.7998 5.85059 -5.40039 7.65039q-10.7998 7.2002 -15.2998 0t-4.5 -15.3008v-16.2002q0 -4.5 -0.900391 -11.7002q-0.899414 -7.2002 -0.899414 -15.3008q0 -8.09961 1.34961 -14.4004
q1.34961 -6.2998 5.84961 -7.2002zM441.611 -36.1064v107.104h41.4014v-10.8008h-25.2002v-36.001h19.7998v-10.7998h-19.7998v-49.502h-16.2012zM1287.63 -27.1055q9.90039 0 16.6504 1.7998t8.5498 13.5v56.7021q-0.899414 11.7002 -8.09961 13.5t-17.1006 1.7998
v-87.3018zM676.518 -36.1064v96.3027h-19.7998v10.8008h54.9014v-10.8008h-19.8008v-96.3027h-15.3008zM1053.63 -36.1064v107.104h15.3008v-98.1025h27.001v-9.00098h-42.3018zM879.023 -36.1064v107.104h40.501v-10.8008h-28.8008v-36.001h21.6006v-10.7998h-21.6006
v-49.502h-11.7002zM1167.93 414.807v99.002h-20.7012v9.90039h52.2012v-9.90039h-18v-99.002h-13.5zM1002.33 -36.1064v107.104h14.4004v-98.1025h27v-9.00098h-41.4004zM640.517 414.807v108.902h13.501v-98.1025h27.9004v-10.7998h-41.4014zM940.225 -170.21v107.104
h13.501v-96.3027h28.8008v-10.8008h-42.3018zM1196.73 888.219h36.001l-18.001 96.3027zM1122.03 414.807v108.902h16.2002v-108.902h-16.2002zM842.122 -170.21v107.104h15.3008v-107.104h-15.3008zM393.01 130.398h38.7012v43.2012h-38.7012v-43.2012zM1027.53 414.807
v108.902h14.4004v-108.902h-14.4004zM1276.83 -170.21v107.104h13.501v-107.104h-13.501zM591.016 476.008h8.10059q4.5 0 9 1.7998q5.40039 2.7002 6.2998 8.10059q0.900391 5.40039 0.900391 11.7002q-0.900391 12.6006 -7.65039 14.4004t-16.6504 1.7998v-37.8008z
M1337.14 575.011v29.7002h27.001v-29.7002h-27.001zM580.215 24.1953q9.90039 0 17.1006 3.15039t7.2002 15.75q0 12.6006 -7.2002 14.8506t-17.1006 2.25v-36.001zM1158.93 -107.208q9.90039 0 17.1006 2.25t7.2002 14.8506q0 10.7998 -7.2002 14.4004
q-7.2002 3.59961 -17.1006 3.59961v-35.1006zM719.719 -107.208q9.90039 0 16.2012 2.25q6.2998 2.25 6.2998 14.8506q0 10.7998 -6.2998 14.4004q-6.30078 3.59961 -16.2012 3.59961v-35.1006zM760.221 453.507h19.7998l-8.09961 49.502zM1152.63 1.69531h18.9004
l-9.90039 48.6006zM888.924 -132.408h18.9004l-9 49.501zM1218.33 361.705l-27.001 -144.904l-26.1006 144.904h-37.8018l-3.59961 -231.307h36.001l0.900391 94.5029l18 -94.5029h27.001l18.9004 95.4023l1.7998 -95.4023h33.3008l-1.7998 231.307h-39.6006z
M830.422 361.705v-183.605q0 -17.1006 -14.4004 -15.3008q-6.2998 0.900391 -9 6.30078t-4.0498 12.1504q-1.35059 6.75 -1.80078 13.9502q-0.449219 7.2002 -0.449219 12.6006l-36.001 -1.80078q0 -21.5996 4.5 -43.2012q4.5 -21.5996 25.2002 -30.6006
q7.2002 -3.59961 13.9502 -4.5q6.75098 -0.899414 13.9512 0q18 1.7998 32.4004 14.4004t14.4004 34.2012v185.405h-38.7012zM926.725 361.705l-42.3008 -231.307h38.7012l9 54.9014h25.2002l7.2002 -54.9014h38.7012l-40.501 231.307h-36.001zM937.525 219.501
l7.2002 45.9014l6.2998 -45.9014h-13.5zM1071.63 130.398v69.3018l41.4004 162.005h-38.7002l-21.6006 -108.003l-19.8008 108.003h-38.7012l38.7012 -158.404v-72.9023h38.7012zM1604.44 130.398v190.805h32.4004v40.502h-104.402v-40.502h33.3008v-190.805h38.7012z
M1383.04 287.003q0 17.1006 -2.25 31.501t-8.10059 24.75q-5.84961 10.3506 -15.75 16.2012q-9.90039 5.84961 -25.2012 5.84961q-31.501 0 -41.4004 -22.5q-9.90039 -22.501 -9.90039 -55.8018v-81.0029q0 -17.0996 2.25 -31.5t8.09961 -24.751
q5.85059 -10.3506 15.751 -16.2002q9.90039 -5.85059 25.2002 -5.85059q30.6016 0 40.9512 22.0508q10.3506 22.0508 10.3506 56.251v81.0029zM1347.04 207.801v-13.501q0 -8.09961 -1.34961 -14.8496q-1.35059 -6.75098 -4.50098 -11.7012
q-3.14941 -4.9502 -9.4502 -4.9502q-6.2998 0 -9.4502 4.9502q-3.14941 4.9502 -4.5 11.7012q-1.34961 6.75 -1.34961 14.8496v13.501v77.4023v13.5q0 8.09961 1.34961 14.8506q1.35059 6.75 4.5 11.7002q3.15039 4.9502 9.4502 4.9502q6.30078 0 9.4502 -4.9502
q3.15039 -4.9502 4.50098 -11.7002q1.34961 -6.75098 1.34961 -14.8506v-13.5v-77.4023zM1475.74 251.002l-39.6006 110.703h-29.7012v-231.307h36.001v113.403l40.501 -113.403h28.8008v231.307h-36.001v-110.703z" />
    <glyph glyph-name="acute" unicode="&#xb4;" horiz-adv-x="289" 
d="M68 578l123 192l52 -36l-164 -164z" />
    <glyph glyph-name="mu" unicode="&#xb5;" horiz-adv-x="592" 
d="M463 103q0 -34 6 -53t17.5 -27t28.5 -7.5t38 5.5v-11q-32 -12 -60.5 -13.5t-51 6t-37 23.5t-18.5 39q-30 -33 -68.5 -53t-84.5 -21q-65 -3 -103 22t-52 75v-52l55 -230h-64v648l-81 34v9h163v-376q0 -49 21 -80.5t71 -33.5q42 -1 76.5 19.5t61.5 53.5v373l-84 34v10h166
v-394z" />
    <glyph glyph-name="paragraph" unicode="&#xb6;" horiz-adv-x="519" 
d="M501 705h-119v-899h-25v899h-175v-899h-25v727q-20 0 -37.5 7.5t-31 21t-21 31t-7.5 37.5q0 19 7.5 36t21 30.5t31 21.5t37.5 8h344v-21z" />
    <glyph glyph-name="periodcentered" unicode="&#xb7;" horiz-adv-x="282" 
d="M191 298q0 -21 -12.5 -34t-34.5 -13q-21 0 -34 13t-13 34q0 20 13 34t34 14q22 0 34.5 -14t12.5 -34z" />
    <glyph glyph-name="cedilla" unicode="&#xb8;" horiz-adv-x="364" 
d="M68 -190q34 -36 69 -41t58.5 11.5t27 50t-25.5 74.5q-17 24 -30 38t-21.5 26t-12 26t-0.5 37h11q-3 -25 6.5 -37.5t26 -22.5t36.5 -23t36 -40q20 -29 21 -56.5t-11.5 -48.5t-36 -35t-51.5 -16t-57.5 9t-54.5 40z" />
    <glyph glyph-name="onesuperior" unicode="&#xb9;" horiz-adv-x="384" 
d="M190.404 361.705l-27 -144.904l-26.1006 144.904h-37.8018l-3.59961 -231.307h36.001l0.899414 94.5029l18.001 -94.5029h27.001l18.9004 95.4023l1.7998 -95.4023h33.3008l-1.7998 231.307h-39.6016zM942.825 812.617q-47.7012 0 -55.8018 46.8008
q-1.7998 9.90039 -1.7998 19.8008v19.8008q0 21.6006 -0.900391 46.3506q-0.899414 24.751 4.50098 45.4521q5.39941 18 19.3496 26.5498q13.9512 8.55078 31.0508 9.4502q18.001 0.900391 33.751 -6.2998q15.751 -7.2002 22.0508 -25.2002q7.2002 -19.8008 6.75 -44.5518
q-0.449219 -24.751 -0.449219 -46.3506q0 -12.6006 -0.450195 -24.751t-3.15039 -23.8506q-9.90039 -43.2012 -54.9014 -43.2012zM887.924 573.211q-22.501 0 -36.9014 11.25t-18.9004 32.8506q-1.7998 10.8008 -1.34961 21.1504q0.450195 10.3506 0.450195 22.0508
q0 20.7002 -0.900391 44.5518q-0.900391 23.8506 3.59961 44.5508q5.40039 18.9004 18.9004 27.4512q13.501 8.5498 31.501 8.5498q18.9014 0.900391 34.2012 -5.40039q15.3008 -6.2998 21.6006 -24.3008q8.10059 -20.7002 6.30078 -45.4512
q-1.80078 -24.75 -1.80078 -45.4512q0 -14.4004 0.450195 -25.6504t-2.25 -23.8506q-8.10059 -42.3008 -54.9014 -42.3008zM330.809 251.002l-39.6016 110.703h-29.7002v-231.307h36.001v113.403l40.501 -113.403h28.8008v231.307h-36.001v-110.703zM622.416 216.801
h23.4014v-14.8506t-1.7998 -19.8008q-1.80078 -9.4502 -6.75098 -15.2998q-4.9502 -5.85059 -14.8506 -2.25q-6.2998 1.7998 -9 8.09961q-2.7002 6.30078 -3.59961 13.9512q-0.900391 7.64941 -0.450195 15.2998t0.450195 12.1504v54.9014q0 10.8008 -0.450195 24.751
t2.25 25.6504q2.7002 4.5 7.65039 7.65039t10.3506 2.25q11.7002 -3.59961 12.5996 -14.4004q1.80078 -8.10059 1.35059 -16.6504t-0.450195 -18.4502h38.7012q0 19.8008 -2.7002 42.3008q-2.7002 22.501 -22.501 35.1016q-10.7998 7.19922 -25.2002 7.64941
t-27.001 -4.0498q-15.3008 -4.5 -22.9502 -18q-7.65039 -13.501 -10.3506 -28.8008q-1.7998 -16.2012 -1.35059 -33.3018q0.450195 -17.1006 0.450195 -34.2002q0 -16.2012 -0.450195 -31.9512q-0.449219 -15.75 1.35059 -31.9512q1.7998 -13.5 6.75 -27.4502
t17.5508 -20.251q11.7002 -8.09961 28.8008 -7.65039q17.1006 0.450195 27 10.3506l0.900391 -7.2002h30.6006v120.604h-60.3018v-34.2012zM631.417 814.417v211.506q20.7002 0 42.751 0.450195q22.0508 0.449219 40.0508 -9.4502q10.8008 -7.2002 17.1006 -21.1514
q6.2998 -13.9502 6.2998 -29.25q0 -15.3008 -6.2998 -28.3516q-6.2998 -13.0498 -18.9004 -17.5498l27.9004 -106.203h-27.9004l-27.9004 99.9023h-22.501v-99.9023h-30.6006zM525.214 251.002l-18.9004 20.7002q-6.2998 6.2998 -12.1504 11.7002t-8.5498 15.3008
q-2.7002 7.2002 -0.450195 19.3506t13.9502 11.25q6.2998 -0.899414 9 -6.2998t4.0498 -12.1504q1.35059 -6.75 1.80078 -13.9502t0.450195 -12.6006l36 1.7998q0 21.6006 -4.5 43.2012t-25.2002 30.6006q-12.6006 5.40039 -25.2012 4.5
q-12.5996 -0.899414 -22.9502 -6.2998t-17.1006 -15.75q-6.75 -10.3506 -7.65039 -23.8506q-1.7998 -13.501 0.450195 -27.9014t10.3506 -25.2002q2.7002 -7.2002 8.5498 -11.7002q5.85059 -4.50098 11.25 -10.8008q10.8008 -12.6006 23.4014 -26.5508t12.6006 -31.9502
q0 -7.20117 -1.35059 -13.0508q-1.34961 -5.85059 -7.65039 -6.75q-5.39941 -1.80078 -9 0.899414t-5.40039 7.2002q-5.39941 9.90039 -6.2998 20.251t-1.7998 21.1504l-36.001 -2.7002q0 -15.2998 1.34961 -28.8008q1.34961 -13.5 7.65039 -27
q7.2002 -16.2012 22.9502 -23.4014q15.751 -7.2002 32.8516 -3.59961q18 3.59961 28.3506 17.1006q10.3496 13.5 12.1504 28.8008q5.40039 43.2012 -27.001 76.502zM401.91 814.417v211.506h44.1016q16.2002 0 30.1504 -3.60059q13.9512 -3.59961 22.0508 -19.7998
q4.5 -9.00098 6.75 -20.251t1.35059 -22.0508q-0.900391 -10.7998 -5.40039 -20.7002t-12.6006 -16.2002q-11.7002 -9.90039 -27.9004 -9.90039h-29.7012v-99.0029h-28.8008zM974.326 575.011v209.705h19.8008l59.4014 -140.403v140.403h26.1006v-209.705h-19.8008
l-61.2012 143.104v-143.104h-24.3008zM1030.13 814.417v211.506h19.7998l58.502 -140.404v140.404h25.2012v-211.506h-18.9014l-61.2012 143.104v-143.104h-23.4004zM1155.23 814.417l44.1016 211.506h28.8008l44.1016 -211.506h-27.001l-10.7998 52.2012h-42.3018
l-9.90039 -52.2012h-27.001zM482.013 575.91q-18.9004 -7.2002 -41.4014 -0.899414q-22.5 6.2998 -30.6006 28.8008q-4.5 10.7998 -5.40039 22.9502q-0.899414 12.1504 -0.899414 27.4512v130.503h27.9004v-140.403q0 -11.7002 1.7998 -27.001
q1.7998 -15.2998 15.3008 -22.501q11.7002 -3.59961 19.3506 0q7.65039 3.60059 11.7002 10.8008t5.85059 16.6504q1.7998 9.4502 1.7998 18.4502q0.899414 18.001 0.450195 33.751q-0.450195 15.751 -0.450195 33.751v76.502h29.7002v-96.3018q0 -13.501 0.450195 -30.6016
t-1.7998 -33.3008t-9.90039 -29.7012q-7.65039 -13.5 -23.8506 -18.9004zM596.315 573.211q-27 0 -40.501 17.0996q-13.5 17.1006 -15.2998 43.2012l27.9004 7.2002q0.900391 -9.89941 2.25 -19.7998q1.35059 -9.90039 7.65039 -17.1006q7.2002 -8.10059 17.1006 -9.00098
q9.90039 -0.899414 17.1006 6.30078q9 7.2002 8.09961 19.8008q-0.899414 12.5996 -7.2002 20.7002q-4.5 6.2998 -10.3496 12.6006q-5.85059 6.2998 -13.0508 10.7998q-9.90039 9.90039 -21.6006 19.3506t-18.9004 21.1504q-6.2998 9.90039 -8.10059 22.0508
q-1.7998 12.1504 1.35059 23.8506q3.14941 11.7002 10.3496 20.7012q7.2002 9 19.8008 12.5996q11.7002 2.7002 26.1006 1.80078q14.4004 -0.900391 25.2012 -8.10059q9.90039 -7.2002 13.5 -20.251q3.60059 -13.0498 4.5 -25.6504l-22.5 -8.10059
q-1.80078 12.6006 -5.85059 24.751t-17.5508 14.8506q-9.89941 1.7998 -17.5498 -3.15039t-9.4502 -15.75q-2.7002 -8.10059 0 -15.3008t8.09961 -13.5q5.40039 -6.30078 12.1504 -11.25q6.75 -4.9502 12.1504 -10.3506q14.4004 -12.6006 26.5508 -25.2012
q12.1504 -12.5996 15.751 -32.4004q6.2998 -24.3008 -7.65039 -44.1016q-13.9512 -19.7998 -40.0518 -19.7998zM815.922 812.617q-26.1006 0 -40.9512 17.5498q-14.8506 17.5508 -15.75 42.752l27 7.2002q1.80078 -9.90039 3.60059 -20.251t8.09961 -16.6504
q7.2002 -7.2002 17.1006 -8.10059q9.90039 -0.899414 17.1006 5.40039q8.10059 7.2002 7.65039 19.8008t-6.75 22.5q-5.40039 9.00098 -23.4014 22.501q-9.89941 9 -21.1504 18.4502q-11.25 9.45117 -18.4502 20.251t-9 23.8506t0.899414 24.3008
q2.7002 11.25 10.3506 20.25q7.65039 9.00098 20.251 12.6006q11.7002 2.7002 26.1006 1.35059q14.4004 -1.35059 24.3008 -8.55078q10.7998 -7.2002 14.4004 -19.8008q3.59961 -12.5996 4.5 -25.2002l-22.501 -7.2002q-1.7998 10.8008 -5.84961 23.4004
q-4.05078 12.6006 -17.5508 16.2012q-9.90039 0.899414 -18.001 -4.05078q-8.09961 -4.9502 -9.89941 -13.9502q-1.80078 -9 0.899414 -16.6504t8.10059 -13.9502q5.40039 -6.30078 12.1504 -11.7002q6.75 -5.40039 13.0498 -9.90039q13.501 -12.6006 26.1006 -25.6514
q12.6006 -13.0498 17.1006 -31.0508q4.5 -26.1006 -9 -45.9004q-13.5 -19.8008 -40.501 -19.8008zM690.818 101.598h33.3008l65.7021 289.808h-36.9014zM669.218 575.011v209.705h81.9023v-22.5h-52.2012v-68.4023h42.3008v-21.6006h-42.3008v-78.3018h52.2012v-18.9004
h-81.9023zM527.014 814.417v211.506h81.002v-22.501h-52.2012v-68.4014h42.3018v-21.6006h-42.3018v-78.3027h53.1016v-20.7002h-81.9023zM1246.13 575.011v43.2012q0 8.09961 0.899414 16.2002q0.900391 8.10059 -0.899414 15.3008q-1.80078 11.7002 -5.85059 21.1504
t-8.5498 19.3506l-29.7012 94.502h27.001l31.501 -100.803l30.6006 100.803h28.8008l-14.4004 -43.2012t-14.4004 -44.1006l-14.4004 -43.2012q-2.7002 -7.2002 -2.25 -14.4004t0.450195 -12.6006v-52.2012h-28.8008zM873.523 597.511q6.2998 -3.59961 14.4004 -3.59961
q8.09961 0 12.6006 3.59961q8.09961 4.50098 11.25 12.1504q3.15039 7.65039 4.9502 15.751q0.900391 4.5 0.450195 10.7998q-0.450195 6.30078 -0.450195 10.8008v74.7021q0 9 -0.900391 18.4502q-0.899414 9.4502 -8.09961 16.6504q-11.7012 11.7002 -26.1016 7.2002
q-14.4004 -3.59961 -20.7002 -19.8008q-2.7002 -15.2998 -1.7998 -33.3008q0.900391 -18 0.900391 -33.3008v-37.8008q0 -10.8008 1.34961 -23.4004q1.34961 -12.6006 12.1504 -18.9014zM931.125 836.918q11.7002 -4.5 26.1006 0q9 4.5 11.25 12.1504
q2.25 7.64941 3.15039 14.8496v98.1035q0 9 -0.900391 18.4502q-0.899414 9.4502 -8.09961 15.75q-4.5 7.2002 -11.251 8.10059q-6.75 0.900391 -13.9502 -0.900391q-15.2998 -0.899414 -19.7998 -18q-4.50098 -15.3008 -2.7002 -33.751q1.7998 -18.4502 1.7998 -33.751
v-38.7012q0 -10.8008 0.900391 -23.4004q0.899414 -12.6006 13.5 -18.9004zM1294.73 814.417v211.506h28.8008v-190.806h54.002v-20.7002h-82.8027zM1112.03 575.011v209.705h28.8008v-190.805h53.1016v-18.9004h-81.9023zM429.812 -171.109q-13.501 0 -19.8008 5.84961
q-6.2998 5.85059 -8.5498 14.4004q-2.25 8.55078 -2.25 18.9004v18.4512q0 9.90039 0.449219 19.7998q0.450195 9.90039 3.60059 17.1006q3.14941 7.2002 9.90039 11.251q6.75 4.0498 19.3506 3.14941q10.7998 -0.899414 16.6504 -6.2998q5.84961 -5.40039 8.09961 -13.501
q2.25 -8.09961 2.25 -17.5498v-17.5508v-17.5508t-2.69922 -17.5498q-2.7002 -8.10059 -9.00098 -13.501q-6.2998 -5.39941 -18 -5.39941zM520.714 -37.9062q-12.6006 0 -18.9004 5.85059q-6.30078 5.84961 -8.55078 14.8506q-2.25 9 -2.25 19.3496v19.3506
q0 9.00098 0.450195 18.4512t3.60059 16.6504q3.14941 7.2002 9.4502 11.7002q6.2998 4.5 18.9004 3.59961q10.7998 -0.899414 16.2002 -6.2998t8.10059 -13.5q2.69922 -8.10059 2.69922 -17.5508v-17.5508q0 -8.09961 -0.449219 -18q-0.450195 -9.90039 -3.15039 -18.001
q-2.7002 -8.09961 -8.5498 -13.5q-5.85059 -5.40039 -17.5508 -5.40039zM1335.24 -171.109q-12.6006 0 -18.9014 5.84961q-6.2998 5.85059 -8.5498 14.4004q-2.25 8.55078 -2.25 18.9004v18.4512q0 9.90039 0.450195 19.7998q0.450195 9.90039 3.59961 17.1006
q3.15039 7.2002 9.90039 11.251q6.75 4.0498 19.3506 3.14941q11.7002 -0.899414 16.6504 -6.2998t6.75 -13.501q1.80078 -8.09961 1.35059 -17.5498t-0.450195 -17.5508v-17.5508t-2.25 -17.5498q-2.25 -8.10059 -8.10059 -13.501q-5.84961 -5.39941 -17.5498 -5.39941z
M1272.23 -36.1064v107.104q9.90039 0 23.4004 0.450195q13.5 0.449219 23.4004 -7.65039q9.90039 -8.10059 9 -22.0508q-0.899414 -13.9502 -0.899414 -24.751q0 -10.7998 0.450195 -25.6504q0.449219 -14.8506 -12.1504 -22.0508q-8.10059 -7.2002 -20.7012 -6.2998
q-12.5996 0.899414 -22.5 0.899414zM701.619 -170.21v107.104q10.7998 0 21.5996 0.899414q10.8008 0.900391 19.8008 -3.59961q6.30078 -3.60059 9.4502 -10.8008q3.15039 -7.2002 3.15039 -15.2998q0 -8.10059 -3.60059 -14.8506q-3.59961 -6.75 -9.89941 -9.4502
l15.2998 -54.002h-14.4004l-12.5996 51.3018h-11.7012v-51.3018h-17.0996zM560.314 -170.21l1.80078 107.104h15.2998l18.9004 -85.5029l18.9014 85.5029h15.2998l0.900391 -107.104h-9.90039l-1.7998 79.2021l-18.9004 -79.2021h-9.90039l-16.2012 79.2021
l-1.7998 -79.2021h-12.6006zM473.013 -170.21l1.7998 107.104h16.2002l18.9004 -85.5029l18.001 85.5029h14.4004l1.7998 -107.104h-11.7002l-0.900391 79.2021l-18 -79.2021h-9.90039l-17.1006 79.2021l-0.899414 -79.2021h-12.6006zM1142.63 -170.21v107.104
q9.90039 0 20.7002 0.899414q10.8008 0.900391 20.7002 -3.59961q5.40039 -3.60059 9.00098 -10.8008q3.59961 -7.2002 3.59961 -15.2998q0 -8.10059 -3.14941 -14.8506q-3.15039 -6.75 -9.45117 -9.4502l13.501 -54.002h-13.501l-13.5 51.3018h-12.6006v-51.3018h-15.2998z
M564.814 -36.1064v107.104q9.90039 0 20.251 0.899414q10.3506 0.900391 19.3506 -3.59961q6.2998 -3.60059 9.90039 -11.25q3.59961 -7.65039 4.0498 -15.751t-2.7002 -14.8506q-3.14941 -6.75 -11.25 -9.4502l16.2002 -53.1016h-15.2998l-15.3008 49.502h-10.8008v-49.502
h-14.4004zM575.615 414.807v108.902h27.001t23.4004 -10.7998q3.60059 -9.90039 2.7002 -22.501t-8.10059 -18.9004q-7.2002 -5.40039 -14.8506 -5.85059q-7.64941 -0.450195 -15.75 -0.450195v-50.4004h-14.4004zM717.819 -36.1064v107.104h13.5v-46.8018h27.9014v46.8018
h16.2002v-107.104h-16.2002v49.502h-27.9014v-49.502h-13.5zM1381.14 -170.21v107.104h9.00098l31.501 -71.1025v71.1025h11.7002v-107.104h-9.90039l-31.501 73.8018v-73.8018h-10.8008zM1202.03 -36.1064v107.104h9l31.501 -71.1025v71.1025h11.7002v-107.104h-9
l-30.6006 72.002v-72.002h-12.6006zM740.319 414.807l23.4014 108.902h14.4004l23.4004 -108.902h-16.2002l-4.50098 28.8008h-22.5l-4.5 -28.8008h-13.501zM1131.83 -36.1064l20.7012 107.104h16.2002l22.501 -107.104h-14.4004l-5.40039 27.001h-21.6006l-6.30078 -27.001
h-11.7002zM867.223 -170.21l22.501 107.104h15.3008l22.5 -107.104h-13.5l-4.5 27.9014h-23.4004l-4.50098 -27.9014h-14.4004zM1344.24 620.012l-8.10059 164.704h27.001l-9 -164.704h-9.90039zM430.711 935.021q7.2002 0 14.4004 -0.450195t16.2012 1.34961
q10.7998 2.7002 13.9502 11.251q3.14941 8.5498 3.14941 18.4502q0.900391 11.7002 -1.7998 22.501q-2.7002 10.7998 -15.2998 14.4004q-9.00098 1.7998 -16.2012 1.34961t-14.4004 -0.450195v-68.4014zM968.926 -36.1064q-15.3008 -4.5 -26.5508 2.25
q-11.25 6.75098 -14.8506 22.0508q-1.7998 7.2002 -0.899414 13.501q0.899414 6.2998 0.899414 11.7002v57.6016h13.501v-47.7012q0 -4.50098 -0.450195 -13.0508t0.450195 -16.6504q0.899414 -8.10059 4.0498 -14.4004t10.3506 -6.2998t10.7998 6.2998
q3.60059 6.2998 4.9502 14.4004q1.35059 8.10059 0.900391 16.6504t-0.450195 13.0508v47.7012h12.6006v-48.6016q0 -7.2002 0.450195 -15.75q0.449219 -8.55078 -0.450195 -17.1006q-0.900391 -8.55078 -4.05078 -15.751q-3.14941 -7.2002 -11.25 -9.90039z
M359.609 -171.109q-13.5 0 -19.8008 8.09961q-6.2998 8.10059 -8.09961 19.3506q-1.80078 11.251 -1.35059 24.3008q0.450195 13.0508 0.450195 22.9502q0 14.4004 7.65039 25.2012t25.6504 9q16.2002 -1.7998 19.8008 -13.0498q3.59961 -11.251 3.59961 -23.8506h-14.4004
q0 4.5 0.450195 9.4502t-2.25 9.4502q-1.7998 7.2002 -9.90039 8.09961q-8.09961 0.900391 -11.7002 -6.2998q-5.40039 -5.40039 -4.0498 -18.001q1.34961 -12.5996 1.34961 -20.7002q0 -6.2998 -1.34961 -18q-1.35059 -11.7002 4.9502 -18.9014
q2.7002 -6.2998 10.7998 -4.94922q8.10059 1.34961 9.90039 8.5498q2.7002 4.5 2.25 9.90039t-0.450195 9.90039h14.4004q0 -13.501 -4.5 -27.001t-23.4004 -13.5zM797.921 -171.109q-14.4004 0 -20.25 8.09961q-5.85059 8.10059 -7.2002 19.3506
q-1.35059 11.251 -0.450195 24.3008q0.900391 13.0508 0.900391 22.9502q0 14.4004 6.75 25.2012t24.751 9q17.0996 -1.7998 20.7002 -13.0498q3.59961 -11.251 3.59961 -23.8506h-16.2002q0 4.5 0.900391 9.4502q0.899414 4.9502 -1.80078 9.4502
q-1.7998 7.2002 -9.4502 8.09961q-7.64941 0.900391 -12.1494 -6.2998q-5.40039 -5.40039 -4.50098 -18.001q0.900391 -12.5996 0.900391 -20.7002q0 -6.2998 -0.900391 -18q-0.899414 -11.7002 5.40039 -18.9014q3.60059 -6.2998 11.25 -4.94922
q7.65039 1.34961 9.4502 8.5498q2.7002 4.5 1.80078 9.90039q-0.900391 5.40039 -0.900391 9.90039h16.2002q0 -13.501 -4.5 -27.001t-24.3008 -13.5zM1238.03 -171.109q-14.4004 0 -21.1504 9.4502t-8.55078 22.0498l14.4004 3.60059q0 -5.40039 1.80078 -12.1504
q1.7998 -6.75 7.2002 -8.5498q8.09961 -4.5 12.5996 -0.450195q4.50098 4.0498 4.50098 10.3506q0 10.7998 -9.45117 19.3496q-9.4502 8.55078 -16.6504 13.9512q-9.90039 9.90039 -13.5 23.8506t9 22.9502q6.30078 4.5 14.8506 5.40039t13.9502 -2.7002
q7.2002 -1.7998 10.3506 -9.4502t4.0498 -14.8506l-12.5996 -4.5q-0.900391 5.40039 -1.80078 10.7998q-0.899414 5.40039 -5.40039 9.90039q-14.4004 3.60059 -18 -8.09961q-3.59961 -8.10059 3.15039 -14.4004q6.75 -6.30078 13.0498 -11.7002
q6.30078 -7.2002 13.0508 -13.9512q6.75 -6.75 8.5498 -16.6504q4.5 -12.5996 -2.7002 -23.4004q-7.2002 -10.7998 -20.7002 -10.7998zM662.018 935.021h14.4004t15.3008 1.7998q9.90039 4.5 13.0498 13.9502q3.15039 9.4502 1.35059 21.1504q0 9.90039 -2.25 17.1006
t-12.1504 11.7002q-7.2002 3.60059 -15.3008 3.15039t-14.4004 -0.450195v-68.4014zM836.622 413.906q-12.6006 0 -20.25 9q-7.65039 9 -8.55078 22.501l14.4004 4.5q0 -5.40039 1.7998 -12.6006q1.80078 -7.2002 7.20117 -10.7998q7.19922 -1.80078 12.1494 2.25
q4.9502 4.0498 4.9502 10.3496q0 10.8008 -9.4502 19.3506q-9.4502 8.55078 -16.6504 15.751q-9.90039 8.09961 -13.5 21.6006q-3.60059 13.5 8.10059 24.3008q6.2998 3.59961 14.4004 4.0498q8.09961 0.450195 14.4004 -1.35059q8.09961 -3.59961 11.25 -11.25
t4.0498 -14.8506l-12.6006 -2.7002q-0.899414 4.50098 -2.25 9.90039q-1.34961 5.40039 -5.84961 9.90039q-5.40039 1.80078 -10.3506 0q-4.9502 -1.7998 -6.75 -9q-2.7002 -7.2002 3.59961 -14.4004q6.30078 -7.2002 10.8008 -12.6006q7.2002 -5.39941 14.4004 -12.1504
q7.2002 -6.75 9 -16.6504q4.5 -12.6006 -2.7002 -23.8506t-21.6006 -11.25zM1083.23 413.906q-14.4004 0 -20.7002 9t-7.2002 22.501l14.4004 4.5q0 -5.40039 2.25 -12.6006t7.65039 -10.7998q7.2002 -1.80078 11.25 2.25q4.05078 4.0498 4.05078 10.3496
q0.899414 10.8008 -8.55078 19.3506q-9.4502 8.55078 -16.6504 15.751q-9.90039 8.09961 -13.9502 21.6006q-4.0498 13.5 7.65039 24.3008q15.2998 7.2002 29.7002 2.69922q7.2002 -3.59961 10.3506 -11.25t4.0498 -14.8506l-12.5996 -2.7002
q-0.900391 4.50098 -2.25 9.90039q-1.35059 5.40039 -5.85059 9.90039q-4.5 1.80078 -9.4502 0q-4.9502 -1.7998 -5.85059 -9q-5.39941 -7.2002 1.80078 -14.4004t12.5996 -12.6006q6.30078 -5.39941 13.0508 -12.1504q6.75 -6.75 8.5498 -16.6504
q4.5 -12.6006 -2.25 -23.8506t-22.0508 -11.25zM977.026 414.807l-24.3008 108.902h16.2002l15.3008 -79.2021l17.1006 79.2021h11.7002l-22.501 -108.902h-13.5zM1040.93 -170.21l-24.3008 107.104h13.501l18 -78.3027l14.4004 78.3027h15.3008l-25.2012 -107.104h-11.7002
zM1088.63 -170.21v107.104h43.2012v-9.00098h-27.9004v-35.1006h22.5v-11.7002h-22.5v-40.501h27.9004v-10.8008h-43.2012zM873.523 414.807v108.902h43.2012v-9.90039h-27.9004v-36.9004h22.5v-10.8008h-22.5v-40.501h28.8008v-10.7998h-44.1016zM648.518 -170.21v107.104
h42.3008v-9.00098h-27.001v-35.1006h22.501v-11.7002h-22.501v-40.501h27.001v-10.8008h-42.3008zM513.514 -25.3057q9 -4.5 13.0498 -0.900391q4.05078 3.60059 5.85059 10.3506t1.7998 14.8506v13.5q0 3.60059 0.450195 10.8008t0.450195 14.4004t-1.7998 13.0498
q-1.80078 5.85059 -5.40039 8.55078q-9.90039 5.39941 -16.2002 -1.80078q-6.30078 -7.2002 -6.30078 -16.2002v-17.1006q0 -3.59961 -0.450195 -11.25q-0.449219 -7.65039 -0.449219 -15.3008t1.7998 -14.4004t7.2002 -8.5498zM791.621 -36.1064v107.104h41.4014v-10.8008
h-26.1006v-36.001h22.5v-10.7998h-22.5v-40.501h26.1006v-9.00098h-41.4014zM691.719 414.807v108.902h41.4004v-9.90039h-27.9004v-36.9004h23.4004v-10.8008h-23.4004v-40.501h27.9004v-10.7998h-41.4004zM421.711 -155.81q9 -5.39941 13.5 -2.25
q4.50098 3.15039 6.30078 9.4502q1.7998 6.30078 1.7998 14.4004v13.501q0 3.59961 0.450195 10.7998t0 13.9502q-0.450195 6.75098 -1.7998 12.6006q-1.35059 5.85059 -4.9502 7.65039q-11.7002 7.2002 -16.6504 0t-4.9502 -15.3008q-0.900391 -4.5 -0.450195 -8.5498
t0.450195 -7.65039q0 -4.5 -0.450195 -11.7002t-0.450195 -15.3008q0 -8.09961 1.35059 -14.4004q1.34961 -6.2998 5.84961 -7.2002zM1328.04 -155.81q9.00098 -5.39941 13.501 -2.25q4.5 3.15039 6.75 9.4502q2.25 6.30078 2.25 14.4004v13.501q0 3.59961 0.450195 10.7998
t-0.450195 13.9502q-0.899414 6.75098 -2.7002 12.6006q-1.7998 5.85059 -5.40039 7.65039q-10.7998 7.2002 -15.2998 0t-4.5 -15.3008v-16.2002q0 -4.5 -0.900391 -11.7002q-0.899414 -7.2002 -0.899414 -15.3008q0 -8.09961 1.34961 -14.4004
q1.34961 -6.2998 5.84961 -7.2002zM440.611 -36.1064v107.104h41.4014v-10.8008h-25.2002v-36.001h19.7998v-10.7998h-19.7998v-49.502h-16.2012zM1286.63 -27.1055q9.90039 0 16.6504 1.7998t8.5498 13.5v56.7021q-0.899414 11.7002 -8.09961 13.5t-17.1006 1.7998
v-87.3018zM675.518 -36.1064v96.3027h-19.7998v10.8008h54.9014v-10.8008h-19.8008v-96.3027h-15.3008zM1052.63 -36.1064v107.104h15.3008v-98.1025h27.001v-9.00098h-42.3018zM878.023 -36.1064v107.104h40.501v-10.8008h-28.8008v-36.001h21.6006v-10.7998h-21.6006
v-49.502h-11.7002zM1166.93 414.807v99.002h-20.7012v9.90039h52.2012v-9.90039h-18v-99.002h-13.5zM1001.33 -36.1064v107.104h14.4004v-98.1025h27v-9.00098h-41.4004zM639.517 414.807v108.902h13.501v-98.1025h27.9004v-10.7998h-41.4014zM939.225 -170.21v107.104
h13.501v-96.3027h28.8008v-10.8008h-42.3018zM1195.73 888.219h36.001l-18.001 96.3027zM1121.03 414.807v108.902h16.2002v-108.902h-16.2002zM841.122 -170.21v107.104h15.3008v-107.104h-15.3008zM392.01 130.398h38.7012v43.2012h-38.7012v-43.2012zM1026.53 414.807
v108.902h14.4004v-108.902h-14.4004zM1275.83 -170.21v107.104h13.501v-107.104h-13.501zM590.016 476.008h8.10059q4.5 0 9 1.7998q5.40039 2.7002 6.2998 8.10059q0.900391 5.40039 0.900391 11.7002q-0.900391 12.6006 -7.65039 14.4004t-16.6504 1.7998v-37.8008z
M1336.14 575.011v29.7002h27.001v-29.7002h-27.001zM579.215 24.1953q9.90039 0 17.1006 3.15039t7.2002 15.75q0 12.6006 -7.2002 14.8506t-17.1006 2.25v-36.001zM1157.93 -107.208q9.90039 0 17.1006 2.25t7.2002 14.8506q0 10.7998 -7.2002 14.4004
q-7.2002 3.59961 -17.1006 3.59961v-35.1006zM718.719 -107.208q9.90039 0 16.2012 2.25q6.2998 2.25 6.2998 14.8506q0 10.7998 -6.2998 14.4004q-6.30078 3.59961 -16.2012 3.59961v-35.1006zM759.221 453.507h19.7998l-8.09961 49.502zM1151.63 1.69531h18.9004
l-9.90039 48.6006zM887.924 -132.408h18.9004l-9 49.501zM1217.33 361.705l-27.001 -144.904l-26.1006 144.904h-37.8018l-3.59961 -231.307h36.001l0.900391 94.5029l18 -94.5029h27.001l18.9004 95.4023l1.7998 -95.4023h33.3008l-1.7998 231.307h-39.6006z
M829.422 361.705v-183.605q0 -17.1006 -14.4004 -15.3008q-6.2998 0.900391 -9 6.30078t-4.0498 12.1504q-1.35059 6.75 -1.80078 13.9502q-0.449219 7.2002 -0.449219 12.6006l-36.001 -1.80078q0 -21.5996 4.5 -43.2012q4.5 -21.5996 25.2002 -30.6006
q7.2002 -3.59961 13.9502 -4.5q6.75098 -0.899414 13.9512 0q18 1.7998 32.4004 14.4004t14.4004 34.2012v185.405h-38.7012zM925.725 361.705l-42.3008 -231.307h38.7012l9 54.9014h25.2002l7.2002 -54.9014h38.7012l-40.501 231.307h-36.001zM936.525 219.501
l7.2002 45.9014l6.2998 -45.9014h-13.5zM1070.63 130.398v69.3018l41.4004 162.005h-38.7002l-21.6006 -108.003l-19.8008 108.003h-38.7012l38.7012 -158.404v-72.9023h38.7012zM1603.44 130.398v190.805h32.4004v40.502h-104.402v-40.502h33.3008v-190.805h38.7012z
M1382.04 287.003q0 17.1006 -2.25 31.501t-8.10059 24.75q-5.84961 10.3506 -15.75 16.2012q-9.90039 5.84961 -25.2012 5.84961q-31.501 0 -41.4004 -22.5q-9.90039 -22.501 -9.90039 -55.8018v-81.0029q0 -17.0996 2.25 -31.5t8.09961 -24.751
q5.85059 -10.3506 15.751 -16.2002q9.90039 -5.85059 25.2002 -5.85059q30.6016 0 40.9512 22.0508q10.3506 22.0508 10.3506 56.251v81.0029zM1346.04 207.801v-13.501q0 -8.09961 -1.34961 -14.8496q-1.35059 -6.75098 -4.50098 -11.7012
q-3.14941 -4.9502 -9.4502 -4.9502q-6.2998 0 -9.4502 4.9502q-3.14941 4.9502 -4.5 11.7012q-1.34961 6.75 -1.34961 14.8496v13.501v77.4023v13.5q0 8.09961 1.34961 14.8506q1.35059 6.75 4.5 11.7002q3.15039 4.9502 9.4502 4.9502q6.30078 0 9.4502 -4.9502
q3.15039 -4.9502 4.50098 -11.7002q1.34961 -6.75098 1.34961 -14.8506v-13.5v-77.4023zM1474.74 251.002l-39.6006 110.703h-29.7012v-231.307h36.001v113.403l40.501 -113.403h28.8008v231.307h-36.001v-110.703z" />
    <glyph glyph-name="ordmasculine" unicode="&#xba;" horiz-adv-x="482" 
d="M124 454q0 -72 8 -120.5t23 -78t36.5 -42.5t47.5 -13q27 0 49 13t37.5 42.5t24 78t8.5 120.5q0 77 -9.5 130t-25.5 86t-38 47.5t-46 14.5q-23 0 -44 -14.5t-37 -47.5t-25 -86t-9 -130zM50 454q0 75 15.5 129.5t42 90t60.5 52.5t71 17q38 0 73 -17t61.5 -52.5t42.5 -90
t16 -129.5q0 -68 -14 -118t-39 -82.5t-61 -48.5t-79 -16q-42 0 -77 16t-60 48.5t-38.5 82.5t-13.5 118z" />
    <glyph glyph-name="guillemotright" unicode="&#xbb;" horiz-adv-x="654" 
d="M327 20l176 226l-175 230l8 7l227 -235v-10l-228 -226zM118 20l176 226l-175 230l8 7l227 -235v-10l-228 -226z" />
    </font>
</defs>
</svg>
