<?xml version="1.0" standalone="no"?>
<!DOCTYPE svg PUBLIC "-//W3C//DTD SVG 1.1//EN" "http://www.w3.org/Graphics/SVG/1.1/DTD/svg11.dtd" >
<svg xmlns="http://www.w3.org/2000/svg" xmlns:xlink="http://www.w3.org/1999/xlink" version="1.1">
<metadata>
Created by FontForge 20170731 at Mon Dec 10 14:52:06 2018
 By Aleksey,,,
Copyright (c) 2018 by Mans Greback. All rights reserved.
</metadata>
<defs>
<font id="JaymontPERSONAL-Medium" horiz-adv-x="560" >
  <font-face 
    font-family="Jaymont PERSONAL"
    font-weight="500"
    font-stretch="normal"
    units-per-em="1000"
    panose-1="0 0 0 0 0 0 0 0 0 0"
    ascent="800"
    descent="-200"
    x-height="502"
    cap-height="695"
    bbox="-82 -499 2452 1032.11"
    underline-thickness="50"
    underline-position="-150"
    unicode-range="U+000D-FB02"
  />
<missing-glyph horiz-adv-x="228" 
 />
    <glyph glyph-name="fi" unicode="fi" horiz-adv-x="616" 
d="M346 602h-19l-34 134q-18 4 -38 6q-19 -6 -27.5 -20t-11.5 -36t-2 -52t1 -69v-58h311v-451l64 -46v-10h-251v10l58 45v439h-182v-452l68 -30v-12h-269v12l70 32v450h-90v13h90v73q0 95 35.5 135t99.5 40q44 0 76 -6.5t65 -20.5zM542 628q0 -32 -19.5 -49.5t-46.5 -17.5
q-31 0 -50 17.5t-19 49.5q0 29 19 47t50 18q27 0 46.5 -18t19.5 -47z" />
    <glyph glyph-name="fl" unicode="fl" horiz-adv-x="587" 
d="M504 101q0 -32 3.5 -50.5t12 -28t22.5 -11t34 1.5l-1 -12q-55 -12 -93 -11t-62 13.5t-35 37t-11 59.5v623q-28 8 -77 10q-18 -3 -33.5 -11.5t-26.5 -26.5t-17.5 -46.5t-6.5 -69.5v-48h81v-13h-81v-473l83 -41v-4h-283v4l69 40v474h-90v13h90v29q0 98 54 141.5t166 43.5
q52 0 99.5 -7t102.5 -28v-609z" />
    <glyph glyph-name="T_h" unicode="Th" horiz-adv-x="1063" 
d="M138 11l95 45v626q-34 -2 -63.5 -3.5t-54.5 -4.5l-64 -179h-16l-25 179q37 5 104.5 14t181.5 11q114 0 214.5 -8t170.5 -21v-227q61 75 155 75q93 0 129.5 -46t36.5 -136v-288l63 -37v-11h-251v11l63 36v344q0 53 -16 78t-61 25q-29 0 -60 -18t-59 -57v-379l58 -29v-11
h-258v11l70 45v617q-45 4 -93 6.5t-94 4.5v-630l87 -43v-11h-313v11z" />
    <glyph glyph-name="f_t" unicode="ft" horiz-adv-x="630" 
d="M346 602h-19l-34 134q-18 4 -38 6q-19 -6 -27.5 -20t-11.5 -36t-2 -52t1 -69v-34h164l101 146l29 -1v-145h133v-13h-133v-377q0 -44 6 -70.5t20 -38.5t36.5 -11t55.5 12v-12q-55 -24 -100.5 -28.5t-78.5 12t-51 55t-18 102.5v356h-164v-473l82 -33v-12h-283v12l70 32v474
h-90v13h90v49q0 95 35.5 135t99.5 40q44 0 76 -6.5t65 -20.5z" />
    <glyph glyph-name="t_f" unicode="tf" horiz-adv-x="630" 
d="M-30 530l91 4l95 143l29 -1v-145h205v49q0 95 35.5 135t99.5 40q43 0 75.5 -6.5t65.5 -20.5l-15 -126h-18l-34 134q-18 4 -38 6q-20 -6 -28.5 -20t-11 -36t-1.5 -52t1 -69v-34h125v-13h-125v-473l82 -33v-12h-307q-54 -14 -98.5 -14t-76 18t-49 56t-17.5 102v356h-83z
M185 141q0 -44 5 -73t18 -44t34 -18t54 6l94 37v469h-205v-377z" />
    <glyph glyph-name="t_h" unicode="th" horiz-adv-x="875" 
d="M-30 530l91 4l95 143l29 -1v-145h117v-13h-117v-377q0 -49 6 -78t19 -43t33 -15t48 6l10 -5l-10 -6q-54 -14 -97.5 -14t-74.5 18t-47.5 56t-16.5 102v356h-83zM618 11l63 36v344q0 53 -16 78t-61 25q-29 0 -60 -18t-59 -57v-379l58 -29v-11h-252v11l64 44v629l-66 18
l-2 12l162 41h36v-312q61 75 155 75q93 0 129.5 -46t36.5 -136v-288l63 -37v-11h-251v11z" />
    <glyph glyph-name=".notdef" horiz-adv-x="228" 
 />
    <glyph glyph-name=".null" horiz-adv-x="0" 
 />
    <glyph glyph-name="nonmarkingreturn" unicode="&#xd;" horiz-adv-x="228" 
 />
    <glyph glyph-name="NULL" horiz-adv-x="0" 
 />
    <glyph glyph-name="NULL" horiz-adv-x="0" 
 />
    <glyph glyph-name="space" unicode=" " horiz-adv-x="292" 
 />
    <glyph glyph-name="exclam" unicode="!" horiz-adv-x="299" 
d="M135 205l-58 470h137l-58 -470h-21zM213 51q0 -29 -18.5 -47.5t-49.5 -18.5q-29 0 -47.5 18.5t-18.5 47.5q0 28 18.5 48.5t47.5 20.5q31 0 49.5 -20.5t18.5 -48.5z" />
    <glyph glyph-name="quotedbl" unicode="&#x22;" horiz-adv-x="321" 
d="M153 750l-81 -247h-15l-7 247h103zM308 750l-81 -247h-15l-7 247h103z" />
    <glyph glyph-name="numbersign" unicode="#" horiz-adv-x="574" 
d="M481 198h-85l-13 -124h-19l13 124h-221l-13 -124h-20l13 124h-77v20h79l25 230h-77v21h80l12 113h20l-13 -113h222l12 113h19l-13 -113h83v-21h-85l-25 -230h83v-20zM158 218h221l25 230h-221z" />
    <glyph glyph-name="dollar" unicode="$" horiz-adv-x="583" 
d="M455 430h-17l-72 157l2 -1q-20 12 -42 18.5t-53 6.5q-63 0 -95.5 -27.5t-32.5 -74.5q0 -19 5 -37t20 -35t42 -32t71 -28q60 -18 101.5 -37t67.5 -41.5t37.5 -51t11.5 -65.5q0 -82 -56 -131t-162 -51v-95h-13v95q-69 0 -131 19.5t-107 67.5l25 142h17l78 -183
q23 -16 52 -25t66 -8q81 1 121 30.5t40 73.5q0 24 -9.5 43t-31.5 36t-59.5 32t-92.5 32q-48 14 -81.5 35t-53.5 46.5t-28.5 54.5t-7.5 59q1 74 52.5 121t149.5 49v105h13v-105q69 -2 114.5 -19t82.5 -48z" />
    <glyph glyph-name="percent" unicode="%" horiz-adv-x="612" 
d="M127 0h-34l387 632h34zM174 374q-26 0 -49 8t-40 24.5t-27 41t-10 56.5q0 30 9.5 53.5t26.5 40t40 25.5t50 9q26 0 48 -9t38.5 -25.5t26 -40t9.5 -51.5q0 -29 -9.5 -53.5t-26 -42t-39 -27t-47.5 -9.5zM172 395q27 0 44 26t17 84q0 54 -17.5 81.5t-43.5 27.5
q-28 0 -45.5 -27.5t-17.5 -81.5q0 -58 18.5 -84t44.5 -26zM438 0q-25 0 -48 8.5t-40 25t-27.5 40.5t-10.5 56q0 60 36 93.5t90 33.5q53 0 87.5 -33t34.5 -93q0 -29 -9.5 -53.5t-26 -41.5t-39 -26.5t-47.5 -9.5zM437 19q26 0 44.5 28.5t18.5 83.5q0 52 -19 80.5t-44 28.5
q-28 0 -46 -30.5t-18 -81.5q0 -54 19 -81.5t45 -27.5z" />
    <glyph glyph-name="ampersand" unicode="&#x26;" horiz-adv-x="644" 
d="M634 321l-102 -50q-2 -100 -58 -170q48 -53 88.5 -61.5t79.5 16.5l2 -11q-67 -42 -125.5 -43.5t-115.5 39.5q-80 -49 -196 -49q-46 0 -81 16t-57 41.5t-30 58.5t1 68q7 27 24 47.5t40.5 36.5t50.5 28.5t55 22.5q-12 23 -23.5 48.5t-23.5 52.5q-19 45 -15.5 82.5t22.5 65
t50 44.5t68 21q73 8 120.5 -21.5t52.5 -92.5q4 -60 -33 -102t-106 -71q81 -156 144 -227q24 30 38 70t15 88l-88 44v19h203v-11zM303 26q49 5 88 25q-43 35 -85 94.5t-87 147.5q-27 -14 -47 -29t-27 -35q-9 -15 -10.5 -37.5t5 -46.5t20.5 -47.5t34.5 -41t48 -26.5t60.5 -4z
M251 482q17 -36 33 -69t31 -62q35 20 53 49.5t13 76.5q-6 30 -15 55t-21 43t-27 27t-32 8q-19 0 -31 -11t-17 -28.5t-2 -40.5t15 -48z" />
    <glyph glyph-name="quotesingle" unicode="'" horiz-adv-x="138" 
d="M143 750l-81 -247h-15l-7 247h103z" />
    <glyph glyph-name="parenleft" unicode="(" horiz-adv-x="471" 
d="M229 281q0 -90 8.5 -157t29 -117.5t55.5 -87.5t88 -68l-7 -12q-87 34 -144.5 81.5t-92 104t-49 121.5t-14.5 135q0 68 16 132t52 120.5t93 104.5t139 85l7 -12q-55 -31 -90 -68.5t-55.5 -88t-28 -117.5t-7.5 -156z" />
    <glyph glyph-name="parenright" unicode=")" horiz-adv-x="471" 
d="M249 281q0 90 -8.5 157t-29 117.5t-55 87.5t-87.5 68l6 12q87 -35 144.5 -82t92 -104t49 -121.5t14.5 -134.5q0 -69 -16 -132.5t-52 -120t-93 -104.5t-139 -85l-6 12q55 31 90 69t55 88.5t27.5 117t7.5 155.5z" />
    <glyph glyph-name="asterisk" unicode="*" horiz-adv-x="534" 
d="M328 692l-51 -174l151 99l36 -107l-183 -10l148 -108l-93 -76l-69 171l-66 -171l-95 76l146 108l-181 10l35 107l151 -99l-51 174h122z" />
    <glyph glyph-name="plus" unicode="+" horiz-adv-x="507" 
d="M258 492v-155h155v-26h-155v-154h-26v154h-154v26h154v155h26z" />
    <glyph glyph-name="comma" unicode="," horiz-adv-x="289" 
d="M203 128l-117 -261h-20l21 261h116z" />
    <glyph glyph-name="hyphen" unicode="-" horiz-adv-x="507" 
d="M395 259h-299v26h299v-26z" />
    <glyph glyph-name="period" unicode="." horiz-adv-x="265" 
d="M200 66q0 -29 -18 -47.5t-49 -18.5q-29 0 -48 18.5t-19 47.5q0 28 19 48.5t48 20.5q31 0 49 -20.5t18 -48.5z" />
    <glyph glyph-name="slash" unicode="/" horiz-adv-x="543" 
d="M92 -100h-36l402 862h36z" />
    <glyph glyph-name="zero" unicode="0" horiz-adv-x="1871" 
d="M196 193l-30 -161l-29 161h-42l-4 -257h40l1 105l20 -105h30l21 106l2 -106h37l-2 257h-44zM1032 694q-53 0 -62 52q-2 11 -2 22v22q0 24 -1 51.5t5 50.5q6 20 21.5 29.5t34.5 10.5q20 1 37.5 -7t24.5 -28q8 -22 7.5 -49.5t-0.5 -51.5q0 -14 -0.5 -27.5t-3.5 -26.5
q-11 -48 -61 -48zM971 428q-25 0 -41 12.5t-21 36.5q-2 12 -1.5 23.5t0.5 24.5q0 23 -1 49.5t4 49.5q6 21 21 30.5t35 9.5q21 1 38 -6t24 -27q9 -23 7 -50.5t-2 -50.5q0 -16 0.5 -28.5t-2.5 -26.5q-9 -47 -61 -47zM352 70l-44 123h-33v-257h40v126l45 -126h32v257h-40v-123z
M676 32h26v-16.5t-2 -22t-7.5 -17t-16.5 -2.5q-7 2 -10 9t-4 15.5t-0.5 17t0.5 13.5v61q0 12 -0.5 27.5t2.5 28.5q3 5 8.5 8.5t11.5 2.5q13 -4 14 -16q2 -9 1.5 -18.5t-0.5 -20.5h43q0 22 -3 47t-25 39q-12 8 -28 8.5t-30 -4.5q-17 -5 -25.5 -20t-11.5 -32q-2 -18 -1.5 -37
t0.5 -38q0 -18 -0.5 -35.5t1.5 -35.5q2 -15 7.5 -30.5t19.5 -22.5q13 -9 32 -8.5t30 11.5l1 -8h34v134h-67v-38zM686 696v235q23 0 47.5 0.5t44.5 -10.5q12 -8 19 -23.5t7 -32.5t-7 -31.5t-21 -19.5l31 -118h-31l-31 111h-25v-111h-34zM568 70l-21 23q-7 7 -13.5 13t-9.5 17
q-3 8 -0.5 21.5t15.5 12.5q7 -1 10 -7t4.5 -13.5t2 -15.5t0.5 -14l40 2q0 24 -5 48t-28 34q-14 6 -28 5t-25.5 -7t-19 -17.5t-8.5 -26.5q-2 -15 0.5 -31t11.5 -28q3 -8 9.5 -13t12.5 -12q12 -14 26 -29.5t14 -35.5q0 -8 -1.5 -14.5t-8.5 -7.5q-6 -2 -10 1t-6 8
q-6 11 -7 22.5t-2 23.5l-40 -3q0 -17 1.5 -32t8.5 -30q8 -18 25.5 -26t36.5 -4q20 4 31.5 19t13.5 32q6 48 -30 85zM431 696v235h49q18 0 33.5 -4t24.5 -22q5 -10 7.5 -22.5t1.5 -24.5t-6 -23t-14 -18q-13 -11 -31 -11h-33v-110h-32zM1067 430v233h22l66 -156v156h29v-233
h-22l-68 159v-159h-27zM1129 696v235h22l65 -156v156h28v-235h-21l-68 159v-159h-26zM1268 696l49 235h32l49 -235h-30l-12 58h-47l-11 -58h-30zM520 431q-21 -8 -46 -1t-34 32q-5 12 -6 25.5t-1 30.5v145h31v-156q0 -13 2 -30t17 -25q13 -4 21.5 0t13 12t6.5 18.5t2 20.5
q1 20 0.5 37.5t-0.5 37.5v85h33v-107q0 -15 0.5 -34t-2 -37t-11 -33t-26.5 -21zM647 428q-30 0 -45 19t-17 48l31 8q1 -11 2.5 -22t8.5 -19q8 -9 19 -10t19 7q10 8 9 22t-8 23q-5 7 -11.5 14t-14.5 12q-11 11 -24 21.5t-21 23.5q-7 11 -9 24.5t1.5 26.5t11.5 23t22 14
q13 3 29 2t28 -9q11 -8 15 -22.5t5 -28.5l-25 -9q-2 14 -6.5 27.5t-19.5 16.5q-11 2 -19.5 -3.5t-10.5 -17.5q-3 -9 0 -17t9 -15t13.5 -12.5t13.5 -11.5q16 -14 29.5 -28t17.5 -36q7 -27 -8.5 -49t-44.5 -22zM891 694q-29 0 -45.5 19.5t-17.5 47.5l30 8q2 -11 4 -22.5
t9 -18.5q8 -8 19 -9t19 6q9 8 8.5 22t-7.5 25q-6 10 -26 25q-11 10 -23.5 20.5t-20.5 22.5t-10 26.5t1 27t11.5 22.5t22.5 14q13 3 29 1.5t27 -9.5q12 -8 16 -22t5 -28l-25 -8q-2 12 -6.5 26t-19.5 18q-11 1 -20 -4.5t-11 -15.5t1 -18.5t9 -15.5t13.5 -13t14.5 -11
q15 -14 29 -28.5t19 -34.5q5 -29 -10 -51t-45 -22zM752 -96h37l73 322h-41zM728 430v233h91v-25h-58v-76h47v-24h-47v-87h58v-21h-91zM570 696v235h90v-25h-58v-76h47v-24h-47v-87h59v-23h-91zM1369 430v48q0 9 1 18t-1 17q-2 13 -6.5 23.5t-9.5 21.5l-33 105h30l35 -112
l34 112h32l-16 -48t-16 -49l-16 -48q-3 -8 -2.5 -16t0.5 -14v-58h-32zM955 455q7 -4 16 -4t14 4q9 5 12.5 13.5t5.5 17.5q1 5 0.5 12t-0.5 12v83q0 10 -1 20.5t-9 18.5q-13 13 -29 8q-16 -4 -23 -22q-3 -17 -2 -37t1 -37v-42q0 -12 1.5 -26t13.5 -21zM1019 721q13 -5 29 0
q10 5 12.5 13.5t3.5 16.5v109q0 10 -1 20.5t-9 17.5q-5 8 -12.5 9t-15.5 -1q-17 -1 -22 -20q-5 -17 -3 -37.5t2 -37.5v-43q0 -12 1 -26t15 -21zM1423 696v235h32v-212h60v-23h-92zM1220 430v233h32v-212h59v-21h-91zM462 -399q-15 0 -22 6.5t-9.5 16t-2.5 21v20.5
q0 11 0.5 22t4 19t11 12.5t21.5 3.5q12 -1 18.5 -7t9 -15t2.5 -19.5v-19.5v-19.5t-3 -19.5t-10 -15t-20 -6zM563 -251q-14 0 -21 6.5t-9.5 16.5t-2.5 21.5v21.5t0.5 20.5t4 18.5t10.5 13t21 4q12 -1 18 -7t9 -15t3 -19.5v-19.5t-0.5 -20t-3.5 -20t-9.5 -15t-19.5 -6z
M1468 -399q-14 0 -21 6.5t-9.5 16t-2.5 21v20.5q0 11 0.5 22t4 19t11 12.5t21.5 3.5q13 -1 18.5 -7t7.5 -15t1.5 -19.5t-0.5 -19.5v-19.5t-2.5 -19.5t-9 -15t-19.5 -6zM1398 -249v119q11 0 26 0.5t26 -8.5t10 -24.5t-1 -27.5t0.5 -28.5t-13.5 -24.5q-9 -8 -23 -7t-25 1z
M764 -398v119q12 0 24 1t22 -4q7 -4 10.5 -12t3.5 -17t-4 -16.5t-11 -10.5l17 -60h-16l-14 57h-13v-57h-19zM607 -398l2 119h17l21 -95l21 95h17l1 -119h-11l-2 88l-21 -88h-11l-18 88l-2 -88h-14zM510 -398l2 119h18l21 -95l20 95h16l2 -119h-13l-1 88l-20 -88h-11l-19 88
l-1 -88h-14zM1254 -398v119q11 0 23 1t23 -4q6 -4 10 -12t4 -17t-3.5 -16.5t-10.5 -10.5l15 -60h-15l-15 57h-14v-57h-17zM612 -249v119q11 0 22.5 1t21.5 -4q7 -4 11 -12.5t4.5 -17.5t-3 -16.5t-12.5 -10.5l18 -59h-17l-17 55h-12v-55h-16zM624 252v121h30t26 -12
q4 -11 3 -25t-9 -21q-8 -6 -16.5 -6.5t-17.5 -0.5v-56h-16zM782 -249v119h15v-52h31v52h18v-119h-18v55h-31v-55h-15zM1519 -398v119h10l35 -79v79h13v-119h-11l-35 82v-82h-12zM1320 -249v119h10l35 -79v79h13v-119h-10l-34 80v-80h-14zM807 252l26 121h16l26 -121h-18
l-5 32h-25l-5 -32h-15zM1242 -249l23 119h18l25 -119h-16l-6 30h-24l-7 -30h-13zM948 -398l25 119h17l25 -119h-15l-5 31h-26l-5 -31h-16zM1478 480l-9 183h30l-10 -183h-11zM463 830q8 0 16 -0.5t18 1.5q12 3 15.5 12.5t3.5 20.5q1 13 -2 25t-17 16q-10 2 -18 1.5t-16 -0.5
v-76zM1061 -249q-17 -5 -29.5 2.5t-16.5 24.5q-2 8 -1 15t1 13v64h15v-53q0 -5 -0.5 -14.5t0.5 -18.5t4.5 -16t11.5 -7t12 7t5.5 16t1 18.5t-0.5 14.5v53h14v-54q0 -8 0.5 -17.5t-0.5 -19t-4.5 -17.5t-12.5 -11zM384 -399q-15 0 -22 9t-9 21.5t-1.5 27t0.5 25.5q0 16 8.5 28
t28.5 10q18 -2 22 -14.5t4 -26.5h-16q0 5 0.5 10.5t-2.5 10.5q-2 8 -11 9t-13 -7q-6 -6 -4.5 -20t1.5 -23q0 -7 -1.5 -20t5.5 -21q3 -7 12 -5.5t11 9.5q3 5 2.5 11t-0.5 11h16q0 -15 -5 -30t-26 -15zM871 -399q-16 0 -22.5 9t-8 21.5t-0.5 27t1 25.5q0 16 7.5 28t27.5 10
q19 -2 23 -14.5t4 -26.5h-18q0 5 1 10.5t-2 10.5q-2 8 -10.5 9t-13.5 -7q-6 -6 -5 -20t1 -23q0 -7 -1 -20t6 -21q4 -7 12.5 -5.5t10.5 9.5q3 5 2 11t-1 11h18q0 -15 -5 -30t-27 -15zM1360 -399q-16 0 -23.5 10.5t-9.5 24.5l16 4q0 -6 2 -13.5t8 -9.5q9 -5 14 -0.5t5 11.5
q0 12 -10.5 21.5t-18.5 15.5q-11 11 -15 26.5t10 25.5q7 5 16.5 6t15.5 -3q8 -2 11.5 -10.5t4.5 -16.5l-14 -5l-2 12t-6 11q-16 4 -20 -9q-4 -9 3.5 -16t14.5 -13q7 -8 14.5 -15.5t9.5 -18.5q5 -14 -3 -26t-23 -12zM720 830h16t17 2q11 5 14.5 15.5t1.5 23.5q0 11 -2.5 19
t-13.5 13q-8 4 -17 3.5t-16 -0.5v-76zM914 251q-14 0 -22.5 10t-9.5 25l16 5q0 -6 2 -14t8 -12q8 -2 13.5 2.5t5.5 11.5q0 12 -10.5 21.5t-18.5 17.5q-11 9 -15 24t9 27q7 4 16 4.5t16 -1.5q9 -4 12.5 -12.5t4.5 -16.5l-14 -3q-1 5 -2.5 11t-6.5 11q-6 2 -11.5 0t-7.5 -10
q-3 -8 4 -16t12 -14q8 -6 16 -13.5t10 -18.5q5 -14 -3 -26.5t-24 -12.5zM1188 251q-16 0 -23 10t-8 25l16 5q0 -6 2.5 -14t8.5 -12q8 -2 12.5 2.5t4.5 11.5q1 12 -9.5 21.5t-18.5 17.5q-11 9 -15.5 24t8.5 27q17 8 33 3q8 -4 11.5 -12.5t4.5 -16.5l-14 -3q-1 5 -2.5 11
t-6.5 11q-5 2 -10.5 0t-6.5 -10q-6 -8 2 -16l14 -14q7 -6 14.5 -13.5t9.5 -18.5q5 -14 -2.5 -26.5t-24.5 -12.5zM1070 252l-27 121h18l17 -88l19 88h13l-25 -121h-15zM1141 -398l-27 119h15l20 -87l16 87h17l-28 -119h-13zM1194 -398v119h48v-10h-31v-39h25v-13h-25v-45h31
v-12h-48zM955 252v121h48v-11h-31v-41h25v-12h-25v-45h32v-12h-49zM705 -398v119h47v-10h-30v-39h25v-13h-25v-45h30v-12h-47zM555 -237q10 -5 14.5 -1t6.5 11.5t2 16.5v15q0 4 0.5 12t0.5 16t-2 14.5t-6 9.5q-11 6 -18 -2t-7 -18v-19q0 -4 -0.5 -12.5t-0.5 -17t2 -16
t8 -9.5zM864 -249v119h46v-12h-29v-40h25v-12h-25v-45h29v-10h-46zM753 252v121h46v-11h-31v-41h26v-12h-26v-45h31v-12h-46zM453 -382q10 -6 15 -2.5t7 10.5t2 16v15q0 4 0.5 12t0 15.5t-2 14t-5.5 8.5q-13 8 -18.5 0t-5.5 -17q-1 -5 -0.5 -9.5t0.5 -8.5q0 -5 -0.5 -13
t-0.5 -17t1.5 -16t6.5 -8zM1460 -382q10 -6 15 -2.5t7.5 10.5t2.5 16v15q0 4 0.5 12t-0.5 15.5t-3 14t-6 8.5q-12 8 -17 0t-5 -17v-18q0 -5 -1 -13t-1 -17t1.5 -16t6.5 -8zM474 -249v119h46v-12h-28v-40h22v-12h-22v-55h-18zM1414 -239q11 0 18.5 2t9.5 15v63q-1 13 -9 15
t-19 2v-97zM735 -249v107h-22v12h61v-12h-22v-107h-17zM1154 -249v119h17v-109h30v-10h-47zM960 -249v119h45v-12h-32v-40h24v-12h-24v-55h-13zM1281 252v110h-23v11h58v-11h-20v-110h-15zM1097 -249v119h16v-109h30v-10h-46zM695 252v121h15v-109h31v-12h-46zM1028 -398
v119h15v-107h32v-12h-47zM1313 778h40l-20 107zM1230 252v121h18v-121h-18zM919 -398v119h17v-119h-17zM420 -64h43v48h-43v-48zM1125 252v121h16v-121h-16zM1402 -398v119h15v-119h-15zM640 320h9t10 2q6 3 7 9t1 13q-1 14 -8.5 16t-18.5 2v-42zM1469 430v33h30v-33h-30z
M628 -182q11 0 19 3.5t8 17.5t-8 16.5t-19 2.5v-40zM1271 -328q11 0 19 2.5t8 16.5q0 12 -8 16t-19 4v-39zM783 -328q11 0 18 2.5t7 16.5q0 12 -7 16t-18 4v-39zM828 295h22l-9 55zM1264 -207h21l-11 54zM971 -356h21l-10 55zM1337 193l-30 -161l-29 161h-42l-4 -257h40
l1 105l20 -105h30l21 106l2 -106h37l-2 257h-44zM906 193v-204q0 -19 -16 -17q-7 1 -10 7t-4.5 13.5t-2 15.5t-0.5 14l-40 -2q0 -24 5 -48t28 -34q8 -4 15.5 -5t15.5 0q20 2 36 16t16 38v206h-43zM1013 193l-47 -257h43l10 61h28l8 -61h43l-45 257h-40zM1025 35l8 51l7 -51
h-15zM1174 -64v77l46 180h-43l-24 -120l-22 120h-43l43 -176v-81h43zM1766 -64v212h36v45h-116v-45h37v-212h43zM1520 110q0 19 -2.5 35t-9 27.5t-17.5 18t-28 6.5q-35 0 -46 -25t-11 -62v-90q0 -19 2.5 -35t9 -27.5t17.5 -18t28 -6.5q34 0 45.5 24.5t11.5 62.5v90zM1480 22
v-15t-1.5 -16.5t-5 -13t-10.5 -5.5t-10.5 5.5t-5 13t-1.5 16.5v15v86v15t1.5 16.5t5 13t10.5 5.5t10.5 -5.5t5 -13t1.5 -16.5v-15v-86zM1623 70l-44 123h-33v-257h40v126l45 -126h32v257h-40v-123z" />
    <glyph glyph-name="one" unicode="1" horiz-adv-x="1871" 
d="M196 193l-30 -161l-29 161h-42l-4 -257h40l1 105l20 -105h30l21 106l2 -106h37l-2 257h-44zM1032 694q-53 0 -62 52q-2 11 -2 22v22q0 24 -1 51.5t5 50.5q6 20 21.5 29.5t34.5 10.5q20 1 37.5 -7t24.5 -28q8 -22 7.5 -49.5t-0.5 -51.5q0 -14 -0.5 -27.5t-3.5 -26.5
q-11 -48 -61 -48zM971 428q-25 0 -41 12.5t-21 36.5q-2 12 -1.5 23.5t0.5 24.5q0 23 -1 49.5t4 49.5q6 21 21 30.5t35 9.5q21 1 38 -6t24 -27q9 -23 7 -50.5t-2 -50.5q0 -16 0.5 -28.5t-2.5 -26.5q-9 -47 -61 -47zM352 70l-44 123h-33v-257h40v126l45 -126h32v257h-40v-123z
M676 32h26v-16.5t-2 -22t-7.5 -17t-16.5 -2.5q-7 2 -10 9t-4 15.5t-0.5 17t0.5 13.5v61q0 12 -0.5 27.5t2.5 28.5q3 5 8.5 8.5t11.5 2.5q13 -4 14 -16q2 -9 1.5 -18.5t-0.5 -20.5h43q0 22 -3 47t-25 39q-12 8 -28 8.5t-30 -4.5q-17 -5 -25.5 -20t-11.5 -32q-2 -18 -1.5 -37
t0.5 -38q0 -18 -0.5 -35.5t1.5 -35.5q2 -15 7.5 -30.5t19.5 -22.5q13 -9 32 -8.5t30 11.5l1 -8h34v134h-67v-38zM686 696v235q23 0 47.5 0.5t44.5 -10.5q12 -8 19 -23.5t7 -32.5t-7 -31.5t-21 -19.5l31 -118h-31l-31 111h-25v-111h-34zM568 70l-21 23q-7 7 -13.5 13t-9.5 17
q-3 8 -0.5 21.5t15.5 12.5q7 -1 10 -7t4.5 -13.5t2 -15.5t0.5 -14l40 2q0 24 -5 48t-28 34q-14 6 -28 5t-25.5 -7t-19 -17.5t-8.5 -26.5q-2 -15 0.5 -31t11.5 -28q3 -8 9.5 -13t12.5 -12q12 -14 26 -29.5t14 -35.5q0 -8 -1.5 -14.5t-8.5 -7.5q-6 -2 -10 1t-6 8
q-6 11 -7 22.5t-2 23.5l-40 -3q0 -17 1.5 -32t8.5 -30q8 -18 25.5 -26t36.5 -4q20 4 31.5 19t13.5 32q6 48 -30 85zM431 696v235h49q18 0 33.5 -4t24.5 -22q5 -10 7.5 -22.5t1.5 -24.5t-6 -23t-14 -18q-13 -11 -31 -11h-33v-110h-32zM1067 430v233h22l66 -156v156h29v-233
h-22l-68 159v-159h-27zM1129 696v235h22l65 -156v156h28v-235h-21l-68 159v-159h-26zM1268 696l49 235h32l49 -235h-30l-12 58h-47l-11 -58h-30zM520 431q-21 -8 -46 -1t-34 32q-5 12 -6 25.5t-1 30.5v145h31v-156q0 -13 2 -30t17 -25q13 -4 21.5 0t13 12t6.5 18.5t2 20.5
q1 20 0.5 37.5t-0.5 37.5v85h33v-107q0 -15 0.5 -34t-2 -37t-11 -33t-26.5 -21zM647 428q-30 0 -45 19t-17 48l31 8q1 -11 2.5 -22t8.5 -19q8 -9 19 -10t19 7q10 8 9 22t-8 23q-5 7 -11.5 14t-14.5 12q-11 11 -24 21.5t-21 23.5q-7 11 -9 24.5t1.5 26.5t11.5 23t22 14
q13 3 29 2t28 -9q11 -8 15 -22.5t5 -28.5l-25 -9q-2 14 -6.5 27.5t-19.5 16.5q-11 2 -19.5 -3.5t-10.5 -17.5q-3 -9 0 -17t9 -15t13.5 -12.5t13.5 -11.5q16 -14 29.5 -28t17.5 -36q7 -27 -8.5 -49t-44.5 -22zM891 694q-29 0 -45.5 19.5t-17.5 47.5l30 8q2 -11 4 -22.5
t9 -18.5q8 -8 19 -9t19 6q9 8 8.5 22t-7.5 25q-6 10 -26 25q-11 10 -23.5 20.5t-20.5 22.5t-10 26.5t1 27t11.5 22.5t22.5 14q13 3 29 1.5t27 -9.5q12 -8 16 -22t5 -28l-25 -8q-2 12 -6.5 26t-19.5 18q-11 1 -20 -4.5t-11 -15.5t1 -18.5t9 -15.5t13.5 -13t14.5 -11
q15 -14 29 -28.5t19 -34.5q5 -29 -10 -51t-45 -22zM752 -96h37l73 322h-41zM728 430v233h91v-25h-58v-76h47v-24h-47v-87h58v-21h-91zM570 696v235h90v-25h-58v-76h47v-24h-47v-87h59v-23h-91zM1369 430v48q0 9 1 18t-1 17q-2 13 -6.5 23.5t-9.5 21.5l-33 105h30l35 -112
l34 112h32l-16 -48t-16 -49l-16 -48q-3 -8 -2.5 -16t0.5 -14v-58h-32zM955 455q7 -4 16 -4t14 4q9 5 12.5 13.5t5.5 17.5q1 5 0.5 12t-0.5 12v83q0 10 -1 20.5t-9 18.5q-13 13 -29 8q-16 -4 -23 -22q-3 -17 -2 -37t1 -37v-42q0 -12 1.5 -26t13.5 -21zM1019 721q13 -5 29 0
q10 5 12.5 13.5t3.5 16.5v109q0 10 -1 20.5t-9 17.5q-5 8 -12.5 9t-15.5 -1q-17 -1 -22 -20q-5 -17 -3 -37.5t2 -37.5v-43q0 -12 1 -26t15 -21zM1423 696v235h32v-212h60v-23h-92zM1220 430v233h32v-212h59v-21h-91zM462 -399q-15 0 -22 6.5t-9.5 16t-2.5 21v20.5
q0 11 0.5 22t4 19t11 12.5t21.5 3.5q12 -1 18.5 -7t9 -15t2.5 -19.5v-19.5v-19.5t-3 -19.5t-10 -15t-20 -6zM563 -251q-14 0 -21 6.5t-9.5 16.5t-2.5 21.5v21.5t0.5 20.5t4 18.5t10.5 13t21 4q12 -1 18 -7t9 -15t3 -19.5v-19.5t-0.5 -20t-3.5 -20t-9.5 -15t-19.5 -6z
M1468 -399q-14 0 -21 6.5t-9.5 16t-2.5 21v20.5q0 11 0.5 22t4 19t11 12.5t21.5 3.5q13 -1 18.5 -7t7.5 -15t1.5 -19.5t-0.5 -19.5v-19.5t-2.5 -19.5t-9 -15t-19.5 -6zM1398 -249v119q11 0 26 0.5t26 -8.5t10 -24.5t-1 -27.5t0.5 -28.5t-13.5 -24.5q-9 -8 -23 -7t-25 1z
M764 -398v119q12 0 24 1t22 -4q7 -4 10.5 -12t3.5 -17t-4 -16.5t-11 -10.5l17 -60h-16l-14 57h-13v-57h-19zM607 -398l2 119h17l21 -95l21 95h17l1 -119h-11l-2 88l-21 -88h-11l-18 88l-2 -88h-14zM510 -398l2 119h18l21 -95l20 95h16l2 -119h-13l-1 88l-20 -88h-11l-19 88
l-1 -88h-14zM1254 -398v119q11 0 23 1t23 -4q6 -4 10 -12t4 -17t-3.5 -16.5t-10.5 -10.5l15 -60h-15l-15 57h-14v-57h-17zM612 -249v119q11 0 22.5 1t21.5 -4q7 -4 11 -12.5t4.5 -17.5t-3 -16.5t-12.5 -10.5l18 -59h-17l-17 55h-12v-55h-16zM624 252v121h30t26 -12
q4 -11 3 -25t-9 -21q-8 -6 -16.5 -6.5t-17.5 -0.5v-56h-16zM782 -249v119h15v-52h31v52h18v-119h-18v55h-31v-55h-15zM1519 -398v119h10l35 -79v79h13v-119h-11l-35 82v-82h-12zM1320 -249v119h10l35 -79v79h13v-119h-10l-34 80v-80h-14zM807 252l26 121h16l26 -121h-18
l-5 32h-25l-5 -32h-15zM1242 -249l23 119h18l25 -119h-16l-6 30h-24l-7 -30h-13zM948 -398l25 119h17l25 -119h-15l-5 31h-26l-5 -31h-16zM1478 480l-9 183h30l-10 -183h-11zM463 830q8 0 16 -0.5t18 1.5q12 3 15.5 12.5t3.5 20.5q1 13 -2 25t-17 16q-10 2 -18 1.5t-16 -0.5
v-76zM1061 -249q-17 -5 -29.5 2.5t-16.5 24.5q-2 8 -1 15t1 13v64h15v-53q0 -5 -0.5 -14.5t0.5 -18.5t4.5 -16t11.5 -7t12 7t5.5 16t1 18.5t-0.5 14.5v53h14v-54q0 -8 0.5 -17.5t-0.5 -19t-4.5 -17.5t-12.5 -11zM384 -399q-15 0 -22 9t-9 21.5t-1.5 27t0.5 25.5q0 16 8.5 28
t28.5 10q18 -2 22 -14.5t4 -26.5h-16q0 5 0.5 10.5t-2.5 10.5q-2 8 -11 9t-13 -7q-6 -6 -4.5 -20t1.5 -23q0 -7 -1.5 -20t5.5 -21q3 -7 12 -5.5t11 9.5q3 5 2.5 11t-0.5 11h16q0 -15 -5 -30t-26 -15zM871 -399q-16 0 -22.5 9t-8 21.5t-0.5 27t1 25.5q0 16 7.5 28t27.5 10
q19 -2 23 -14.5t4 -26.5h-18q0 5 1 10.5t-2 10.5q-2 8 -10.5 9t-13.5 -7q-6 -6 -5 -20t1 -23q0 -7 -1 -20t6 -21q4 -7 12.5 -5.5t10.5 9.5q3 5 2 11t-1 11h18q0 -15 -5 -30t-27 -15zM1360 -399q-16 0 -23.5 10.5t-9.5 24.5l16 4q0 -6 2 -13.5t8 -9.5q9 -5 14 -0.5t5 11.5
q0 12 -10.5 21.5t-18.5 15.5q-11 11 -15 26.5t10 25.5q7 5 16.5 6t15.5 -3q8 -2 11.5 -10.5t4.5 -16.5l-14 -5l-2 12t-6 11q-16 4 -20 -9q-4 -9 3.5 -16t14.5 -13q7 -8 14.5 -15.5t9.5 -18.5q5 -14 -3 -26t-23 -12zM720 830h16t17 2q11 5 14.5 15.5t1.5 23.5q0 11 -2.5 19
t-13.5 13q-8 4 -17 3.5t-16 -0.5v-76zM914 251q-14 0 -22.5 10t-9.5 25l16 5q0 -6 2 -14t8 -12q8 -2 13.5 2.5t5.5 11.5q0 12 -10.5 21.5t-18.5 17.5q-11 9 -15 24t9 27q7 4 16 4.5t16 -1.5q9 -4 12.5 -12.5t4.5 -16.5l-14 -3q-1 5 -2.5 11t-6.5 11q-6 2 -11.5 0t-7.5 -10
q-3 -8 4 -16t12 -14q8 -6 16 -13.5t10 -18.5q5 -14 -3 -26.5t-24 -12.5zM1188 251q-16 0 -23 10t-8 25l16 5q0 -6 2.5 -14t8.5 -12q8 -2 12.5 2.5t4.5 11.5q1 12 -9.5 21.5t-18.5 17.5q-11 9 -15.5 24t8.5 27q17 8 33 3q8 -4 11.5 -12.5t4.5 -16.5l-14 -3q-1 5 -2.5 11
t-6.5 11q-5 2 -10.5 0t-6.5 -10q-6 -8 2 -16l14 -14q7 -6 14.5 -13.5t9.5 -18.5q5 -14 -2.5 -26.5t-24.5 -12.5zM1070 252l-27 121h18l17 -88l19 88h13l-25 -121h-15zM1141 -398l-27 119h15l20 -87l16 87h17l-28 -119h-13zM1194 -398v119h48v-10h-31v-39h25v-13h-25v-45h31
v-12h-48zM955 252v121h48v-11h-31v-41h25v-12h-25v-45h32v-12h-49zM705 -398v119h47v-10h-30v-39h25v-13h-25v-45h30v-12h-47zM555 -237q10 -5 14.5 -1t6.5 11.5t2 16.5v15q0 4 0.5 12t0.5 16t-2 14.5t-6 9.5q-11 6 -18 -2t-7 -18v-19q0 -4 -0.5 -12.5t-0.5 -17t2 -16
t8 -9.5zM864 -249v119h46v-12h-29v-40h25v-12h-25v-45h29v-10h-46zM753 252v121h46v-11h-31v-41h26v-12h-26v-45h31v-12h-46zM453 -382q10 -6 15 -2.5t7 10.5t2 16v15q0 4 0.5 12t0 15.5t-2 14t-5.5 8.5q-13 8 -18.5 0t-5.5 -17q-1 -5 -0.5 -9.5t0.5 -8.5q0 -5 -0.5 -13
t-0.5 -17t1.5 -16t6.5 -8zM1460 -382q10 -6 15 -2.5t7.5 10.5t2.5 16v15q0 4 0.5 12t-0.5 15.5t-3 14t-6 8.5q-12 8 -17 0t-5 -17v-18q0 -5 -1 -13t-1 -17t1.5 -16t6.5 -8zM474 -249v119h46v-12h-28v-40h22v-12h-22v-55h-18zM1414 -239q11 0 18.5 2t9.5 15v63q-1 13 -9 15
t-19 2v-97zM735 -249v107h-22v12h61v-12h-22v-107h-17zM1154 -249v119h17v-109h30v-10h-47zM960 -249v119h45v-12h-32v-40h24v-12h-24v-55h-13zM1281 252v110h-23v11h58v-11h-20v-110h-15zM1097 -249v119h16v-109h30v-10h-46zM695 252v121h15v-109h31v-12h-46zM1028 -398
v119h15v-107h32v-12h-47zM1313 778h40l-20 107zM1230 252v121h18v-121h-18zM919 -398v119h17v-119h-17zM420 -64h43v48h-43v-48zM1125 252v121h16v-121h-16zM1402 -398v119h15v-119h-15zM640 320h9t10 2q6 3 7 9t1 13q-1 14 -8.5 16t-18.5 2v-42zM1469 430v33h30v-33h-30z
M628 -182q11 0 19 3.5t8 17.5t-8 16.5t-19 2.5v-40zM1271 -328q11 0 19 2.5t8 16.5q0 12 -8 16t-19 4v-39zM783 -328q11 0 18 2.5t7 16.5q0 12 -7 16t-18 4v-39zM828 295h22l-9 55zM1264 -207h21l-11 54zM971 -356h21l-10 55zM1337 193l-30 -161l-29 161h-42l-4 -257h40
l1 105l20 -105h30l21 106l2 -106h37l-2 257h-44zM906 193v-204q0 -19 -16 -17q-7 1 -10 7t-4.5 13.5t-2 15.5t-0.5 14l-40 -2q0 -24 5 -48t28 -34q8 -4 15.5 -5t15.5 0q20 2 36 16t16 38v206h-43zM1013 193l-47 -257h43l10 61h28l8 -61h43l-45 257h-40zM1025 35l8 51l7 -51
h-15zM1174 -64v77l46 180h-43l-24 -120l-22 120h-43l43 -176v-81h43zM1766 -64v212h36v45h-116v-45h37v-212h43zM1520 110q0 19 -2.5 35t-9 27.5t-17.5 18t-28 6.5q-35 0 -46 -25t-11 -62v-90q0 -19 2.5 -35t9 -27.5t17.5 -18t28 -6.5q34 0 45.5 24.5t11.5 62.5v90zM1480 22
v-15t-1.5 -16.5t-5 -13t-10.5 -5.5t-10.5 5.5t-5 13t-1.5 16.5v15v86v15t1.5 16.5t5 13t10.5 5.5t10.5 -5.5t5 -13t1.5 -16.5v-15v-86zM1623 70l-44 123h-33v-257h40v126l45 -126h32v257h-40v-123z" />
    <glyph glyph-name="two" unicode="2" horiz-adv-x="1871" 
d="M196 193l-30 -161l-29 161h-42l-4 -257h40l1 105l20 -105h30l21 106l2 -106h37l-2 257h-44zM1032 694q-53 0 -62 52q-2 11 -2 22v22q0 24 -1 51.5t5 50.5q6 20 21.5 29.5t34.5 10.5q20 1 37.5 -7t24.5 -28q8 -22 7.5 -49.5t-0.5 -51.5q0 -14 -0.5 -27.5t-3.5 -26.5
q-11 -48 -61 -48zM971 428q-25 0 -41 12.5t-21 36.5q-2 12 -1.5 23.5t0.5 24.5q0 23 -1 49.5t4 49.5q6 21 21 30.5t35 9.5q21 1 38 -6t24 -27q9 -23 7 -50.5t-2 -50.5q0 -16 0.5 -28.5t-2.5 -26.5q-9 -47 -61 -47zM352 70l-44 123h-33v-257h40v126l45 -126h32v257h-40v-123z
M676 32h26v-16.5t-2 -22t-7.5 -17t-16.5 -2.5q-7 2 -10 9t-4 15.5t-0.5 17t0.5 13.5v61q0 12 -0.5 27.5t2.5 28.5q3 5 8.5 8.5t11.5 2.5q13 -4 14 -16q2 -9 1.5 -18.5t-0.5 -20.5h43q0 22 -3 47t-25 39q-12 8 -28 8.5t-30 -4.5q-17 -5 -25.5 -20t-11.5 -32q-2 -18 -1.5 -37
t0.5 -38q0 -18 -0.5 -35.5t1.5 -35.5q2 -15 7.5 -30.5t19.5 -22.5q13 -9 32 -8.5t30 11.5l1 -8h34v134h-67v-38zM686 696v235q23 0 47.5 0.5t44.5 -10.5q12 -8 19 -23.5t7 -32.5t-7 -31.5t-21 -19.5l31 -118h-31l-31 111h-25v-111h-34zM568 70l-21 23q-7 7 -13.5 13t-9.5 17
q-3 8 -0.5 21.5t15.5 12.5q7 -1 10 -7t4.5 -13.5t2 -15.5t0.5 -14l40 2q0 24 -5 48t-28 34q-14 6 -28 5t-25.5 -7t-19 -17.5t-8.5 -26.5q-2 -15 0.5 -31t11.5 -28q3 -8 9.5 -13t12.5 -12q12 -14 26 -29.5t14 -35.5q0 -8 -1.5 -14.5t-8.5 -7.5q-6 -2 -10 1t-6 8
q-6 11 -7 22.5t-2 23.5l-40 -3q0 -17 1.5 -32t8.5 -30q8 -18 25.5 -26t36.5 -4q20 4 31.5 19t13.5 32q6 48 -30 85zM431 696v235h49q18 0 33.5 -4t24.5 -22q5 -10 7.5 -22.5t1.5 -24.5t-6 -23t-14 -18q-13 -11 -31 -11h-33v-110h-32zM1067 430v233h22l66 -156v156h29v-233
h-22l-68 159v-159h-27zM1129 696v235h22l65 -156v156h28v-235h-21l-68 159v-159h-26zM1268 696l49 235h32l49 -235h-30l-12 58h-47l-11 -58h-30zM520 431q-21 -8 -46 -1t-34 32q-5 12 -6 25.5t-1 30.5v145h31v-156q0 -13 2 -30t17 -25q13 -4 21.5 0t13 12t6.5 18.5t2 20.5
q1 20 0.5 37.5t-0.5 37.5v85h33v-107q0 -15 0.5 -34t-2 -37t-11 -33t-26.5 -21zM647 428q-30 0 -45 19t-17 48l31 8q1 -11 2.5 -22t8.5 -19q8 -9 19 -10t19 7q10 8 9 22t-8 23q-5 7 -11.5 14t-14.5 12q-11 11 -24 21.5t-21 23.5q-7 11 -9 24.5t1.5 26.5t11.5 23t22 14
q13 3 29 2t28 -9q11 -8 15 -22.5t5 -28.5l-25 -9q-2 14 -6.5 27.5t-19.5 16.5q-11 2 -19.5 -3.5t-10.5 -17.5q-3 -9 0 -17t9 -15t13.5 -12.5t13.5 -11.5q16 -14 29.5 -28t17.5 -36q7 -27 -8.5 -49t-44.5 -22zM891 694q-29 0 -45.5 19.5t-17.5 47.5l30 8q2 -11 4 -22.5
t9 -18.5q8 -8 19 -9t19 6q9 8 8.5 22t-7.5 25q-6 10 -26 25q-11 10 -23.5 20.5t-20.5 22.5t-10 26.5t1 27t11.5 22.5t22.5 14q13 3 29 1.5t27 -9.5q12 -8 16 -22t5 -28l-25 -8q-2 12 -6.5 26t-19.5 18q-11 1 -20 -4.5t-11 -15.5t1 -18.5t9 -15.5t13.5 -13t14.5 -11
q15 -14 29 -28.5t19 -34.5q5 -29 -10 -51t-45 -22zM752 -96h37l73 322h-41zM728 430v233h91v-25h-58v-76h47v-24h-47v-87h58v-21h-91zM570 696v235h90v-25h-58v-76h47v-24h-47v-87h59v-23h-91zM1369 430v48q0 9 1 18t-1 17q-2 13 -6.5 23.5t-9.5 21.5l-33 105h30l35 -112
l34 112h32l-16 -48t-16 -49l-16 -48q-3 -8 -2.5 -16t0.5 -14v-58h-32zM955 455q7 -4 16 -4t14 4q9 5 12.5 13.5t5.5 17.5q1 5 0.5 12t-0.5 12v83q0 10 -1 20.5t-9 18.5q-13 13 -29 8q-16 -4 -23 -22q-3 -17 -2 -37t1 -37v-42q0 -12 1.5 -26t13.5 -21zM1019 721q13 -5 29 0
q10 5 12.5 13.5t3.5 16.5v109q0 10 -1 20.5t-9 17.5q-5 8 -12.5 9t-15.5 -1q-17 -1 -22 -20q-5 -17 -3 -37.5t2 -37.5v-43q0 -12 1 -26t15 -21zM1423 696v235h32v-212h60v-23h-92zM1220 430v233h32v-212h59v-21h-91zM462 -399q-15 0 -22 6.5t-9.5 16t-2.5 21v20.5
q0 11 0.5 22t4 19t11 12.5t21.5 3.5q12 -1 18.5 -7t9 -15t2.5 -19.5v-19.5v-19.5t-3 -19.5t-10 -15t-20 -6zM563 -251q-14 0 -21 6.5t-9.5 16.5t-2.5 21.5v21.5t0.5 20.5t4 18.5t10.5 13t21 4q12 -1 18 -7t9 -15t3 -19.5v-19.5t-0.5 -20t-3.5 -20t-9.5 -15t-19.5 -6z
M1468 -399q-14 0 -21 6.5t-9.5 16t-2.5 21v20.5q0 11 0.5 22t4 19t11 12.5t21.5 3.5q13 -1 18.5 -7t7.5 -15t1.5 -19.5t-0.5 -19.5v-19.5t-2.5 -19.5t-9 -15t-19.5 -6zM1398 -249v119q11 0 26 0.5t26 -8.5t10 -24.5t-1 -27.5t0.5 -28.5t-13.5 -24.5q-9 -8 -23 -7t-25 1z
M764 -398v119q12 0 24 1t22 -4q7 -4 10.5 -12t3.5 -17t-4 -16.5t-11 -10.5l17 -60h-16l-14 57h-13v-57h-19zM607 -398l2 119h17l21 -95l21 95h17l1 -119h-11l-2 88l-21 -88h-11l-18 88l-2 -88h-14zM510 -398l2 119h18l21 -95l20 95h16l2 -119h-13l-1 88l-20 -88h-11l-19 88
l-1 -88h-14zM1254 -398v119q11 0 23 1t23 -4q6 -4 10 -12t4 -17t-3.5 -16.5t-10.5 -10.5l15 -60h-15l-15 57h-14v-57h-17zM612 -249v119q11 0 22.5 1t21.5 -4q7 -4 11 -12.5t4.5 -17.5t-3 -16.5t-12.5 -10.5l18 -59h-17l-17 55h-12v-55h-16zM624 252v121h30t26 -12
q4 -11 3 -25t-9 -21q-8 -6 -16.5 -6.5t-17.5 -0.5v-56h-16zM782 -249v119h15v-52h31v52h18v-119h-18v55h-31v-55h-15zM1519 -398v119h10l35 -79v79h13v-119h-11l-35 82v-82h-12zM1320 -249v119h10l35 -79v79h13v-119h-10l-34 80v-80h-14zM807 252l26 121h16l26 -121h-18
l-5 32h-25l-5 -32h-15zM1242 -249l23 119h18l25 -119h-16l-6 30h-24l-7 -30h-13zM948 -398l25 119h17l25 -119h-15l-5 31h-26l-5 -31h-16zM1478 480l-9 183h30l-10 -183h-11zM463 830q8 0 16 -0.5t18 1.5q12 3 15.5 12.5t3.5 20.5q1 13 -2 25t-17 16q-10 2 -18 1.5t-16 -0.5
v-76zM1061 -249q-17 -5 -29.5 2.5t-16.5 24.5q-2 8 -1 15t1 13v64h15v-53q0 -5 -0.5 -14.5t0.5 -18.5t4.5 -16t11.5 -7t12 7t5.5 16t1 18.5t-0.5 14.5v53h14v-54q0 -8 0.5 -17.5t-0.5 -19t-4.5 -17.5t-12.5 -11zM384 -399q-15 0 -22 9t-9 21.5t-1.5 27t0.5 25.5q0 16 8.5 28
t28.5 10q18 -2 22 -14.5t4 -26.5h-16q0 5 0.5 10.5t-2.5 10.5q-2 8 -11 9t-13 -7q-6 -6 -4.5 -20t1.5 -23q0 -7 -1.5 -20t5.5 -21q3 -7 12 -5.5t11 9.5q3 5 2.5 11t-0.5 11h16q0 -15 -5 -30t-26 -15zM871 -399q-16 0 -22.5 9t-8 21.5t-0.5 27t1 25.5q0 16 7.5 28t27.5 10
q19 -2 23 -14.5t4 -26.5h-18q0 5 1 10.5t-2 10.5q-2 8 -10.5 9t-13.5 -7q-6 -6 -5 -20t1 -23q0 -7 -1 -20t6 -21q4 -7 12.5 -5.5t10.5 9.5q3 5 2 11t-1 11h18q0 -15 -5 -30t-27 -15zM1360 -399q-16 0 -23.5 10.5t-9.5 24.5l16 4q0 -6 2 -13.5t8 -9.5q9 -5 14 -0.5t5 11.5
q0 12 -10.5 21.5t-18.5 15.5q-11 11 -15 26.5t10 25.5q7 5 16.5 6t15.5 -3q8 -2 11.5 -10.5t4.5 -16.5l-14 -5l-2 12t-6 11q-16 4 -20 -9q-4 -9 3.5 -16t14.5 -13q7 -8 14.5 -15.5t9.5 -18.5q5 -14 -3 -26t-23 -12zM720 830h16t17 2q11 5 14.5 15.5t1.5 23.5q0 11 -2.5 19
t-13.5 13q-8 4 -17 3.5t-16 -0.5v-76zM914 251q-14 0 -22.5 10t-9.5 25l16 5q0 -6 2 -14t8 -12q8 -2 13.5 2.5t5.5 11.5q0 12 -10.5 21.5t-18.5 17.5q-11 9 -15 24t9 27q7 4 16 4.5t16 -1.5q9 -4 12.5 -12.5t4.5 -16.5l-14 -3q-1 5 -2.5 11t-6.5 11q-6 2 -11.5 0t-7.5 -10
q-3 -8 4 -16t12 -14q8 -6 16 -13.5t10 -18.5q5 -14 -3 -26.5t-24 -12.5zM1188 251q-16 0 -23 10t-8 25l16 5q0 -6 2.5 -14t8.5 -12q8 -2 12.5 2.5t4.5 11.5q1 12 -9.5 21.5t-18.5 17.5q-11 9 -15.5 24t8.5 27q17 8 33 3q8 -4 11.5 -12.5t4.5 -16.5l-14 -3q-1 5 -2.5 11
t-6.5 11q-5 2 -10.5 0t-6.5 -10q-6 -8 2 -16l14 -14q7 -6 14.5 -13.5t9.5 -18.5q5 -14 -2.5 -26.5t-24.5 -12.5zM1070 252l-27 121h18l17 -88l19 88h13l-25 -121h-15zM1141 -398l-27 119h15l20 -87l16 87h17l-28 -119h-13zM1194 -398v119h48v-10h-31v-39h25v-13h-25v-45h31
v-12h-48zM955 252v121h48v-11h-31v-41h25v-12h-25v-45h32v-12h-49zM705 -398v119h47v-10h-30v-39h25v-13h-25v-45h30v-12h-47zM555 -237q10 -5 14.5 -1t6.5 11.5t2 16.5v15q0 4 0.5 12t0.5 16t-2 14.5t-6 9.5q-11 6 -18 -2t-7 -18v-19q0 -4 -0.5 -12.5t-0.5 -17t2 -16
t8 -9.5zM864 -249v119h46v-12h-29v-40h25v-12h-25v-45h29v-10h-46zM753 252v121h46v-11h-31v-41h26v-12h-26v-45h31v-12h-46zM453 -382q10 -6 15 -2.5t7 10.5t2 16v15q0 4 0.5 12t0 15.5t-2 14t-5.5 8.5q-13 8 -18.5 0t-5.5 -17q-1 -5 -0.5 -9.5t0.5 -8.5q0 -5 -0.5 -13
t-0.5 -17t1.5 -16t6.5 -8zM1460 -382q10 -6 15 -2.5t7.5 10.5t2.5 16v15q0 4 0.5 12t-0.5 15.5t-3 14t-6 8.5q-12 8 -17 0t-5 -17v-18q0 -5 -1 -13t-1 -17t1.5 -16t6.5 -8zM474 -249v119h46v-12h-28v-40h22v-12h-22v-55h-18zM1414 -239q11 0 18.5 2t9.5 15v63q-1 13 -9 15
t-19 2v-97zM735 -249v107h-22v12h61v-12h-22v-107h-17zM1154 -249v119h17v-109h30v-10h-47zM960 -249v119h45v-12h-32v-40h24v-12h-24v-55h-13zM1281 252v110h-23v11h58v-11h-20v-110h-15zM1097 -249v119h16v-109h30v-10h-46zM695 252v121h15v-109h31v-12h-46zM1028 -398
v119h15v-107h32v-12h-47zM1313 778h40l-20 107zM1230 252v121h18v-121h-18zM919 -398v119h17v-119h-17zM420 -64h43v48h-43v-48zM1125 252v121h16v-121h-16zM1402 -398v119h15v-119h-15zM640 320h9t10 2q6 3 7 9t1 13q-1 14 -8.5 16t-18.5 2v-42zM1469 430v33h30v-33h-30z
M628 -182q11 0 19 3.5t8 17.5t-8 16.5t-19 2.5v-40zM1271 -328q11 0 19 2.5t8 16.5q0 12 -8 16t-19 4v-39zM783 -328q11 0 18 2.5t7 16.5q0 12 -7 16t-18 4v-39zM828 295h22l-9 55zM1264 -207h21l-11 54zM971 -356h21l-10 55zM1337 193l-30 -161l-29 161h-42l-4 -257h40
l1 105l20 -105h30l21 106l2 -106h37l-2 257h-44zM906 193v-204q0 -19 -16 -17q-7 1 -10 7t-4.5 13.5t-2 15.5t-0.5 14l-40 -2q0 -24 5 -48t28 -34q8 -4 15.5 -5t15.5 0q20 2 36 16t16 38v206h-43zM1013 193l-47 -257h43l10 61h28l8 -61h43l-45 257h-40zM1025 35l8 51l7 -51
h-15zM1174 -64v77l46 180h-43l-24 -120l-22 120h-43l43 -176v-81h43zM1766 -64v212h36v45h-116v-45h37v-212h43zM1520 110q0 19 -2.5 35t-9 27.5t-17.5 18t-28 6.5q-35 0 -46 -25t-11 -62v-90q0 -19 2.5 -35t9 -27.5t17.5 -18t28 -6.5q34 0 45.5 24.5t11.5 62.5v90zM1480 22
v-15t-1.5 -16.5t-5 -13t-10.5 -5.5t-10.5 5.5t-5 13t-1.5 16.5v15v86v15t1.5 16.5t5 13t10.5 5.5t10.5 -5.5t5 -13t1.5 -16.5v-15v-86zM1623 70l-44 123h-33v-257h40v126l45 -126h32v257h-40v-123z" />
    <glyph glyph-name="three" unicode="3" horiz-adv-x="1871" 
d="M196 193l-30 -161l-29 161h-42l-4 -257h40l1 105l20 -105h30l21 106l2 -106h37l-2 257h-44zM1032 694q-53 0 -62 52q-2 11 -2 22v22q0 24 -1 51.5t5 50.5q6 20 21.5 29.5t34.5 10.5q20 1 37.5 -7t24.5 -28q8 -22 7.5 -49.5t-0.5 -51.5q0 -14 -0.5 -27.5t-3.5 -26.5
q-11 -48 -61 -48zM971 428q-25 0 -41 12.5t-21 36.5q-2 12 -1.5 23.5t0.5 24.5q0 23 -1 49.5t4 49.5q6 21 21 30.5t35 9.5q21 1 38 -6t24 -27q9 -23 7 -50.5t-2 -50.5q0 -16 0.5 -28.5t-2.5 -26.5q-9 -47 -61 -47zM352 70l-44 123h-33v-257h40v126l45 -126h32v257h-40v-123z
M676 32h26v-16.5t-2 -22t-7.5 -17t-16.5 -2.5q-7 2 -10 9t-4 15.5t-0.5 17t0.5 13.5v61q0 12 -0.5 27.5t2.5 28.5q3 5 8.5 8.5t11.5 2.5q13 -4 14 -16q2 -9 1.5 -18.5t-0.5 -20.5h43q0 22 -3 47t-25 39q-12 8 -28 8.5t-30 -4.5q-17 -5 -25.5 -20t-11.5 -32q-2 -18 -1.5 -37
t0.5 -38q0 -18 -0.5 -35.5t1.5 -35.5q2 -15 7.5 -30.5t19.5 -22.5q13 -9 32 -8.5t30 11.5l1 -8h34v134h-67v-38zM686 696v235q23 0 47.5 0.5t44.5 -10.5q12 -8 19 -23.5t7 -32.5t-7 -31.5t-21 -19.5l31 -118h-31l-31 111h-25v-111h-34zM568 70l-21 23q-7 7 -13.5 13t-9.5 17
q-3 8 -0.5 21.5t15.5 12.5q7 -1 10 -7t4.5 -13.5t2 -15.5t0.5 -14l40 2q0 24 -5 48t-28 34q-14 6 -28 5t-25.5 -7t-19 -17.5t-8.5 -26.5q-2 -15 0.5 -31t11.5 -28q3 -8 9.5 -13t12.5 -12q12 -14 26 -29.5t14 -35.5q0 -8 -1.5 -14.5t-8.5 -7.5q-6 -2 -10 1t-6 8
q-6 11 -7 22.5t-2 23.5l-40 -3q0 -17 1.5 -32t8.5 -30q8 -18 25.5 -26t36.5 -4q20 4 31.5 19t13.5 32q6 48 -30 85zM431 696v235h49q18 0 33.5 -4t24.5 -22q5 -10 7.5 -22.5t1.5 -24.5t-6 -23t-14 -18q-13 -11 -31 -11h-33v-110h-32zM1067 430v233h22l66 -156v156h29v-233
h-22l-68 159v-159h-27zM1129 696v235h22l65 -156v156h28v-235h-21l-68 159v-159h-26zM1268 696l49 235h32l49 -235h-30l-12 58h-47l-11 -58h-30zM520 431q-21 -8 -46 -1t-34 32q-5 12 -6 25.5t-1 30.5v145h31v-156q0 -13 2 -30t17 -25q13 -4 21.5 0t13 12t6.5 18.5t2 20.5
q1 20 0.5 37.5t-0.5 37.5v85h33v-107q0 -15 0.5 -34t-2 -37t-11 -33t-26.5 -21zM647 428q-30 0 -45 19t-17 48l31 8q1 -11 2.5 -22t8.5 -19q8 -9 19 -10t19 7q10 8 9 22t-8 23q-5 7 -11.5 14t-14.5 12q-11 11 -24 21.5t-21 23.5q-7 11 -9 24.5t1.5 26.5t11.5 23t22 14
q13 3 29 2t28 -9q11 -8 15 -22.5t5 -28.5l-25 -9q-2 14 -6.5 27.5t-19.5 16.5q-11 2 -19.5 -3.5t-10.5 -17.5q-3 -9 0 -17t9 -15t13.5 -12.5t13.5 -11.5q16 -14 29.5 -28t17.5 -36q7 -27 -8.5 -49t-44.5 -22zM891 694q-29 0 -45.5 19.5t-17.5 47.5l30 8q2 -11 4 -22.5
t9 -18.5q8 -8 19 -9t19 6q9 8 8.5 22t-7.5 25q-6 10 -26 25q-11 10 -23.5 20.5t-20.5 22.5t-10 26.5t1 27t11.5 22.5t22.5 14q13 3 29 1.5t27 -9.5q12 -8 16 -22t5 -28l-25 -8q-2 12 -6.5 26t-19.5 18q-11 1 -20 -4.5t-11 -15.5t1 -18.5t9 -15.5t13.5 -13t14.5 -11
q15 -14 29 -28.5t19 -34.5q5 -29 -10 -51t-45 -22zM752 -96h37l73 322h-41zM728 430v233h91v-25h-58v-76h47v-24h-47v-87h58v-21h-91zM570 696v235h90v-25h-58v-76h47v-24h-47v-87h59v-23h-91zM1369 430v48q0 9 1 18t-1 17q-2 13 -6.5 23.5t-9.5 21.5l-33 105h30l35 -112
l34 112h32l-16 -48t-16 -49l-16 -48q-3 -8 -2.5 -16t0.5 -14v-58h-32zM955 455q7 -4 16 -4t14 4q9 5 12.5 13.5t5.5 17.5q1 5 0.5 12t-0.5 12v83q0 10 -1 20.5t-9 18.5q-13 13 -29 8q-16 -4 -23 -22q-3 -17 -2 -37t1 -37v-42q0 -12 1.5 -26t13.5 -21zM1019 721q13 -5 29 0
q10 5 12.5 13.5t3.5 16.5v109q0 10 -1 20.5t-9 17.5q-5 8 -12.5 9t-15.5 -1q-17 -1 -22 -20q-5 -17 -3 -37.5t2 -37.5v-43q0 -12 1 -26t15 -21zM1423 696v235h32v-212h60v-23h-92zM1220 430v233h32v-212h59v-21h-91zM462 -399q-15 0 -22 6.5t-9.5 16t-2.5 21v20.5
q0 11 0.5 22t4 19t11 12.5t21.5 3.5q12 -1 18.5 -7t9 -15t2.5 -19.5v-19.5v-19.5t-3 -19.5t-10 -15t-20 -6zM563 -251q-14 0 -21 6.5t-9.5 16.5t-2.5 21.5v21.5t0.5 20.5t4 18.5t10.5 13t21 4q12 -1 18 -7t9 -15t3 -19.5v-19.5t-0.5 -20t-3.5 -20t-9.5 -15t-19.5 -6z
M1468 -399q-14 0 -21 6.5t-9.5 16t-2.5 21v20.5q0 11 0.5 22t4 19t11 12.5t21.5 3.5q13 -1 18.5 -7t7.5 -15t1.5 -19.5t-0.5 -19.5v-19.5t-2.5 -19.5t-9 -15t-19.5 -6zM1398 -249v119q11 0 26 0.5t26 -8.5t10 -24.5t-1 -27.5t0.5 -28.5t-13.5 -24.5q-9 -8 -23 -7t-25 1z
M764 -398v119q12 0 24 1t22 -4q7 -4 10.5 -12t3.5 -17t-4 -16.5t-11 -10.5l17 -60h-16l-14 57h-13v-57h-19zM607 -398l2 119h17l21 -95l21 95h17l1 -119h-11l-2 88l-21 -88h-11l-18 88l-2 -88h-14zM510 -398l2 119h18l21 -95l20 95h16l2 -119h-13l-1 88l-20 -88h-11l-19 88
l-1 -88h-14zM1254 -398v119q11 0 23 1t23 -4q6 -4 10 -12t4 -17t-3.5 -16.5t-10.5 -10.5l15 -60h-15l-15 57h-14v-57h-17zM612 -249v119q11 0 22.5 1t21.5 -4q7 -4 11 -12.5t4.5 -17.5t-3 -16.5t-12.5 -10.5l18 -59h-17l-17 55h-12v-55h-16zM624 252v121h30t26 -12
q4 -11 3 -25t-9 -21q-8 -6 -16.5 -6.5t-17.5 -0.5v-56h-16zM782 -249v119h15v-52h31v52h18v-119h-18v55h-31v-55h-15zM1519 -398v119h10l35 -79v79h13v-119h-11l-35 82v-82h-12zM1320 -249v119h10l35 -79v79h13v-119h-10l-34 80v-80h-14zM807 252l26 121h16l26 -121h-18
l-5 32h-25l-5 -32h-15zM1242 -249l23 119h18l25 -119h-16l-6 30h-24l-7 -30h-13zM948 -398l25 119h17l25 -119h-15l-5 31h-26l-5 -31h-16zM1478 480l-9 183h30l-10 -183h-11zM463 830q8 0 16 -0.5t18 1.5q12 3 15.5 12.5t3.5 20.5q1 13 -2 25t-17 16q-10 2 -18 1.5t-16 -0.5
v-76zM1061 -249q-17 -5 -29.5 2.5t-16.5 24.5q-2 8 -1 15t1 13v64h15v-53q0 -5 -0.5 -14.5t0.5 -18.5t4.5 -16t11.5 -7t12 7t5.5 16t1 18.5t-0.5 14.5v53h14v-54q0 -8 0.5 -17.5t-0.5 -19t-4.5 -17.5t-12.5 -11zM384 -399q-15 0 -22 9t-9 21.5t-1.5 27t0.5 25.5q0 16 8.5 28
t28.5 10q18 -2 22 -14.5t4 -26.5h-16q0 5 0.5 10.5t-2.5 10.5q-2 8 -11 9t-13 -7q-6 -6 -4.5 -20t1.5 -23q0 -7 -1.5 -20t5.5 -21q3 -7 12 -5.5t11 9.5q3 5 2.5 11t-0.5 11h16q0 -15 -5 -30t-26 -15zM871 -399q-16 0 -22.5 9t-8 21.5t-0.5 27t1 25.5q0 16 7.5 28t27.5 10
q19 -2 23 -14.5t4 -26.5h-18q0 5 1 10.5t-2 10.5q-2 8 -10.5 9t-13.5 -7q-6 -6 -5 -20t1 -23q0 -7 -1 -20t6 -21q4 -7 12.5 -5.5t10.5 9.5q3 5 2 11t-1 11h18q0 -15 -5 -30t-27 -15zM1360 -399q-16 0 -23.5 10.5t-9.5 24.5l16 4q0 -6 2 -13.5t8 -9.5q9 -5 14 -0.5t5 11.5
q0 12 -10.5 21.5t-18.5 15.5q-11 11 -15 26.5t10 25.5q7 5 16.5 6t15.5 -3q8 -2 11.5 -10.5t4.5 -16.5l-14 -5l-2 12t-6 11q-16 4 -20 -9q-4 -9 3.5 -16t14.5 -13q7 -8 14.5 -15.5t9.5 -18.5q5 -14 -3 -26t-23 -12zM720 830h16t17 2q11 5 14.5 15.5t1.5 23.5q0 11 -2.5 19
t-13.5 13q-8 4 -17 3.5t-16 -0.5v-76zM914 251q-14 0 -22.5 10t-9.5 25l16 5q0 -6 2 -14t8 -12q8 -2 13.5 2.5t5.5 11.5q0 12 -10.5 21.5t-18.5 17.5q-11 9 -15 24t9 27q7 4 16 4.5t16 -1.5q9 -4 12.5 -12.5t4.5 -16.5l-14 -3q-1 5 -2.5 11t-6.5 11q-6 2 -11.5 0t-7.5 -10
q-3 -8 4 -16t12 -14q8 -6 16 -13.5t10 -18.5q5 -14 -3 -26.5t-24 -12.5zM1188 251q-16 0 -23 10t-8 25l16 5q0 -6 2.5 -14t8.5 -12q8 -2 12.5 2.5t4.5 11.5q1 12 -9.5 21.5t-18.5 17.5q-11 9 -15.5 24t8.5 27q17 8 33 3q8 -4 11.5 -12.5t4.5 -16.5l-14 -3q-1 5 -2.5 11
t-6.5 11q-5 2 -10.5 0t-6.5 -10q-6 -8 2 -16l14 -14q7 -6 14.5 -13.5t9.5 -18.5q5 -14 -2.5 -26.5t-24.5 -12.5zM1070 252l-27 121h18l17 -88l19 88h13l-25 -121h-15zM1141 -398l-27 119h15l20 -87l16 87h17l-28 -119h-13zM1194 -398v119h48v-10h-31v-39h25v-13h-25v-45h31
v-12h-48zM955 252v121h48v-11h-31v-41h25v-12h-25v-45h32v-12h-49zM705 -398v119h47v-10h-30v-39h25v-13h-25v-45h30v-12h-47zM555 -237q10 -5 14.5 -1t6.5 11.5t2 16.5v15q0 4 0.5 12t0.5 16t-2 14.5t-6 9.5q-11 6 -18 -2t-7 -18v-19q0 -4 -0.5 -12.5t-0.5 -17t2 -16
t8 -9.5zM864 -249v119h46v-12h-29v-40h25v-12h-25v-45h29v-10h-46zM753 252v121h46v-11h-31v-41h26v-12h-26v-45h31v-12h-46zM453 -382q10 -6 15 -2.5t7 10.5t2 16v15q0 4 0.5 12t0 15.5t-2 14t-5.5 8.5q-13 8 -18.5 0t-5.5 -17q-1 -5 -0.5 -9.5t0.5 -8.5q0 -5 -0.5 -13
t-0.5 -17t1.5 -16t6.5 -8zM1460 -382q10 -6 15 -2.5t7.5 10.5t2.5 16v15q0 4 0.5 12t-0.5 15.5t-3 14t-6 8.5q-12 8 -17 0t-5 -17v-18q0 -5 -1 -13t-1 -17t1.5 -16t6.5 -8zM474 -249v119h46v-12h-28v-40h22v-12h-22v-55h-18zM1414 -239q11 0 18.5 2t9.5 15v63q-1 13 -9 15
t-19 2v-97zM735 -249v107h-22v12h61v-12h-22v-107h-17zM1154 -249v119h17v-109h30v-10h-47zM960 -249v119h45v-12h-32v-40h24v-12h-24v-55h-13zM1281 252v110h-23v11h58v-11h-20v-110h-15zM1097 -249v119h16v-109h30v-10h-46zM695 252v121h15v-109h31v-12h-46zM1028 -398
v119h15v-107h32v-12h-47zM1313 778h40l-20 107zM1230 252v121h18v-121h-18zM919 -398v119h17v-119h-17zM420 -64h43v48h-43v-48zM1125 252v121h16v-121h-16zM1402 -398v119h15v-119h-15zM640 320h9t10 2q6 3 7 9t1 13q-1 14 -8.5 16t-18.5 2v-42zM1469 430v33h30v-33h-30z
M628 -182q11 0 19 3.5t8 17.5t-8 16.5t-19 2.5v-40zM1271 -328q11 0 19 2.5t8 16.5q0 12 -8 16t-19 4v-39zM783 -328q11 0 18 2.5t7 16.5q0 12 -7 16t-18 4v-39zM828 295h22l-9 55zM1264 -207h21l-11 54zM971 -356h21l-10 55zM1337 193l-30 -161l-29 161h-42l-4 -257h40
l1 105l20 -105h30l21 106l2 -106h37l-2 257h-44zM906 193v-204q0 -19 -16 -17q-7 1 -10 7t-4.5 13.5t-2 15.5t-0.5 14l-40 -2q0 -24 5 -48t28 -34q8 -4 15.5 -5t15.5 0q20 2 36 16t16 38v206h-43zM1013 193l-47 -257h43l10 61h28l8 -61h43l-45 257h-40zM1025 35l8 51l7 -51
h-15zM1174 -64v77l46 180h-43l-24 -120l-22 120h-43l43 -176v-81h43zM1766 -64v212h36v45h-116v-45h37v-212h43zM1520 110q0 19 -2.5 35t-9 27.5t-17.5 18t-28 6.5q-35 0 -46 -25t-11 -62v-90q0 -19 2.5 -35t9 -27.5t17.5 -18t28 -6.5q34 0 45.5 24.5t11.5 62.5v90zM1480 22
v-15t-1.5 -16.5t-5 -13t-10.5 -5.5t-10.5 5.5t-5 13t-1.5 16.5v15v86v15t1.5 16.5t5 13t10.5 5.5t10.5 -5.5t5 -13t1.5 -16.5v-15v-86zM1623 70l-44 123h-33v-257h40v126l45 -126h32v257h-40v-123z" />
    <glyph glyph-name="four" unicode="4" horiz-adv-x="1871" 
d="M196 193l-30 -161l-29 161h-42l-4 -257h40l1 105l20 -105h30l21 106l2 -106h37l-2 257h-44zM1032 694q-53 0 -62 52q-2 11 -2 22v22q0 24 -1 51.5t5 50.5q6 20 21.5 29.5t34.5 10.5q20 1 37.5 -7t24.5 -28q8 -22 7.5 -49.5t-0.5 -51.5q0 -14 -0.5 -27.5t-3.5 -26.5
q-11 -48 -61 -48zM971 428q-25 0 -41 12.5t-21 36.5q-2 12 -1.5 23.5t0.5 24.5q0 23 -1 49.5t4 49.5q6 21 21 30.5t35 9.5q21 1 38 -6t24 -27q9 -23 7 -50.5t-2 -50.5q0 -16 0.5 -28.5t-2.5 -26.5q-9 -47 -61 -47zM352 70l-44 123h-33v-257h40v126l45 -126h32v257h-40v-123z
M676 32h26v-16.5t-2 -22t-7.5 -17t-16.5 -2.5q-7 2 -10 9t-4 15.5t-0.5 17t0.5 13.5v61q0 12 -0.5 27.5t2.5 28.5q3 5 8.5 8.5t11.5 2.5q13 -4 14 -16q2 -9 1.5 -18.5t-0.5 -20.5h43q0 22 -3 47t-25 39q-12 8 -28 8.5t-30 -4.5q-17 -5 -25.5 -20t-11.5 -32q-2 -18 -1.5 -37
t0.5 -38q0 -18 -0.5 -35.5t1.5 -35.5q2 -15 7.5 -30.5t19.5 -22.5q13 -9 32 -8.5t30 11.5l1 -8h34v134h-67v-38zM686 696v235q23 0 47.5 0.5t44.5 -10.5q12 -8 19 -23.5t7 -32.5t-7 -31.5t-21 -19.5l31 -118h-31l-31 111h-25v-111h-34zM568 70l-21 23q-7 7 -13.5 13t-9.5 17
q-3 8 -0.5 21.5t15.5 12.5q7 -1 10 -7t4.5 -13.5t2 -15.5t0.5 -14l40 2q0 24 -5 48t-28 34q-14 6 -28 5t-25.5 -7t-19 -17.5t-8.5 -26.5q-2 -15 0.5 -31t11.5 -28q3 -8 9.5 -13t12.5 -12q12 -14 26 -29.5t14 -35.5q0 -8 -1.5 -14.5t-8.5 -7.5q-6 -2 -10 1t-6 8
q-6 11 -7 22.5t-2 23.5l-40 -3q0 -17 1.5 -32t8.5 -30q8 -18 25.5 -26t36.5 -4q20 4 31.5 19t13.5 32q6 48 -30 85zM431 696v235h49q18 0 33.5 -4t24.5 -22q5 -10 7.5 -22.5t1.5 -24.5t-6 -23t-14 -18q-13 -11 -31 -11h-33v-110h-32zM1067 430v233h22l66 -156v156h29v-233
h-22l-68 159v-159h-27zM1129 696v235h22l65 -156v156h28v-235h-21l-68 159v-159h-26zM1268 696l49 235h32l49 -235h-30l-12 58h-47l-11 -58h-30zM520 431q-21 -8 -46 -1t-34 32q-5 12 -6 25.5t-1 30.5v145h31v-156q0 -13 2 -30t17 -25q13 -4 21.5 0t13 12t6.5 18.5t2 20.5
q1 20 0.5 37.5t-0.5 37.5v85h33v-107q0 -15 0.5 -34t-2 -37t-11 -33t-26.5 -21zM647 428q-30 0 -45 19t-17 48l31 8q1 -11 2.5 -22t8.5 -19q8 -9 19 -10t19 7q10 8 9 22t-8 23q-5 7 -11.5 14t-14.5 12q-11 11 -24 21.5t-21 23.5q-7 11 -9 24.5t1.5 26.5t11.5 23t22 14
q13 3 29 2t28 -9q11 -8 15 -22.5t5 -28.5l-25 -9q-2 14 -6.5 27.5t-19.5 16.5q-11 2 -19.5 -3.5t-10.5 -17.5q-3 -9 0 -17t9 -15t13.5 -12.5t13.5 -11.5q16 -14 29.5 -28t17.5 -36q7 -27 -8.5 -49t-44.5 -22zM891 694q-29 0 -45.5 19.5t-17.5 47.5l30 8q2 -11 4 -22.5
t9 -18.5q8 -8 19 -9t19 6q9 8 8.5 22t-7.5 25q-6 10 -26 25q-11 10 -23.5 20.5t-20.5 22.5t-10 26.5t1 27t11.5 22.5t22.5 14q13 3 29 1.5t27 -9.5q12 -8 16 -22t5 -28l-25 -8q-2 12 -6.5 26t-19.5 18q-11 1 -20 -4.5t-11 -15.5t1 -18.5t9 -15.5t13.5 -13t14.5 -11
q15 -14 29 -28.5t19 -34.5q5 -29 -10 -51t-45 -22zM752 -96h37l73 322h-41zM728 430v233h91v-25h-58v-76h47v-24h-47v-87h58v-21h-91zM570 696v235h90v-25h-58v-76h47v-24h-47v-87h59v-23h-91zM1369 430v48q0 9 1 18t-1 17q-2 13 -6.5 23.5t-9.5 21.5l-33 105h30l35 -112
l34 112h32l-16 -48t-16 -49l-16 -48q-3 -8 -2.5 -16t0.5 -14v-58h-32zM955 455q7 -4 16 -4t14 4q9 5 12.5 13.5t5.5 17.5q1 5 0.5 12t-0.5 12v83q0 10 -1 20.5t-9 18.5q-13 13 -29 8q-16 -4 -23 -22q-3 -17 -2 -37t1 -37v-42q0 -12 1.5 -26t13.5 -21zM1019 721q13 -5 29 0
q10 5 12.5 13.5t3.5 16.5v109q0 10 -1 20.5t-9 17.5q-5 8 -12.5 9t-15.5 -1q-17 -1 -22 -20q-5 -17 -3 -37.5t2 -37.5v-43q0 -12 1 -26t15 -21zM1423 696v235h32v-212h60v-23h-92zM1220 430v233h32v-212h59v-21h-91zM462 -399q-15 0 -22 6.5t-9.5 16t-2.5 21v20.5
q0 11 0.5 22t4 19t11 12.5t21.5 3.5q12 -1 18.5 -7t9 -15t2.5 -19.5v-19.5v-19.5t-3 -19.5t-10 -15t-20 -6zM563 -251q-14 0 -21 6.5t-9.5 16.5t-2.5 21.5v21.5t0.5 20.5t4 18.5t10.5 13t21 4q12 -1 18 -7t9 -15t3 -19.5v-19.5t-0.5 -20t-3.5 -20t-9.5 -15t-19.5 -6z
M1468 -399q-14 0 -21 6.5t-9.5 16t-2.5 21v20.5q0 11 0.5 22t4 19t11 12.5t21.5 3.5q13 -1 18.5 -7t7.5 -15t1.5 -19.5t-0.5 -19.5v-19.5t-2.5 -19.5t-9 -15t-19.5 -6zM1398 -249v119q11 0 26 0.5t26 -8.5t10 -24.5t-1 -27.5t0.5 -28.5t-13.5 -24.5q-9 -8 -23 -7t-25 1z
M764 -398v119q12 0 24 1t22 -4q7 -4 10.5 -12t3.5 -17t-4 -16.5t-11 -10.5l17 -60h-16l-14 57h-13v-57h-19zM607 -398l2 119h17l21 -95l21 95h17l1 -119h-11l-2 88l-21 -88h-11l-18 88l-2 -88h-14zM510 -398l2 119h18l21 -95l20 95h16l2 -119h-13l-1 88l-20 -88h-11l-19 88
l-1 -88h-14zM1254 -398v119q11 0 23 1t23 -4q6 -4 10 -12t4 -17t-3.5 -16.5t-10.5 -10.5l15 -60h-15l-15 57h-14v-57h-17zM612 -249v119q11 0 22.5 1t21.5 -4q7 -4 11 -12.5t4.5 -17.5t-3 -16.5t-12.5 -10.5l18 -59h-17l-17 55h-12v-55h-16zM624 252v121h30t26 -12
q4 -11 3 -25t-9 -21q-8 -6 -16.5 -6.5t-17.5 -0.5v-56h-16zM782 -249v119h15v-52h31v52h18v-119h-18v55h-31v-55h-15zM1519 -398v119h10l35 -79v79h13v-119h-11l-35 82v-82h-12zM1320 -249v119h10l35 -79v79h13v-119h-10l-34 80v-80h-14zM807 252l26 121h16l26 -121h-18
l-5 32h-25l-5 -32h-15zM1242 -249l23 119h18l25 -119h-16l-6 30h-24l-7 -30h-13zM948 -398l25 119h17l25 -119h-15l-5 31h-26l-5 -31h-16zM1478 480l-9 183h30l-10 -183h-11zM463 830q8 0 16 -0.5t18 1.5q12 3 15.5 12.5t3.5 20.5q1 13 -2 25t-17 16q-10 2 -18 1.5t-16 -0.5
v-76zM1061 -249q-17 -5 -29.5 2.5t-16.5 24.5q-2 8 -1 15t1 13v64h15v-53q0 -5 -0.5 -14.5t0.5 -18.5t4.5 -16t11.5 -7t12 7t5.5 16t1 18.5t-0.5 14.5v53h14v-54q0 -8 0.5 -17.5t-0.5 -19t-4.5 -17.5t-12.5 -11zM384 -399q-15 0 -22 9t-9 21.5t-1.5 27t0.5 25.5q0 16 8.5 28
t28.5 10q18 -2 22 -14.5t4 -26.5h-16q0 5 0.5 10.5t-2.5 10.5q-2 8 -11 9t-13 -7q-6 -6 -4.5 -20t1.5 -23q0 -7 -1.5 -20t5.5 -21q3 -7 12 -5.5t11 9.5q3 5 2.5 11t-0.5 11h16q0 -15 -5 -30t-26 -15zM871 -399q-16 0 -22.5 9t-8 21.5t-0.5 27t1 25.5q0 16 7.5 28t27.5 10
q19 -2 23 -14.5t4 -26.5h-18q0 5 1 10.5t-2 10.5q-2 8 -10.5 9t-13.5 -7q-6 -6 -5 -20t1 -23q0 -7 -1 -20t6 -21q4 -7 12.5 -5.5t10.5 9.5q3 5 2 11t-1 11h18q0 -15 -5 -30t-27 -15zM1360 -399q-16 0 -23.5 10.5t-9.5 24.5l16 4q0 -6 2 -13.5t8 -9.5q9 -5 14 -0.5t5 11.5
q0 12 -10.5 21.5t-18.5 15.5q-11 11 -15 26.5t10 25.5q7 5 16.5 6t15.5 -3q8 -2 11.5 -10.5t4.5 -16.5l-14 -5l-2 12t-6 11q-16 4 -20 -9q-4 -9 3.5 -16t14.5 -13q7 -8 14.5 -15.5t9.5 -18.5q5 -14 -3 -26t-23 -12zM720 830h16t17 2q11 5 14.5 15.5t1.5 23.5q0 11 -2.5 19
t-13.5 13q-8 4 -17 3.5t-16 -0.5v-76zM914 251q-14 0 -22.5 10t-9.5 25l16 5q0 -6 2 -14t8 -12q8 -2 13.5 2.5t5.5 11.5q0 12 -10.5 21.5t-18.5 17.5q-11 9 -15 24t9 27q7 4 16 4.5t16 -1.5q9 -4 12.5 -12.5t4.5 -16.5l-14 -3q-1 5 -2.5 11t-6.5 11q-6 2 -11.5 0t-7.5 -10
q-3 -8 4 -16t12 -14q8 -6 16 -13.5t10 -18.5q5 -14 -3 -26.5t-24 -12.5zM1188 251q-16 0 -23 10t-8 25l16 5q0 -6 2.5 -14t8.5 -12q8 -2 12.5 2.5t4.5 11.5q1 12 -9.5 21.5t-18.5 17.5q-11 9 -15.5 24t8.5 27q17 8 33 3q8 -4 11.5 -12.5t4.5 -16.5l-14 -3q-1 5 -2.5 11
t-6.5 11q-5 2 -10.5 0t-6.5 -10q-6 -8 2 -16l14 -14q7 -6 14.5 -13.5t9.5 -18.5q5 -14 -2.5 -26.5t-24.5 -12.5zM1070 252l-27 121h18l17 -88l19 88h13l-25 -121h-15zM1141 -398l-27 119h15l20 -87l16 87h17l-28 -119h-13zM1194 -398v119h48v-10h-31v-39h25v-13h-25v-45h31
v-12h-48zM955 252v121h48v-11h-31v-41h25v-12h-25v-45h32v-12h-49zM705 -398v119h47v-10h-30v-39h25v-13h-25v-45h30v-12h-47zM555 -237q10 -5 14.5 -1t6.5 11.5t2 16.5v15q0 4 0.5 12t0.5 16t-2 14.5t-6 9.5q-11 6 -18 -2t-7 -18v-19q0 -4 -0.5 -12.5t-0.5 -17t2 -16
t8 -9.5zM864 -249v119h46v-12h-29v-40h25v-12h-25v-45h29v-10h-46zM753 252v121h46v-11h-31v-41h26v-12h-26v-45h31v-12h-46zM453 -382q10 -6 15 -2.5t7 10.5t2 16v15q0 4 0.5 12t0 15.5t-2 14t-5.5 8.5q-13 8 -18.5 0t-5.5 -17q-1 -5 -0.5 -9.5t0.5 -8.5q0 -5 -0.5 -13
t-0.5 -17t1.5 -16t6.5 -8zM1460 -382q10 -6 15 -2.5t7.5 10.5t2.5 16v15q0 4 0.5 12t-0.5 15.5t-3 14t-6 8.5q-12 8 -17 0t-5 -17v-18q0 -5 -1 -13t-1 -17t1.5 -16t6.5 -8zM474 -249v119h46v-12h-28v-40h22v-12h-22v-55h-18zM1414 -239q11 0 18.5 2t9.5 15v63q-1 13 -9 15
t-19 2v-97zM735 -249v107h-22v12h61v-12h-22v-107h-17zM1154 -249v119h17v-109h30v-10h-47zM960 -249v119h45v-12h-32v-40h24v-12h-24v-55h-13zM1281 252v110h-23v11h58v-11h-20v-110h-15zM1097 -249v119h16v-109h30v-10h-46zM695 252v121h15v-109h31v-12h-46zM1028 -398
v119h15v-107h32v-12h-47zM1313 778h40l-20 107zM1230 252v121h18v-121h-18zM919 -398v119h17v-119h-17zM420 -64h43v48h-43v-48zM1125 252v121h16v-121h-16zM1402 -398v119h15v-119h-15zM640 320h9t10 2q6 3 7 9t1 13q-1 14 -8.5 16t-18.5 2v-42zM1469 430v33h30v-33h-30z
M628 -182q11 0 19 3.5t8 17.5t-8 16.5t-19 2.5v-40zM1271 -328q11 0 19 2.5t8 16.5q0 12 -8 16t-19 4v-39zM783 -328q11 0 18 2.5t7 16.5q0 12 -7 16t-18 4v-39zM828 295h22l-9 55zM1264 -207h21l-11 54zM971 -356h21l-10 55zM1337 193l-30 -161l-29 161h-42l-4 -257h40
l1 105l20 -105h30l21 106l2 -106h37l-2 257h-44zM906 193v-204q0 -19 -16 -17q-7 1 -10 7t-4.5 13.5t-2 15.5t-0.5 14l-40 -2q0 -24 5 -48t28 -34q8 -4 15.5 -5t15.5 0q20 2 36 16t16 38v206h-43zM1013 193l-47 -257h43l10 61h28l8 -61h43l-45 257h-40zM1025 35l8 51l7 -51
h-15zM1174 -64v77l46 180h-43l-24 -120l-22 120h-43l43 -176v-81h43zM1766 -64v212h36v45h-116v-45h37v-212h43zM1520 110q0 19 -2.5 35t-9 27.5t-17.5 18t-28 6.5q-35 0 -46 -25t-11 -62v-90q0 -19 2.5 -35t9 -27.5t17.5 -18t28 -6.5q34 0 45.5 24.5t11.5 62.5v90zM1480 22
v-15t-1.5 -16.5t-5 -13t-10.5 -5.5t-10.5 5.5t-5 13t-1.5 16.5v15v86v15t1.5 16.5t5 13t10.5 5.5t10.5 -5.5t5 -13t1.5 -16.5v-15v-86zM1623 70l-44 123h-33v-257h40v126l45 -126h32v257h-40v-123z" />
    <glyph glyph-name="five" unicode="5" horiz-adv-x="1871" 
d="M196 193l-30 -161l-29 161h-42l-4 -257h40l1 105l20 -105h30l21 106l2 -106h37l-2 257h-44zM1032 694q-53 0 -62 52q-2 11 -2 22v22q0 24 -1 51.5t5 50.5q6 20 21.5 29.5t34.5 10.5q20 1 37.5 -7t24.5 -28q8 -22 7.5 -49.5t-0.5 -51.5q0 -14 -0.5 -27.5t-3.5 -26.5
q-11 -48 -61 -48zM971 428q-25 0 -41 12.5t-21 36.5q-2 12 -1.5 23.5t0.5 24.5q0 23 -1 49.5t4 49.5q6 21 21 30.5t35 9.5q21 1 38 -6t24 -27q9 -23 7 -50.5t-2 -50.5q0 -16 0.5 -28.5t-2.5 -26.5q-9 -47 -61 -47zM352 70l-44 123h-33v-257h40v126l45 -126h32v257h-40v-123z
M676 32h26v-16.5t-2 -22t-7.5 -17t-16.5 -2.5q-7 2 -10 9t-4 15.5t-0.5 17t0.5 13.5v61q0 12 -0.5 27.5t2.5 28.5q3 5 8.5 8.5t11.5 2.5q13 -4 14 -16q2 -9 1.5 -18.5t-0.5 -20.5h43q0 22 -3 47t-25 39q-12 8 -28 8.5t-30 -4.5q-17 -5 -25.5 -20t-11.5 -32q-2 -18 -1.5 -37
t0.5 -38q0 -18 -0.5 -35.5t1.5 -35.5q2 -15 7.5 -30.5t19.5 -22.5q13 -9 32 -8.5t30 11.5l1 -8h34v134h-67v-38zM686 696v235q23 0 47.5 0.5t44.5 -10.5q12 -8 19 -23.5t7 -32.5t-7 -31.5t-21 -19.5l31 -118h-31l-31 111h-25v-111h-34zM568 70l-21 23q-7 7 -13.5 13t-9.5 17
q-3 8 -0.5 21.5t15.5 12.5q7 -1 10 -7t4.5 -13.5t2 -15.5t0.5 -14l40 2q0 24 -5 48t-28 34q-14 6 -28 5t-25.5 -7t-19 -17.5t-8.5 -26.5q-2 -15 0.5 -31t11.5 -28q3 -8 9.5 -13t12.5 -12q12 -14 26 -29.5t14 -35.5q0 -8 -1.5 -14.5t-8.5 -7.5q-6 -2 -10 1t-6 8
q-6 11 -7 22.5t-2 23.5l-40 -3q0 -17 1.5 -32t8.5 -30q8 -18 25.5 -26t36.5 -4q20 4 31.5 19t13.5 32q6 48 -30 85zM431 696v235h49q18 0 33.5 -4t24.5 -22q5 -10 7.5 -22.5t1.5 -24.5t-6 -23t-14 -18q-13 -11 -31 -11h-33v-110h-32zM1067 430v233h22l66 -156v156h29v-233
h-22l-68 159v-159h-27zM1129 696v235h22l65 -156v156h28v-235h-21l-68 159v-159h-26zM1268 696l49 235h32l49 -235h-30l-12 58h-47l-11 -58h-30zM520 431q-21 -8 -46 -1t-34 32q-5 12 -6 25.5t-1 30.5v145h31v-156q0 -13 2 -30t17 -25q13 -4 21.5 0t13 12t6.5 18.5t2 20.5
q1 20 0.5 37.5t-0.5 37.5v85h33v-107q0 -15 0.5 -34t-2 -37t-11 -33t-26.5 -21zM647 428q-30 0 -45 19t-17 48l31 8q1 -11 2.5 -22t8.5 -19q8 -9 19 -10t19 7q10 8 9 22t-8 23q-5 7 -11.5 14t-14.5 12q-11 11 -24 21.5t-21 23.5q-7 11 -9 24.5t1.5 26.5t11.5 23t22 14
q13 3 29 2t28 -9q11 -8 15 -22.5t5 -28.5l-25 -9q-2 14 -6.5 27.5t-19.5 16.5q-11 2 -19.5 -3.5t-10.5 -17.5q-3 -9 0 -17t9 -15t13.5 -12.5t13.5 -11.5q16 -14 29.5 -28t17.5 -36q7 -27 -8.5 -49t-44.5 -22zM891 694q-29 0 -45.5 19.5t-17.5 47.5l30 8q2 -11 4 -22.5
t9 -18.5q8 -8 19 -9t19 6q9 8 8.5 22t-7.5 25q-6 10 -26 25q-11 10 -23.5 20.5t-20.5 22.5t-10 26.5t1 27t11.5 22.5t22.5 14q13 3 29 1.5t27 -9.5q12 -8 16 -22t5 -28l-25 -8q-2 12 -6.5 26t-19.5 18q-11 1 -20 -4.5t-11 -15.5t1 -18.5t9 -15.5t13.5 -13t14.5 -11
q15 -14 29 -28.5t19 -34.5q5 -29 -10 -51t-45 -22zM752 -96h37l73 322h-41zM728 430v233h91v-25h-58v-76h47v-24h-47v-87h58v-21h-91zM570 696v235h90v-25h-58v-76h47v-24h-47v-87h59v-23h-91zM1369 430v48q0 9 1 18t-1 17q-2 13 -6.5 23.5t-9.5 21.5l-33 105h30l35 -112
l34 112h32l-16 -48t-16 -49l-16 -48q-3 -8 -2.5 -16t0.5 -14v-58h-32zM955 455q7 -4 16 -4t14 4q9 5 12.5 13.5t5.5 17.5q1 5 0.5 12t-0.5 12v83q0 10 -1 20.5t-9 18.5q-13 13 -29 8q-16 -4 -23 -22q-3 -17 -2 -37t1 -37v-42q0 -12 1.5 -26t13.5 -21zM1019 721q13 -5 29 0
q10 5 12.5 13.5t3.5 16.5v109q0 10 -1 20.5t-9 17.5q-5 8 -12.5 9t-15.5 -1q-17 -1 -22 -20q-5 -17 -3 -37.5t2 -37.5v-43q0 -12 1 -26t15 -21zM1423 696v235h32v-212h60v-23h-92zM1220 430v233h32v-212h59v-21h-91zM462 -399q-15 0 -22 6.5t-9.5 16t-2.5 21v20.5
q0 11 0.5 22t4 19t11 12.5t21.5 3.5q12 -1 18.5 -7t9 -15t2.5 -19.5v-19.5v-19.5t-3 -19.5t-10 -15t-20 -6zM563 -251q-14 0 -21 6.5t-9.5 16.5t-2.5 21.5v21.5t0.5 20.5t4 18.5t10.5 13t21 4q12 -1 18 -7t9 -15t3 -19.5v-19.5t-0.5 -20t-3.5 -20t-9.5 -15t-19.5 -6z
M1468 -399q-14 0 -21 6.5t-9.5 16t-2.5 21v20.5q0 11 0.5 22t4 19t11 12.5t21.5 3.5q13 -1 18.5 -7t7.5 -15t1.5 -19.5t-0.5 -19.5v-19.5t-2.5 -19.5t-9 -15t-19.5 -6zM1398 -249v119q11 0 26 0.5t26 -8.5t10 -24.5t-1 -27.5t0.5 -28.5t-13.5 -24.5q-9 -8 -23 -7t-25 1z
M764 -398v119q12 0 24 1t22 -4q7 -4 10.5 -12t3.5 -17t-4 -16.5t-11 -10.5l17 -60h-16l-14 57h-13v-57h-19zM607 -398l2 119h17l21 -95l21 95h17l1 -119h-11l-2 88l-21 -88h-11l-18 88l-2 -88h-14zM510 -398l2 119h18l21 -95l20 95h16l2 -119h-13l-1 88l-20 -88h-11l-19 88
l-1 -88h-14zM1254 -398v119q11 0 23 1t23 -4q6 -4 10 -12t4 -17t-3.5 -16.5t-10.5 -10.5l15 -60h-15l-15 57h-14v-57h-17zM612 -249v119q11 0 22.5 1t21.5 -4q7 -4 11 -12.5t4.5 -17.5t-3 -16.5t-12.5 -10.5l18 -59h-17l-17 55h-12v-55h-16zM624 252v121h30t26 -12
q4 -11 3 -25t-9 -21q-8 -6 -16.5 -6.5t-17.5 -0.5v-56h-16zM782 -249v119h15v-52h31v52h18v-119h-18v55h-31v-55h-15zM1519 -398v119h10l35 -79v79h13v-119h-11l-35 82v-82h-12zM1320 -249v119h10l35 -79v79h13v-119h-10l-34 80v-80h-14zM807 252l26 121h16l26 -121h-18
l-5 32h-25l-5 -32h-15zM1242 -249l23 119h18l25 -119h-16l-6 30h-24l-7 -30h-13zM948 -398l25 119h17l25 -119h-15l-5 31h-26l-5 -31h-16zM1478 480l-9 183h30l-10 -183h-11zM463 830q8 0 16 -0.5t18 1.5q12 3 15.5 12.5t3.5 20.5q1 13 -2 25t-17 16q-10 2 -18 1.5t-16 -0.5
v-76zM1061 -249q-17 -5 -29.5 2.5t-16.5 24.5q-2 8 -1 15t1 13v64h15v-53q0 -5 -0.5 -14.5t0.5 -18.5t4.5 -16t11.5 -7t12 7t5.5 16t1 18.5t-0.5 14.5v53h14v-54q0 -8 0.5 -17.5t-0.5 -19t-4.5 -17.5t-12.5 -11zM384 -399q-15 0 -22 9t-9 21.5t-1.5 27t0.5 25.5q0 16 8.5 28
t28.5 10q18 -2 22 -14.5t4 -26.5h-16q0 5 0.5 10.5t-2.5 10.5q-2 8 -11 9t-13 -7q-6 -6 -4.5 -20t1.5 -23q0 -7 -1.5 -20t5.5 -21q3 -7 12 -5.5t11 9.5q3 5 2.5 11t-0.5 11h16q0 -15 -5 -30t-26 -15zM871 -399q-16 0 -22.5 9t-8 21.5t-0.5 27t1 25.5q0 16 7.5 28t27.5 10
q19 -2 23 -14.5t4 -26.5h-18q0 5 1 10.5t-2 10.5q-2 8 -10.5 9t-13.5 -7q-6 -6 -5 -20t1 -23q0 -7 -1 -20t6 -21q4 -7 12.5 -5.5t10.5 9.5q3 5 2 11t-1 11h18q0 -15 -5 -30t-27 -15zM1360 -399q-16 0 -23.5 10.5t-9.5 24.5l16 4q0 -6 2 -13.5t8 -9.5q9 -5 14 -0.5t5 11.5
q0 12 -10.5 21.5t-18.5 15.5q-11 11 -15 26.5t10 25.5q7 5 16.5 6t15.5 -3q8 -2 11.5 -10.5t4.5 -16.5l-14 -5l-2 12t-6 11q-16 4 -20 -9q-4 -9 3.5 -16t14.5 -13q7 -8 14.5 -15.5t9.5 -18.5q5 -14 -3 -26t-23 -12zM720 830h16t17 2q11 5 14.5 15.5t1.5 23.5q0 11 -2.5 19
t-13.5 13q-8 4 -17 3.5t-16 -0.5v-76zM914 251q-14 0 -22.5 10t-9.5 25l16 5q0 -6 2 -14t8 -12q8 -2 13.5 2.5t5.5 11.5q0 12 -10.5 21.5t-18.5 17.5q-11 9 -15 24t9 27q7 4 16 4.5t16 -1.5q9 -4 12.5 -12.5t4.5 -16.5l-14 -3q-1 5 -2.5 11t-6.5 11q-6 2 -11.5 0t-7.5 -10
q-3 -8 4 -16t12 -14q8 -6 16 -13.5t10 -18.5q5 -14 -3 -26.5t-24 -12.5zM1188 251q-16 0 -23 10t-8 25l16 5q0 -6 2.5 -14t8.5 -12q8 -2 12.5 2.5t4.5 11.5q1 12 -9.5 21.5t-18.5 17.5q-11 9 -15.5 24t8.5 27q17 8 33 3q8 -4 11.5 -12.5t4.5 -16.5l-14 -3q-1 5 -2.5 11
t-6.5 11q-5 2 -10.5 0t-6.5 -10q-6 -8 2 -16l14 -14q7 -6 14.5 -13.5t9.5 -18.5q5 -14 -2.5 -26.5t-24.5 -12.5zM1070 252l-27 121h18l17 -88l19 88h13l-25 -121h-15zM1141 -398l-27 119h15l20 -87l16 87h17l-28 -119h-13zM1194 -398v119h48v-10h-31v-39h25v-13h-25v-45h31
v-12h-48zM955 252v121h48v-11h-31v-41h25v-12h-25v-45h32v-12h-49zM705 -398v119h47v-10h-30v-39h25v-13h-25v-45h30v-12h-47zM555 -237q10 -5 14.5 -1t6.5 11.5t2 16.5v15q0 4 0.5 12t0.5 16t-2 14.5t-6 9.5q-11 6 -18 -2t-7 -18v-19q0 -4 -0.5 -12.5t-0.5 -17t2 -16
t8 -9.5zM864 -249v119h46v-12h-29v-40h25v-12h-25v-45h29v-10h-46zM753 252v121h46v-11h-31v-41h26v-12h-26v-45h31v-12h-46zM453 -382q10 -6 15 -2.5t7 10.5t2 16v15q0 4 0.5 12t0 15.5t-2 14t-5.5 8.5q-13 8 -18.5 0t-5.5 -17q-1 -5 -0.5 -9.5t0.5 -8.5q0 -5 -0.5 -13
t-0.5 -17t1.5 -16t6.5 -8zM1460 -382q10 -6 15 -2.5t7.5 10.5t2.5 16v15q0 4 0.5 12t-0.5 15.5t-3 14t-6 8.5q-12 8 -17 0t-5 -17v-18q0 -5 -1 -13t-1 -17t1.5 -16t6.5 -8zM474 -249v119h46v-12h-28v-40h22v-12h-22v-55h-18zM1414 -239q11 0 18.5 2t9.5 15v63q-1 13 -9 15
t-19 2v-97zM735 -249v107h-22v12h61v-12h-22v-107h-17zM1154 -249v119h17v-109h30v-10h-47zM960 -249v119h45v-12h-32v-40h24v-12h-24v-55h-13zM1281 252v110h-23v11h58v-11h-20v-110h-15zM1097 -249v119h16v-109h30v-10h-46zM695 252v121h15v-109h31v-12h-46zM1028 -398
v119h15v-107h32v-12h-47zM1313 778h40l-20 107zM1230 252v121h18v-121h-18zM919 -398v119h17v-119h-17zM420 -64h43v48h-43v-48zM1125 252v121h16v-121h-16zM1402 -398v119h15v-119h-15zM640 320h9t10 2q6 3 7 9t1 13q-1 14 -8.5 16t-18.5 2v-42zM1469 430v33h30v-33h-30z
M628 -182q11 0 19 3.5t8 17.5t-8 16.5t-19 2.5v-40zM1271 -328q11 0 19 2.5t8 16.5q0 12 -8 16t-19 4v-39zM783 -328q11 0 18 2.5t7 16.5q0 12 -7 16t-18 4v-39zM828 295h22l-9 55zM1264 -207h21l-11 54zM971 -356h21l-10 55zM1337 193l-30 -161l-29 161h-42l-4 -257h40
l1 105l20 -105h30l21 106l2 -106h37l-2 257h-44zM906 193v-204q0 -19 -16 -17q-7 1 -10 7t-4.5 13.5t-2 15.5t-0.5 14l-40 -2q0 -24 5 -48t28 -34q8 -4 15.5 -5t15.5 0q20 2 36 16t16 38v206h-43zM1013 193l-47 -257h43l10 61h28l8 -61h43l-45 257h-40zM1025 35l8 51l7 -51
h-15zM1174 -64v77l46 180h-43l-24 -120l-22 120h-43l43 -176v-81h43zM1766 -64v212h36v45h-116v-45h37v-212h43zM1520 110q0 19 -2.5 35t-9 27.5t-17.5 18t-28 6.5q-35 0 -46 -25t-11 -62v-90q0 -19 2.5 -35t9 -27.5t17.5 -18t28 -6.5q34 0 45.5 24.5t11.5 62.5v90zM1480 22
v-15t-1.5 -16.5t-5 -13t-10.5 -5.5t-10.5 5.5t-5 13t-1.5 16.5v15v86v15t1.5 16.5t5 13t10.5 5.5t10.5 -5.5t5 -13t1.5 -16.5v-15v-86zM1623 70l-44 123h-33v-257h40v126l45 -126h32v257h-40v-123z" />
    <glyph glyph-name="six" unicode="6" horiz-adv-x="1871" 
d="M196 193l-30 -161l-29 161h-42l-4 -257h40l1 105l20 -105h30l21 106l2 -106h37l-2 257h-44zM1032 694q-53 0 -62 52q-2 11 -2 22v22q0 24 -1 51.5t5 50.5q6 20 21.5 29.5t34.5 10.5q20 1 37.5 -7t24.5 -28q8 -22 7.5 -49.5t-0.5 -51.5q0 -14 -0.5 -27.5t-3.5 -26.5
q-11 -48 -61 -48zM971 428q-25 0 -41 12.5t-21 36.5q-2 12 -1.5 23.5t0.5 24.5q0 23 -1 49.5t4 49.5q6 21 21 30.5t35 9.5q21 1 38 -6t24 -27q9 -23 7 -50.5t-2 -50.5q0 -16 0.5 -28.5t-2.5 -26.5q-9 -47 -61 -47zM352 70l-44 123h-33v-257h40v126l45 -126h32v257h-40v-123z
M676 32h26v-16.5t-2 -22t-7.5 -17t-16.5 -2.5q-7 2 -10 9t-4 15.5t-0.5 17t0.5 13.5v61q0 12 -0.5 27.5t2.5 28.5q3 5 8.5 8.5t11.5 2.5q13 -4 14 -16q2 -9 1.5 -18.5t-0.5 -20.5h43q0 22 -3 47t-25 39q-12 8 -28 8.5t-30 -4.5q-17 -5 -25.5 -20t-11.5 -32q-2 -18 -1.5 -37
t0.5 -38q0 -18 -0.5 -35.5t1.5 -35.5q2 -15 7.5 -30.5t19.5 -22.5q13 -9 32 -8.5t30 11.5l1 -8h34v134h-67v-38zM686 696v235q23 0 47.5 0.5t44.5 -10.5q12 -8 19 -23.5t7 -32.5t-7 -31.5t-21 -19.5l31 -118h-31l-31 111h-25v-111h-34zM568 70l-21 23q-7 7 -13.5 13t-9.5 17
q-3 8 -0.5 21.5t15.5 12.5q7 -1 10 -7t4.5 -13.5t2 -15.5t0.5 -14l40 2q0 24 -5 48t-28 34q-14 6 -28 5t-25.5 -7t-19 -17.5t-8.5 -26.5q-2 -15 0.5 -31t11.5 -28q3 -8 9.5 -13t12.5 -12q12 -14 26 -29.5t14 -35.5q0 -8 -1.5 -14.5t-8.5 -7.5q-6 -2 -10 1t-6 8
q-6 11 -7 22.5t-2 23.5l-40 -3q0 -17 1.5 -32t8.5 -30q8 -18 25.5 -26t36.5 -4q20 4 31.5 19t13.5 32q6 48 -30 85zM431 696v235h49q18 0 33.5 -4t24.5 -22q5 -10 7.5 -22.5t1.5 -24.5t-6 -23t-14 -18q-13 -11 -31 -11h-33v-110h-32zM1067 430v233h22l66 -156v156h29v-233
h-22l-68 159v-159h-27zM1129 696v235h22l65 -156v156h28v-235h-21l-68 159v-159h-26zM1268 696l49 235h32l49 -235h-30l-12 58h-47l-11 -58h-30zM520 431q-21 -8 -46 -1t-34 32q-5 12 -6 25.5t-1 30.5v145h31v-156q0 -13 2 -30t17 -25q13 -4 21.5 0t13 12t6.5 18.5t2 20.5
q1 20 0.5 37.5t-0.5 37.5v85h33v-107q0 -15 0.5 -34t-2 -37t-11 -33t-26.5 -21zM647 428q-30 0 -45 19t-17 48l31 8q1 -11 2.5 -22t8.5 -19q8 -9 19 -10t19 7q10 8 9 22t-8 23q-5 7 -11.5 14t-14.5 12q-11 11 -24 21.5t-21 23.5q-7 11 -9 24.5t1.5 26.5t11.5 23t22 14
q13 3 29 2t28 -9q11 -8 15 -22.5t5 -28.5l-25 -9q-2 14 -6.5 27.5t-19.5 16.5q-11 2 -19.5 -3.5t-10.5 -17.5q-3 -9 0 -17t9 -15t13.5 -12.5t13.5 -11.5q16 -14 29.5 -28t17.5 -36q7 -27 -8.5 -49t-44.5 -22zM891 694q-29 0 -45.5 19.5t-17.5 47.5l30 8q2 -11 4 -22.5
t9 -18.5q8 -8 19 -9t19 6q9 8 8.5 22t-7.5 25q-6 10 -26 25q-11 10 -23.5 20.5t-20.5 22.5t-10 26.5t1 27t11.5 22.5t22.5 14q13 3 29 1.5t27 -9.5q12 -8 16 -22t5 -28l-25 -8q-2 12 -6.5 26t-19.5 18q-11 1 -20 -4.5t-11 -15.5t1 -18.5t9 -15.5t13.5 -13t14.5 -11
q15 -14 29 -28.5t19 -34.5q5 -29 -10 -51t-45 -22zM752 -96h37l73 322h-41zM728 430v233h91v-25h-58v-76h47v-24h-47v-87h58v-21h-91zM570 696v235h90v-25h-58v-76h47v-24h-47v-87h59v-23h-91zM1369 430v48q0 9 1 18t-1 17q-2 13 -6.5 23.5t-9.5 21.5l-33 105h30l35 -112
l34 112h32l-16 -48t-16 -49l-16 -48q-3 -8 -2.5 -16t0.5 -14v-58h-32zM955 455q7 -4 16 -4t14 4q9 5 12.5 13.5t5.5 17.5q1 5 0.5 12t-0.5 12v83q0 10 -1 20.5t-9 18.5q-13 13 -29 8q-16 -4 -23 -22q-3 -17 -2 -37t1 -37v-42q0 -12 1.5 -26t13.5 -21zM1019 721q13 -5 29 0
q10 5 12.5 13.5t3.5 16.5v109q0 10 -1 20.5t-9 17.5q-5 8 -12.5 9t-15.5 -1q-17 -1 -22 -20q-5 -17 -3 -37.5t2 -37.5v-43q0 -12 1 -26t15 -21zM1423 696v235h32v-212h60v-23h-92zM1220 430v233h32v-212h59v-21h-91zM462 -399q-15 0 -22 6.5t-9.5 16t-2.5 21v20.5
q0 11 0.5 22t4 19t11 12.5t21.5 3.5q12 -1 18.5 -7t9 -15t2.5 -19.5v-19.5v-19.5t-3 -19.5t-10 -15t-20 -6zM563 -251q-14 0 -21 6.5t-9.5 16.5t-2.5 21.5v21.5t0.5 20.5t4 18.5t10.5 13t21 4q12 -1 18 -7t9 -15t3 -19.5v-19.5t-0.5 -20t-3.5 -20t-9.5 -15t-19.5 -6z
M1468 -399q-14 0 -21 6.5t-9.5 16t-2.5 21v20.5q0 11 0.5 22t4 19t11 12.5t21.5 3.5q13 -1 18.5 -7t7.5 -15t1.5 -19.5t-0.5 -19.5v-19.5t-2.5 -19.5t-9 -15t-19.5 -6zM1398 -249v119q11 0 26 0.5t26 -8.5t10 -24.5t-1 -27.5t0.5 -28.5t-13.5 -24.5q-9 -8 -23 -7t-25 1z
M764 -398v119q12 0 24 1t22 -4q7 -4 10.5 -12t3.5 -17t-4 -16.5t-11 -10.5l17 -60h-16l-14 57h-13v-57h-19zM607 -398l2 119h17l21 -95l21 95h17l1 -119h-11l-2 88l-21 -88h-11l-18 88l-2 -88h-14zM510 -398l2 119h18l21 -95l20 95h16l2 -119h-13l-1 88l-20 -88h-11l-19 88
l-1 -88h-14zM1254 -398v119q11 0 23 1t23 -4q6 -4 10 -12t4 -17t-3.5 -16.5t-10.5 -10.5l15 -60h-15l-15 57h-14v-57h-17zM612 -249v119q11 0 22.5 1t21.5 -4q7 -4 11 -12.5t4.5 -17.5t-3 -16.5t-12.5 -10.5l18 -59h-17l-17 55h-12v-55h-16zM624 252v121h30t26 -12
q4 -11 3 -25t-9 -21q-8 -6 -16.5 -6.5t-17.5 -0.5v-56h-16zM782 -249v119h15v-52h31v52h18v-119h-18v55h-31v-55h-15zM1519 -398v119h10l35 -79v79h13v-119h-11l-35 82v-82h-12zM1320 -249v119h10l35 -79v79h13v-119h-10l-34 80v-80h-14zM807 252l26 121h16l26 -121h-18
l-5 32h-25l-5 -32h-15zM1242 -249l23 119h18l25 -119h-16l-6 30h-24l-7 -30h-13zM948 -398l25 119h17l25 -119h-15l-5 31h-26l-5 -31h-16zM1478 480l-9 183h30l-10 -183h-11zM463 830q8 0 16 -0.5t18 1.5q12 3 15.5 12.5t3.5 20.5q1 13 -2 25t-17 16q-10 2 -18 1.5t-16 -0.5
v-76zM1061 -249q-17 -5 -29.5 2.5t-16.5 24.5q-2 8 -1 15t1 13v64h15v-53q0 -5 -0.5 -14.5t0.5 -18.5t4.5 -16t11.5 -7t12 7t5.5 16t1 18.5t-0.5 14.5v53h14v-54q0 -8 0.5 -17.5t-0.5 -19t-4.5 -17.5t-12.5 -11zM384 -399q-15 0 -22 9t-9 21.5t-1.5 27t0.5 25.5q0 16 8.5 28
t28.5 10q18 -2 22 -14.5t4 -26.5h-16q0 5 0.5 10.5t-2.5 10.5q-2 8 -11 9t-13 -7q-6 -6 -4.5 -20t1.5 -23q0 -7 -1.5 -20t5.5 -21q3 -7 12 -5.5t11 9.5q3 5 2.5 11t-0.5 11h16q0 -15 -5 -30t-26 -15zM871 -399q-16 0 -22.5 9t-8 21.5t-0.5 27t1 25.5q0 16 7.5 28t27.5 10
q19 -2 23 -14.5t4 -26.5h-18q0 5 1 10.5t-2 10.5q-2 8 -10.5 9t-13.5 -7q-6 -6 -5 -20t1 -23q0 -7 -1 -20t6 -21q4 -7 12.5 -5.5t10.5 9.5q3 5 2 11t-1 11h18q0 -15 -5 -30t-27 -15zM1360 -399q-16 0 -23.5 10.5t-9.5 24.5l16 4q0 -6 2 -13.5t8 -9.5q9 -5 14 -0.5t5 11.5
q0 12 -10.5 21.5t-18.5 15.5q-11 11 -15 26.5t10 25.5q7 5 16.5 6t15.5 -3q8 -2 11.5 -10.5t4.5 -16.5l-14 -5l-2 12t-6 11q-16 4 -20 -9q-4 -9 3.5 -16t14.5 -13q7 -8 14.5 -15.5t9.5 -18.5q5 -14 -3 -26t-23 -12zM720 830h16t17 2q11 5 14.5 15.5t1.5 23.5q0 11 -2.5 19
t-13.5 13q-8 4 -17 3.5t-16 -0.5v-76zM914 251q-14 0 -22.5 10t-9.5 25l16 5q0 -6 2 -14t8 -12q8 -2 13.5 2.5t5.5 11.5q0 12 -10.5 21.5t-18.5 17.5q-11 9 -15 24t9 27q7 4 16 4.5t16 -1.5q9 -4 12.5 -12.5t4.5 -16.5l-14 -3q-1 5 -2.5 11t-6.5 11q-6 2 -11.5 0t-7.5 -10
q-3 -8 4 -16t12 -14q8 -6 16 -13.5t10 -18.5q5 -14 -3 -26.5t-24 -12.5zM1188 251q-16 0 -23 10t-8 25l16 5q0 -6 2.5 -14t8.5 -12q8 -2 12.5 2.5t4.5 11.5q1 12 -9.5 21.5t-18.5 17.5q-11 9 -15.5 24t8.5 27q17 8 33 3q8 -4 11.5 -12.5t4.5 -16.5l-14 -3q-1 5 -2.5 11
t-6.5 11q-5 2 -10.5 0t-6.5 -10q-6 -8 2 -16l14 -14q7 -6 14.5 -13.5t9.5 -18.5q5 -14 -2.5 -26.5t-24.5 -12.5zM1070 252l-27 121h18l17 -88l19 88h13l-25 -121h-15zM1141 -398l-27 119h15l20 -87l16 87h17l-28 -119h-13zM1194 -398v119h48v-10h-31v-39h25v-13h-25v-45h31
v-12h-48zM955 252v121h48v-11h-31v-41h25v-12h-25v-45h32v-12h-49zM705 -398v119h47v-10h-30v-39h25v-13h-25v-45h30v-12h-47zM555 -237q10 -5 14.5 -1t6.5 11.5t2 16.5v15q0 4 0.5 12t0.5 16t-2 14.5t-6 9.5q-11 6 -18 -2t-7 -18v-19q0 -4 -0.5 -12.5t-0.5 -17t2 -16
t8 -9.5zM864 -249v119h46v-12h-29v-40h25v-12h-25v-45h29v-10h-46zM753 252v121h46v-11h-31v-41h26v-12h-26v-45h31v-12h-46zM453 -382q10 -6 15 -2.5t7 10.5t2 16v15q0 4 0.5 12t0 15.5t-2 14t-5.5 8.5q-13 8 -18.5 0t-5.5 -17q-1 -5 -0.5 -9.5t0.5 -8.5q0 -5 -0.5 -13
t-0.5 -17t1.5 -16t6.5 -8zM1460 -382q10 -6 15 -2.5t7.5 10.5t2.5 16v15q0 4 0.5 12t-0.5 15.5t-3 14t-6 8.5q-12 8 -17 0t-5 -17v-18q0 -5 -1 -13t-1 -17t1.5 -16t6.5 -8zM474 -249v119h46v-12h-28v-40h22v-12h-22v-55h-18zM1414 -239q11 0 18.5 2t9.5 15v63q-1 13 -9 15
t-19 2v-97zM735 -249v107h-22v12h61v-12h-22v-107h-17zM1154 -249v119h17v-109h30v-10h-47zM960 -249v119h45v-12h-32v-40h24v-12h-24v-55h-13zM1281 252v110h-23v11h58v-11h-20v-110h-15zM1097 -249v119h16v-109h30v-10h-46zM695 252v121h15v-109h31v-12h-46zM1028 -398
v119h15v-107h32v-12h-47zM1313 778h40l-20 107zM1230 252v121h18v-121h-18zM919 -398v119h17v-119h-17zM420 -64h43v48h-43v-48zM1125 252v121h16v-121h-16zM1402 -398v119h15v-119h-15zM640 320h9t10 2q6 3 7 9t1 13q-1 14 -8.5 16t-18.5 2v-42zM1469 430v33h30v-33h-30z
M628 -182q11 0 19 3.5t8 17.5t-8 16.5t-19 2.5v-40zM1271 -328q11 0 19 2.5t8 16.5q0 12 -8 16t-19 4v-39zM783 -328q11 0 18 2.5t7 16.5q0 12 -7 16t-18 4v-39zM828 295h22l-9 55zM1264 -207h21l-11 54zM971 -356h21l-10 55zM1337 193l-30 -161l-29 161h-42l-4 -257h40
l1 105l20 -105h30l21 106l2 -106h37l-2 257h-44zM906 193v-204q0 -19 -16 -17q-7 1 -10 7t-4.5 13.5t-2 15.5t-0.5 14l-40 -2q0 -24 5 -48t28 -34q8 -4 15.5 -5t15.5 0q20 2 36 16t16 38v206h-43zM1013 193l-47 -257h43l10 61h28l8 -61h43l-45 257h-40zM1025 35l8 51l7 -51
h-15zM1174 -64v77l46 180h-43l-24 -120l-22 120h-43l43 -176v-81h43zM1766 -64v212h36v45h-116v-45h37v-212h43zM1520 110q0 19 -2.5 35t-9 27.5t-17.5 18t-28 6.5q-35 0 -46 -25t-11 -62v-90q0 -19 2.5 -35t9 -27.5t17.5 -18t28 -6.5q34 0 45.5 24.5t11.5 62.5v90zM1480 22
v-15t-1.5 -16.5t-5 -13t-10.5 -5.5t-10.5 5.5t-5 13t-1.5 16.5v15v86v15t1.5 16.5t5 13t10.5 5.5t10.5 -5.5t5 -13t1.5 -16.5v-15v-86zM1623 70l-44 123h-33v-257h40v126l45 -126h32v257h-40v-123z" />
    <glyph glyph-name="seven" unicode="7" horiz-adv-x="1871" 
d="M196 193l-30 -161l-29 161h-42l-4 -257h40l1 105l20 -105h30l21 106l2 -106h37l-2 257h-44zM1032 694q-53 0 -62 52q-2 11 -2 22v22q0 24 -1 51.5t5 50.5q6 20 21.5 29.5t34.5 10.5q20 1 37.5 -7t24.5 -28q8 -22 7.5 -49.5t-0.5 -51.5q0 -14 -0.5 -27.5t-3.5 -26.5
q-11 -48 -61 -48zM971 428q-25 0 -41 12.5t-21 36.5q-2 12 -1.5 23.5t0.5 24.5q0 23 -1 49.5t4 49.5q6 21 21 30.5t35 9.5q21 1 38 -6t24 -27q9 -23 7 -50.5t-2 -50.5q0 -16 0.5 -28.5t-2.5 -26.5q-9 -47 -61 -47zM352 70l-44 123h-33v-257h40v126l45 -126h32v257h-40v-123z
M676 32h26v-16.5t-2 -22t-7.5 -17t-16.5 -2.5q-7 2 -10 9t-4 15.5t-0.5 17t0.5 13.5v61q0 12 -0.5 27.5t2.5 28.5q3 5 8.5 8.5t11.5 2.5q13 -4 14 -16q2 -9 1.5 -18.5t-0.5 -20.5h43q0 22 -3 47t-25 39q-12 8 -28 8.5t-30 -4.5q-17 -5 -25.5 -20t-11.5 -32q-2 -18 -1.5 -37
t0.5 -38q0 -18 -0.5 -35.5t1.5 -35.5q2 -15 7.5 -30.5t19.5 -22.5q13 -9 32 -8.5t30 11.5l1 -8h34v134h-67v-38zM686 696v235q23 0 47.5 0.5t44.5 -10.5q12 -8 19 -23.5t7 -32.5t-7 -31.5t-21 -19.5l31 -118h-31l-31 111h-25v-111h-34zM568 70l-21 23q-7 7 -13.5 13t-9.5 17
q-3 8 -0.5 21.5t15.5 12.5q7 -1 10 -7t4.5 -13.5t2 -15.5t0.5 -14l40 2q0 24 -5 48t-28 34q-14 6 -28 5t-25.5 -7t-19 -17.5t-8.5 -26.5q-2 -15 0.5 -31t11.5 -28q3 -8 9.5 -13t12.5 -12q12 -14 26 -29.5t14 -35.5q0 -8 -1.5 -14.5t-8.5 -7.5q-6 -2 -10 1t-6 8
q-6 11 -7 22.5t-2 23.5l-40 -3q0 -17 1.5 -32t8.5 -30q8 -18 25.5 -26t36.5 -4q20 4 31.5 19t13.5 32q6 48 -30 85zM431 696v235h49q18 0 33.5 -4t24.5 -22q5 -10 7.5 -22.5t1.5 -24.5t-6 -23t-14 -18q-13 -11 -31 -11h-33v-110h-32zM1067 430v233h22l66 -156v156h29v-233
h-22l-68 159v-159h-27zM1129 696v235h22l65 -156v156h28v-235h-21l-68 159v-159h-26zM1268 696l49 235h32l49 -235h-30l-12 58h-47l-11 -58h-30zM520 431q-21 -8 -46 -1t-34 32q-5 12 -6 25.5t-1 30.5v145h31v-156q0 -13 2 -30t17 -25q13 -4 21.5 0t13 12t6.5 18.5t2 20.5
q1 20 0.5 37.5t-0.5 37.5v85h33v-107q0 -15 0.5 -34t-2 -37t-11 -33t-26.5 -21zM647 428q-30 0 -45 19t-17 48l31 8q1 -11 2.5 -22t8.5 -19q8 -9 19 -10t19 7q10 8 9 22t-8 23q-5 7 -11.5 14t-14.5 12q-11 11 -24 21.5t-21 23.5q-7 11 -9 24.5t1.5 26.5t11.5 23t22 14
q13 3 29 2t28 -9q11 -8 15 -22.5t5 -28.5l-25 -9q-2 14 -6.5 27.5t-19.5 16.5q-11 2 -19.5 -3.5t-10.5 -17.5q-3 -9 0 -17t9 -15t13.5 -12.5t13.5 -11.5q16 -14 29.5 -28t17.5 -36q7 -27 -8.5 -49t-44.5 -22zM891 694q-29 0 -45.5 19.5t-17.5 47.5l30 8q2 -11 4 -22.5
t9 -18.5q8 -8 19 -9t19 6q9 8 8.5 22t-7.5 25q-6 10 -26 25q-11 10 -23.5 20.5t-20.5 22.5t-10 26.5t1 27t11.5 22.5t22.5 14q13 3 29 1.5t27 -9.5q12 -8 16 -22t5 -28l-25 -8q-2 12 -6.5 26t-19.5 18q-11 1 -20 -4.5t-11 -15.5t1 -18.5t9 -15.5t13.5 -13t14.5 -11
q15 -14 29 -28.5t19 -34.5q5 -29 -10 -51t-45 -22zM752 -96h37l73 322h-41zM728 430v233h91v-25h-58v-76h47v-24h-47v-87h58v-21h-91zM570 696v235h90v-25h-58v-76h47v-24h-47v-87h59v-23h-91zM1369 430v48q0 9 1 18t-1 17q-2 13 -6.5 23.5t-9.5 21.5l-33 105h30l35 -112
l34 112h32l-16 -48t-16 -49l-16 -48q-3 -8 -2.5 -16t0.5 -14v-58h-32zM955 455q7 -4 16 -4t14 4q9 5 12.5 13.5t5.5 17.5q1 5 0.5 12t-0.5 12v83q0 10 -1 20.5t-9 18.5q-13 13 -29 8q-16 -4 -23 -22q-3 -17 -2 -37t1 -37v-42q0 -12 1.5 -26t13.5 -21zM1019 721q13 -5 29 0
q10 5 12.5 13.5t3.5 16.5v109q0 10 -1 20.5t-9 17.5q-5 8 -12.5 9t-15.5 -1q-17 -1 -22 -20q-5 -17 -3 -37.5t2 -37.5v-43q0 -12 1 -26t15 -21zM1423 696v235h32v-212h60v-23h-92zM1220 430v233h32v-212h59v-21h-91zM462 -399q-15 0 -22 6.5t-9.5 16t-2.5 21v20.5
q0 11 0.5 22t4 19t11 12.5t21.5 3.5q12 -1 18.5 -7t9 -15t2.5 -19.5v-19.5v-19.5t-3 -19.5t-10 -15t-20 -6zM563 -251q-14 0 -21 6.5t-9.5 16.5t-2.5 21.5v21.5t0.5 20.5t4 18.5t10.5 13t21 4q12 -1 18 -7t9 -15t3 -19.5v-19.5t-0.5 -20t-3.5 -20t-9.5 -15t-19.5 -6z
M1468 -399q-14 0 -21 6.5t-9.5 16t-2.5 21v20.5q0 11 0.5 22t4 19t11 12.5t21.5 3.5q13 -1 18.5 -7t7.5 -15t1.5 -19.5t-0.5 -19.5v-19.5t-2.5 -19.5t-9 -15t-19.5 -6zM1398 -249v119q11 0 26 0.5t26 -8.5t10 -24.5t-1 -27.5t0.5 -28.5t-13.5 -24.5q-9 -8 -23 -7t-25 1z
M764 -398v119q12 0 24 1t22 -4q7 -4 10.5 -12t3.5 -17t-4 -16.5t-11 -10.5l17 -60h-16l-14 57h-13v-57h-19zM607 -398l2 119h17l21 -95l21 95h17l1 -119h-11l-2 88l-21 -88h-11l-18 88l-2 -88h-14zM510 -398l2 119h18l21 -95l20 95h16l2 -119h-13l-1 88l-20 -88h-11l-19 88
l-1 -88h-14zM1254 -398v119q11 0 23 1t23 -4q6 -4 10 -12t4 -17t-3.5 -16.5t-10.5 -10.5l15 -60h-15l-15 57h-14v-57h-17zM612 -249v119q11 0 22.5 1t21.5 -4q7 -4 11 -12.5t4.5 -17.5t-3 -16.5t-12.5 -10.5l18 -59h-17l-17 55h-12v-55h-16zM624 252v121h30t26 -12
q4 -11 3 -25t-9 -21q-8 -6 -16.5 -6.5t-17.5 -0.5v-56h-16zM782 -249v119h15v-52h31v52h18v-119h-18v55h-31v-55h-15zM1519 -398v119h10l35 -79v79h13v-119h-11l-35 82v-82h-12zM1320 -249v119h10l35 -79v79h13v-119h-10l-34 80v-80h-14zM807 252l26 121h16l26 -121h-18
l-5 32h-25l-5 -32h-15zM1242 -249l23 119h18l25 -119h-16l-6 30h-24l-7 -30h-13zM948 -398l25 119h17l25 -119h-15l-5 31h-26l-5 -31h-16zM1478 480l-9 183h30l-10 -183h-11zM463 830q8 0 16 -0.5t18 1.5q12 3 15.5 12.5t3.5 20.5q1 13 -2 25t-17 16q-10 2 -18 1.5t-16 -0.5
v-76zM1061 -249q-17 -5 -29.5 2.5t-16.5 24.5q-2 8 -1 15t1 13v64h15v-53q0 -5 -0.5 -14.5t0.5 -18.5t4.5 -16t11.5 -7t12 7t5.5 16t1 18.5t-0.5 14.5v53h14v-54q0 -8 0.5 -17.5t-0.5 -19t-4.5 -17.5t-12.5 -11zM384 -399q-15 0 -22 9t-9 21.5t-1.5 27t0.5 25.5q0 16 8.5 28
t28.5 10q18 -2 22 -14.5t4 -26.5h-16q0 5 0.5 10.5t-2.5 10.5q-2 8 -11 9t-13 -7q-6 -6 -4.5 -20t1.5 -23q0 -7 -1.5 -20t5.5 -21q3 -7 12 -5.5t11 9.5q3 5 2.5 11t-0.5 11h16q0 -15 -5 -30t-26 -15zM871 -399q-16 0 -22.5 9t-8 21.5t-0.5 27t1 25.5q0 16 7.5 28t27.5 10
q19 -2 23 -14.5t4 -26.5h-18q0 5 1 10.5t-2 10.5q-2 8 -10.5 9t-13.5 -7q-6 -6 -5 -20t1 -23q0 -7 -1 -20t6 -21q4 -7 12.5 -5.5t10.5 9.5q3 5 2 11t-1 11h18q0 -15 -5 -30t-27 -15zM1360 -399q-16 0 -23.5 10.5t-9.5 24.5l16 4q0 -6 2 -13.5t8 -9.5q9 -5 14 -0.5t5 11.5
q0 12 -10.5 21.5t-18.5 15.5q-11 11 -15 26.5t10 25.5q7 5 16.5 6t15.5 -3q8 -2 11.5 -10.5t4.5 -16.5l-14 -5l-2 12t-6 11q-16 4 -20 -9q-4 -9 3.5 -16t14.5 -13q7 -8 14.5 -15.5t9.5 -18.5q5 -14 -3 -26t-23 -12zM720 830h16t17 2q11 5 14.5 15.5t1.5 23.5q0 11 -2.5 19
t-13.5 13q-8 4 -17 3.5t-16 -0.5v-76zM914 251q-14 0 -22.5 10t-9.5 25l16 5q0 -6 2 -14t8 -12q8 -2 13.5 2.5t5.5 11.5q0 12 -10.5 21.5t-18.5 17.5q-11 9 -15 24t9 27q7 4 16 4.5t16 -1.5q9 -4 12.5 -12.5t4.5 -16.5l-14 -3q-1 5 -2.5 11t-6.5 11q-6 2 -11.5 0t-7.5 -10
q-3 -8 4 -16t12 -14q8 -6 16 -13.5t10 -18.5q5 -14 -3 -26.5t-24 -12.5zM1188 251q-16 0 -23 10t-8 25l16 5q0 -6 2.5 -14t8.5 -12q8 -2 12.5 2.5t4.5 11.5q1 12 -9.5 21.5t-18.5 17.5q-11 9 -15.5 24t8.5 27q17 8 33 3q8 -4 11.5 -12.5t4.5 -16.5l-14 -3q-1 5 -2.5 11
t-6.5 11q-5 2 -10.5 0t-6.5 -10q-6 -8 2 -16l14 -14q7 -6 14.5 -13.5t9.5 -18.5q5 -14 -2.5 -26.5t-24.5 -12.5zM1070 252l-27 121h18l17 -88l19 88h13l-25 -121h-15zM1141 -398l-27 119h15l20 -87l16 87h17l-28 -119h-13zM1194 -398v119h48v-10h-31v-39h25v-13h-25v-45h31
v-12h-48zM955 252v121h48v-11h-31v-41h25v-12h-25v-45h32v-12h-49zM705 -398v119h47v-10h-30v-39h25v-13h-25v-45h30v-12h-47zM555 -237q10 -5 14.5 -1t6.5 11.5t2 16.5v15q0 4 0.5 12t0.5 16t-2 14.5t-6 9.5q-11 6 -18 -2t-7 -18v-19q0 -4 -0.5 -12.5t-0.5 -17t2 -16
t8 -9.5zM864 -249v119h46v-12h-29v-40h25v-12h-25v-45h29v-10h-46zM753 252v121h46v-11h-31v-41h26v-12h-26v-45h31v-12h-46zM453 -382q10 -6 15 -2.5t7 10.5t2 16v15q0 4 0.5 12t0 15.5t-2 14t-5.5 8.5q-13 8 -18.5 0t-5.5 -17q-1 -5 -0.5 -9.5t0.5 -8.5q0 -5 -0.5 -13
t-0.5 -17t1.5 -16t6.5 -8zM1460 -382q10 -6 15 -2.5t7.5 10.5t2.5 16v15q0 4 0.5 12t-0.5 15.5t-3 14t-6 8.5q-12 8 -17 0t-5 -17v-18q0 -5 -1 -13t-1 -17t1.5 -16t6.5 -8zM474 -249v119h46v-12h-28v-40h22v-12h-22v-55h-18zM1414 -239q11 0 18.5 2t9.5 15v63q-1 13 -9 15
t-19 2v-97zM735 -249v107h-22v12h61v-12h-22v-107h-17zM1154 -249v119h17v-109h30v-10h-47zM960 -249v119h45v-12h-32v-40h24v-12h-24v-55h-13zM1281 252v110h-23v11h58v-11h-20v-110h-15zM1097 -249v119h16v-109h30v-10h-46zM695 252v121h15v-109h31v-12h-46zM1028 -398
v119h15v-107h32v-12h-47zM1313 778h40l-20 107zM1230 252v121h18v-121h-18zM919 -398v119h17v-119h-17zM420 -64h43v48h-43v-48zM1125 252v121h16v-121h-16zM1402 -398v119h15v-119h-15zM640 320h9t10 2q6 3 7 9t1 13q-1 14 -8.5 16t-18.5 2v-42zM1469 430v33h30v-33h-30z
M628 -182q11 0 19 3.5t8 17.5t-8 16.5t-19 2.5v-40zM1271 -328q11 0 19 2.5t8 16.5q0 12 -8 16t-19 4v-39zM783 -328q11 0 18 2.5t7 16.5q0 12 -7 16t-18 4v-39zM828 295h22l-9 55zM1264 -207h21l-11 54zM971 -356h21l-10 55zM1337 193l-30 -161l-29 161h-42l-4 -257h40
l1 105l20 -105h30l21 106l2 -106h37l-2 257h-44zM906 193v-204q0 -19 -16 -17q-7 1 -10 7t-4.5 13.5t-2 15.5t-0.5 14l-40 -2q0 -24 5 -48t28 -34q8 -4 15.5 -5t15.5 0q20 2 36 16t16 38v206h-43zM1013 193l-47 -257h43l10 61h28l8 -61h43l-45 257h-40zM1025 35l8 51l7 -51
h-15zM1174 -64v77l46 180h-43l-24 -120l-22 120h-43l43 -176v-81h43zM1766 -64v212h36v45h-116v-45h37v-212h43zM1520 110q0 19 -2.5 35t-9 27.5t-17.5 18t-28 6.5q-35 0 -46 -25t-11 -62v-90q0 -19 2.5 -35t9 -27.5t17.5 -18t28 -6.5q34 0 45.5 24.5t11.5 62.5v90zM1480 22
v-15t-1.5 -16.5t-5 -13t-10.5 -5.5t-10.5 5.5t-5 13t-1.5 16.5v15v86v15t1.5 16.5t5 13t10.5 5.5t10.5 -5.5t5 -13t1.5 -16.5v-15v-86zM1623 70l-44 123h-33v-257h40v126l45 -126h32v257h-40v-123z" />
    <glyph glyph-name="eight" unicode="8" horiz-adv-x="1871" 
d="M196 193l-30 -161l-29 161h-42l-4 -257h40l1 105l20 -105h30l21 106l2 -106h37l-2 257h-44zM1032 694q-53 0 -62 52q-2 11 -2 22v22q0 24 -1 51.5t5 50.5q6 20 21.5 29.5t34.5 10.5q20 1 37.5 -7t24.5 -28q8 -22 7.5 -49.5t-0.5 -51.5q0 -14 -0.5 -27.5t-3.5 -26.5
q-11 -48 -61 -48zM971 428q-25 0 -41 12.5t-21 36.5q-2 12 -1.5 23.5t0.5 24.5q0 23 -1 49.5t4 49.5q6 21 21 30.5t35 9.5q21 1 38 -6t24 -27q9 -23 7 -50.5t-2 -50.5q0 -16 0.5 -28.5t-2.5 -26.5q-9 -47 -61 -47zM352 70l-44 123h-33v-257h40v126l45 -126h32v257h-40v-123z
M676 32h26v-16.5t-2 -22t-7.5 -17t-16.5 -2.5q-7 2 -10 9t-4 15.5t-0.5 17t0.5 13.5v61q0 12 -0.5 27.5t2.5 28.5q3 5 8.5 8.5t11.5 2.5q13 -4 14 -16q2 -9 1.5 -18.5t-0.5 -20.5h43q0 22 -3 47t-25 39q-12 8 -28 8.5t-30 -4.5q-17 -5 -25.5 -20t-11.5 -32q-2 -18 -1.5 -37
t0.5 -38q0 -18 -0.5 -35.5t1.5 -35.5q2 -15 7.5 -30.5t19.5 -22.5q13 -9 32 -8.5t30 11.5l1 -8h34v134h-67v-38zM686 696v235q23 0 47.5 0.5t44.5 -10.5q12 -8 19 -23.5t7 -32.5t-7 -31.5t-21 -19.5l31 -118h-31l-31 111h-25v-111h-34zM568 70l-21 23q-7 7 -13.5 13t-9.5 17
q-3 8 -0.5 21.5t15.5 12.5q7 -1 10 -7t4.5 -13.5t2 -15.5t0.5 -14l40 2q0 24 -5 48t-28 34q-14 6 -28 5t-25.5 -7t-19 -17.5t-8.5 -26.5q-2 -15 0.5 -31t11.5 -28q3 -8 9.5 -13t12.5 -12q12 -14 26 -29.5t14 -35.5q0 -8 -1.5 -14.5t-8.5 -7.5q-6 -2 -10 1t-6 8
q-6 11 -7 22.5t-2 23.5l-40 -3q0 -17 1.5 -32t8.5 -30q8 -18 25.5 -26t36.5 -4q20 4 31.5 19t13.5 32q6 48 -30 85zM431 696v235h49q18 0 33.5 -4t24.5 -22q5 -10 7.5 -22.5t1.5 -24.5t-6 -23t-14 -18q-13 -11 -31 -11h-33v-110h-32zM1067 430v233h22l66 -156v156h29v-233
h-22l-68 159v-159h-27zM1129 696v235h22l65 -156v156h28v-235h-21l-68 159v-159h-26zM1268 696l49 235h32l49 -235h-30l-12 58h-47l-11 -58h-30zM520 431q-21 -8 -46 -1t-34 32q-5 12 -6 25.5t-1 30.5v145h31v-156q0 -13 2 -30t17 -25q13 -4 21.5 0t13 12t6.5 18.5t2 20.5
q1 20 0.5 37.5t-0.5 37.5v85h33v-107q0 -15 0.5 -34t-2 -37t-11 -33t-26.5 -21zM647 428q-30 0 -45 19t-17 48l31 8q1 -11 2.5 -22t8.5 -19q8 -9 19 -10t19 7q10 8 9 22t-8 23q-5 7 -11.5 14t-14.5 12q-11 11 -24 21.5t-21 23.5q-7 11 -9 24.5t1.5 26.5t11.5 23t22 14
q13 3 29 2t28 -9q11 -8 15 -22.5t5 -28.5l-25 -9q-2 14 -6.5 27.5t-19.5 16.5q-11 2 -19.5 -3.5t-10.5 -17.5q-3 -9 0 -17t9 -15t13.5 -12.5t13.5 -11.5q16 -14 29.5 -28t17.5 -36q7 -27 -8.5 -49t-44.5 -22zM891 694q-29 0 -45.5 19.5t-17.5 47.5l30 8q2 -11 4 -22.5
t9 -18.5q8 -8 19 -9t19 6q9 8 8.5 22t-7.5 25q-6 10 -26 25q-11 10 -23.5 20.5t-20.5 22.5t-10 26.5t1 27t11.5 22.5t22.5 14q13 3 29 1.5t27 -9.5q12 -8 16 -22t5 -28l-25 -8q-2 12 -6.5 26t-19.5 18q-11 1 -20 -4.5t-11 -15.5t1 -18.5t9 -15.5t13.5 -13t14.5 -11
q15 -14 29 -28.5t19 -34.5q5 -29 -10 -51t-45 -22zM752 -96h37l73 322h-41zM728 430v233h91v-25h-58v-76h47v-24h-47v-87h58v-21h-91zM570 696v235h90v-25h-58v-76h47v-24h-47v-87h59v-23h-91zM1369 430v48q0 9 1 18t-1 17q-2 13 -6.5 23.5t-9.5 21.5l-33 105h30l35 -112
l34 112h32l-16 -48t-16 -49l-16 -48q-3 -8 -2.5 -16t0.5 -14v-58h-32zM955 455q7 -4 16 -4t14 4q9 5 12.5 13.5t5.5 17.5q1 5 0.5 12t-0.5 12v83q0 10 -1 20.5t-9 18.5q-13 13 -29 8q-16 -4 -23 -22q-3 -17 -2 -37t1 -37v-42q0 -12 1.5 -26t13.5 -21zM1019 721q13 -5 29 0
q10 5 12.5 13.5t3.5 16.5v109q0 10 -1 20.5t-9 17.5q-5 8 -12.5 9t-15.5 -1q-17 -1 -22 -20q-5 -17 -3 -37.5t2 -37.5v-43q0 -12 1 -26t15 -21zM1423 696v235h32v-212h60v-23h-92zM1220 430v233h32v-212h59v-21h-91zM462 -399q-15 0 -22 6.5t-9.5 16t-2.5 21v20.5
q0 11 0.5 22t4 19t11 12.5t21.5 3.5q12 -1 18.5 -7t9 -15t2.5 -19.5v-19.5v-19.5t-3 -19.5t-10 -15t-20 -6zM563 -251q-14 0 -21 6.5t-9.5 16.5t-2.5 21.5v21.5t0.5 20.5t4 18.5t10.5 13t21 4q12 -1 18 -7t9 -15t3 -19.5v-19.5t-0.5 -20t-3.5 -20t-9.5 -15t-19.5 -6z
M1468 -399q-14 0 -21 6.5t-9.5 16t-2.5 21v20.5q0 11 0.5 22t4 19t11 12.5t21.5 3.5q13 -1 18.5 -7t7.5 -15t1.5 -19.5t-0.5 -19.5v-19.5t-2.5 -19.5t-9 -15t-19.5 -6zM1398 -249v119q11 0 26 0.5t26 -8.5t10 -24.5t-1 -27.5t0.5 -28.5t-13.5 -24.5q-9 -8 -23 -7t-25 1z
M764 -398v119q12 0 24 1t22 -4q7 -4 10.5 -12t3.5 -17t-4 -16.5t-11 -10.5l17 -60h-16l-14 57h-13v-57h-19zM607 -398l2 119h17l21 -95l21 95h17l1 -119h-11l-2 88l-21 -88h-11l-18 88l-2 -88h-14zM510 -398l2 119h18l21 -95l20 95h16l2 -119h-13l-1 88l-20 -88h-11l-19 88
l-1 -88h-14zM1254 -398v119q11 0 23 1t23 -4q6 -4 10 -12t4 -17t-3.5 -16.5t-10.5 -10.5l15 -60h-15l-15 57h-14v-57h-17zM612 -249v119q11 0 22.5 1t21.5 -4q7 -4 11 -12.5t4.5 -17.5t-3 -16.5t-12.5 -10.5l18 -59h-17l-17 55h-12v-55h-16zM624 252v121h30t26 -12
q4 -11 3 -25t-9 -21q-8 -6 -16.5 -6.5t-17.5 -0.5v-56h-16zM782 -249v119h15v-52h31v52h18v-119h-18v55h-31v-55h-15zM1519 -398v119h10l35 -79v79h13v-119h-11l-35 82v-82h-12zM1320 -249v119h10l35 -79v79h13v-119h-10l-34 80v-80h-14zM807 252l26 121h16l26 -121h-18
l-5 32h-25l-5 -32h-15zM1242 -249l23 119h18l25 -119h-16l-6 30h-24l-7 -30h-13zM948 -398l25 119h17l25 -119h-15l-5 31h-26l-5 -31h-16zM1478 480l-9 183h30l-10 -183h-11zM463 830q8 0 16 -0.5t18 1.5q12 3 15.5 12.5t3.5 20.5q1 13 -2 25t-17 16q-10 2 -18 1.5t-16 -0.5
v-76zM1061 -249q-17 -5 -29.5 2.5t-16.5 24.5q-2 8 -1 15t1 13v64h15v-53q0 -5 -0.5 -14.5t0.5 -18.5t4.5 -16t11.5 -7t12 7t5.5 16t1 18.5t-0.5 14.5v53h14v-54q0 -8 0.5 -17.5t-0.5 -19t-4.5 -17.5t-12.5 -11zM384 -399q-15 0 -22 9t-9 21.5t-1.5 27t0.5 25.5q0 16 8.5 28
t28.5 10q18 -2 22 -14.5t4 -26.5h-16q0 5 0.5 10.5t-2.5 10.5q-2 8 -11 9t-13 -7q-6 -6 -4.5 -20t1.5 -23q0 -7 -1.5 -20t5.5 -21q3 -7 12 -5.5t11 9.5q3 5 2.5 11t-0.5 11h16q0 -15 -5 -30t-26 -15zM871 -399q-16 0 -22.5 9t-8 21.5t-0.5 27t1 25.5q0 16 7.5 28t27.5 10
q19 -2 23 -14.5t4 -26.5h-18q0 5 1 10.5t-2 10.5q-2 8 -10.5 9t-13.5 -7q-6 -6 -5 -20t1 -23q0 -7 -1 -20t6 -21q4 -7 12.5 -5.5t10.5 9.5q3 5 2 11t-1 11h18q0 -15 -5 -30t-27 -15zM1360 -399q-16 0 -23.5 10.5t-9.5 24.5l16 4q0 -6 2 -13.5t8 -9.5q9 -5 14 -0.5t5 11.5
q0 12 -10.5 21.5t-18.5 15.5q-11 11 -15 26.5t10 25.5q7 5 16.5 6t15.5 -3q8 -2 11.5 -10.5t4.5 -16.5l-14 -5l-2 12t-6 11q-16 4 -20 -9q-4 -9 3.5 -16t14.5 -13q7 -8 14.5 -15.5t9.5 -18.5q5 -14 -3 -26t-23 -12zM720 830h16t17 2q11 5 14.5 15.5t1.5 23.5q0 11 -2.5 19
t-13.5 13q-8 4 -17 3.5t-16 -0.5v-76zM914 251q-14 0 -22.5 10t-9.5 25l16 5q0 -6 2 -14t8 -12q8 -2 13.5 2.5t5.5 11.5q0 12 -10.5 21.5t-18.5 17.5q-11 9 -15 24t9 27q7 4 16 4.5t16 -1.5q9 -4 12.5 -12.5t4.5 -16.5l-14 -3q-1 5 -2.5 11t-6.5 11q-6 2 -11.5 0t-7.5 -10
q-3 -8 4 -16t12 -14q8 -6 16 -13.5t10 -18.5q5 -14 -3 -26.5t-24 -12.5zM1188 251q-16 0 -23 10t-8 25l16 5q0 -6 2.5 -14t8.5 -12q8 -2 12.5 2.5t4.5 11.5q1 12 -9.5 21.5t-18.5 17.5q-11 9 -15.5 24t8.5 27q17 8 33 3q8 -4 11.5 -12.5t4.5 -16.5l-14 -3q-1 5 -2.5 11
t-6.5 11q-5 2 -10.5 0t-6.5 -10q-6 -8 2 -16l14 -14q7 -6 14.5 -13.5t9.5 -18.5q5 -14 -2.5 -26.5t-24.5 -12.5zM1070 252l-27 121h18l17 -88l19 88h13l-25 -121h-15zM1141 -398l-27 119h15l20 -87l16 87h17l-28 -119h-13zM1194 -398v119h48v-10h-31v-39h25v-13h-25v-45h31
v-12h-48zM955 252v121h48v-11h-31v-41h25v-12h-25v-45h32v-12h-49zM705 -398v119h47v-10h-30v-39h25v-13h-25v-45h30v-12h-47zM555 -237q10 -5 14.5 -1t6.5 11.5t2 16.5v15q0 4 0.5 12t0.5 16t-2 14.5t-6 9.5q-11 6 -18 -2t-7 -18v-19q0 -4 -0.5 -12.5t-0.5 -17t2 -16
t8 -9.5zM864 -249v119h46v-12h-29v-40h25v-12h-25v-45h29v-10h-46zM753 252v121h46v-11h-31v-41h26v-12h-26v-45h31v-12h-46zM453 -382q10 -6 15 -2.5t7 10.5t2 16v15q0 4 0.5 12t0 15.5t-2 14t-5.5 8.5q-13 8 -18.5 0t-5.5 -17q-1 -5 -0.5 -9.5t0.5 -8.5q0 -5 -0.5 -13
t-0.5 -17t1.5 -16t6.5 -8zM1460 -382q10 -6 15 -2.5t7.5 10.5t2.5 16v15q0 4 0.5 12t-0.5 15.5t-3 14t-6 8.5q-12 8 -17 0t-5 -17v-18q0 -5 -1 -13t-1 -17t1.5 -16t6.5 -8zM474 -249v119h46v-12h-28v-40h22v-12h-22v-55h-18zM1414 -239q11 0 18.5 2t9.5 15v63q-1 13 -9 15
t-19 2v-97zM735 -249v107h-22v12h61v-12h-22v-107h-17zM1154 -249v119h17v-109h30v-10h-47zM960 -249v119h45v-12h-32v-40h24v-12h-24v-55h-13zM1281 252v110h-23v11h58v-11h-20v-110h-15zM1097 -249v119h16v-109h30v-10h-46zM695 252v121h15v-109h31v-12h-46zM1028 -398
v119h15v-107h32v-12h-47zM1313 778h40l-20 107zM1230 252v121h18v-121h-18zM919 -398v119h17v-119h-17zM420 -64h43v48h-43v-48zM1125 252v121h16v-121h-16zM1402 -398v119h15v-119h-15zM640 320h9t10 2q6 3 7 9t1 13q-1 14 -8.5 16t-18.5 2v-42zM1469 430v33h30v-33h-30z
M628 -182q11 0 19 3.5t8 17.5t-8 16.5t-19 2.5v-40zM1271 -328q11 0 19 2.5t8 16.5q0 12 -8 16t-19 4v-39zM783 -328q11 0 18 2.5t7 16.5q0 12 -7 16t-18 4v-39zM828 295h22l-9 55zM1264 -207h21l-11 54zM971 -356h21l-10 55zM1337 193l-30 -161l-29 161h-42l-4 -257h40
l1 105l20 -105h30l21 106l2 -106h37l-2 257h-44zM906 193v-204q0 -19 -16 -17q-7 1 -10 7t-4.5 13.5t-2 15.5t-0.5 14l-40 -2q0 -24 5 -48t28 -34q8 -4 15.5 -5t15.5 0q20 2 36 16t16 38v206h-43zM1013 193l-47 -257h43l10 61h28l8 -61h43l-45 257h-40zM1025 35l8 51l7 -51
h-15zM1174 -64v77l46 180h-43l-24 -120l-22 120h-43l43 -176v-81h43zM1766 -64v212h36v45h-116v-45h37v-212h43zM1520 110q0 19 -2.5 35t-9 27.5t-17.5 18t-28 6.5q-35 0 -46 -25t-11 -62v-90q0 -19 2.5 -35t9 -27.5t17.5 -18t28 -6.5q34 0 45.5 24.5t11.5 62.5v90zM1480 22
v-15t-1.5 -16.5t-5 -13t-10.5 -5.5t-10.5 5.5t-5 13t-1.5 16.5v15v86v15t1.5 16.5t5 13t10.5 5.5t10.5 -5.5t5 -13t1.5 -16.5v-15v-86zM1623 70l-44 123h-33v-257h40v126l45 -126h32v257h-40v-123z" />
    <glyph glyph-name="nine" unicode="9" horiz-adv-x="1871" 
d="M196 193l-30 -161l-29 161h-42l-4 -257h40l1 105l20 -105h30l21 106l2 -106h37l-2 257h-44zM1032 694q-53 0 -62 52q-2 11 -2 22v22q0 24 -1 51.5t5 50.5q6 20 21.5 29.5t34.5 10.5q20 1 37.5 -7t24.5 -28q8 -22 7.5 -49.5t-0.5 -51.5q0 -14 -0.5 -27.5t-3.5 -26.5
q-11 -48 -61 -48zM971 428q-25 0 -41 12.5t-21 36.5q-2 12 -1.5 23.5t0.5 24.5q0 23 -1 49.5t4 49.5q6 21 21 30.5t35 9.5q21 1 38 -6t24 -27q9 -23 7 -50.5t-2 -50.5q0 -16 0.5 -28.5t-2.5 -26.5q-9 -47 -61 -47zM352 70l-44 123h-33v-257h40v126l45 -126h32v257h-40v-123z
M676 32h26v-16.5t-2 -22t-7.5 -17t-16.5 -2.5q-7 2 -10 9t-4 15.5t-0.5 17t0.5 13.5v61q0 12 -0.5 27.5t2.5 28.5q3 5 8.5 8.5t11.5 2.5q13 -4 14 -16q2 -9 1.5 -18.5t-0.5 -20.5h43q0 22 -3 47t-25 39q-12 8 -28 8.5t-30 -4.5q-17 -5 -25.5 -20t-11.5 -32q-2 -18 -1.5 -37
t0.5 -38q0 -18 -0.5 -35.5t1.5 -35.5q2 -15 7.5 -30.5t19.5 -22.5q13 -9 32 -8.5t30 11.5l1 -8h34v134h-67v-38zM686 696v235q23 0 47.5 0.5t44.5 -10.5q12 -8 19 -23.5t7 -32.5t-7 -31.5t-21 -19.5l31 -118h-31l-31 111h-25v-111h-34zM568 70l-21 23q-7 7 -13.5 13t-9.5 17
q-3 8 -0.5 21.5t15.5 12.5q7 -1 10 -7t4.5 -13.5t2 -15.5t0.5 -14l40 2q0 24 -5 48t-28 34q-14 6 -28 5t-25.5 -7t-19 -17.5t-8.5 -26.5q-2 -15 0.5 -31t11.5 -28q3 -8 9.5 -13t12.5 -12q12 -14 26 -29.5t14 -35.5q0 -8 -1.5 -14.5t-8.5 -7.5q-6 -2 -10 1t-6 8
q-6 11 -7 22.5t-2 23.5l-40 -3q0 -17 1.5 -32t8.5 -30q8 -18 25.5 -26t36.5 -4q20 4 31.5 19t13.5 32q6 48 -30 85zM431 696v235h49q18 0 33.5 -4t24.5 -22q5 -10 7.5 -22.5t1.5 -24.5t-6 -23t-14 -18q-13 -11 -31 -11h-33v-110h-32zM1067 430v233h22l66 -156v156h29v-233
h-22l-68 159v-159h-27zM1129 696v235h22l65 -156v156h28v-235h-21l-68 159v-159h-26zM1268 696l49 235h32l49 -235h-30l-12 58h-47l-11 -58h-30zM520 431q-21 -8 -46 -1t-34 32q-5 12 -6 25.5t-1 30.5v145h31v-156q0 -13 2 -30t17 -25q13 -4 21.5 0t13 12t6.5 18.5t2 20.5
q1 20 0.5 37.5t-0.5 37.5v85h33v-107q0 -15 0.5 -34t-2 -37t-11 -33t-26.5 -21zM647 428q-30 0 -45 19t-17 48l31 8q1 -11 2.5 -22t8.5 -19q8 -9 19 -10t19 7q10 8 9 22t-8 23q-5 7 -11.5 14t-14.5 12q-11 11 -24 21.5t-21 23.5q-7 11 -9 24.5t1.5 26.5t11.5 23t22 14
q13 3 29 2t28 -9q11 -8 15 -22.5t5 -28.5l-25 -9q-2 14 -6.5 27.5t-19.5 16.5q-11 2 -19.5 -3.5t-10.5 -17.5q-3 -9 0 -17t9 -15t13.5 -12.5t13.5 -11.5q16 -14 29.5 -28t17.5 -36q7 -27 -8.5 -49t-44.5 -22zM891 694q-29 0 -45.5 19.5t-17.5 47.5l30 8q2 -11 4 -22.5
t9 -18.5q8 -8 19 -9t19 6q9 8 8.5 22t-7.5 25q-6 10 -26 25q-11 10 -23.5 20.5t-20.5 22.5t-10 26.5t1 27t11.5 22.5t22.5 14q13 3 29 1.5t27 -9.5q12 -8 16 -22t5 -28l-25 -8q-2 12 -6.5 26t-19.5 18q-11 1 -20 -4.5t-11 -15.5t1 -18.5t9 -15.5t13.5 -13t14.5 -11
q15 -14 29 -28.5t19 -34.5q5 -29 -10 -51t-45 -22zM752 -96h37l73 322h-41zM728 430v233h91v-25h-58v-76h47v-24h-47v-87h58v-21h-91zM570 696v235h90v-25h-58v-76h47v-24h-47v-87h59v-23h-91zM1369 430v48q0 9 1 18t-1 17q-2 13 -6.5 23.5t-9.5 21.5l-33 105h30l35 -112
l34 112h32l-16 -48t-16 -49l-16 -48q-3 -8 -2.5 -16t0.5 -14v-58h-32zM955 455q7 -4 16 -4t14 4q9 5 12.5 13.5t5.5 17.5q1 5 0.5 12t-0.5 12v83q0 10 -1 20.5t-9 18.5q-13 13 -29 8q-16 -4 -23 -22q-3 -17 -2 -37t1 -37v-42q0 -12 1.5 -26t13.5 -21zM1019 721q13 -5 29 0
q10 5 12.5 13.5t3.5 16.5v109q0 10 -1 20.5t-9 17.5q-5 8 -12.5 9t-15.5 -1q-17 -1 -22 -20q-5 -17 -3 -37.5t2 -37.5v-43q0 -12 1 -26t15 -21zM1423 696v235h32v-212h60v-23h-92zM1220 430v233h32v-212h59v-21h-91zM462 -399q-15 0 -22 6.5t-9.5 16t-2.5 21v20.5
q0 11 0.5 22t4 19t11 12.5t21.5 3.5q12 -1 18.5 -7t9 -15t2.5 -19.5v-19.5v-19.5t-3 -19.5t-10 -15t-20 -6zM563 -251q-14 0 -21 6.5t-9.5 16.5t-2.5 21.5v21.5t0.5 20.5t4 18.5t10.5 13t21 4q12 -1 18 -7t9 -15t3 -19.5v-19.5t-0.5 -20t-3.5 -20t-9.5 -15t-19.5 -6z
M1468 -399q-14 0 -21 6.5t-9.5 16t-2.5 21v20.5q0 11 0.5 22t4 19t11 12.5t21.5 3.5q13 -1 18.5 -7t7.5 -15t1.5 -19.5t-0.5 -19.5v-19.5t-2.5 -19.5t-9 -15t-19.5 -6zM1398 -249v119q11 0 26 0.5t26 -8.5t10 -24.5t-1 -27.5t0.5 -28.5t-13.5 -24.5q-9 -8 -23 -7t-25 1z
M764 -398v119q12 0 24 1t22 -4q7 -4 10.5 -12t3.5 -17t-4 -16.5t-11 -10.5l17 -60h-16l-14 57h-13v-57h-19zM607 -398l2 119h17l21 -95l21 95h17l1 -119h-11l-2 88l-21 -88h-11l-18 88l-2 -88h-14zM510 -398l2 119h18l21 -95l20 95h16l2 -119h-13l-1 88l-20 -88h-11l-19 88
l-1 -88h-14zM1254 -398v119q11 0 23 1t23 -4q6 -4 10 -12t4 -17t-3.5 -16.5t-10.5 -10.5l15 -60h-15l-15 57h-14v-57h-17zM612 -249v119q11 0 22.5 1t21.5 -4q7 -4 11 -12.5t4.5 -17.5t-3 -16.5t-12.5 -10.5l18 -59h-17l-17 55h-12v-55h-16zM624 252v121h30t26 -12
q4 -11 3 -25t-9 -21q-8 -6 -16.5 -6.5t-17.5 -0.5v-56h-16zM782 -249v119h15v-52h31v52h18v-119h-18v55h-31v-55h-15zM1519 -398v119h10l35 -79v79h13v-119h-11l-35 82v-82h-12zM1320 -249v119h10l35 -79v79h13v-119h-10l-34 80v-80h-14zM807 252l26 121h16l26 -121h-18
l-5 32h-25l-5 -32h-15zM1242 -249l23 119h18l25 -119h-16l-6 30h-24l-7 -30h-13zM948 -398l25 119h17l25 -119h-15l-5 31h-26l-5 -31h-16zM1478 480l-9 183h30l-10 -183h-11zM463 830q8 0 16 -0.5t18 1.5q12 3 15.5 12.5t3.5 20.5q1 13 -2 25t-17 16q-10 2 -18 1.5t-16 -0.5
v-76zM1061 -249q-17 -5 -29.5 2.5t-16.5 24.5q-2 8 -1 15t1 13v64h15v-53q0 -5 -0.5 -14.5t0.5 -18.5t4.5 -16t11.5 -7t12 7t5.5 16t1 18.5t-0.5 14.5v53h14v-54q0 -8 0.5 -17.5t-0.5 -19t-4.5 -17.5t-12.5 -11zM384 -399q-15 0 -22 9t-9 21.5t-1.5 27t0.5 25.5q0 16 8.5 28
t28.5 10q18 -2 22 -14.5t4 -26.5h-16q0 5 0.5 10.5t-2.5 10.5q-2 8 -11 9t-13 -7q-6 -6 -4.5 -20t1.5 -23q0 -7 -1.5 -20t5.5 -21q3 -7 12 -5.5t11 9.5q3 5 2.5 11t-0.5 11h16q0 -15 -5 -30t-26 -15zM871 -399q-16 0 -22.5 9t-8 21.5t-0.5 27t1 25.5q0 16 7.5 28t27.5 10
q19 -2 23 -14.5t4 -26.5h-18q0 5 1 10.5t-2 10.5q-2 8 -10.5 9t-13.5 -7q-6 -6 -5 -20t1 -23q0 -7 -1 -20t6 -21q4 -7 12.5 -5.5t10.5 9.5q3 5 2 11t-1 11h18q0 -15 -5 -30t-27 -15zM1360 -399q-16 0 -23.5 10.5t-9.5 24.5l16 4q0 -6 2 -13.5t8 -9.5q9 -5 14 -0.5t5 11.5
q0 12 -10.5 21.5t-18.5 15.5q-11 11 -15 26.5t10 25.5q7 5 16.5 6t15.5 -3q8 -2 11.5 -10.5t4.5 -16.5l-14 -5l-2 12t-6 11q-16 4 -20 -9q-4 -9 3.5 -16t14.5 -13q7 -8 14.5 -15.5t9.5 -18.5q5 -14 -3 -26t-23 -12zM720 830h16t17 2q11 5 14.5 15.5t1.5 23.5q0 11 -2.5 19
t-13.5 13q-8 4 -17 3.5t-16 -0.5v-76zM914 251q-14 0 -22.5 10t-9.5 25l16 5q0 -6 2 -14t8 -12q8 -2 13.5 2.5t5.5 11.5q0 12 -10.5 21.5t-18.5 17.5q-11 9 -15 24t9 27q7 4 16 4.5t16 -1.5q9 -4 12.5 -12.5t4.5 -16.5l-14 -3q-1 5 -2.5 11t-6.5 11q-6 2 -11.5 0t-7.5 -10
q-3 -8 4 -16t12 -14q8 -6 16 -13.5t10 -18.5q5 -14 -3 -26.5t-24 -12.5zM1188 251q-16 0 -23 10t-8 25l16 5q0 -6 2.5 -14t8.5 -12q8 -2 12.5 2.5t4.5 11.5q1 12 -9.5 21.5t-18.5 17.5q-11 9 -15.5 24t8.5 27q17 8 33 3q8 -4 11.5 -12.5t4.5 -16.5l-14 -3q-1 5 -2.5 11
t-6.5 11q-5 2 -10.5 0t-6.5 -10q-6 -8 2 -16l14 -14q7 -6 14.5 -13.5t9.5 -18.5q5 -14 -2.5 -26.5t-24.5 -12.5zM1070 252l-27 121h18l17 -88l19 88h13l-25 -121h-15zM1141 -398l-27 119h15l20 -87l16 87h17l-28 -119h-13zM1194 -398v119h48v-10h-31v-39h25v-13h-25v-45h31
v-12h-48zM955 252v121h48v-11h-31v-41h25v-12h-25v-45h32v-12h-49zM705 -398v119h47v-10h-30v-39h25v-13h-25v-45h30v-12h-47zM555 -237q10 -5 14.5 -1t6.5 11.5t2 16.5v15q0 4 0.5 12t0.5 16t-2 14.5t-6 9.5q-11 6 -18 -2t-7 -18v-19q0 -4 -0.5 -12.5t-0.5 -17t2 -16
t8 -9.5zM864 -249v119h46v-12h-29v-40h25v-12h-25v-45h29v-10h-46zM753 252v121h46v-11h-31v-41h26v-12h-26v-45h31v-12h-46zM453 -382q10 -6 15 -2.5t7 10.5t2 16v15q0 4 0.5 12t0 15.5t-2 14t-5.5 8.5q-13 8 -18.5 0t-5.5 -17q-1 -5 -0.5 -9.5t0.5 -8.5q0 -5 -0.5 -13
t-0.5 -17t1.5 -16t6.5 -8zM1460 -382q10 -6 15 -2.5t7.5 10.5t2.5 16v15q0 4 0.5 12t-0.5 15.5t-3 14t-6 8.5q-12 8 -17 0t-5 -17v-18q0 -5 -1 -13t-1 -17t1.5 -16t6.5 -8zM474 -249v119h46v-12h-28v-40h22v-12h-22v-55h-18zM1414 -239q11 0 18.5 2t9.5 15v63q-1 13 -9 15
t-19 2v-97zM735 -249v107h-22v12h61v-12h-22v-107h-17zM1154 -249v119h17v-109h30v-10h-47zM960 -249v119h45v-12h-32v-40h24v-12h-24v-55h-13zM1281 252v110h-23v11h58v-11h-20v-110h-15zM1097 -249v119h16v-109h30v-10h-46zM695 252v121h15v-109h31v-12h-46zM1028 -398
v119h15v-107h32v-12h-47zM1313 778h40l-20 107zM1230 252v121h18v-121h-18zM919 -398v119h17v-119h-17zM420 -64h43v48h-43v-48zM1125 252v121h16v-121h-16zM1402 -398v119h15v-119h-15zM640 320h9t10 2q6 3 7 9t1 13q-1 14 -8.5 16t-18.5 2v-42zM1469 430v33h30v-33h-30z
M628 -182q11 0 19 3.5t8 17.5t-8 16.5t-19 2.5v-40zM1271 -328q11 0 19 2.5t8 16.5q0 12 -8 16t-19 4v-39zM783 -328q11 0 18 2.5t7 16.5q0 12 -7 16t-18 4v-39zM828 295h22l-9 55zM1264 -207h21l-11 54zM971 -356h21l-10 55zM1337 193l-30 -161l-29 161h-42l-4 -257h40
l1 105l20 -105h30l21 106l2 -106h37l-2 257h-44zM906 193v-204q0 -19 -16 -17q-7 1 -10 7t-4.5 13.5t-2 15.5t-0.5 14l-40 -2q0 -24 5 -48t28 -34q8 -4 15.5 -5t15.5 0q20 2 36 16t16 38v206h-43zM1013 193l-47 -257h43l10 61h28l8 -61h43l-45 257h-40zM1025 35l8 51l7 -51
h-15zM1174 -64v77l46 180h-43l-24 -120l-22 120h-43l43 -176v-81h43zM1766 -64v212h36v45h-116v-45h37v-212h43zM1520 110q0 19 -2.5 35t-9 27.5t-17.5 18t-28 6.5q-35 0 -46 -25t-11 -62v-90q0 -19 2.5 -35t9 -27.5t17.5 -18t28 -6.5q34 0 45.5 24.5t11.5 62.5v90zM1480 22
v-15t-1.5 -16.5t-5 -13t-10.5 -5.5t-10.5 5.5t-5 13t-1.5 16.5v15v86v15t1.5 16.5t5 13t10.5 5.5t10.5 -5.5t5 -13t1.5 -16.5v-15v-86zM1623 70l-44 123h-33v-257h40v126l45 -126h32v257h-40v-123z" />
    <glyph glyph-name="colon" unicode=":" horiz-adv-x="306" 
d="M218 66q0 -29 -18 -47.5t-49 -18.5q-29 0 -48 18.5t-19 47.5q0 28 19 48.5t48 20.5q31 0 49 -20.5t18 -48.5zM218 422q0 -29 -18 -47.5t-49 -18.5q-29 0 -48 18.5t-19 47.5q0 28 19 48.5t48 20.5q31 0 49 -20.5t18 -48.5z" />
    <glyph glyph-name="semicolon" unicode=";" horiz-adv-x="297" 
d="M213 128l-117 -261h-20l21 261h116zM213 422q0 -29 -18 -47.5t-49 -18.5q-29 0 -48 18.5t-19 47.5q0 28 19 48.5t48 20.5q31 0 49 -20.5t18 -48.5z" />
    <glyph glyph-name="less" unicode="&#x3c;" horiz-adv-x="453" 
d="M349 22l-262 215v17l264 223l10 -9l-152 -219l150 -219z" />
    <glyph glyph-name="equal" unicode="=" horiz-adv-x="507" 
d="M413 377h-335v30h335v-30zM413 224h-335v30h335v-30z" />
    <glyph glyph-name="greater" unicode="&#x3e;" horiz-adv-x="453" 
d="M100 474l262 -216v-16l-264 -223l-9 9l151 219l-150 218z" />
    <glyph glyph-name="question" unicode="?" horiz-adv-x="481" 
d="M14 624q58 44 113 61.5t121 17.5q43 0 78 -11t60.5 -30.5t40.5 -46.5t17 -59q2 -52 -23.5 -103t-85.5 -85q-36 -23 -62 -40.5t-41 -35.5t-19.5 -40t1.5 -54h-14q-8 31 -11.5 53.5t1 43.5t17 44t36.5 55q12 14 25 32t23.5 40t17 46.5t6.5 52.5q0 54 -27.5 87.5t-75.5 33.5
q-27 0 -53.5 -10.5t-52.5 -28.5l-68 -149h-16zM273 51q0 -29 -18 -47.5t-49 -18.5q-29 0 -47.5 18.5t-18.5 47.5q0 28 18.5 48.5t47.5 20.5q31 0 49 -20.5t18 -48.5z" />
    <glyph glyph-name="at" unicode="@" horiz-adv-x="1005" 
d="M700 -115q-35 -29 -92 -48.5t-132 -19.5q-90 0 -168 32.5t-135 91t-90 140t-33 179.5t36.5 178.5t98 137.5t143 88.5t171.5 31.5q98 0 179.5 -34.5t140 -94t91 -139.5t32.5 -170q0 -129 -47 -191t-148 -62q-77 0 -120.5 24.5t-51.5 66.5q-18 -47 -57.5 -75.5t-93.5 -30.5
q-75 -2 -122 30t-47 100q0 29 10.5 56t44 50t96.5 41.5t167 30.5v100q0 59 -17 88.5t-59 29.5q-25 0 -49 -13t-45 -30l-75 -135h-21l-8 124q51 38 107.5 53.5t108.5 15.5q95 0 142 -45.5t47 -140.5v-231q0 -45 22.5 -61.5t62.5 -16.5q23 0 45.5 10.5t40 36t28 68.5t10.5 107
q0 85 -30.5 160t-85.5 131t-131.5 88.5t-169.5 32.5q-85 0 -160.5 -29.5t-132 -83.5t-89.5 -129.5t-33 -168.5t29.5 -170t81.5 -131.5t124 -85t157 -30.5q55 0 110 16t98 48zM466 31q38 1 65 32.5t42 73.5v148q-59 -9 -95.5 -22.5t-57 -32t-28 -43.5t-7.5 -57
q0 -55 23 -77.5t58 -21.5z" />
    <glyph glyph-name="A" unicode="A" horiz-adv-x="626" 
d="M341 11l98 36q-5 21 -12 45.5t-14 48.5t-13.5 46t-11.5 37h-260q-6 -24 -20 -71t-28 -103l122 -39v-11h-222v11l85 37q28 111 60 216t62.5 192t56.5 149.5t43 89.5h59q28 -64 60.5 -144.5t64 -168t60 -176.5t49.5 -169l59 -26v-11h-298v11zM383 238q-5 21 -15 52.5
t-21.5 67t-24 72t-24.5 68.5t-21.5 56.5t-15.5 36.5q-6 -11 -17 -37.5t-23.5 -60.5t-26.5 -72t-26 -73.5t-22 -65t-14 -44.5h251z" />
    <glyph glyph-name="B" unicode="B" 
d="M-9 695h310q54 0 91 -15.5t59.5 -41.5t31 -59.5t4.5 -69.5q-5 -44 -30.5 -82t-83.5 -62q62 -8 104.5 -44t50.5 -108q4 -48 -8 -87t-42 -67t-77 -43.5t-112 -15.5h-298v11l66 49v576l-66 48v11zM396 211q-6 62 -25 94t-45 45q-59 -16 -138 -17v-319h98q63 0 90.5 50
t19.5 147zM188 347q55 0 90 12t55 34.5t28 54.5t10 72q1 45 -4.5 76t-17.5 50t-30 27.5t-41 8.5h-90v-335z" />
    <glyph glyph-name="C" unicode="C" horiz-adv-x="538" 
d="M492 481h-21l-34 168q-23 22 -55.5 32.5t-68.5 8.5q-42 -1 -74.5 -26.5t-54 -71t-31 -109.5t-4.5 -142q11 -164 62.5 -245.5t129.5 -85.5q38 -4 82.5 11.5t80.5 42.5l7 -11q-41 -31 -92.5 -47t-105.5 -16q-69 0 -123.5 27.5t-92 75t-57 111.5t-19.5 137t19.5 139t57 116
t92 79.5t123.5 29.5q38 0 71.5 -7t61 -18.5t48 -25.5t32.5 -28z" />
    <glyph glyph-name="D" unicode="D" horiz-adv-x="583" 
d="M-12 695h277q138 0 210.5 -86.5t72.5 -266.5q0 -74 -16.5 -136.5t-51 -108t-88 -71.5t-127.5 -26h-277v11l67 49v576l-67 48v11zM186 14h82q35 0 62 16.5t45 54.5t27.5 101t9.5 156q0 101 -10.5 167t-29.5 104.5t-45.5 53.5t-58.5 15h-82v-668z" />
    <glyph glyph-name="E" unicode="E" horiz-adv-x="544" 
d="M404 250l-64 90h-154v-326h97q28 0 59.5 1t63.5 4l99 172h11v-175q-63 -10 -119.5 -13t-113.5 -3h-295v11l67 49v576l-67 48v11h307q54 0 103.5 -2.5t103.5 -14.5v-174h-11l-97 174q-48 3 -97 3h-111v-327h155l63 96h12v-200h-12z" />
    <glyph glyph-name="F" unicode="F" horiz-adv-x="466" 
d="M483 515l-97 163q-20 2 -38.5 3t-34.5 1h-127v-363h146l63 102h11v-218h-11l-63 102h-146v-249l98 -45v-11h-297v11l68 50v574l-68 49v11h343q51 1 89 -2.5t75 -13.5v-164h-11z" />
    <glyph glyph-name="G" unicode="G" horiz-adv-x="622" 
d="M522 481h-21l-38 169q-23 23 -54 32t-66 7q-45 -2 -82.5 -23t-63 -63.5t-38 -107t-7.5 -152.5q4 -84 22 -146t46.5 -102.5t66 -61.5t80.5 -22q54 -5 104 27l-1 269q-10 4 -27 5t-36 1t-38.5 -1.5t-35.5 -2.5l-2 14q60 5 122.5 3.5t116.5 -22.5v-229l-49 -22l-1 -1
q-40 -30 -82 -46t-95 -16q-78 0 -138.5 26.5t-101 74t-61.5 112t-21 140.5q0 78 21 144t61.5 114.5t101 76t138.5 27.5q38 0 72 -7t61.5 -18.5t47.5 -25.5t32 -28z" />
    <glyph glyph-name="H" unicode="H" horiz-adv-x="634" 
d="M2 11l57 42v588l-57 43v11h253v-11l-66 -45v-290h242v287l-71 48v11h259v-11l-57 -42v-588l57 -43v-11h-259v11l71 47v277h-242v-278l66 -46v-11h-253v11z" />
    <glyph glyph-name="I" unicode="I" horiz-adv-x="334" 
d="M306 684l-79 -49v-573l82 -51v-11h-293v11l80 50v573l-79 50v11h289v-11z" />
    <glyph glyph-name="J" unicode="J" horiz-adv-x="536" 
d="M538 684l-60 -40v-406q0 -67 -17.5 -114t-49 -77t-76.5 -43.5t-100 -13.5q-66 0 -125.5 23t-99.5 57l30 149h21l47 -182q26 -14 59 -24.5t68 -8.5q51 1 81.5 36t30.5 104v504l-99 36v11h290v-11z" />
    <glyph glyph-name="K" unicode="K" horiz-adv-x="577" 
d="M-10 11l57 42v582l-57 49v11h258v-11l-70 -53v-338l89 56q97 60 134.5 131.5t17.5 145.5l-79 58v11h183q7 -27 6.5 -60.5t-19 -73t-59 -83.5t-111.5 -91q46 -38 74 -69t47.5 -66.5t35.5 -83t38 -118.5l57 -39v-11h-259v11l66 47q-13 53 -23.5 90.5t-24.5 68t-34.5 58.5
t-52.5 62l-86 -57v-222l70 -47v-11h-258v11z" />
    <glyph glyph-name="L" unicode="L" horiz-adv-x="506" 
d="M286 684l-99 -49v-621h81q26 0 54 1.5t57 4.5l85 189h12l8 -187q-54 -11 -108 -16.5t-108 -5.5h-279v11l68 50v578l-68 45v11h297v-11z" />
    <glyph glyph-name="M" unicode="M" horiz-adv-x="751" 
d="M470 11l89 40q-7 99 -12.5 182t-10 147t-8.5 107t-7 61q-12 -27 -32 -81t-43.5 -122t-48 -144t-45.5 -147h-57q-11 38 -26 88t-32 104.5t-34.5 109t-33.5 101.5t-29 82.5t-21 52.5q-6 -35 -13 -90t-13.5 -124.5t-13.5 -150.5t-14 -166l135 -50v-11h-243v11l93 50
q8 99 15 179t13.5 146.5t13.5 121.5t16 104l-84 72v11h171q11 -14 24.5 -45.5t29 -74.5t32.5 -94.5t33.5 -105t32.5 -106t31 -97.5q12 43 28 94.5t33 104t34.5 104t34 95.5t30.5 76.5t25 48.5h145v-11l-82 -42q9 -47 17 -101t15.5 -124t15 -159.5t17.5 -207.5l56 -39v-11
h-277v11z" />
    <glyph glyph-name="N" unicode="N" horiz-adv-x="586" 
d="M161 695q28 -23 61.5 -72.5t74.5 -124t90 -171.5t108 -214v506l-122 65v11h226v-11l-90 -63l-2 -621h-81q-57 114 -106 211.5t-91 178t-77.5 142t-66.5 102.5v-559l152 -64v-11h-250v11l84 63v570l-77 40v11h167v0z" />
    <glyph glyph-name="O" unicode="O" horiz-adv-x="641" 
d="M158 334q4 -91 17 -154t33.5 -102t49.5 -56.5t65 -17.5q32 0 59 17t45.5 56t27 102t4.5 155q-5 106 -19.5 175t-36 109.5t-49.5 56.5t-59 16q-25 0 -51.5 -14.5t-47 -54t-32 -109t-6.5 -179.5zM25 334q0 98 22.5 168t61.5 115t90.5 66.5t109.5 21.5t109.5 -21.5t90 -66.5
t61 -115t22.5 -168q0 -81 -20 -145t-56.5 -108.5t-89 -67.5t-117.5 -23q-66 0 -118.5 23t-89 67.5t-56.5 108.5t-20 145z" />
    <glyph glyph-name="P" unicode="P" horiz-adv-x="533" 
d="M-13 695h304q63 0 109 -15t75.5 -42.5t44 -65.5t14.5 -84q0 -44 -17 -88.5t-58 -80t-107.5 -58t-165.5 -22.5v-178l103 -50v-11h-302v11l68 50v574l-68 49v11zM186 253q65 0 106.5 17.5t65.5 48t33 71.5t9 88q0 58 -8.5 97.5t-23 62.5t-34.5 33t-43 10h-105v-428z" />
    <glyph glyph-name="Q" unicode="Q" horiz-adv-x="644" 
d="M25 334q0 98 22.5 168t61.5 115t90.5 66.5t109.5 21.5t109.5 -21.5t90 -66.5t61 -115t22.5 -168q0 -117 -39.5 -196t-110.5 -117q9 -21 20 -35t27 -22.5t37.5 -12.5t51.5 -4v-105q-37 0 -59.5 5.5t-36 16t-19.5 26t-10 34.5t-8.5 42t-13.5 49q-56 -25 -122 -25t-118.5 23
t-89 67.5t-56.5 108.5t-20 145zM158 334q4 -91 19 -154t36.5 -102t49.5 -56.5t60 -17.5t59 17t45.5 56t27 102t4.5 155q-5 108 -19.5 177.5t-37 109t-50 55t-57.5 15.5q-25 0 -51.5 -14.5t-47 -54t-32 -109t-6.5 -179.5z" />
    <glyph glyph-name="R" unicode="R" horiz-adv-x="573" 
d="M338 11l65 30q-10 62 -19 105t-19.5 74.5t-24.5 54.5t-33 45q-25 -5 -54 -6.5t-61 -1.5h-1v-276l67 -25v-11h-265v11l68 53v567l-68 53v11h320q57 0 97.5 -15.5t65.5 -41.5t35 -61.5t7 -74.5q-5 -54 -35 -95.5t-94 -65.5q31 -24 51 -51t35 -61t28 -78t30 -104l58 -36v-11
h-253v11zM191 326h15q52 0 87.5 12.5t57.5 36t31.5 58t10.5 78.5q2 92 -26 131.5t-74 39.5h-102v-356z" />
    <glyph glyph-name="S" unicode="S" horiz-adv-x="551" 
d="M464 490h-16l-65 168q-23 14 -51.5 23t-63.5 9q-29 0 -55 -9.5t-45.5 -26t-31.5 -38.5t-12 -47q0 -29 9 -50.5t28 -39.5t50 -32.5t76 -28.5q120 -35 172 -91t52 -130q0 -44 -15 -82t-44.5 -65.5t-72.5 -43.5t-98 -16q-36 0 -73.5 7t-72.5 20t-65.5 32t-52.5 43l25 145h17
l71 -186q32 -23 68 -35.5t83 -11.5q43 0 74 11.5t50 30.5t28 43t9 49q0 51 -44.5 91.5t-155.5 73.5q-97 29 -142 79t-43 127q1 38 15.5 73t42 61.5t66.5 43t89 17.5q35 1 67 -5t59.5 -17t51 -25t41.5 -30z" />
    <glyph glyph-name="T" unicode="T" horiz-adv-x="488" 
d="M74 11l95 45v626q-34 -2 -63.5 -3.5t-54.5 -4.5l-64 -179h-16l-25 179q37 5 104.5 14t181.5 11h67t76 -1.5t78 -5t74 -9.5l-25 -175h-16l-65 173q-30 2 -61 2.5t-60 1.5v-629l97 -45v-11h-323v11z" />
    <glyph glyph-name="U" unicode="U" horiz-adv-x="625" 
d="M241 684l-72 -47v-471q0 -82 34 -122.5t91 -40.5q45 0 79 14t56 38v581l-75 48v11h273v-11l-68 -47v-516q-17 -25 -43.5 -48.5t-60 -41.5t-74.5 -29t-87 -12q-56 -1 -103 12t-81 44t-52.5 81t-18.5 122v387l-71 48v11h273v-11z" />
    <glyph glyph-name="V" unicode="V" horiz-adv-x="523" 
d="M213 684l-83 -49q9 -52 27.5 -118.5t44.5 -139.5t58.5 -148t69.5 -144l162 537l-141 62v11h241v-11l-84 -62l-188 -622h-91q-50 91 -88 176.5t-65 165t-45 152.5t-29 138l-78 52v11h289v-11z" />
    <glyph glyph-name="W" unicode="W" horiz-adv-x="708" 
d="M252 132l103 281l-25 172l125 -1l14 -145l94 -355q27 67 47 139t35 140t25.5 129t17.5 107l-139 85v11h166q-9 -72 -22.5 -159.5t-33.5 -180t-47.5 -184t-63.5 -171.5h-86l-100 386l-143 -386h-66l-164 638l-68 46v11h279v-11l-78 -37z" />
    <glyph glyph-name="X" unicode="X" horiz-adv-x="602" 
d="M-33 11l78 42l197 262l-208 341l-62 28v11h283v-11l-73 -41l137 -224l163 217l-112 48v11h233v-11l-100 -44l-176 -234l211 -345l79 -50v-11h-281v11l71 33l-157 258l-181 -242l129 -49v-11h-231v11z" />
    <glyph glyph-name="Y" unicode="Y" horiz-adv-x="497" 
d="M105 11l86 58v199q-33 47 -62.5 95t-54 94.5t-43.5 89.5t-30 80l-83 57v11h299v-11l-94 -57q21 -65 65.5 -147.5t116.5 -179.5l161 323l-128 61v11h244v-11l-99 -58l-169 -338v-220l85 -57v-11h-294v11z" />
    <glyph glyph-name="Z" unicode="Z" 
d="M533 0h-504v17q46 113 87.5 206.5t83.5 173t86.5 149t95.5 135.5h-236l-95 -184h-15v198h481v-18q-54 -67 -98 -131.5t-85.5 -140t-85 -170t-97.5 -221.5h274l92 197h16v-211z" />
    <glyph glyph-name="bracketleft" unicode="[" horiz-adv-x="447" 
d="M366 -141h-206v851h206v-12h-158v-826h158v-13z" />
    <glyph glyph-name="backslash" unicode="\" horiz-adv-x="561" 
d="M53 762h34l409 -862h-34z" />
    <glyph glyph-name="bracketright" unicode="]" horiz-adv-x="447" 
d="M62 710h206v-851h-206v13h158v826h-158v12z" />
    <glyph glyph-name="asciicircum" unicode="^" horiz-adv-x="458" 
d="M76 473l146 191h16l145 -191l-9 -10l-145 117l-144 -117z" />
    <glyph glyph-name="underscore" unicode="_" horiz-adv-x="507" 
d="M439 -69h-383v28h383v-28z" />
    <glyph glyph-name="grave" unicode="`" horiz-adv-x="334" 
d="M230 572l-187 173l91 56l109 -220z" />
    <glyph glyph-name="a" unicode="a" horiz-adv-x="542" 
d="M59 450q51 38 107 53t108 15q96 0 142.5 -45t46.5 -140v-233q0 -54 21 -67.5t69 4.5v-12q-32 -17 -67 -23t-66 0t-54 24t-31 49q-20 -37 -54 -60t-85 -25q-38 -1 -69.5 6.5t-54.5 23.5t-36 41t-13 59q0 29 10.5 56t43.5 50t94 42t161 31v96q0 59 -20 83.5t-63 24.5
q-26 0 -49.5 -7.5t-44.5 -20.5l-68 -144h-21zM332 284q-59 -9 -94 -21.5t-54 -31t-25 -44t-6 -60.5q0 -63 23 -86t58 -22q32 1 56.5 24t41.5 56v185z" />
    <glyph glyph-name="b" unicode="b" horiz-adv-x="531" 
d="M-28 714l162 41h33v-280q23 18 53.5 30.5t68.5 12.5q108 0 156 -64t48 -189q0 -63 -13.5 -113.5t-41 -86.5t-68.5 -55.5t-95 -19.5q-32 0 -61.5 5t-58.5 16t-58 30t-60 46v598l-62 17zM259 497q-23 0 -47 -10t-45 -24v-422q22 -20 44 -28.5t51 -8.5q51 0 78.5 60.5
t25.5 200.5q-1 67 -7 111.5t-19 71.5t-33 38t-48 11z" />
    <glyph glyph-name="c" unicode="c" horiz-adv-x="482" 
d="M422 299h-19l-64 175q-33 28 -72 28q-62 0 -88 -59t-21 -192q4 -115 40.5 -177.5t107.5 -63.5q32 0 66 13t63 36l7 -11q-30 -24 -74 -41t-95 -17q-63 0 -108.5 20.5t-75 56t-44 82t-14.5 99.5q0 56 13 105.5t41.5 86t72 57.5t105.5 21q55 0 97.5 -17.5t76.5 -49.5z" />
    <glyph glyph-name="d" unicode="d" horiz-adv-x="557" 
d="M554 7q-83 -26 -132.5 -14.5t-63.5 62.5q-25 -35 -59 -50.5t-82 -15.5q-96 0 -147 72.5t-44 206.5q7 124 61.5 187t171.5 63q49 0 94 -12v180l-82 24l-1 12l159 33h54v-671q0 -47 15.5 -60t56.5 -4zM258 13q56 0 96 62q-1 6 -1 12v13v394q-22 6 -43.5 8.5t-41.5 0.5
q-30 -2 -52.5 -16t-36.5 -42.5t-21.5 -73.5t-7.5 -108q1 -250 108 -250z" />
    <glyph glyph-name="e" unicode="e" horiz-adv-x="529" 
d="M486 55q-42 -24 -93 -44.5t-109 -20.5q-61 0 -108 21t-79 57t-48.5 84.5t-16.5 104.5q0 53 14 100.5t43 83t74.5 56.5t107.5 21q48 0 88 -13.5t69 -40t45 -66t16 -91.5q-26 -12 -61.5 -24.5t-77.5 -24t-88 -21.5t-93 -17q10 -106 54.5 -159t117.5 -47q36 2 73 18.5
t66 34.5zM268 505q-30 0 -51.5 -19t-34.5 -54.5t-17 -85.5t2 -113q60 8 115.5 22t87.5 27q-1 34 -6 73t-16.5 72.5t-31 55.5t-48.5 22z" />
    <glyph glyph-name="f" unicode="f" horiz-adv-x="324" 
d="M-6 531h90v49q0 95 35.5 135t99.5 40q44 0 76 -6.5t65 -20.5l-14 -126h-19l-34 134q-18 4 -38 6q-19 -6 -27.5 -20t-11.5 -36t-2 -52t1 -69v-34h125v-13h-125v-473l82 -33v-12h-283v12l70 32v474h-90v13z" />
    <glyph glyph-name="g" unicode="g" horiz-adv-x="548" 
d="M129 -20q-29 -33 -34 -66.5t11.5 -60.5t53.5 -44t91 -18q91 -2 132.5 25.5t46.5 73.5q7 52 -34 91t-129 46q-33 4 -59.5 4.5t-46.5 0.5q-17 10 -27.5 27t-14.5 36.5t-0.5 38.5t13.5 34q-51 22 -78.5 62t-27.5 95q0 89 62.5 141t171.5 52q51 0 94 -13.5t75 -39.5
q-21 46 -22 78t14.5 49t45.5 17.5t72 -17.5l-1 -70q-53 4 -70 -17t-13 -66q39 -47 39 -112q0 -40 -16 -73.5t-46 -57.5t-73.5 -37.5t-98.5 -13.5q-66 0 -115 18q-6 -10 -6 -22.5t6.5 -24.5t19.5 -21.5t33 -14.5q28 7 63 11q59 6 106 -1t80 -26t50.5 -48t17.5 -67
q1 -77 -67.5 -124.5t-193.5 -47.5q-100 0 -157 24.5t-75 57.5t0 67.5t69 55.5zM150 325q3 -48 13 -80t25 -50.5t36 -26.5t47 -8q109 0 98 167q-5 93 -38 135t-83 42t-76.5 -46t-21.5 -133z" />
    <glyph glyph-name="h" unicode="h" horiz-adv-x="569" 
d="M312 11l63 36v344q0 53 -16 78t-61 25q-29 0 -60 -18t-59 -57v-379l58 -29v-11h-252v11l64 44v629l-66 18l-2 12l162 41h36v-312q61 75 155 75q93 0 129.5 -46t36.5 -136v-288l63 -37v-11h-251v11z" />
    <glyph glyph-name="i" unicode="i" horiz-adv-x="286" 
d="M16 468l141 34h50v-452l64 -39v-11h-261v11l67 41v376l-61 29v11zM221 631q0 -33 -20.5 -52.5t-58.5 -19.5q-35 0 -56 19.5t-21 52.5q0 31 21 50t56 19q38 0 58.5 -19t20.5 -50z" />
    <glyph glyph-name="j" unicode="j" horiz-adv-x="264" 
d="M12 468l142 34h48v-465q0 -48 -6.5 -82t-25 -62.5t-53.5 -55t-92 -60.5l-9 10q19 12 30 21.5t17 21t7.5 27t1.5 38.5v533l-60 29v11zM218 631q0 -33 -21.5 -52.5t-57.5 -19.5q-35 0 -56 19.5t-21 52.5q0 30 21 49.5t56 19.5t57 -19t22 -50z" />
    <glyph glyph-name="k" unicode="k" horiz-adv-x="550" 
d="M-15 714l162 41h36v-526q51 22 81.5 38t56.5 38q34 26 50.5 63.5t12.5 75.5l-77 52v6h189q13 -43 2 -82t-49 -73q-16 -14 -35.5 -26.5t-43.5 -25.5l117 -224l85 -60v-11h-255v11l57 36l-100 205l-91 -38v-177l63 -26v-11h-258v11l65 38v634l-66 19z" />
    <glyph glyph-name="l" unicode="l" horiz-adv-x="259" 
d="M-24 714l169 41h39v-669q0 -26 3.5 -42t11.5 -24t22 -9t35 3l-1 -13q-55 -12 -93 -11t-62 13.5t-35 37t-11 59.5v583l-75 20z" />
    <glyph glyph-name="m" unicode="m" horiz-adv-x="847" 
d="M365 416q0 40 -16 57t-48 17q-27 0 -57 -25t-50 -82v-339l59 -33v-11h-255v11l67 37v379l-61 23v11l126 41h11l53 -80v-3q23 51 60.5 75t85.5 24q57 0 93 -26.5t44 -75.5q46 102 152 102q70 0 106 -38t36 -108v-311l67 -50v-11h-182v415q0 40 -16 57.5t-49 17.5
q-29 0 -60.5 -24.5t-50.5 -80.5v-336l49 -38v-11h-164v416z" />
    <glyph glyph-name="n" unicode="n" horiz-adv-x="591" 
d="M389 403q0 40 -15 62.5t-53 22.5q-17 0 -34.5 -6t-33.5 -20.5t-30 -37.5t-24 -56v-318l61 -39v-11h-255v11l64 40v376l-61 23v11l127 41h10l54 -92v-3q24 60 66.5 85.5t96.5 25.5q81 0 117 -45t36 -124v-304l62 -34v-11h-188v403z" />
    <glyph glyph-name="o" unicode="o" 
d="M160 237q2 -62 13 -106t28 -72t39 -41.5t48 -13.5q51 0 80.5 55.5t25.5 177.5q-3 77 -14 128.5t-28 82t-39 43.5t-47 13t-46 -12.5t-35.5 -43t-21 -82t-3.5 -129.5zM27 240q-5 68 11.5 120t49.5 87t80 53t103 18q53 0 99.5 -16t81 -48t54.5 -82t21 -117q1 -61 -17 -110
t-50.5 -83.5t-77 -53t-96.5 -18.5q-54 0 -99.5 16t-79.5 47.5t-55 78t-25 108.5z" />
    <glyph glyph-name="p" unicode="p" horiz-adv-x="553" 
d="M-7 461l127 41h10l52 -47q24 27 56.5 45.5t80.5 18.5t84 -19.5t60.5 -54.5t36.5 -84t11 -107q-2 -61 -16 -110t-41 -83t-67 -52.5t-94 -18.5q-30 0 -57 4.5t-52 12.5v-184l80 -35l-1 -11h-208v650l-62 23v11zM280 490q-32 1 -54.5 -16.5t-41.5 -46.5v-408q45 -14 85 -14
q61 0 83.5 59t22.5 182q1 127 -22.5 184.5t-72.5 59.5z" />
    <glyph glyph-name="q" unicode="q" horiz-adv-x="522" 
d="M259 -212l78 30v182q-20 -5 -40.5 -7.5t-44.5 -2.5q-107 0 -167 61t-67 180q-3 64 11.5 117t44.5 90.5t74.5 58.5t101.5 21q60 0 117 -15t99 -47v-646l49 -22v-11h-255zM252 6q39 -5 85 10v465q-17 13 -38.5 18.5t-46.5 5.5q-63 0 -88 -65t-20 -197q2 -65 10.5 -109.5
t22.5 -72.5t33 -41t42 -14z" />
    <glyph glyph-name="r" unicode="r" horiz-adv-x="408" 
d="M17 461l112 41h10l58 -121q0 66 26.5 99.5t66.5 37.5q18 2 33.5 -0.5t28 -7t22 -11t15.5 -11.5l-29 -154h-20l-42 139q-12 7 -30 5q-30 -1 -46 -31t-14 -89v-305l105 -40v-13h-298v13l63 36v378l-61 23v11z" />
    <glyph glyph-name="s" unicode="s" horiz-adv-x="496" 
d="M40 162h16l69 -133q24 -12 51 -19t58 -7q44 0 73 9t47 23.5t25.5 31.5t8.5 34q1 21 -5.5 39t-25 32t-51 24.5t-83.5 18.5q-94 14 -135 53t-38 101q1 30 14.5 57t37.5 47.5t58 32.5t78 12q49 0 93.5 -11.5t83.5 -36.5l15 -4l-21 -107h-16l-62 128q-43 19 -94 19
q-33 0 -57.5 -8t-41 -21.5t-25.5 -30t-9 -34.5q-1 -37 30.5 -60t115.5 -31q59 -6 98 -19.5t62.5 -34t32.5 -48.5t8 -63q-1 -33 -14 -63.5t-40 -53.5t-67.5 -36.5t-97.5 -13.5q-54 0 -102.5 14t-86.5 37l-22 5z" />
    <glyph glyph-name="t" unicode="t" horiz-adv-x="306" 
d="M-30 530l91 4l94 142h30v-145h133v-13h-133v-377q0 -44 6 -70.5t20 -38.5t36.5 -11t55.5 12v-12q-55 -24 -100.5 -28.5t-78.5 12t-51 55t-18 102.5v356h-83z" />
    <glyph glyph-name="u" unicode="u" horiz-adv-x="564" 
d="M487 502v-405q0 -57 20 -68.5t59 1.5v-12q-35 -16 -68 -20t-60.5 1.5t-47 20t-26.5 35.5q-25 -28 -58.5 -45t-73.5 -19q-91 -8 -136.5 37.5t-45.5 136.5v282l-73 44v11h203v-400q0 -38 15.5 -63t53.5 -27q33 -2 61 15t47 43v378l-66 43v11h196z" />
    <glyph glyph-name="v" unicode="v" horiz-adv-x="485" 
d="M233 494l-86 -53l149 -351q27 49 49 92t39.5 82.5t30.5 76t23 73.5l-120 80v8h155q-14 -104 -72 -231t-148 -271h-41l-185 421l-71 73v8h277v-8z" />
    <glyph glyph-name="w" unicode="w" horiz-adv-x="678" 
d="M498 83q46 85 76 166t47 158l-138 85v10h176q-6 -44 -19 -98.5t-36 -118t-57.5 -135t-84.5 -150.5h-43l-95 268l-103 -268h-47l-158 445l-57 46v11h257v-11l-78 -46l112 -322q6 12 14 30.5t17 40.5t19 46t19 45l-42 125l107 29l49 -160z" />
    <glyph glyph-name="x" unicode="x" horiz-adv-x="529" 
d="M281 11l52 32l-116 162l-1 1l-127 -136l116 -59v-11h-227v11l75 40l155 166l-155 221l-80 53v11h249v-10l-35 -39l100 -152l123 132l-114 59v10h230v-11l-91 -49l-141 -152l8 -12l167 -230l74 -37v-11h-262v11z" />
    <glyph glyph-name="y" unicode="y" horiz-adv-x="498" 
d="M217 491l-66 -48l169 -352q26 52 45 95t32 79.5t20.5 68.5t11.5 63l-124 94v11h201v-11l-55 -70q-5 -37 -15.5 -78t-28 -88t-42.5 -101t-59 -117q-69 -118 -135 -186t-135 -74l-37 105q51 -3 87.5 -1t65.5 11.5t52 29.5t47 54l-234 473l-60 42v11h260v-11z" />
    <glyph glyph-name="z" unicode="z" horiz-adv-x="481" 
d="M467 13v-13h-455v16q60 123 104 202t79.5 130t64.5 82.5t58 58.5h-194l-70 -143h-16l-16 143v13h427l5 -16q-23 -23 -44 -45t-42.5 -48t-44 -59t-49 -78t-58.5 -104.5t-71 -138.5h217l74 137h16z" />
    <glyph glyph-name="braceleft" unicode="{" horiz-adv-x="481" 
d="M87 288q39 0 60 18t31 47t12 65.5t3 72.5q1 43 8.5 84.5t29.5 74t62.5 52.5t107.5 20l1 -12q-30 -3 -47.5 -19.5t-26 -43t-11 -63t-2.5 -79.5q0 -31 -4 -67t-18 -68.5t-42 -57t-77 -31.5q47 -9 74.5 -31t41.5 -50.5t18.5 -60t4.5 -59.5q1 -52 3 -93t10.5 -70t26 -45.5
t49.5 -19.5l-1 -13q-68 0 -108.5 20.5t-62.5 54t-29 76t-8 85.5q-1 36 -3 71.5t-12.5 64t-31.5 46t-59 17.5v14z" />
    <glyph glyph-name="bar" unicode="|" horiz-adv-x="374" 
d="M202 729v-927h-24v927h24z" />
    <glyph glyph-name="braceright" unicode="}" horiz-adv-x="481" 
d="M389 274q-39 0 -60 -18t-31 -47.5t-12 -66t-3 -72.5q-1 -43 -8.5 -84.5t-29 -74t-62 -52.5t-107.5 -20l-1 13q30 3 47.5 19t26 42.5t11 63t2.5 80.5q0 31 4 66.5t18 68t41.5 56.5t76.5 32q-47 9 -74 31t-41 50.5t-18.5 60t-4.5 60.5q-1 51 -3.5 92t-11 70.5t-26 46
t-48.5 19.5l1 12q67 0 107.5 -20.5t62.5 -54t29 -76t8 -85.5q1 -36 3 -71.5t12.5 -64t31.5 -46t59 -17.5v-13z" />
    <glyph glyph-name="asciitilde" unicode="~" horiz-adv-x="519" 
d="M429 380q5 -34 0.5 -65t-18 -55t-35.5 -38t-52 -12q-23 1 -42.5 11t-37.5 21.5t-37 21.5t-41 10q-29 1 -44 -17t-15 -47h-12q-6 37 -0.5 69.5t20.5 56t38.5 35.5t53.5 9q22 -2 41 -12.5t37 -22.5t36 -21t39 -9q28 1 42.5 19.5t14.5 45.5h12z" />
    <glyph glyph-name="uni00A0" unicode="&#xa0;" horiz-adv-x="292" 
 />
    <glyph glyph-name="exclamdown" unicode="&#xa1;" horiz-adv-x="298" 
d="M156.008 355.013l57.9971 -469.972h-136.992l57.9971 469.972h20.998zM78.0127 509.003q0 28.998 18.499 47.4971t49.4971 18.499q28.998 0 47.4971 -18.499t18.499 -47.4971q0 -27.998 -18.499 -48.4971q-18.499 -20.498 -47.4971 -20.498q-30.998 0 -49.4971 20.498
q-18.499 20.499 -18.499 48.4971z" />
    <glyph glyph-name="cent" unicode="&#xa2;" horiz-adv-x="581" 
d="M467 411h-16l-54 170q-16 17 -34.5 28.5t-40.5 11.5q-67 0 -99.5 -75t-27.5 -221q5 -145 39.5 -222t102.5 -79q40 -2 77.5 13t73.5 43l7 -11q-38 -29 -76 -45t-87 -18v-101h-13v101q-66 0 -114 22.5t-79 64t-46 100.5t-15 132q0 72 15 129t45.5 97t78 61.5t112.5 22.5
v100h13v-100q36 -1 63.5 -8.5t48.5 -19t36.5 -25.5t27.5 -27z" />
    <glyph glyph-name="sterling" unicode="&#xa3;" horiz-adv-x="585" 
d="M371 289h-141v-261h81q27 0 57.5 1.5t60.5 4.5l64 156h12l22 -153q-54 -11 -108 -16.5t-108 -5.5h-279v11l68 56v207h-51v13h51q0 74 10.5 133t36.5 100t70.5 63t113.5 22q32 0 68 -5t57 -13l-14 -146h-16l-53 145q-11 4 -21.5 5t-18.5 -2q-34 -4 -54.5 -20.5
t-31.5 -51.5t-14.5 -91.5t-2.5 -138.5h145z" />
    <glyph glyph-name="currency" unicode="&#xa4;" horiz-adv-x="537" 
d="M274 186q-52 0 -88 30l-59 -59l-27 27l59 60q-25 36 -25 86q0 46 25 84l-61 61l28 27l60 -60q17 14 39.5 21.5t48.5 7.5q50 0 84 -28l59 59l28 -27l-61 -61q11 -17 17.5 -38t6.5 -44q0 -24 -7 -46t-19 -41l62 -61l-27 -27l-60 59q-33 -30 -83 -30zM272 199q34 0 53 36
t19 96q0 26 -5 49t-14.5 40.5t-23 27.5t-29.5 10q-18 0 -31.5 -10t-23.5 -27t-15 -40t-5 -50q0 -60 21.5 -96t53.5 -36z" />
    <glyph glyph-name="yen" unicode="&#xa5;" horiz-adv-x="698" 
d="M201 25l80 55v48h-100v12h100v72h-100v13h100v34q-64 88 -114 160t-73 134l-84 56v11h300v-11l-93 -48q23 -58 70 -128t109 -155l148 263l-124 68v11h243v-11l-108 -72l-150 -268v-44h112l-3 -13h-109v-72h88l-3 -12h-85v-38l89 -65v-10h-293v10z" />
    <glyph glyph-name="brokenbar" unicode="&#xa6;" horiz-adv-x="374" 
d="M207 219v-417h-34v417h34zM207 729v-417h-34v417h34z" />
    <glyph glyph-name="section" unicode="&#xa7;" horiz-adv-x="596" 
d="M109 95h11l71 -140q23 -8 48 -13.5t51 -5.5q42 0 72 8t50 21.5t29.5 30.5t10.5 36q1 21 -6.5 39t-27 32.5t-52.5 25.5t-84 19q-94 14 -135 48t-38 96q2 38 22.5 68t59.5 47q-48 19 -66 51.5t-16 77.5q1 30 14.5 57.5t37.5 48t58 32.5t78 12q102 0 184 -53l8 -2l-19 -107
h-11l-69 132q-23 8 -47 12t-48 4q-33 0 -57.5 -8t-41 -21t-25 -29.5t-8.5 -34.5q-1 -37 30.5 -60t115.5 -31q59 -6 98 -19.5t62.5 -34t32.5 -48.5t8 -63q-2 -31 -20 -57.5t-46 -48.5q38 -20 53 -52t13 -76q-1 -33 -14 -63.5t-40 -53.5t-67.5 -36.5t-97.5 -13.5
q-54 0 -103 14t-87 37l-21 5zM313 248q36 -3 64.5 -8.5t49.5 -14.5q30 29 32 59q1 21 -7.5 38t-29.5 29.5t-55 21t-85 13.5q-21 2 -38.5 5.5t-33.5 8.5q-58 -25 -60 -70q0 -37 36.5 -56t126.5 -26z" />
    <glyph glyph-name="dieresis" unicode="&#xa8;" horiz-adv-x="462" 
d="M181.697 637.645q0 -27.5254 -17.0723 -45.085q-17.0732 -17.5596 -46.4766 -17.5596q-27.5059 0 -45.5273 17.5596t-18.0215 45.085q0 26.5762 18.0215 46.0342t45.5273 19.458q29.4033 0 46.4766 -19.458q17.0723 -19.458 17.0723 -46.0342zM401.843 638.362
q0 -27.4014 -16.9961 -44.8818q-16.9951 -17.4805 -46.2666 -17.4805q-27.3818 0 -45.3223 17.4805q-17.9395 17.4805 -17.9395 44.8818q0 26.457 17.9395 45.8271q17.9404 19.3701 45.3223 19.3701q29.2715 0 46.2666 -19.3701q16.9961 -19.3701 16.9961 -45.8271z" />
    <glyph glyph-name="copyright" unicode="&#xa9;" horiz-adv-x="1024" 
d="M497 -183q-90 0 -170 32.5t-140 91t-95 140t-35 179.5t35.5 178.5t96 137.5t141 88.5t170.5 31.5t171 -31.5t141.5 -88.5t96 -137.5t35.5 -178.5t-36 -179.5t-97 -140t-142.5 -91t-171.5 -32.5zM497 -158q85 0 161.5 30.5t134 85.5t91 132t33.5 170t-33 168.5t-90 129
t-133 83t-161 29.5t-160.5 -29.5t-132.5 -83t-90 -129t-33 -168.5t32.5 -170t89 -132t131.5 -85.5t160 -30.5zM661 303h-18l-70 188l8 -3q-38 18 -74 18q-62 0 -88.5 -59t-21.5 -192q5 -115 41.5 -177.5t106.5 -63.5q32 0 66.5 13t63.5 36l6 -11q-29 -24 -73.5 -41
t-95.5 -17q-62 0 -107.5 20.5t-75 56t-44 82t-14.5 99.5q0 56 13 105.5t41 86t72 57.5t105 21q56 0 98 -17.5t76 -49.5z" />
    <glyph glyph-name="ordfeminine" unicode="&#xaa;" horiz-adv-x="581" 
d="M92.6426 663.052q44.6406 33.2764 93.6582 46.4111q49.0166 13.1348 94.5332 13.1348q84.0293 0 124.73 -39.4053q40.7021 -39.4053 40.7021 -122.594v-204.031q0 -47.2861 18.3809 -59.1084q18.3818 -11.8213 60.3965 3.94043v-10.5078
q-28.0098 -14.8857 -58.6455 -20.1406q-30.6357 -5.25391 -57.7705 0q-27.1338 5.25488 -47.2666 21.0166q-20.1318 15.7617 -27.1338 42.9082q-17.5068 -32.4004 -47.2666 -52.541q-29.7607 -20.1406 -74.4014 -21.8916q-33.2617 -0.875977 -60.833 5.69238
q-27.5723 6.56738 -47.7051 20.5781q-20.1318 14.0107 -31.5107 35.9023t-11.3789 51.6641q0 25.3945 9.19043 49.0381q9.19141 23.6436 38.0762 43.7832q28.8848 20.1406 82.2783 36.7783t140.925 27.1465v84.0645q0 51.6641 -17.5059 73.1182
q-17.5068 21.4541 -55.1445 21.4541q-22.7578 0 -43.3281 -6.56738q-20.5693 -6.56738 -38.9512 -17.9512l-59.5205 -126.097h-18.3809zM331.602 517.69q-51.6436 -7.88086 -82.2793 -18.8271q-30.6357 -10.9453 -47.2656 -27.1455q-16.6309 -16.2002 -21.8828 -38.5293
q-5.25195 -22.3301 -5.25195 -52.9785q0 -55.167 20.1318 -75.3076t50.7676 -19.2646q28.0098 0.875977 49.4551 21.0166q21.4443 20.1396 36.3252 49.0371v161.999z" />
    <glyph glyph-name="guillemotleft" unicode="&#xab;" horiz-adv-x="667" 
d="M545 13l-233 225v12l235 235l8 -8l-152 -228l151 -228zM330 13l-233 225v12l235 235l8 -8l-152 -228l151 -228z" />
    <glyph glyph-name="logicalnot" unicode="&#xac;" horiz-adv-x="507" 
d="M413 333v-180h-30v152h-305v28h335z" />
    <glyph glyph-name="uni00AD" unicode="&#xad;" horiz-adv-x="507" 
d="M397 252h-304v39h304v-39z" />
    <glyph glyph-name="registered" unicode="&#xae;" horiz-adv-x="1024" 
d="M497 -183q-90 0 -170 32.5t-140 91t-95 140t-35 179.5t35.5 178.5t96 137.5t141 88.5t170.5 31.5t171 -31.5t141.5 -88.5t96 -137.5t35.5 -178.5t-36 -179.5t-97 -140t-142.5 -91t-171.5 -32.5zM564 -16l58 33q-9 48 -17.5 79t-19 52t-23.5 35t-31 27q-23 -2 -49 -3.5
t-55 -1.5h-6v-175l64 -46v-12h-262v12l68 45v457l-68 56v11h313q52 0 91.5 -13t65.5 -36.5t38.5 -55.5t10.5 -70q-3 -55 -34.5 -95t-106.5 -60q22 -14 41 -29.5t36.5 -37.5t34.5 -52t34 -73l64 -47v-6q49 54 77.5 125t28.5 157q0 93 -33 168.5t-90 129t-133 83t-161 29.5
t-160.5 -29.5t-132.5 -83t-90 -129t-33 -168.5t32.5 -170t89 -132t131.5 -85.5t160 -30.5q91 0 170.5 34t138.5 96h-242v12zM421 218h6q51 0 86 6.5t57 23.5t32 46.5t11 75.5q2 88 -24 128.5t-79 40.5h-89v-321z" />
    <glyph glyph-name="macron" unicode="&#xaf;" horiz-adv-x="484" 
d="M423 637h-355v29h355v-29z" />
    <glyph glyph-name="degree" unicode="&#xb0;" horiz-adv-x="368" 
d="M189 396q-24 0 -44.5 8.5t-36.5 24t-25 37.5t-9 49q0 50 31.5 83.5t83.5 33.5q25 0 45.5 -9t35 -25t22.5 -37t8 -45t-8 -46t-23 -38.5t-35.5 -26t-44.5 -9.5zM188 409q32 0 51 29t19 78q0 45 -19.5 75t-50.5 30q-35 0 -54.5 -30t-19.5 -75q0 -49 21 -78t53 -29z" />
    <glyph glyph-name="plusminus" unicode="&#xb1;" horiz-adv-x="507" 
d="M260 550v-157h157v-30h-157v-156h-30v156h-157v30h157v157h30zM417 107h-344v30h344v-30z" />
    <glyph glyph-name="twosuperior" unicode="&#xb2;" horiz-adv-x="481" 
d="M198.404 359.705l-27 -144.904l-26.1006 144.904h-37.8018l-3.59961 -231.307h36.001l0.899414 94.5029l18.001 -94.5029h27.001l18.9004 95.4023l1.7998 -95.4023h33.3008l-1.7998 231.307h-39.6016zM950.825 810.617q-47.7012 0 -55.8018 46.8008
q-1.7998 9.90039 -1.7998 19.8008v19.8008q0 21.6006 -0.900391 46.3506q-0.899414 24.751 4.50098 45.4521q5.39941 18 19.3496 26.5498q13.9512 8.55078 31.0508 9.4502q18.001 0.900391 33.751 -6.2998q15.751 -7.2002 22.0508 -25.2002q7.2002 -19.8008 6.75 -44.5518
q-0.449219 -24.751 -0.449219 -46.3506q0 -12.6006 -0.450195 -24.751t-3.15039 -23.8506q-9.90039 -43.2012 -54.9014 -43.2012zM895.924 571.211q-22.501 0 -36.9014 11.25t-18.9004 32.8506q-1.7998 10.8008 -1.34961 21.1504q0.450195 10.3506 0.450195 22.0508
q0 20.7002 -0.900391 44.5518q-0.900391 23.8506 3.59961 44.5508q5.40039 18.9004 18.9004 27.4512q13.501 8.5498 31.501 8.5498q18.9014 0.900391 34.2012 -5.40039q15.3008 -6.2998 21.6006 -24.3008q8.10059 -20.7002 6.30078 -45.4512
q-1.80078 -24.75 -1.80078 -45.4512q0 -14.4004 0.450195 -25.6504t-2.25 -23.8506q-8.10059 -42.3008 -54.9014 -42.3008zM338.809 249.002l-39.6016 110.703h-29.7002v-231.307h36.001v113.403l40.501 -113.403h28.8008v231.307h-36.001v-110.703zM630.416 214.801
h23.4014v-14.8506t-1.7998 -19.8008q-1.80078 -9.4502 -6.75098 -15.2998q-4.9502 -5.85059 -14.8506 -2.25q-6.2998 1.7998 -9 8.09961q-2.7002 6.30078 -3.59961 13.9512q-0.900391 7.64941 -0.450195 15.2998t0.450195 12.1504v54.9014q0 10.8008 -0.450195 24.751
t2.25 25.6504q2.7002 4.5 7.65039 7.65039t10.3506 2.25q11.7002 -3.59961 12.5996 -14.4004q1.80078 -8.10059 1.35059 -16.6504t-0.450195 -18.4502h38.7012q0 19.8008 -2.7002 42.3008q-2.7002 22.501 -22.501 35.1016q-10.7998 7.19922 -25.2002 7.64941
t-27.001 -4.0498q-15.3008 -4.5 -22.9502 -18q-7.65039 -13.501 -10.3506 -28.8008q-1.7998 -16.2012 -1.35059 -33.3018q0.450195 -17.1006 0.450195 -34.2002q0 -16.2012 -0.450195 -31.9512q-0.449219 -15.75 1.35059 -31.9512q1.7998 -13.5 6.75 -27.4502
t17.5508 -20.251q11.7002 -8.09961 28.8008 -7.65039q17.1006 0.450195 27 10.3506l0.900391 -7.2002h30.6006v120.604h-60.3018v-34.2012zM639.417 812.417v211.506q20.7002 0 42.751 0.450195q22.0508 0.449219 40.0508 -9.4502q10.8008 -7.2002 17.1006 -21.1514
q6.2998 -13.9502 6.2998 -29.25q0 -15.3008 -6.2998 -28.3516q-6.2998 -13.0498 -18.9004 -17.5498l27.9004 -106.203h-27.9004l-27.9004 99.9023h-22.501v-99.9023h-30.6006zM533.214 249.002l-18.9004 20.7002q-6.2998 6.2998 -12.1504 11.7002t-8.5498 15.3008
q-2.7002 7.2002 -0.450195 19.3506t13.9502 11.25q6.2998 -0.899414 9 -6.2998t4.0498 -12.1504q1.35059 -6.75 1.80078 -13.9502t0.450195 -12.6006l36 1.7998q0 21.6006 -4.5 43.2012t-25.2002 30.6006q-12.6006 5.40039 -25.2012 4.5
q-12.5996 -0.899414 -22.9502 -6.2998t-17.1006 -15.75q-6.75 -10.3506 -7.65039 -23.8506q-1.7998 -13.501 0.450195 -27.9014t10.3506 -25.2002q2.7002 -7.2002 8.5498 -11.7002q5.85059 -4.50098 11.25 -10.8008q10.8008 -12.6006 23.4014 -26.5508t12.6006 -31.9502
q0 -7.20117 -1.35059 -13.0508q-1.34961 -5.85059 -7.65039 -6.75q-5.39941 -1.80078 -9 0.899414t-5.40039 7.2002q-5.39941 9.90039 -6.2998 20.251t-1.7998 21.1504l-36.001 -2.7002q0 -15.2998 1.34961 -28.8008q1.34961 -13.5 7.65039 -27
q7.2002 -16.2012 22.9502 -23.4014q15.751 -7.2002 32.8516 -3.59961q18 3.59961 28.3506 17.1006q10.3496 13.5 12.1504 28.8008q5.40039 43.2012 -27.001 76.502zM409.91 812.417v211.506h44.1016q16.2002 0 30.1504 -3.60059q13.9512 -3.59961 22.0508 -19.7998
q4.5 -9.00098 6.75 -20.251t1.35059 -22.0508q-0.900391 -10.7998 -5.40039 -20.7002t-12.6006 -16.2002q-11.7002 -9.90039 -27.9004 -9.90039h-29.7012v-99.0029h-28.8008zM982.326 573.011v209.705h19.8008l59.4014 -140.403v140.403h26.1006v-209.705h-19.8008
l-61.2012 143.104v-143.104h-24.3008zM1038.13 812.417v211.506h19.7998l58.502 -140.404v140.404h25.2012v-211.506h-18.9014l-61.2012 143.104v-143.104h-23.4004zM1163.23 812.417l44.1016 211.506h28.8008l44.1016 -211.506h-27.001l-10.7998 52.2012h-42.3018
l-9.90039 -52.2012h-27.001zM490.013 573.91q-18.9004 -7.2002 -41.4014 -0.899414q-22.5 6.2998 -30.6006 28.8008q-4.5 10.7998 -5.40039 22.9502q-0.899414 12.1504 -0.899414 27.4512v130.503h27.9004v-140.403q0 -11.7002 1.7998 -27.001
q1.7998 -15.2998 15.3008 -22.501q11.7002 -3.59961 19.3506 0q7.65039 3.60059 11.7002 10.8008t5.85059 16.6504q1.7998 9.4502 1.7998 18.4502q0.899414 18.001 0.450195 33.751q-0.450195 15.751 -0.450195 33.751v76.502h29.7002v-96.3018q0 -13.501 0.450195 -30.6016
t-1.7998 -33.3008t-9.90039 -29.7012q-7.65039 -13.5 -23.8506 -18.9004zM604.315 571.211q-27 0 -40.501 17.0996q-13.5 17.1006 -15.2998 43.2012l27.9004 7.2002q0.900391 -9.89941 2.25 -19.7998q1.35059 -9.90039 7.65039 -17.1006q7.2002 -8.10059 17.1006 -9.00098
q9.90039 -0.899414 17.1006 6.30078q9 7.2002 8.09961 19.8008q-0.899414 12.5996 -7.2002 20.7002q-4.5 6.2998 -10.3496 12.6006q-5.85059 6.2998 -13.0508 10.7998q-9.90039 9.90039 -21.6006 19.3506t-18.9004 21.1504q-6.2998 9.90039 -8.10059 22.0508
q-1.7998 12.1504 1.35059 23.8506q3.14941 11.7002 10.3496 20.7012q7.2002 9 19.8008 12.5996q11.7002 2.7002 26.1006 1.80078q14.4004 -0.900391 25.2012 -8.10059q9.90039 -7.2002 13.5 -20.251q3.60059 -13.0498 4.5 -25.6504l-22.5 -8.10059
q-1.80078 12.6006 -5.85059 24.751t-17.5508 14.8506q-9.89941 1.7998 -17.5498 -3.15039t-9.4502 -15.75q-2.7002 -8.10059 0 -15.3008t8.09961 -13.5q5.40039 -6.30078 12.1504 -11.25q6.75 -4.9502 12.1504 -10.3506q14.4004 -12.6006 26.5508 -25.2012
q12.1504 -12.5996 15.751 -32.4004q6.2998 -24.3008 -7.65039 -44.1016q-13.9512 -19.7998 -40.0518 -19.7998zM823.922 810.617q-26.1006 0 -40.9512 17.5498q-14.8506 17.5508 -15.75 42.752l27 7.2002q1.80078 -9.90039 3.60059 -20.251t8.09961 -16.6504
q7.2002 -7.2002 17.1006 -8.10059q9.90039 -0.899414 17.1006 5.40039q8.10059 7.2002 7.65039 19.8008t-6.75 22.5q-5.40039 9.00098 -23.4014 22.501q-9.89941 9 -21.1504 18.4502q-11.25 9.45117 -18.4502 20.251t-9 23.8506t0.899414 24.3008
q2.7002 11.25 10.3506 20.25q7.65039 9.00098 20.251 12.6006q11.7002 2.7002 26.1006 1.35059q14.4004 -1.35059 24.3008 -8.55078q10.7998 -7.2002 14.4004 -19.8008q3.59961 -12.5996 4.5 -25.2002l-22.501 -7.2002q-1.7998 10.8008 -5.84961 23.4004
q-4.05078 12.6006 -17.5508 16.2012q-9.90039 0.899414 -18.001 -4.05078q-8.09961 -4.9502 -9.89941 -13.9502q-1.80078 -9 0.899414 -16.6504t8.10059 -13.9502q5.40039 -6.30078 12.1504 -11.7002q6.75 -5.40039 13.0498 -9.90039q13.501 -12.6006 26.1006 -25.6514
q12.6006 -13.0498 17.1006 -31.0508q4.5 -26.1006 -9 -45.9004q-13.5 -19.8008 -40.501 -19.8008zM698.818 99.5977h33.3008l65.7021 289.808h-36.9014zM677.218 573.011v209.705h81.9023v-22.5h-52.2012v-68.4023h42.3008v-21.6006h-42.3008v-78.3018h52.2012v-18.9004
h-81.9023zM535.014 812.417v211.506h81.002v-22.501h-52.2012v-68.4014h42.3018v-21.6006h-42.3018v-78.3027h53.1016v-20.7002h-81.9023zM1254.13 573.011v43.2012q0 8.09961 0.899414 16.2002q0.900391 8.10059 -0.899414 15.3008q-1.80078 11.7002 -5.85059 21.1504
t-8.5498 19.3506l-29.7012 94.502h27.001l31.501 -100.803l30.6006 100.803h28.8008l-14.4004 -43.2012t-14.4004 -44.1006l-14.4004 -43.2012q-2.7002 -7.2002 -2.25 -14.4004t0.450195 -12.6006v-52.2012h-28.8008zM881.523 595.511q6.2998 -3.59961 14.4004 -3.59961
q8.09961 0 12.6006 3.59961q8.09961 4.50098 11.25 12.1504q3.15039 7.65039 4.9502 15.751q0.900391 4.5 0.450195 10.7998q-0.450195 6.30078 -0.450195 10.8008v74.7021q0 9 -0.900391 18.4502q-0.899414 9.4502 -8.09961 16.6504q-11.7012 11.7002 -26.1016 7.2002
q-14.4004 -3.59961 -20.7002 -19.8008q-2.7002 -15.2998 -1.7998 -33.3008q0.900391 -18 0.900391 -33.3008v-37.8008q0 -10.8008 1.34961 -23.4004q1.34961 -12.6006 12.1504 -18.9014zM939.125 834.918q11.7002 -4.5 26.1006 0q9 4.5 11.25 12.1504
q2.25 7.64941 3.15039 14.8496v98.1035q0 9 -0.900391 18.4502q-0.899414 9.4502 -8.09961 15.75q-4.5 7.2002 -11.251 8.10059q-6.75 0.900391 -13.9502 -0.900391q-15.2998 -0.899414 -19.7998 -18q-4.50098 -15.3008 -2.7002 -33.751q1.7998 -18.4502 1.7998 -33.751
v-38.7012q0 -10.8008 0.900391 -23.4004q0.899414 -12.6006 13.5 -18.9004zM1302.73 812.417v211.506h28.8008v-190.806h54.002v-20.7002h-82.8027zM1120.03 573.011v209.705h28.8008v-190.805h53.1016v-18.9004h-81.9023zM437.812 -173.109q-13.501 0 -19.8008 5.84961
q-6.2998 5.85059 -8.5498 14.4004q-2.25 8.55078 -2.25 18.9004v18.4512q0 9.90039 0.449219 19.7998q0.450195 9.90039 3.60059 17.1006q3.14941 7.2002 9.90039 11.251q6.75 4.0498 19.3506 3.14941q10.7998 -0.899414 16.6504 -6.2998q5.84961 -5.40039 8.09961 -13.501
q2.25 -8.09961 2.25 -17.5498v-17.5508v-17.5508t-2.69922 -17.5498q-2.7002 -8.10059 -9.00098 -13.501q-6.2998 -5.39941 -18 -5.39941zM528.714 -39.9062q-12.6006 0 -18.9004 5.85059q-6.30078 5.84961 -8.55078 14.8506q-2.25 9 -2.25 19.3496v19.3506
q0 9.00098 0.450195 18.4512t3.60059 16.6504q3.14941 7.2002 9.4502 11.7002q6.2998 4.5 18.9004 3.59961q10.7998 -0.899414 16.2002 -6.2998t8.10059 -13.5q2.69922 -8.10059 2.69922 -17.5508v-17.5508q0 -8.09961 -0.449219 -18q-0.450195 -9.90039 -3.15039 -18.001
q-2.7002 -8.09961 -8.5498 -13.5q-5.85059 -5.40039 -17.5508 -5.40039zM1343.24 -173.109q-12.6006 0 -18.9014 5.84961q-6.2998 5.85059 -8.5498 14.4004q-2.25 8.55078 -2.25 18.9004v18.4512q0 9.90039 0.450195 19.7998q0.450195 9.90039 3.59961 17.1006
q3.15039 7.2002 9.90039 11.251q6.75 4.0498 19.3506 3.14941q11.7002 -0.899414 16.6504 -6.2998t6.75 -13.501q1.80078 -8.09961 1.35059 -17.5498t-0.450195 -17.5508v-17.5508t-2.25 -17.5498q-2.25 -8.10059 -8.10059 -13.501q-5.84961 -5.39941 -17.5498 -5.39941z
M1280.23 -38.1064v107.104q9.90039 0 23.4004 0.450195q13.5 0.449219 23.4004 -7.65039q9.90039 -8.10059 9 -22.0508q-0.899414 -13.9502 -0.899414 -24.751q0 -10.7998 0.450195 -25.6504q0.449219 -14.8506 -12.1504 -22.0508q-8.10059 -7.2002 -20.7012 -6.2998
q-12.5996 0.899414 -22.5 0.899414zM709.619 -172.21v107.104q10.7998 0 21.5996 0.899414q10.8008 0.900391 19.8008 -3.59961q6.30078 -3.60059 9.4502 -10.8008q3.15039 -7.2002 3.15039 -15.2998q0 -8.10059 -3.60059 -14.8506q-3.59961 -6.75 -9.89941 -9.4502
l15.2998 -54.002h-14.4004l-12.5996 51.3018h-11.7012v-51.3018h-17.0996zM568.314 -172.21l1.80078 107.104h15.2998l18.9004 -85.5029l18.9014 85.5029h15.2998l0.900391 -107.104h-9.90039l-1.7998 79.2021l-18.9004 -79.2021h-9.90039l-16.2012 79.2021
l-1.7998 -79.2021h-12.6006zM481.013 -172.21l1.7998 107.104h16.2002l18.9004 -85.5029l18.001 85.5029h14.4004l1.7998 -107.104h-11.7002l-0.900391 79.2021l-18 -79.2021h-9.90039l-17.1006 79.2021l-0.899414 -79.2021h-12.6006zM1150.63 -172.21v107.104
q9.90039 0 20.7002 0.899414q10.8008 0.900391 20.7002 -3.59961q5.40039 -3.60059 9.00098 -10.8008q3.59961 -7.2002 3.59961 -15.2998q0 -8.10059 -3.14941 -14.8506q-3.15039 -6.75 -9.45117 -9.4502l13.501 -54.002h-13.501l-13.5 51.3018h-12.6006v-51.3018h-15.2998z
M572.814 -38.1064v107.104q9.90039 0 20.251 0.899414q10.3506 0.900391 19.3506 -3.59961q6.2998 -3.60059 9.90039 -11.25q3.59961 -7.65039 4.0498 -15.751t-2.7002 -14.8506q-3.14941 -6.75 -11.25 -9.4502l16.2002 -53.1016h-15.2998l-15.3008 49.502h-10.8008v-49.502
h-14.4004zM583.615 412.807v108.902h27.001t23.4004 -10.7998q3.60059 -9.90039 2.7002 -22.501t-8.10059 -18.9004q-7.2002 -5.40039 -14.8506 -5.85059q-7.64941 -0.450195 -15.75 -0.450195v-50.4004h-14.4004zM725.819 -38.1064v107.104h13.5v-46.8018h27.9014v46.8018
h16.2002v-107.104h-16.2002v49.502h-27.9014v-49.502h-13.5zM1389.14 -172.21v107.104h9.00098l31.501 -71.1025v71.1025h11.7002v-107.104h-9.90039l-31.501 73.8018v-73.8018h-10.8008zM1210.03 -38.1064v107.104h9l31.501 -71.1025v71.1025h11.7002v-107.104h-9
l-30.6006 72.002v-72.002h-12.6006zM748.319 412.807l23.4014 108.902h14.4004l23.4004 -108.902h-16.2002l-4.50098 28.8008h-22.5l-4.5 -28.8008h-13.501zM1139.83 -38.1064l20.7012 107.104h16.2002l22.501 -107.104h-14.4004l-5.40039 27.001h-21.6006l-6.30078 -27.001
h-11.7002zM875.223 -172.21l22.501 107.104h15.3008l22.5 -107.104h-13.5l-4.5 27.9014h-23.4004l-4.50098 -27.9014h-14.4004zM1352.24 618.012l-8.10059 164.704h27.001l-9 -164.704h-9.90039zM438.711 933.021q7.2002 0 14.4004 -0.450195t16.2012 1.34961
q10.7998 2.7002 13.9502 11.251q3.14941 8.5498 3.14941 18.4502q0.900391 11.7002 -1.7998 22.501q-2.7002 10.7998 -15.2998 14.4004q-9.00098 1.7998 -16.2012 1.34961t-14.4004 -0.450195v-68.4014zM976.926 -38.1064q-15.3008 -4.5 -26.5508 2.25
q-11.25 6.75098 -14.8506 22.0508q-1.7998 7.2002 -0.899414 13.501q0.899414 6.2998 0.899414 11.7002v57.6016h13.501v-47.7012q0 -4.50098 -0.450195 -13.0508t0.450195 -16.6504q0.899414 -8.10059 4.0498 -14.4004t10.3506 -6.2998t10.7998 6.2998
q3.60059 6.2998 4.9502 14.4004q1.35059 8.10059 0.900391 16.6504t-0.450195 13.0508v47.7012h12.6006v-48.6016q0 -7.2002 0.450195 -15.75q0.449219 -8.55078 -0.450195 -17.1006q-0.900391 -8.55078 -4.05078 -15.751q-3.14941 -7.2002 -11.25 -9.90039z
M367.609 -173.109q-13.5 0 -19.8008 8.09961q-6.2998 8.10059 -8.09961 19.3506q-1.80078 11.251 -1.35059 24.3008q0.450195 13.0508 0.450195 22.9502q0 14.4004 7.65039 25.2012t25.6504 9q16.2002 -1.7998 19.8008 -13.0498q3.59961 -11.251 3.59961 -23.8506h-14.4004
q0 4.5 0.450195 9.4502t-2.25 9.4502q-1.7998 7.2002 -9.90039 8.09961q-8.09961 0.900391 -11.7002 -6.2998q-5.40039 -5.40039 -4.0498 -18.001q1.34961 -12.5996 1.34961 -20.7002q0 -6.2998 -1.34961 -18q-1.35059 -11.7002 4.9502 -18.9014
q2.7002 -6.2998 10.7998 -4.94922q8.10059 1.34961 9.90039 8.5498q2.7002 4.5 2.25 9.90039t-0.450195 9.90039h14.4004q0 -13.501 -4.5 -27.001t-23.4004 -13.5zM805.921 -173.109q-14.4004 0 -20.25 8.09961q-5.85059 8.10059 -7.2002 19.3506
q-1.35059 11.251 -0.450195 24.3008q0.900391 13.0508 0.900391 22.9502q0 14.4004 6.75 25.2012t24.751 9q17.0996 -1.7998 20.7002 -13.0498q3.59961 -11.251 3.59961 -23.8506h-16.2002q0 4.5 0.900391 9.4502q0.899414 4.9502 -1.80078 9.4502
q-1.7998 7.2002 -9.4502 8.09961q-7.64941 0.900391 -12.1494 -6.2998q-5.40039 -5.40039 -4.50098 -18.001q0.900391 -12.5996 0.900391 -20.7002q0 -6.2998 -0.900391 -18q-0.899414 -11.7002 5.40039 -18.9014q3.60059 -6.2998 11.25 -4.94922
q7.65039 1.34961 9.4502 8.5498q2.7002 4.5 1.80078 9.90039q-0.900391 5.40039 -0.900391 9.90039h16.2002q0 -13.501 -4.5 -27.001t-24.3008 -13.5zM1246.03 -173.109q-14.4004 0 -21.1504 9.4502t-8.55078 22.0498l14.4004 3.60059q0 -5.40039 1.80078 -12.1504
q1.7998 -6.75 7.2002 -8.5498q8.09961 -4.5 12.5996 -0.450195q4.50098 4.0498 4.50098 10.3506q0 10.7998 -9.45117 19.3496q-9.4502 8.55078 -16.6504 13.9512q-9.90039 9.90039 -13.5 23.8506t9 22.9502q6.30078 4.5 14.8506 5.40039t13.9502 -2.7002
q7.2002 -1.7998 10.3506 -9.4502t4.0498 -14.8506l-12.5996 -4.5q-0.900391 5.40039 -1.80078 10.7998q-0.899414 5.40039 -5.40039 9.90039q-14.4004 3.60059 -18 -8.09961q-3.59961 -8.10059 3.15039 -14.4004q6.75 -6.30078 13.0498 -11.7002
q6.30078 -7.2002 13.0508 -13.9512q6.75 -6.75 8.5498 -16.6504q4.5 -12.5996 -2.7002 -23.4004q-7.2002 -10.7998 -20.7002 -10.7998zM670.018 933.021h14.4004t15.3008 1.7998q9.90039 4.5 13.0498 13.9502q3.15039 9.4502 1.35059 21.1504q0 9.90039 -2.25 17.1006
t-12.1504 11.7002q-7.2002 3.60059 -15.3008 3.15039t-14.4004 -0.450195v-68.4014zM844.622 411.906q-12.6006 0 -20.25 9q-7.65039 9 -8.55078 22.501l14.4004 4.5q0 -5.40039 1.7998 -12.6006q1.80078 -7.2002 7.20117 -10.7998q7.19922 -1.80078 12.1494 2.25
q4.9502 4.0498 4.9502 10.3496q0 10.8008 -9.4502 19.3506q-9.4502 8.55078 -16.6504 15.751q-9.90039 8.09961 -13.5 21.6006q-3.60059 13.5 8.10059 24.3008q6.2998 3.59961 14.4004 4.0498q8.09961 0.450195 14.4004 -1.35059q8.09961 -3.59961 11.25 -11.25
t4.0498 -14.8506l-12.6006 -2.7002q-0.899414 4.50098 -2.25 9.90039q-1.34961 5.40039 -5.84961 9.90039q-5.40039 1.80078 -10.3506 0q-4.9502 -1.7998 -6.75 -9q-2.7002 -7.2002 3.59961 -14.4004q6.30078 -7.2002 10.8008 -12.6006q7.2002 -5.39941 14.4004 -12.1504
q7.2002 -6.75 9 -16.6504q4.5 -12.6006 -2.7002 -23.8506t-21.6006 -11.25zM1091.23 411.906q-14.4004 0 -20.7002 9t-7.2002 22.501l14.4004 4.5q0 -5.40039 2.25 -12.6006t7.65039 -10.7998q7.2002 -1.80078 11.25 2.25q4.05078 4.0498 4.05078 10.3496
q0.899414 10.8008 -8.55078 19.3506q-9.4502 8.55078 -16.6504 15.751q-9.90039 8.09961 -13.9502 21.6006q-4.0498 13.5 7.65039 24.3008q15.2998 7.2002 29.7002 2.69922q7.2002 -3.59961 10.3506 -11.25t4.0498 -14.8506l-12.5996 -2.7002
q-0.900391 4.50098 -2.25 9.90039q-1.35059 5.40039 -5.85059 9.90039q-4.5 1.80078 -9.4502 0q-4.9502 -1.7998 -5.85059 -9q-5.39941 -7.2002 1.80078 -14.4004t12.5996 -12.6006q6.30078 -5.39941 13.0508 -12.1504q6.75 -6.75 8.5498 -16.6504
q4.5 -12.6006 -2.25 -23.8506t-22.0508 -11.25zM985.026 412.807l-24.3008 108.902h16.2002l15.3008 -79.2021l17.1006 79.2021h11.7002l-22.501 -108.902h-13.5zM1048.93 -172.21l-24.3008 107.104h13.501l18 -78.3027l14.4004 78.3027h15.3008l-25.2012 -107.104h-11.7002
zM1096.63 -172.21v107.104h43.2012v-9.00098h-27.9004v-35.1006h22.5v-11.7002h-22.5v-40.501h27.9004v-10.8008h-43.2012zM881.523 412.807v108.902h43.2012v-9.90039h-27.9004v-36.9004h22.5v-10.8008h-22.5v-40.501h28.8008v-10.7998h-44.1016zM656.518 -172.21v107.104
h42.3008v-9.00098h-27.001v-35.1006h22.501v-11.7002h-22.501v-40.501h27.001v-10.8008h-42.3008zM521.514 -27.3057q9 -4.5 13.0498 -0.900391q4.05078 3.60059 5.85059 10.3506t1.7998 14.8506v13.5q0 3.60059 0.450195 10.8008t0.450195 14.4004t-1.7998 13.0498
q-1.80078 5.85059 -5.40039 8.55078q-9.90039 5.39941 -16.2002 -1.80078q-6.30078 -7.2002 -6.30078 -16.2002v-17.1006q0 -3.59961 -0.450195 -11.25q-0.449219 -7.65039 -0.449219 -15.3008t1.7998 -14.4004t7.2002 -8.5498zM799.621 -38.1064v107.104h41.4014v-10.8008
h-26.1006v-36.001h22.5v-10.7998h-22.5v-40.501h26.1006v-9.00098h-41.4014zM699.719 412.807v108.902h41.4004v-9.90039h-27.9004v-36.9004h23.4004v-10.8008h-23.4004v-40.501h27.9004v-10.7998h-41.4004zM429.711 -157.81q9 -5.39941 13.5 -2.25
q4.50098 3.15039 6.30078 9.4502q1.7998 6.30078 1.7998 14.4004v13.501q0 3.59961 0.450195 10.7998t0 13.9502q-0.450195 6.75098 -1.7998 12.6006q-1.35059 5.85059 -4.9502 7.65039q-11.7002 7.2002 -16.6504 0t-4.9502 -15.3008q-0.900391 -4.5 -0.450195 -8.5498
t0.450195 -7.65039q0 -4.5 -0.450195 -11.7002t-0.450195 -15.3008q0 -8.09961 1.35059 -14.4004q1.34961 -6.2998 5.84961 -7.2002zM1336.04 -157.81q9.00098 -5.39941 13.501 -2.25q4.5 3.15039 6.75 9.4502q2.25 6.30078 2.25 14.4004v13.501q0 3.59961 0.450195 10.7998
t-0.450195 13.9502q-0.899414 6.75098 -2.7002 12.6006q-1.7998 5.85059 -5.40039 7.65039q-10.7998 7.2002 -15.2998 0t-4.5 -15.3008v-16.2002q0 -4.5 -0.900391 -11.7002q-0.899414 -7.2002 -0.899414 -15.3008q0 -8.09961 1.34961 -14.4004
q1.34961 -6.2998 5.84961 -7.2002zM448.611 -38.1064v107.104h41.4014v-10.8008h-25.2002v-36.001h19.7998v-10.7998h-19.7998v-49.502h-16.2012zM1294.63 -29.1055q9.90039 0 16.6504 1.7998t8.5498 13.5v56.7021q-0.899414 11.7002 -8.09961 13.5t-17.1006 1.7998
v-87.3018zM683.518 -38.1064v96.3027h-19.7998v10.8008h54.9014v-10.8008h-19.8008v-96.3027h-15.3008zM1060.63 -38.1064v107.104h15.3008v-98.1025h27.001v-9.00098h-42.3018zM886.023 -38.1064v107.104h40.501v-10.8008h-28.8008v-36.001h21.6006v-10.7998h-21.6006
v-49.502h-11.7002zM1174.93 412.807v99.002h-20.7012v9.90039h52.2012v-9.90039h-18v-99.002h-13.5zM1009.33 -38.1064v107.104h14.4004v-98.1025h27v-9.00098h-41.4004zM647.517 412.807v108.902h13.501v-98.1025h27.9004v-10.7998h-41.4014zM947.225 -172.21v107.104
h13.501v-96.3027h28.8008v-10.8008h-42.3018zM1203.73 886.219h36.001l-18.001 96.3027zM1129.03 412.807v108.902h16.2002v-108.902h-16.2002zM849.122 -172.21v107.104h15.3008v-107.104h-15.3008zM400.01 128.398h38.7012v43.2012h-38.7012v-43.2012zM1034.53 412.807
v108.902h14.4004v-108.902h-14.4004zM1283.83 -172.21v107.104h13.501v-107.104h-13.501zM598.016 474.008h8.10059q4.5 0 9 1.7998q5.40039 2.7002 6.2998 8.10059q0.900391 5.40039 0.900391 11.7002q-0.900391 12.6006 -7.65039 14.4004t-16.6504 1.7998v-37.8008z
M1344.14 573.011v29.7002h27.001v-29.7002h-27.001zM587.215 22.1953q9.90039 0 17.1006 3.15039t7.2002 15.75q0 12.6006 -7.2002 14.8506t-17.1006 2.25v-36.001zM1165.93 -109.208q9.90039 0 17.1006 2.25t7.2002 14.8506q0 10.7998 -7.2002 14.4004
q-7.2002 3.59961 -17.1006 3.59961v-35.1006zM726.719 -109.208q9.90039 0 16.2012 2.25q6.2998 2.25 6.2998 14.8506q0 10.7998 -6.2998 14.4004q-6.30078 3.59961 -16.2012 3.59961v-35.1006zM767.221 451.507h19.7998l-8.09961 49.502zM1159.63 -0.304688h18.9004
l-9.90039 48.6006zM895.924 -134.408h18.9004l-9 49.501zM1225.33 359.705l-27.001 -144.904l-26.1006 144.904h-37.8018l-3.59961 -231.307h36.001l0.900391 94.5029l18 -94.5029h27.001l18.9004 95.4023l1.7998 -95.4023h33.3008l-1.7998 231.307h-39.6006z
M837.422 359.705v-183.605q0 -17.1006 -14.4004 -15.3008q-6.2998 0.900391 -9 6.30078t-4.0498 12.1504q-1.35059 6.75 -1.80078 13.9502q-0.449219 7.2002 -0.449219 12.6006l-36.001 -1.80078q0 -21.5996 4.5 -43.2012q4.5 -21.5996 25.2002 -30.6006
q7.2002 -3.59961 13.9502 -4.5q6.75098 -0.899414 13.9512 0q18 1.7998 32.4004 14.4004t14.4004 34.2012v185.405h-38.7012zM933.725 359.705l-42.3008 -231.307h38.7012l9 54.9014h25.2002l7.2002 -54.9014h38.7012l-40.501 231.307h-36.001zM944.525 217.501
l7.2002 45.9014l6.2998 -45.9014h-13.5zM1078.63 128.398v69.3018l41.4004 162.005h-38.7002l-21.6006 -108.003l-19.8008 108.003h-38.7012l38.7012 -158.404v-72.9023h38.7012zM1611.44 128.398v190.805h32.4004v40.502h-104.402v-40.502h33.3008v-190.805h38.7012z
M1390.04 285.003q0 17.1006 -2.25 31.501t-8.10059 24.75q-5.84961 10.3506 -15.75 16.2012q-9.90039 5.84961 -25.2012 5.84961q-31.501 0 -41.4004 -22.5q-9.90039 -22.501 -9.90039 -55.8018v-81.0029q0 -17.0996 2.25 -31.5t8.09961 -24.751
q5.85059 -10.3506 15.751 -16.2002q9.90039 -5.85059 25.2002 -5.85059q30.6016 0 40.9512 22.0508q10.3506 22.0508 10.3506 56.251v81.0029zM1354.04 205.801v-13.501q0 -8.09961 -1.34961 -14.8496q-1.35059 -6.75098 -4.50098 -11.7012
q-3.14941 -4.9502 -9.4502 -4.9502q-6.2998 0 -9.4502 4.9502q-3.14941 4.9502 -4.5 11.7012q-1.34961 6.75 -1.34961 14.8496v13.501v77.4023v13.5q0 8.09961 1.34961 14.8506q1.35059 6.75 4.5 11.7002q3.15039 4.9502 9.4502 4.9502q6.30078 0 9.4502 -4.9502
q3.15039 -4.9502 4.50098 -11.7002q1.34961 -6.75098 1.34961 -14.8506v-13.5v-77.4023zM1482.74 249.002l-39.6006 110.703h-29.7012v-231.307h36.001v113.403l40.501 -113.403h28.8008v231.307h-36.001v-110.703z" />
    <glyph glyph-name="threesuperior" unicode="&#xb3;" horiz-adv-x="477" 
d="M194.404 359.705l-27 -144.904l-26.1006 144.904h-37.8018l-3.59961 -231.307h36.001l0.899414 94.5029l18.001 -94.5029h27.001l18.9004 95.4023l1.7998 -95.4023h33.3008l-1.7998 231.307h-39.6016zM946.825 810.617q-47.7012 0 -55.8018 46.8008
q-1.7998 9.90039 -1.7998 19.8008v19.8008q0 21.6006 -0.900391 46.3506q-0.899414 24.751 4.50098 45.4521q5.39941 18 19.3496 26.5498q13.9512 8.55078 31.0508 9.4502q18.001 0.900391 33.751 -6.2998q15.751 -7.2002 22.0508 -25.2002q7.2002 -19.8008 6.75 -44.5518
q-0.449219 -24.751 -0.449219 -46.3506q0 -12.6006 -0.450195 -24.751t-3.15039 -23.8506q-9.90039 -43.2012 -54.9014 -43.2012zM891.924 571.211q-22.501 0 -36.9014 11.25t-18.9004 32.8506q-1.7998 10.8008 -1.34961 21.1504q0.450195 10.3506 0.450195 22.0508
q0 20.7002 -0.900391 44.5518q-0.900391 23.8506 3.59961 44.5508q5.40039 18.9004 18.9004 27.4512q13.501 8.5498 31.501 8.5498q18.9014 0.900391 34.2012 -5.40039q15.3008 -6.2998 21.6006 -24.3008q8.10059 -20.7002 6.30078 -45.4512
q-1.80078 -24.75 -1.80078 -45.4512q0 -14.4004 0.450195 -25.6504t-2.25 -23.8506q-8.10059 -42.3008 -54.9014 -42.3008zM334.809 249.002l-39.6016 110.703h-29.7002v-231.307h36.001v113.403l40.501 -113.403h28.8008v231.307h-36.001v-110.703zM626.416 214.801
h23.4014v-14.8506t-1.7998 -19.8008q-1.80078 -9.4502 -6.75098 -15.2998q-4.9502 -5.85059 -14.8506 -2.25q-6.2998 1.7998 -9 8.09961q-2.7002 6.30078 -3.59961 13.9512q-0.900391 7.64941 -0.450195 15.2998t0.450195 12.1504v54.9014q0 10.8008 -0.450195 24.751
t2.25 25.6504q2.7002 4.5 7.65039 7.65039t10.3506 2.25q11.7002 -3.59961 12.5996 -14.4004q1.80078 -8.10059 1.35059 -16.6504t-0.450195 -18.4502h38.7012q0 19.8008 -2.7002 42.3008q-2.7002 22.501 -22.501 35.1016q-10.7998 7.19922 -25.2002 7.64941
t-27.001 -4.0498q-15.3008 -4.5 -22.9502 -18q-7.65039 -13.501 -10.3506 -28.8008q-1.7998 -16.2012 -1.35059 -33.3018q0.450195 -17.1006 0.450195 -34.2002q0 -16.2012 -0.450195 -31.9512q-0.449219 -15.75 1.35059 -31.9512q1.7998 -13.5 6.75 -27.4502
t17.5508 -20.251q11.7002 -8.09961 28.8008 -7.65039q17.1006 0.450195 27 10.3506l0.900391 -7.2002h30.6006v120.604h-60.3018v-34.2012zM635.417 812.417v211.506q20.7002 0 42.751 0.450195q22.0508 0.449219 40.0508 -9.4502q10.8008 -7.2002 17.1006 -21.1514
q6.2998 -13.9502 6.2998 -29.25q0 -15.3008 -6.2998 -28.3516q-6.2998 -13.0498 -18.9004 -17.5498l27.9004 -106.203h-27.9004l-27.9004 99.9023h-22.501v-99.9023h-30.6006zM529.214 249.002l-18.9004 20.7002q-6.2998 6.2998 -12.1504 11.7002t-8.5498 15.3008
q-2.7002 7.2002 -0.450195 19.3506t13.9502 11.25q6.2998 -0.899414 9 -6.2998t4.0498 -12.1504q1.35059 -6.75 1.80078 -13.9502t0.450195 -12.6006l36 1.7998q0 21.6006 -4.5 43.2012t-25.2002 30.6006q-12.6006 5.40039 -25.2012 4.5
q-12.5996 -0.899414 -22.9502 -6.2998t-17.1006 -15.75q-6.75 -10.3506 -7.65039 -23.8506q-1.7998 -13.501 0.450195 -27.9014t10.3506 -25.2002q2.7002 -7.2002 8.5498 -11.7002q5.85059 -4.50098 11.25 -10.8008q10.8008 -12.6006 23.4014 -26.5508t12.6006 -31.9502
q0 -7.20117 -1.35059 -13.0508q-1.34961 -5.85059 -7.65039 -6.75q-5.39941 -1.80078 -9 0.899414t-5.40039 7.2002q-5.39941 9.90039 -6.2998 20.251t-1.7998 21.1504l-36.001 -2.7002q0 -15.2998 1.34961 -28.8008q1.34961 -13.5 7.65039 -27
q7.2002 -16.2012 22.9502 -23.4014q15.751 -7.2002 32.8516 -3.59961q18 3.59961 28.3506 17.1006q10.3496 13.5 12.1504 28.8008q5.40039 43.2012 -27.001 76.502zM405.91 812.417v211.506h44.1016q16.2002 0 30.1504 -3.60059q13.9512 -3.59961 22.0508 -19.7998
q4.5 -9.00098 6.75 -20.251t1.35059 -22.0508q-0.900391 -10.7998 -5.40039 -20.7002t-12.6006 -16.2002q-11.7002 -9.90039 -27.9004 -9.90039h-29.7012v-99.0029h-28.8008zM978.326 573.011v209.705h19.8008l59.4014 -140.403v140.403h26.1006v-209.705h-19.8008
l-61.2012 143.104v-143.104h-24.3008zM1034.13 812.417v211.506h19.7998l58.502 -140.404v140.404h25.2012v-211.506h-18.9014l-61.2012 143.104v-143.104h-23.4004zM1159.23 812.417l44.1016 211.506h28.8008l44.1016 -211.506h-27.001l-10.7998 52.2012h-42.3018
l-9.90039 -52.2012h-27.001zM486.013 573.91q-18.9004 -7.2002 -41.4014 -0.899414q-22.5 6.2998 -30.6006 28.8008q-4.5 10.7998 -5.40039 22.9502q-0.899414 12.1504 -0.899414 27.4512v130.503h27.9004v-140.403q0 -11.7002 1.7998 -27.001
q1.7998 -15.2998 15.3008 -22.501q11.7002 -3.59961 19.3506 0q7.65039 3.60059 11.7002 10.8008t5.85059 16.6504q1.7998 9.4502 1.7998 18.4502q0.899414 18.001 0.450195 33.751q-0.450195 15.751 -0.450195 33.751v76.502h29.7002v-96.3018q0 -13.501 0.450195 -30.6016
t-1.7998 -33.3008t-9.90039 -29.7012q-7.65039 -13.5 -23.8506 -18.9004zM600.315 571.211q-27 0 -40.501 17.0996q-13.5 17.1006 -15.2998 43.2012l27.9004 7.2002q0.900391 -9.89941 2.25 -19.7998q1.35059 -9.90039 7.65039 -17.1006q7.2002 -8.10059 17.1006 -9.00098
q9.90039 -0.899414 17.1006 6.30078q9 7.2002 8.09961 19.8008q-0.899414 12.5996 -7.2002 20.7002q-4.5 6.2998 -10.3496 12.6006q-5.85059 6.2998 -13.0508 10.7998q-9.90039 9.90039 -21.6006 19.3506t-18.9004 21.1504q-6.2998 9.90039 -8.10059 22.0508
q-1.7998 12.1504 1.35059 23.8506q3.14941 11.7002 10.3496 20.7012q7.2002 9 19.8008 12.5996q11.7002 2.7002 26.1006 1.80078q14.4004 -0.900391 25.2012 -8.10059q9.90039 -7.2002 13.5 -20.251q3.60059 -13.0498 4.5 -25.6504l-22.5 -8.10059
q-1.80078 12.6006 -5.85059 24.751t-17.5508 14.8506q-9.89941 1.7998 -17.5498 -3.15039t-9.4502 -15.75q-2.7002 -8.10059 0 -15.3008t8.09961 -13.5q5.40039 -6.30078 12.1504 -11.25q6.75 -4.9502 12.1504 -10.3506q14.4004 -12.6006 26.5508 -25.2012
q12.1504 -12.5996 15.751 -32.4004q6.2998 -24.3008 -7.65039 -44.1016q-13.9512 -19.7998 -40.0518 -19.7998zM819.922 810.617q-26.1006 0 -40.9512 17.5498q-14.8506 17.5508 -15.75 42.752l27 7.2002q1.80078 -9.90039 3.60059 -20.251t8.09961 -16.6504
q7.2002 -7.2002 17.1006 -8.10059q9.90039 -0.899414 17.1006 5.40039q8.10059 7.2002 7.65039 19.8008t-6.75 22.5q-5.40039 9.00098 -23.4014 22.501q-9.89941 9 -21.1504 18.4502q-11.25 9.45117 -18.4502 20.251t-9 23.8506t0.899414 24.3008
q2.7002 11.25 10.3506 20.25q7.65039 9.00098 20.251 12.6006q11.7002 2.7002 26.1006 1.35059q14.4004 -1.35059 24.3008 -8.55078q10.7998 -7.2002 14.4004 -19.8008q3.59961 -12.5996 4.5 -25.2002l-22.501 -7.2002q-1.7998 10.8008 -5.84961 23.4004
q-4.05078 12.6006 -17.5508 16.2012q-9.90039 0.899414 -18.001 -4.05078q-8.09961 -4.9502 -9.89941 -13.9502q-1.80078 -9 0.899414 -16.6504t8.10059 -13.9502q5.40039 -6.30078 12.1504 -11.7002q6.75 -5.40039 13.0498 -9.90039q13.501 -12.6006 26.1006 -25.6514
q12.6006 -13.0498 17.1006 -31.0508q4.5 -26.1006 -9 -45.9004q-13.5 -19.8008 -40.501 -19.8008zM694.818 99.5977h33.3008l65.7021 289.808h-36.9014zM673.218 573.011v209.705h81.9023v-22.5h-52.2012v-68.4023h42.3008v-21.6006h-42.3008v-78.3018h52.2012v-18.9004
h-81.9023zM531.014 812.417v211.506h81.002v-22.501h-52.2012v-68.4014h42.3018v-21.6006h-42.3018v-78.3027h53.1016v-20.7002h-81.9023zM1250.13 573.011v43.2012q0 8.09961 0.899414 16.2002q0.900391 8.10059 -0.899414 15.3008q-1.80078 11.7002 -5.85059 21.1504
t-8.5498 19.3506l-29.7012 94.502h27.001l31.501 -100.803l30.6006 100.803h28.8008l-14.4004 -43.2012t-14.4004 -44.1006l-14.4004 -43.2012q-2.7002 -7.2002 -2.25 -14.4004t0.450195 -12.6006v-52.2012h-28.8008zM877.523 595.511q6.2998 -3.59961 14.4004 -3.59961
q8.09961 0 12.6006 3.59961q8.09961 4.50098 11.25 12.1504q3.15039 7.65039 4.9502 15.751q0.900391 4.5 0.450195 10.7998q-0.450195 6.30078 -0.450195 10.8008v74.7021q0 9 -0.900391 18.4502q-0.899414 9.4502 -8.09961 16.6504q-11.7012 11.7002 -26.1016 7.2002
q-14.4004 -3.59961 -20.7002 -19.8008q-2.7002 -15.2998 -1.7998 -33.3008q0.900391 -18 0.900391 -33.3008v-37.8008q0 -10.8008 1.34961 -23.4004q1.34961 -12.6006 12.1504 -18.9014zM935.125 834.918q11.7002 -4.5 26.1006 0q9 4.5 11.25 12.1504
q2.25 7.64941 3.15039 14.8496v98.1035q0 9 -0.900391 18.4502q-0.899414 9.4502 -8.09961 15.75q-4.5 7.2002 -11.251 8.10059q-6.75 0.900391 -13.9502 -0.900391q-15.2998 -0.899414 -19.7998 -18q-4.50098 -15.3008 -2.7002 -33.751q1.7998 -18.4502 1.7998 -33.751
v-38.7012q0 -10.8008 0.900391 -23.4004q0.899414 -12.6006 13.5 -18.9004zM1298.73 812.417v211.506h28.8008v-190.806h54.002v-20.7002h-82.8027zM1116.03 573.011v209.705h28.8008v-190.805h53.1016v-18.9004h-81.9023zM433.812 -173.109q-13.501 0 -19.8008 5.84961
q-6.2998 5.85059 -8.5498 14.4004q-2.25 8.55078 -2.25 18.9004v18.4512q0 9.90039 0.449219 19.7998q0.450195 9.90039 3.60059 17.1006q3.14941 7.2002 9.90039 11.251q6.75 4.0498 19.3506 3.14941q10.7998 -0.899414 16.6504 -6.2998q5.84961 -5.40039 8.09961 -13.501
q2.25 -8.09961 2.25 -17.5498v-17.5508v-17.5508t-2.69922 -17.5498q-2.7002 -8.10059 -9.00098 -13.501q-6.2998 -5.39941 -18 -5.39941zM524.714 -39.9062q-12.6006 0 -18.9004 5.85059q-6.30078 5.84961 -8.55078 14.8506q-2.25 9 -2.25 19.3496v19.3506
q0 9.00098 0.450195 18.4512t3.60059 16.6504q3.14941 7.2002 9.4502 11.7002q6.2998 4.5 18.9004 3.59961q10.7998 -0.899414 16.2002 -6.2998t8.10059 -13.5q2.69922 -8.10059 2.69922 -17.5508v-17.5508q0 -8.09961 -0.449219 -18q-0.450195 -9.90039 -3.15039 -18.001
q-2.7002 -8.09961 -8.5498 -13.5q-5.85059 -5.40039 -17.5508 -5.40039zM1339.24 -173.109q-12.6006 0 -18.9014 5.84961q-6.2998 5.85059 -8.5498 14.4004q-2.25 8.55078 -2.25 18.9004v18.4512q0 9.90039 0.450195 19.7998q0.450195 9.90039 3.59961 17.1006
q3.15039 7.2002 9.90039 11.251q6.75 4.0498 19.3506 3.14941q11.7002 -0.899414 16.6504 -6.2998t6.75 -13.501q1.80078 -8.09961 1.35059 -17.5498t-0.450195 -17.5508v-17.5508t-2.25 -17.5498q-2.25 -8.10059 -8.10059 -13.501q-5.84961 -5.39941 -17.5498 -5.39941z
M1276.23 -38.1064v107.104q9.90039 0 23.4004 0.450195q13.5 0.449219 23.4004 -7.65039q9.90039 -8.10059 9 -22.0508q-0.899414 -13.9502 -0.899414 -24.751q0 -10.7998 0.450195 -25.6504q0.449219 -14.8506 -12.1504 -22.0508q-8.10059 -7.2002 -20.7012 -6.2998
q-12.5996 0.899414 -22.5 0.899414zM705.619 -172.21v107.104q10.7998 0 21.5996 0.899414q10.8008 0.900391 19.8008 -3.59961q6.30078 -3.60059 9.4502 -10.8008q3.15039 -7.2002 3.15039 -15.2998q0 -8.10059 -3.60059 -14.8506q-3.59961 -6.75 -9.89941 -9.4502
l15.2998 -54.002h-14.4004l-12.5996 51.3018h-11.7012v-51.3018h-17.0996zM564.314 -172.21l1.80078 107.104h15.2998l18.9004 -85.5029l18.9014 85.5029h15.2998l0.900391 -107.104h-9.90039l-1.7998 79.2021l-18.9004 -79.2021h-9.90039l-16.2012 79.2021
l-1.7998 -79.2021h-12.6006zM477.013 -172.21l1.7998 107.104h16.2002l18.9004 -85.5029l18.001 85.5029h14.4004l1.7998 -107.104h-11.7002l-0.900391 79.2021l-18 -79.2021h-9.90039l-17.1006 79.2021l-0.899414 -79.2021h-12.6006zM1146.63 -172.21v107.104
q9.90039 0 20.7002 0.899414q10.8008 0.900391 20.7002 -3.59961q5.40039 -3.60059 9.00098 -10.8008q3.59961 -7.2002 3.59961 -15.2998q0 -8.10059 -3.14941 -14.8506q-3.15039 -6.75 -9.45117 -9.4502l13.501 -54.002h-13.501l-13.5 51.3018h-12.6006v-51.3018h-15.2998z
M568.814 -38.1064v107.104q9.90039 0 20.251 0.899414q10.3506 0.900391 19.3506 -3.59961q6.2998 -3.60059 9.90039 -11.25q3.59961 -7.65039 4.0498 -15.751t-2.7002 -14.8506q-3.14941 -6.75 -11.25 -9.4502l16.2002 -53.1016h-15.2998l-15.3008 49.502h-10.8008v-49.502
h-14.4004zM579.615 412.807v108.902h27.001t23.4004 -10.7998q3.60059 -9.90039 2.7002 -22.501t-8.10059 -18.9004q-7.2002 -5.40039 -14.8506 -5.85059q-7.64941 -0.450195 -15.75 -0.450195v-50.4004h-14.4004zM721.819 -38.1064v107.104h13.5v-46.8018h27.9014v46.8018
h16.2002v-107.104h-16.2002v49.502h-27.9014v-49.502h-13.5zM1385.14 -172.21v107.104h9.00098l31.501 -71.1025v71.1025h11.7002v-107.104h-9.90039l-31.501 73.8018v-73.8018h-10.8008zM1206.03 -38.1064v107.104h9l31.501 -71.1025v71.1025h11.7002v-107.104h-9
l-30.6006 72.002v-72.002h-12.6006zM744.319 412.807l23.4014 108.902h14.4004l23.4004 -108.902h-16.2002l-4.50098 28.8008h-22.5l-4.5 -28.8008h-13.501zM1135.83 -38.1064l20.7012 107.104h16.2002l22.501 -107.104h-14.4004l-5.40039 27.001h-21.6006l-6.30078 -27.001
h-11.7002zM871.223 -172.21l22.501 107.104h15.3008l22.5 -107.104h-13.5l-4.5 27.9014h-23.4004l-4.50098 -27.9014h-14.4004zM1348.24 618.012l-8.10059 164.704h27.001l-9 -164.704h-9.90039zM434.711 933.021q7.2002 0 14.4004 -0.450195t16.2012 1.34961
q10.7998 2.7002 13.9502 11.251q3.14941 8.5498 3.14941 18.4502q0.900391 11.7002 -1.7998 22.501q-2.7002 10.7998 -15.2998 14.4004q-9.00098 1.7998 -16.2012 1.34961t-14.4004 -0.450195v-68.4014zM972.926 -38.1064q-15.3008 -4.5 -26.5508 2.25
q-11.25 6.75098 -14.8506 22.0508q-1.7998 7.2002 -0.899414 13.501q0.899414 6.2998 0.899414 11.7002v57.6016h13.501v-47.7012q0 -4.50098 -0.450195 -13.0508t0.450195 -16.6504q0.899414 -8.10059 4.0498 -14.4004t10.3506 -6.2998t10.7998 6.2998
q3.60059 6.2998 4.9502 14.4004q1.35059 8.10059 0.900391 16.6504t-0.450195 13.0508v47.7012h12.6006v-48.6016q0 -7.2002 0.450195 -15.75q0.449219 -8.55078 -0.450195 -17.1006q-0.900391 -8.55078 -4.05078 -15.751q-3.14941 -7.2002 -11.25 -9.90039z
M363.609 -173.109q-13.5 0 -19.8008 8.09961q-6.2998 8.10059 -8.09961 19.3506q-1.80078 11.251 -1.35059 24.3008q0.450195 13.0508 0.450195 22.9502q0 14.4004 7.65039 25.2012t25.6504 9q16.2002 -1.7998 19.8008 -13.0498q3.59961 -11.251 3.59961 -23.8506h-14.4004
q0 4.5 0.450195 9.4502t-2.25 9.4502q-1.7998 7.2002 -9.90039 8.09961q-8.09961 0.900391 -11.7002 -6.2998q-5.40039 -5.40039 -4.0498 -18.001q1.34961 -12.5996 1.34961 -20.7002q0 -6.2998 -1.34961 -18q-1.35059 -11.7002 4.9502 -18.9014
q2.7002 -6.2998 10.7998 -4.94922q8.10059 1.34961 9.90039 8.5498q2.7002 4.5 2.25 9.90039t-0.450195 9.90039h14.4004q0 -13.501 -4.5 -27.001t-23.4004 -13.5zM801.921 -173.109q-14.4004 0 -20.25 8.09961q-5.85059 8.10059 -7.2002 19.3506
q-1.35059 11.251 -0.450195 24.3008q0.900391 13.0508 0.900391 22.9502q0 14.4004 6.75 25.2012t24.751 9q17.0996 -1.7998 20.7002 -13.0498q3.59961 -11.251 3.59961 -23.8506h-16.2002q0 4.5 0.900391 9.4502q0.899414 4.9502 -1.80078 9.4502
q-1.7998 7.2002 -9.4502 8.09961q-7.64941 0.900391 -12.1494 -6.2998q-5.40039 -5.40039 -4.50098 -18.001q0.900391 -12.5996 0.900391 -20.7002q0 -6.2998 -0.900391 -18q-0.899414 -11.7002 5.40039 -18.9014q3.60059 -6.2998 11.25 -4.94922
q7.65039 1.34961 9.4502 8.5498q2.7002 4.5 1.80078 9.90039q-0.900391 5.40039 -0.900391 9.90039h16.2002q0 -13.501 -4.5 -27.001t-24.3008 -13.5zM1242.03 -173.109q-14.4004 0 -21.1504 9.4502t-8.55078 22.0498l14.4004 3.60059q0 -5.40039 1.80078 -12.1504
q1.7998 -6.75 7.2002 -8.5498q8.09961 -4.5 12.5996 -0.450195q4.50098 4.0498 4.50098 10.3506q0 10.7998 -9.45117 19.3496q-9.4502 8.55078 -16.6504 13.9512q-9.90039 9.90039 -13.5 23.8506t9 22.9502q6.30078 4.5 14.8506 5.40039t13.9502 -2.7002
q7.2002 -1.7998 10.3506 -9.4502t4.0498 -14.8506l-12.5996 -4.5q-0.900391 5.40039 -1.80078 10.7998q-0.899414 5.40039 -5.40039 9.90039q-14.4004 3.60059 -18 -8.09961q-3.59961 -8.10059 3.15039 -14.4004q6.75 -6.30078 13.0498 -11.7002
q6.30078 -7.2002 13.0508 -13.9512q6.75 -6.75 8.5498 -16.6504q4.5 -12.5996 -2.7002 -23.4004q-7.2002 -10.7998 -20.7002 -10.7998zM666.018 933.021h14.4004t15.3008 1.7998q9.90039 4.5 13.0498 13.9502q3.15039 9.4502 1.35059 21.1504q0 9.90039 -2.25 17.1006
t-12.1504 11.7002q-7.2002 3.60059 -15.3008 3.15039t-14.4004 -0.450195v-68.4014zM840.622 411.906q-12.6006 0 -20.25 9q-7.65039 9 -8.55078 22.501l14.4004 4.5q0 -5.40039 1.7998 -12.6006q1.80078 -7.2002 7.20117 -10.7998q7.19922 -1.80078 12.1494 2.25
q4.9502 4.0498 4.9502 10.3496q0 10.8008 -9.4502 19.3506q-9.4502 8.55078 -16.6504 15.751q-9.90039 8.09961 -13.5 21.6006q-3.60059 13.5 8.10059 24.3008q6.2998 3.59961 14.4004 4.0498q8.09961 0.450195 14.4004 -1.35059q8.09961 -3.59961 11.25 -11.25
t4.0498 -14.8506l-12.6006 -2.7002q-0.899414 4.50098 -2.25 9.90039q-1.34961 5.40039 -5.84961 9.90039q-5.40039 1.80078 -10.3506 0q-4.9502 -1.7998 -6.75 -9q-2.7002 -7.2002 3.59961 -14.4004q6.30078 -7.2002 10.8008 -12.6006q7.2002 -5.39941 14.4004 -12.1504
q7.2002 -6.75 9 -16.6504q4.5 -12.6006 -2.7002 -23.8506t-21.6006 -11.25zM1087.23 411.906q-14.4004 0 -20.7002 9t-7.2002 22.501l14.4004 4.5q0 -5.40039 2.25 -12.6006t7.65039 -10.7998q7.2002 -1.80078 11.25 2.25q4.05078 4.0498 4.05078 10.3496
q0.899414 10.8008 -8.55078 19.3506q-9.4502 8.55078 -16.6504 15.751q-9.90039 8.09961 -13.9502 21.6006q-4.0498 13.5 7.65039 24.3008q15.2998 7.2002 29.7002 2.69922q7.2002 -3.59961 10.3506 -11.25t4.0498 -14.8506l-12.5996 -2.7002
q-0.900391 4.50098 -2.25 9.90039q-1.35059 5.40039 -5.85059 9.90039q-4.5 1.80078 -9.4502 0q-4.9502 -1.7998 -5.85059 -9q-5.39941 -7.2002 1.80078 -14.4004t12.5996 -12.6006q6.30078 -5.39941 13.0508 -12.1504q6.75 -6.75 8.5498 -16.6504
q4.5 -12.6006 -2.25 -23.8506t-22.0508 -11.25zM981.026 412.807l-24.3008 108.902h16.2002l15.3008 -79.2021l17.1006 79.2021h11.7002l-22.501 -108.902h-13.5zM1044.93 -172.21l-24.3008 107.104h13.501l18 -78.3027l14.4004 78.3027h15.3008l-25.2012 -107.104h-11.7002
zM1092.63 -172.21v107.104h43.2012v-9.00098h-27.9004v-35.1006h22.5v-11.7002h-22.5v-40.501h27.9004v-10.8008h-43.2012zM877.523 412.807v108.902h43.2012v-9.90039h-27.9004v-36.9004h22.5v-10.8008h-22.5v-40.501h28.8008v-10.7998h-44.1016zM652.518 -172.21v107.104
h42.3008v-9.00098h-27.001v-35.1006h22.501v-11.7002h-22.501v-40.501h27.001v-10.8008h-42.3008zM517.514 -27.3057q9 -4.5 13.0498 -0.900391q4.05078 3.60059 5.85059 10.3506t1.7998 14.8506v13.5q0 3.60059 0.450195 10.8008t0.450195 14.4004t-1.7998 13.0498
q-1.80078 5.85059 -5.40039 8.55078q-9.90039 5.39941 -16.2002 -1.80078q-6.30078 -7.2002 -6.30078 -16.2002v-17.1006q0 -3.59961 -0.450195 -11.25q-0.449219 -7.65039 -0.449219 -15.3008t1.7998 -14.4004t7.2002 -8.5498zM795.621 -38.1064v107.104h41.4014v-10.8008
h-26.1006v-36.001h22.5v-10.7998h-22.5v-40.501h26.1006v-9.00098h-41.4014zM695.719 412.807v108.902h41.4004v-9.90039h-27.9004v-36.9004h23.4004v-10.8008h-23.4004v-40.501h27.9004v-10.7998h-41.4004zM425.711 -157.81q9 -5.39941 13.5 -2.25
q4.50098 3.15039 6.30078 9.4502q1.7998 6.30078 1.7998 14.4004v13.501q0 3.59961 0.450195 10.7998t0 13.9502q-0.450195 6.75098 -1.7998 12.6006q-1.35059 5.85059 -4.9502 7.65039q-11.7002 7.2002 -16.6504 0t-4.9502 -15.3008q-0.900391 -4.5 -0.450195 -8.5498
t0.450195 -7.65039q0 -4.5 -0.450195 -11.7002t-0.450195 -15.3008q0 -8.09961 1.35059 -14.4004q1.34961 -6.2998 5.84961 -7.2002zM1332.04 -157.81q9.00098 -5.39941 13.501 -2.25q4.5 3.15039 6.75 9.4502q2.25 6.30078 2.25 14.4004v13.501q0 3.59961 0.450195 10.7998
t-0.450195 13.9502q-0.899414 6.75098 -2.7002 12.6006q-1.7998 5.85059 -5.40039 7.65039q-10.7998 7.2002 -15.2998 0t-4.5 -15.3008v-16.2002q0 -4.5 -0.900391 -11.7002q-0.899414 -7.2002 -0.899414 -15.3008q0 -8.09961 1.34961 -14.4004
q1.34961 -6.2998 5.84961 -7.2002zM444.611 -38.1064v107.104h41.4014v-10.8008h-25.2002v-36.001h19.7998v-10.7998h-19.7998v-49.502h-16.2012zM1290.63 -29.1055q9.90039 0 16.6504 1.7998t8.5498 13.5v56.7021q-0.899414 11.7002 -8.09961 13.5t-17.1006 1.7998
v-87.3018zM679.518 -38.1064v96.3027h-19.7998v10.8008h54.9014v-10.8008h-19.8008v-96.3027h-15.3008zM1056.63 -38.1064v107.104h15.3008v-98.1025h27.001v-9.00098h-42.3018zM882.023 -38.1064v107.104h40.501v-10.8008h-28.8008v-36.001h21.6006v-10.7998h-21.6006
v-49.502h-11.7002zM1170.93 412.807v99.002h-20.7012v9.90039h52.2012v-9.90039h-18v-99.002h-13.5zM1005.33 -38.1064v107.104h14.4004v-98.1025h27v-9.00098h-41.4004zM643.517 412.807v108.902h13.501v-98.1025h27.9004v-10.7998h-41.4014zM943.225 -172.21v107.104
h13.501v-96.3027h28.8008v-10.8008h-42.3018zM1199.73 886.219h36.001l-18.001 96.3027zM1125.03 412.807v108.902h16.2002v-108.902h-16.2002zM845.122 -172.21v107.104h15.3008v-107.104h-15.3008zM396.01 128.398h38.7012v43.2012h-38.7012v-43.2012zM1030.53 412.807
v108.902h14.4004v-108.902h-14.4004zM1279.83 -172.21v107.104h13.501v-107.104h-13.501zM594.016 474.008h8.10059q4.5 0 9 1.7998q5.40039 2.7002 6.2998 8.10059q0.900391 5.40039 0.900391 11.7002q-0.900391 12.6006 -7.65039 14.4004t-16.6504 1.7998v-37.8008z
M1340.14 573.011v29.7002h27.001v-29.7002h-27.001zM583.215 22.1953q9.90039 0 17.1006 3.15039t7.2002 15.75q0 12.6006 -7.2002 14.8506t-17.1006 2.25v-36.001zM1161.93 -109.208q9.90039 0 17.1006 2.25t7.2002 14.8506q0 10.7998 -7.2002 14.4004
q-7.2002 3.59961 -17.1006 3.59961v-35.1006zM722.719 -109.208q9.90039 0 16.2012 2.25q6.2998 2.25 6.2998 14.8506q0 10.7998 -6.2998 14.4004q-6.30078 3.59961 -16.2012 3.59961v-35.1006zM763.221 451.507h19.7998l-8.09961 49.502zM1155.63 -0.304688h18.9004
l-9.90039 48.6006zM891.924 -134.408h18.9004l-9 49.501zM1221.33 359.705l-27.001 -144.904l-26.1006 144.904h-37.8018l-3.59961 -231.307h36.001l0.900391 94.5029l18 -94.5029h27.001l18.9004 95.4023l1.7998 -95.4023h33.3008l-1.7998 231.307h-39.6006z
M833.422 359.705v-183.605q0 -17.1006 -14.4004 -15.3008q-6.2998 0.900391 -9 6.30078t-4.0498 12.1504q-1.35059 6.75 -1.80078 13.9502q-0.449219 7.2002 -0.449219 12.6006l-36.001 -1.80078q0 -21.5996 4.5 -43.2012q4.5 -21.5996 25.2002 -30.6006
q7.2002 -3.59961 13.9502 -4.5q6.75098 -0.899414 13.9512 0q18 1.7998 32.4004 14.4004t14.4004 34.2012v185.405h-38.7012zM929.725 359.705l-42.3008 -231.307h38.7012l9 54.9014h25.2002l7.2002 -54.9014h38.7012l-40.501 231.307h-36.001zM940.525 217.501
l7.2002 45.9014l6.2998 -45.9014h-13.5zM1074.63 128.398v69.3018l41.4004 162.005h-38.7002l-21.6006 -108.003l-19.8008 108.003h-38.7012l38.7012 -158.404v-72.9023h38.7012zM1607.44 128.398v190.805h32.4004v40.502h-104.402v-40.502h33.3008v-190.805h38.7012z
M1386.04 285.003q0 17.1006 -2.25 31.501t-8.10059 24.75q-5.84961 10.3506 -15.75 16.2012q-9.90039 5.84961 -25.2012 5.84961q-31.501 0 -41.4004 -22.5q-9.90039 -22.501 -9.90039 -55.8018v-81.0029q0 -17.0996 2.25 -31.5t8.09961 -24.751
q5.85059 -10.3506 15.751 -16.2002q9.90039 -5.85059 25.2002 -5.85059q30.6016 0 40.9512 22.0508q10.3506 22.0508 10.3506 56.251v81.0029zM1350.04 205.801v-13.501q0 -8.09961 -1.34961 -14.8496q-1.35059 -6.75098 -4.50098 -11.7012
q-3.14941 -4.9502 -9.4502 -4.9502q-6.2998 0 -9.4502 4.9502q-3.14941 4.9502 -4.5 11.7012q-1.34961 6.75 -1.34961 14.8496v13.501v77.4023v13.5q0 8.09961 1.34961 14.8506q1.35059 6.75 4.5 11.7002q3.15039 4.9502 9.4502 4.9502q6.30078 0 9.4502 -4.9502
q3.15039 -4.9502 4.50098 -11.7002q1.34961 -6.75098 1.34961 -14.8506v-13.5v-77.4023zM1478.74 249.002l-39.6006 110.703h-29.7012v-231.307h36.001v113.403l40.501 -113.403h28.8008v231.307h-36.001v-110.703z" />
    <glyph glyph-name="acute" unicode="&#xb4;" horiz-adv-x="303" 
d="M67 578l111 208l81 -56l-180 -161z" />
    <glyph glyph-name="mu" unicode="&#xb5;" horiz-adv-x="609" 
d="M180 102q0 -38 15.5 -63t53.5 -27q33 -2 61 15t47 43v378l-66 43v11h196v-405q0 -57 20 -68.5t59 1.5v-12q-35 -16 -68 -20t-60.5 1.5t-47 20t-26.5 35.5q-25 -28 -58.5 -45t-73.5 -19q-138 -11 -171 96v-46l89 -239h-100v645l-73 44v11h203v-400z" />
    <glyph glyph-name="paragraph" unicode="&#xb6;" horiz-adv-x="547" 
d="M530 701h-127v-899h-35v899h-165v-899h-35v694q-24 0 -45 9.5t-37 25t-25 37t-9 45.5q0 22 9 43t25 37.5t37 26t45 9.5h362v-28z" />
    <glyph glyph-name="periodcentered" unicode="&#xb7;" horiz-adv-x="313" 
d="M224 298q0 -29 -18 -47.5t-49 -18.5q-29 0 -48 18.5t-19 47.5q0 28 19 48.5t48 20.5q31 0 49 -20.5t18 -48.5z" />
    <glyph glyph-name="cedilla" unicode="&#xb8;" horiz-adv-x="410" 
d="M69 -186q32 -38 69 -45.5t63 8t34 49.5t-18 79q-15 26 -30 41t-26 27t-16.5 25.5t-0.5 37.5h12q-6 -27 10 -39t40.5 -21t50.5 -23t41 -46q17 -32 13 -60.5t-22 -50t-47 -34.5t-61.5 -13.5t-64.5 12.5t-56 44z" />
    <glyph glyph-name="onesuperior" unicode="&#xb9;" horiz-adv-x="406" 
d="M199.404 359.705l-27 -144.904l-26.1006 144.904h-37.8018l-3.59961 -231.307h36.001l0.899414 94.5029l18.001 -94.5029h27.001l18.9004 95.4023l1.7998 -95.4023h33.3008l-1.7998 231.307h-39.6016zM951.825 810.617q-47.7012 0 -55.8018 46.8008
q-1.7998 9.90039 -1.7998 19.8008v19.8008q0 21.6006 -0.900391 46.3506q-0.899414 24.751 4.50098 45.4521q5.39941 18 19.3496 26.5498q13.9512 8.55078 31.0508 9.4502q18.001 0.900391 33.751 -6.2998q15.751 -7.2002 22.0508 -25.2002q7.2002 -19.8008 6.75 -44.5518
q-0.449219 -24.751 -0.449219 -46.3506q0 -12.6006 -0.450195 -24.751t-3.15039 -23.8506q-9.90039 -43.2012 -54.9014 -43.2012zM896.924 571.211q-22.501 0 -36.9014 11.25t-18.9004 32.8506q-1.7998 10.8008 -1.34961 21.1504q0.450195 10.3506 0.450195 22.0508
q0 20.7002 -0.900391 44.5518q-0.900391 23.8506 3.59961 44.5508q5.40039 18.9004 18.9004 27.4512q13.501 8.5498 31.501 8.5498q18.9014 0.900391 34.2012 -5.40039q15.3008 -6.2998 21.6006 -24.3008q8.10059 -20.7002 6.30078 -45.4512
q-1.80078 -24.75 -1.80078 -45.4512q0 -14.4004 0.450195 -25.6504t-2.25 -23.8506q-8.10059 -42.3008 -54.9014 -42.3008zM339.809 249.002l-39.6016 110.703h-29.7002v-231.307h36.001v113.403l40.501 -113.403h28.8008v231.307h-36.001v-110.703zM631.416 214.801
h23.4014v-14.8506t-1.7998 -19.8008q-1.80078 -9.4502 -6.75098 -15.2998q-4.9502 -5.85059 -14.8506 -2.25q-6.2998 1.7998 -9 8.09961q-2.7002 6.30078 -3.59961 13.9512q-0.900391 7.64941 -0.450195 15.2998t0.450195 12.1504v54.9014q0 10.8008 -0.450195 24.751
t2.25 25.6504q2.7002 4.5 7.65039 7.65039t10.3506 2.25q11.7002 -3.59961 12.5996 -14.4004q1.80078 -8.10059 1.35059 -16.6504t-0.450195 -18.4502h38.7012q0 19.8008 -2.7002 42.3008q-2.7002 22.501 -22.501 35.1016q-10.7998 7.19922 -25.2002 7.64941
t-27.001 -4.0498q-15.3008 -4.5 -22.9502 -18q-7.65039 -13.501 -10.3506 -28.8008q-1.7998 -16.2012 -1.35059 -33.3018q0.450195 -17.1006 0.450195 -34.2002q0 -16.2012 -0.450195 -31.9512q-0.449219 -15.75 1.35059 -31.9512q1.7998 -13.5 6.75 -27.4502
t17.5508 -20.251q11.7002 -8.09961 28.8008 -7.65039q17.1006 0.450195 27 10.3506l0.900391 -7.2002h30.6006v120.604h-60.3018v-34.2012zM640.417 812.417v211.506q20.7002 0 42.751 0.450195q22.0508 0.449219 40.0508 -9.4502q10.8008 -7.2002 17.1006 -21.1514
q6.2998 -13.9502 6.2998 -29.25q0 -15.3008 -6.2998 -28.3516q-6.2998 -13.0498 -18.9004 -17.5498l27.9004 -106.203h-27.9004l-27.9004 99.9023h-22.501v-99.9023h-30.6006zM534.214 249.002l-18.9004 20.7002q-6.2998 6.2998 -12.1504 11.7002t-8.5498 15.3008
q-2.7002 7.2002 -0.450195 19.3506t13.9502 11.25q6.2998 -0.899414 9 -6.2998t4.0498 -12.1504q1.35059 -6.75 1.80078 -13.9502t0.450195 -12.6006l36 1.7998q0 21.6006 -4.5 43.2012t-25.2002 30.6006q-12.6006 5.40039 -25.2012 4.5
q-12.5996 -0.899414 -22.9502 -6.2998t-17.1006 -15.75q-6.75 -10.3506 -7.65039 -23.8506q-1.7998 -13.501 0.450195 -27.9014t10.3506 -25.2002q2.7002 -7.2002 8.5498 -11.7002q5.85059 -4.50098 11.25 -10.8008q10.8008 -12.6006 23.4014 -26.5508t12.6006 -31.9502
q0 -7.20117 -1.35059 -13.0508q-1.34961 -5.85059 -7.65039 -6.75q-5.39941 -1.80078 -9 0.899414t-5.40039 7.2002q-5.39941 9.90039 -6.2998 20.251t-1.7998 21.1504l-36.001 -2.7002q0 -15.2998 1.34961 -28.8008q1.34961 -13.5 7.65039 -27
q7.2002 -16.2012 22.9502 -23.4014q15.751 -7.2002 32.8516 -3.59961q18 3.59961 28.3506 17.1006q10.3496 13.5 12.1504 28.8008q5.40039 43.2012 -27.001 76.502zM410.91 812.417v211.506h44.1016q16.2002 0 30.1504 -3.60059q13.9512 -3.59961 22.0508 -19.7998
q4.5 -9.00098 6.75 -20.251t1.35059 -22.0508q-0.900391 -10.7998 -5.40039 -20.7002t-12.6006 -16.2002q-11.7002 -9.90039 -27.9004 -9.90039h-29.7012v-99.0029h-28.8008zM983.326 573.011v209.705h19.8008l59.4014 -140.403v140.403h26.1006v-209.705h-19.8008
l-61.2012 143.104v-143.104h-24.3008zM1039.13 812.417v211.506h19.7998l58.502 -140.404v140.404h25.2012v-211.506h-18.9014l-61.2012 143.104v-143.104h-23.4004zM1164.23 812.417l44.1016 211.506h28.8008l44.1016 -211.506h-27.001l-10.7998 52.2012h-42.3018
l-9.90039 -52.2012h-27.001zM491.013 573.91q-18.9004 -7.2002 -41.4014 -0.899414q-22.5 6.2998 -30.6006 28.8008q-4.5 10.7998 -5.40039 22.9502q-0.899414 12.1504 -0.899414 27.4512v130.503h27.9004v-140.403q0 -11.7002 1.7998 -27.001
q1.7998 -15.2998 15.3008 -22.501q11.7002 -3.59961 19.3506 0q7.65039 3.60059 11.7002 10.8008t5.85059 16.6504q1.7998 9.4502 1.7998 18.4502q0.899414 18.001 0.450195 33.751q-0.450195 15.751 -0.450195 33.751v76.502h29.7002v-96.3018q0 -13.501 0.450195 -30.6016
t-1.7998 -33.3008t-9.90039 -29.7012q-7.65039 -13.5 -23.8506 -18.9004zM605.315 571.211q-27 0 -40.501 17.0996q-13.5 17.1006 -15.2998 43.2012l27.9004 7.2002q0.900391 -9.89941 2.25 -19.7998q1.35059 -9.90039 7.65039 -17.1006q7.2002 -8.10059 17.1006 -9.00098
q9.90039 -0.899414 17.1006 6.30078q9 7.2002 8.09961 19.8008q-0.899414 12.5996 -7.2002 20.7002q-4.5 6.2998 -10.3496 12.6006q-5.85059 6.2998 -13.0508 10.7998q-9.90039 9.90039 -21.6006 19.3506t-18.9004 21.1504q-6.2998 9.90039 -8.10059 22.0508
q-1.7998 12.1504 1.35059 23.8506q3.14941 11.7002 10.3496 20.7012q7.2002 9 19.8008 12.5996q11.7002 2.7002 26.1006 1.80078q14.4004 -0.900391 25.2012 -8.10059q9.90039 -7.2002 13.5 -20.251q3.60059 -13.0498 4.5 -25.6504l-22.5 -8.10059
q-1.80078 12.6006 -5.85059 24.751t-17.5508 14.8506q-9.89941 1.7998 -17.5498 -3.15039t-9.4502 -15.75q-2.7002 -8.10059 0 -15.3008t8.09961 -13.5q5.40039 -6.30078 12.1504 -11.25q6.75 -4.9502 12.1504 -10.3506q14.4004 -12.6006 26.5508 -25.2012
q12.1504 -12.5996 15.751 -32.4004q6.2998 -24.3008 -7.65039 -44.1016q-13.9512 -19.7998 -40.0518 -19.7998zM824.922 810.617q-26.1006 0 -40.9512 17.5498q-14.8506 17.5508 -15.75 42.752l27 7.2002q1.80078 -9.90039 3.60059 -20.251t8.09961 -16.6504
q7.2002 -7.2002 17.1006 -8.10059q9.90039 -0.899414 17.1006 5.40039q8.10059 7.2002 7.65039 19.8008t-6.75 22.5q-5.40039 9.00098 -23.4014 22.501q-9.89941 9 -21.1504 18.4502q-11.25 9.45117 -18.4502 20.251t-9 23.8506t0.899414 24.3008
q2.7002 11.25 10.3506 20.25q7.65039 9.00098 20.251 12.6006q11.7002 2.7002 26.1006 1.35059q14.4004 -1.35059 24.3008 -8.55078q10.7998 -7.2002 14.4004 -19.8008q3.59961 -12.5996 4.5 -25.2002l-22.501 -7.2002q-1.7998 10.8008 -5.84961 23.4004
q-4.05078 12.6006 -17.5508 16.2012q-9.90039 0.899414 -18.001 -4.05078q-8.09961 -4.9502 -9.89941 -13.9502q-1.80078 -9 0.899414 -16.6504t8.10059 -13.9502q5.40039 -6.30078 12.1504 -11.7002q6.75 -5.40039 13.0498 -9.90039q13.501 -12.6006 26.1006 -25.6514
q12.6006 -13.0498 17.1006 -31.0508q4.5 -26.1006 -9 -45.9004q-13.5 -19.8008 -40.501 -19.8008zM699.818 99.5977h33.3008l65.7021 289.808h-36.9014zM678.218 573.011v209.705h81.9023v-22.5h-52.2012v-68.4023h42.3008v-21.6006h-42.3008v-78.3018h52.2012v-18.9004
h-81.9023zM536.014 812.417v211.506h81.002v-22.501h-52.2012v-68.4014h42.3018v-21.6006h-42.3018v-78.3027h53.1016v-20.7002h-81.9023zM1255.13 573.011v43.2012q0 8.09961 0.899414 16.2002q0.900391 8.10059 -0.899414 15.3008q-1.80078 11.7002 -5.85059 21.1504
t-8.5498 19.3506l-29.7012 94.502h27.001l31.501 -100.803l30.6006 100.803h28.8008l-14.4004 -43.2012t-14.4004 -44.1006l-14.4004 -43.2012q-2.7002 -7.2002 -2.25 -14.4004t0.450195 -12.6006v-52.2012h-28.8008zM882.523 595.511q6.2998 -3.59961 14.4004 -3.59961
q8.09961 0 12.6006 3.59961q8.09961 4.50098 11.25 12.1504q3.15039 7.65039 4.9502 15.751q0.900391 4.5 0.450195 10.7998q-0.450195 6.30078 -0.450195 10.8008v74.7021q0 9 -0.900391 18.4502q-0.899414 9.4502 -8.09961 16.6504q-11.7012 11.7002 -26.1016 7.2002
q-14.4004 -3.59961 -20.7002 -19.8008q-2.7002 -15.2998 -1.7998 -33.3008q0.900391 -18 0.900391 -33.3008v-37.8008q0 -10.8008 1.34961 -23.4004q1.34961 -12.6006 12.1504 -18.9014zM940.125 834.918q11.7002 -4.5 26.1006 0q9 4.5 11.25 12.1504
q2.25 7.64941 3.15039 14.8496v98.1035q0 9 -0.900391 18.4502q-0.899414 9.4502 -8.09961 15.75q-4.5 7.2002 -11.251 8.10059q-6.75 0.900391 -13.9502 -0.900391q-15.2998 -0.899414 -19.7998 -18q-4.50098 -15.3008 -2.7002 -33.751q1.7998 -18.4502 1.7998 -33.751
v-38.7012q0 -10.8008 0.900391 -23.4004q0.899414 -12.6006 13.5 -18.9004zM1303.73 812.417v211.506h28.8008v-190.806h54.002v-20.7002h-82.8027zM1121.03 573.011v209.705h28.8008v-190.805h53.1016v-18.9004h-81.9023zM438.812 -173.109q-13.501 0 -19.8008 5.84961
q-6.2998 5.85059 -8.5498 14.4004q-2.25 8.55078 -2.25 18.9004v18.4512q0 9.90039 0.449219 19.7998q0.450195 9.90039 3.60059 17.1006q3.14941 7.2002 9.90039 11.251q6.75 4.0498 19.3506 3.14941q10.7998 -0.899414 16.6504 -6.2998q5.84961 -5.40039 8.09961 -13.501
q2.25 -8.09961 2.25 -17.5498v-17.5508v-17.5508t-2.69922 -17.5498q-2.7002 -8.10059 -9.00098 -13.501q-6.2998 -5.39941 -18 -5.39941zM529.714 -39.9062q-12.6006 0 -18.9004 5.85059q-6.30078 5.84961 -8.55078 14.8506q-2.25 9 -2.25 19.3496v19.3506
q0 9.00098 0.450195 18.4512t3.60059 16.6504q3.14941 7.2002 9.4502 11.7002q6.2998 4.5 18.9004 3.59961q10.7998 -0.899414 16.2002 -6.2998t8.10059 -13.5q2.69922 -8.10059 2.69922 -17.5508v-17.5508q0 -8.09961 -0.449219 -18q-0.450195 -9.90039 -3.15039 -18.001
q-2.7002 -8.09961 -8.5498 -13.5q-5.85059 -5.40039 -17.5508 -5.40039zM1344.24 -173.109q-12.6006 0 -18.9014 5.84961q-6.2998 5.85059 -8.5498 14.4004q-2.25 8.55078 -2.25 18.9004v18.4512q0 9.90039 0.450195 19.7998q0.450195 9.90039 3.59961 17.1006
q3.15039 7.2002 9.90039 11.251q6.75 4.0498 19.3506 3.14941q11.7002 -0.899414 16.6504 -6.2998t6.75 -13.501q1.80078 -8.09961 1.35059 -17.5498t-0.450195 -17.5508v-17.5508t-2.25 -17.5498q-2.25 -8.10059 -8.10059 -13.501q-5.84961 -5.39941 -17.5498 -5.39941z
M1281.23 -38.1064v107.104q9.90039 0 23.4004 0.450195q13.5 0.449219 23.4004 -7.65039q9.90039 -8.10059 9 -22.0508q-0.899414 -13.9502 -0.899414 -24.751q0 -10.7998 0.450195 -25.6504q0.449219 -14.8506 -12.1504 -22.0508q-8.10059 -7.2002 -20.7012 -6.2998
q-12.5996 0.899414 -22.5 0.899414zM710.619 -172.21v107.104q10.7998 0 21.5996 0.899414q10.8008 0.900391 19.8008 -3.59961q6.30078 -3.60059 9.4502 -10.8008q3.15039 -7.2002 3.15039 -15.2998q0 -8.10059 -3.60059 -14.8506q-3.59961 -6.75 -9.89941 -9.4502
l15.2998 -54.002h-14.4004l-12.5996 51.3018h-11.7012v-51.3018h-17.0996zM569.314 -172.21l1.80078 107.104h15.2998l18.9004 -85.5029l18.9014 85.5029h15.2998l0.900391 -107.104h-9.90039l-1.7998 79.2021l-18.9004 -79.2021h-9.90039l-16.2012 79.2021
l-1.7998 -79.2021h-12.6006zM482.013 -172.21l1.7998 107.104h16.2002l18.9004 -85.5029l18.001 85.5029h14.4004l1.7998 -107.104h-11.7002l-0.900391 79.2021l-18 -79.2021h-9.90039l-17.1006 79.2021l-0.899414 -79.2021h-12.6006zM1151.63 -172.21v107.104
q9.90039 0 20.7002 0.899414q10.8008 0.900391 20.7002 -3.59961q5.40039 -3.60059 9.00098 -10.8008q3.59961 -7.2002 3.59961 -15.2998q0 -8.10059 -3.14941 -14.8506q-3.15039 -6.75 -9.45117 -9.4502l13.501 -54.002h-13.501l-13.5 51.3018h-12.6006v-51.3018h-15.2998z
M573.814 -38.1064v107.104q9.90039 0 20.251 0.899414q10.3506 0.900391 19.3506 -3.59961q6.2998 -3.60059 9.90039 -11.25q3.59961 -7.65039 4.0498 -15.751t-2.7002 -14.8506q-3.14941 -6.75 -11.25 -9.4502l16.2002 -53.1016h-15.2998l-15.3008 49.502h-10.8008v-49.502
h-14.4004zM584.615 412.807v108.902h27.001t23.4004 -10.7998q3.60059 -9.90039 2.7002 -22.501t-8.10059 -18.9004q-7.2002 -5.40039 -14.8506 -5.85059q-7.64941 -0.450195 -15.75 -0.450195v-50.4004h-14.4004zM726.819 -38.1064v107.104h13.5v-46.8018h27.9014v46.8018
h16.2002v-107.104h-16.2002v49.502h-27.9014v-49.502h-13.5zM1390.14 -172.21v107.104h9.00098l31.501 -71.1025v71.1025h11.7002v-107.104h-9.90039l-31.501 73.8018v-73.8018h-10.8008zM1211.03 -38.1064v107.104h9l31.501 -71.1025v71.1025h11.7002v-107.104h-9
l-30.6006 72.002v-72.002h-12.6006zM749.319 412.807l23.4014 108.902h14.4004l23.4004 -108.902h-16.2002l-4.50098 28.8008h-22.5l-4.5 -28.8008h-13.501zM1140.83 -38.1064l20.7012 107.104h16.2002l22.501 -107.104h-14.4004l-5.40039 27.001h-21.6006l-6.30078 -27.001
h-11.7002zM876.223 -172.21l22.501 107.104h15.3008l22.5 -107.104h-13.5l-4.5 27.9014h-23.4004l-4.50098 -27.9014h-14.4004zM1353.24 618.012l-8.10059 164.704h27.001l-9 -164.704h-9.90039zM439.711 933.021q7.2002 0 14.4004 -0.450195t16.2012 1.34961
q10.7998 2.7002 13.9502 11.251q3.14941 8.5498 3.14941 18.4502q0.900391 11.7002 -1.7998 22.501q-2.7002 10.7998 -15.2998 14.4004q-9.00098 1.7998 -16.2012 1.34961t-14.4004 -0.450195v-68.4014zM977.926 -38.1064q-15.3008 -4.5 -26.5508 2.25
q-11.25 6.75098 -14.8506 22.0508q-1.7998 7.2002 -0.899414 13.501q0.899414 6.2998 0.899414 11.7002v57.6016h13.501v-47.7012q0 -4.50098 -0.450195 -13.0508t0.450195 -16.6504q0.899414 -8.10059 4.0498 -14.4004t10.3506 -6.2998t10.7998 6.2998
q3.60059 6.2998 4.9502 14.4004q1.35059 8.10059 0.900391 16.6504t-0.450195 13.0508v47.7012h12.6006v-48.6016q0 -7.2002 0.450195 -15.75q0.449219 -8.55078 -0.450195 -17.1006q-0.900391 -8.55078 -4.05078 -15.751q-3.14941 -7.2002 -11.25 -9.90039z
M368.609 -173.109q-13.5 0 -19.8008 8.09961q-6.2998 8.10059 -8.09961 19.3506q-1.80078 11.251 -1.35059 24.3008q0.450195 13.0508 0.450195 22.9502q0 14.4004 7.65039 25.2012t25.6504 9q16.2002 -1.7998 19.8008 -13.0498q3.59961 -11.251 3.59961 -23.8506h-14.4004
q0 4.5 0.450195 9.4502t-2.25 9.4502q-1.7998 7.2002 -9.90039 8.09961q-8.09961 0.900391 -11.7002 -6.2998q-5.40039 -5.40039 -4.0498 -18.001q1.34961 -12.5996 1.34961 -20.7002q0 -6.2998 -1.34961 -18q-1.35059 -11.7002 4.9502 -18.9014
q2.7002 -6.2998 10.7998 -4.94922q8.10059 1.34961 9.90039 8.5498q2.7002 4.5 2.25 9.90039t-0.450195 9.90039h14.4004q0 -13.501 -4.5 -27.001t-23.4004 -13.5zM806.921 -173.109q-14.4004 0 -20.25 8.09961q-5.85059 8.10059 -7.2002 19.3506
q-1.35059 11.251 -0.450195 24.3008q0.900391 13.0508 0.900391 22.9502q0 14.4004 6.75 25.2012t24.751 9q17.0996 -1.7998 20.7002 -13.0498q3.59961 -11.251 3.59961 -23.8506h-16.2002q0 4.5 0.900391 9.4502q0.899414 4.9502 -1.80078 9.4502
q-1.7998 7.2002 -9.4502 8.09961q-7.64941 0.900391 -12.1494 -6.2998q-5.40039 -5.40039 -4.50098 -18.001q0.900391 -12.5996 0.900391 -20.7002q0 -6.2998 -0.900391 -18q-0.899414 -11.7002 5.40039 -18.9014q3.60059 -6.2998 11.25 -4.94922
q7.65039 1.34961 9.4502 8.5498q2.7002 4.5 1.80078 9.90039q-0.900391 5.40039 -0.900391 9.90039h16.2002q0 -13.501 -4.5 -27.001t-24.3008 -13.5zM1247.03 -173.109q-14.4004 0 -21.1504 9.4502t-8.55078 22.0498l14.4004 3.60059q0 -5.40039 1.80078 -12.1504
q1.7998 -6.75 7.2002 -8.5498q8.09961 -4.5 12.5996 -0.450195q4.50098 4.0498 4.50098 10.3506q0 10.7998 -9.45117 19.3496q-9.4502 8.55078 -16.6504 13.9512q-9.90039 9.90039 -13.5 23.8506t9 22.9502q6.30078 4.5 14.8506 5.40039t13.9502 -2.7002
q7.2002 -1.7998 10.3506 -9.4502t4.0498 -14.8506l-12.5996 -4.5q-0.900391 5.40039 -1.80078 10.7998q-0.899414 5.40039 -5.40039 9.90039q-14.4004 3.60059 -18 -8.09961q-3.59961 -8.10059 3.15039 -14.4004q6.75 -6.30078 13.0498 -11.7002
q6.30078 -7.2002 13.0508 -13.9512q6.75 -6.75 8.5498 -16.6504q4.5 -12.5996 -2.7002 -23.4004q-7.2002 -10.7998 -20.7002 -10.7998zM671.018 933.021h14.4004t15.3008 1.7998q9.90039 4.5 13.0498 13.9502q3.15039 9.4502 1.35059 21.1504q0 9.90039 -2.25 17.1006
t-12.1504 11.7002q-7.2002 3.60059 -15.3008 3.15039t-14.4004 -0.450195v-68.4014zM845.622 411.906q-12.6006 0 -20.25 9q-7.65039 9 -8.55078 22.501l14.4004 4.5q0 -5.40039 1.7998 -12.6006q1.80078 -7.2002 7.20117 -10.7998q7.19922 -1.80078 12.1494 2.25
q4.9502 4.0498 4.9502 10.3496q0 10.8008 -9.4502 19.3506q-9.4502 8.55078 -16.6504 15.751q-9.90039 8.09961 -13.5 21.6006q-3.60059 13.5 8.10059 24.3008q6.2998 3.59961 14.4004 4.0498q8.09961 0.450195 14.4004 -1.35059q8.09961 -3.59961 11.25 -11.25
t4.0498 -14.8506l-12.6006 -2.7002q-0.899414 4.50098 -2.25 9.90039q-1.34961 5.40039 -5.84961 9.90039q-5.40039 1.80078 -10.3506 0q-4.9502 -1.7998 -6.75 -9q-2.7002 -7.2002 3.59961 -14.4004q6.30078 -7.2002 10.8008 -12.6006q7.2002 -5.39941 14.4004 -12.1504
q7.2002 -6.75 9 -16.6504q4.5 -12.6006 -2.7002 -23.8506t-21.6006 -11.25zM1092.23 411.906q-14.4004 0 -20.7002 9t-7.2002 22.501l14.4004 4.5q0 -5.40039 2.25 -12.6006t7.65039 -10.7998q7.2002 -1.80078 11.25 2.25q4.05078 4.0498 4.05078 10.3496
q0.899414 10.8008 -8.55078 19.3506q-9.4502 8.55078 -16.6504 15.751q-9.90039 8.09961 -13.9502 21.6006q-4.0498 13.5 7.65039 24.3008q15.2998 7.2002 29.7002 2.69922q7.2002 -3.59961 10.3506 -11.25t4.0498 -14.8506l-12.5996 -2.7002
q-0.900391 4.50098 -2.25 9.90039q-1.35059 5.40039 -5.85059 9.90039q-4.5 1.80078 -9.4502 0q-4.9502 -1.7998 -5.85059 -9q-5.39941 -7.2002 1.80078 -14.4004t12.5996 -12.6006q6.30078 -5.39941 13.0508 -12.1504q6.75 -6.75 8.5498 -16.6504
q4.5 -12.6006 -2.25 -23.8506t-22.0508 -11.25zM986.026 412.807l-24.3008 108.902h16.2002l15.3008 -79.2021l17.1006 79.2021h11.7002l-22.501 -108.902h-13.5zM1049.93 -172.21l-24.3008 107.104h13.501l18 -78.3027l14.4004 78.3027h15.3008l-25.2012 -107.104h-11.7002
zM1097.63 -172.21v107.104h43.2012v-9.00098h-27.9004v-35.1006h22.5v-11.7002h-22.5v-40.501h27.9004v-10.8008h-43.2012zM882.523 412.807v108.902h43.2012v-9.90039h-27.9004v-36.9004h22.5v-10.8008h-22.5v-40.501h28.8008v-10.7998h-44.1016zM657.518 -172.21v107.104
h42.3008v-9.00098h-27.001v-35.1006h22.501v-11.7002h-22.501v-40.501h27.001v-10.8008h-42.3008zM522.514 -27.3057q9 -4.5 13.0498 -0.900391q4.05078 3.60059 5.85059 10.3506t1.7998 14.8506v13.5q0 3.60059 0.450195 10.8008t0.450195 14.4004t-1.7998 13.0498
q-1.80078 5.85059 -5.40039 8.55078q-9.90039 5.39941 -16.2002 -1.80078q-6.30078 -7.2002 -6.30078 -16.2002v-17.1006q0 -3.59961 -0.450195 -11.25q-0.449219 -7.65039 -0.449219 -15.3008t1.7998 -14.4004t7.2002 -8.5498zM800.621 -38.1064v107.104h41.4014v-10.8008
h-26.1006v-36.001h22.5v-10.7998h-22.5v-40.501h26.1006v-9.00098h-41.4014zM700.719 412.807v108.902h41.4004v-9.90039h-27.9004v-36.9004h23.4004v-10.8008h-23.4004v-40.501h27.9004v-10.7998h-41.4004zM430.711 -157.81q9 -5.39941 13.5 -2.25
q4.50098 3.15039 6.30078 9.4502q1.7998 6.30078 1.7998 14.4004v13.501q0 3.59961 0.450195 10.7998t0 13.9502q-0.450195 6.75098 -1.7998 12.6006q-1.35059 5.85059 -4.9502 7.65039q-11.7002 7.2002 -16.6504 0t-4.9502 -15.3008q-0.900391 -4.5 -0.450195 -8.5498
t0.450195 -7.65039q0 -4.5 -0.450195 -11.7002t-0.450195 -15.3008q0 -8.09961 1.35059 -14.4004q1.34961 -6.2998 5.84961 -7.2002zM1337.04 -157.81q9.00098 -5.39941 13.501 -2.25q4.5 3.15039 6.75 9.4502q2.25 6.30078 2.25 14.4004v13.501q0 3.59961 0.450195 10.7998
t-0.450195 13.9502q-0.899414 6.75098 -2.7002 12.6006q-1.7998 5.85059 -5.40039 7.65039q-10.7998 7.2002 -15.2998 0t-4.5 -15.3008v-16.2002q0 -4.5 -0.900391 -11.7002q-0.899414 -7.2002 -0.899414 -15.3008q0 -8.09961 1.34961 -14.4004
q1.34961 -6.2998 5.84961 -7.2002zM449.611 -38.1064v107.104h41.4014v-10.8008h-25.2002v-36.001h19.7998v-10.7998h-19.7998v-49.502h-16.2012zM1295.63 -29.1055q9.90039 0 16.6504 1.7998t8.5498 13.5v56.7021q-0.899414 11.7002 -8.09961 13.5t-17.1006 1.7998
v-87.3018zM684.518 -38.1064v96.3027h-19.7998v10.8008h54.9014v-10.8008h-19.8008v-96.3027h-15.3008zM1061.63 -38.1064v107.104h15.3008v-98.1025h27.001v-9.00098h-42.3018zM887.023 -38.1064v107.104h40.501v-10.8008h-28.8008v-36.001h21.6006v-10.7998h-21.6006
v-49.502h-11.7002zM1175.93 412.807v99.002h-20.7012v9.90039h52.2012v-9.90039h-18v-99.002h-13.5zM1010.33 -38.1064v107.104h14.4004v-98.1025h27v-9.00098h-41.4004zM648.517 412.807v108.902h13.501v-98.1025h27.9004v-10.7998h-41.4014zM948.225 -172.21v107.104
h13.501v-96.3027h28.8008v-10.8008h-42.3018zM1204.73 886.219h36.001l-18.001 96.3027zM1130.03 412.807v108.902h16.2002v-108.902h-16.2002zM850.122 -172.21v107.104h15.3008v-107.104h-15.3008zM401.01 128.398h38.7012v43.2012h-38.7012v-43.2012zM1035.53 412.807
v108.902h14.4004v-108.902h-14.4004zM1284.83 -172.21v107.104h13.501v-107.104h-13.501zM599.016 474.008h8.10059q4.5 0 9 1.7998q5.40039 2.7002 6.2998 8.10059q0.900391 5.40039 0.900391 11.7002q-0.900391 12.6006 -7.65039 14.4004t-16.6504 1.7998v-37.8008z
M1345.14 573.011v29.7002h27.001v-29.7002h-27.001zM588.215 22.1953q9.90039 0 17.1006 3.15039t7.2002 15.75q0 12.6006 -7.2002 14.8506t-17.1006 2.25v-36.001zM1166.93 -109.208q9.90039 0 17.1006 2.25t7.2002 14.8506q0 10.7998 -7.2002 14.4004
q-7.2002 3.59961 -17.1006 3.59961v-35.1006zM727.719 -109.208q9.90039 0 16.2012 2.25q6.2998 2.25 6.2998 14.8506q0 10.7998 -6.2998 14.4004q-6.30078 3.59961 -16.2012 3.59961v-35.1006zM768.221 451.507h19.7998l-8.09961 49.502zM1160.63 -0.304688h18.9004
l-9.90039 48.6006zM896.924 -134.408h18.9004l-9 49.501zM1226.33 359.705l-27.001 -144.904l-26.1006 144.904h-37.8018l-3.59961 -231.307h36.001l0.900391 94.5029l18 -94.5029h27.001l18.9004 95.4023l1.7998 -95.4023h33.3008l-1.7998 231.307h-39.6006z
M838.422 359.705v-183.605q0 -17.1006 -14.4004 -15.3008q-6.2998 0.900391 -9 6.30078t-4.0498 12.1504q-1.35059 6.75 -1.80078 13.9502q-0.449219 7.2002 -0.449219 12.6006l-36.001 -1.80078q0 -21.5996 4.5 -43.2012q4.5 -21.5996 25.2002 -30.6006
q7.2002 -3.59961 13.9502 -4.5q6.75098 -0.899414 13.9512 0q18 1.7998 32.4004 14.4004t14.4004 34.2012v185.405h-38.7012zM934.725 359.705l-42.3008 -231.307h38.7012l9 54.9014h25.2002l7.2002 -54.9014h38.7012l-40.501 231.307h-36.001zM945.525 217.501
l7.2002 45.9014l6.2998 -45.9014h-13.5zM1079.63 128.398v69.3018l41.4004 162.005h-38.7002l-21.6006 -108.003l-19.8008 108.003h-38.7012l38.7012 -158.404v-72.9023h38.7012zM1612.44 128.398v190.805h32.4004v40.502h-104.402v-40.502h33.3008v-190.805h38.7012z
M1391.04 285.003q0 17.1006 -2.25 31.501t-8.10059 24.75q-5.84961 10.3506 -15.75 16.2012q-9.90039 5.84961 -25.2012 5.84961q-31.501 0 -41.4004 -22.5q-9.90039 -22.501 -9.90039 -55.8018v-81.0029q0 -17.0996 2.25 -31.5t8.09961 -24.751
q5.85059 -10.3506 15.751 -16.2002q9.90039 -5.85059 25.2002 -5.85059q30.6016 0 40.9512 22.0508q10.3506 22.0508 10.3506 56.251v81.0029zM1355.04 205.801v-13.501q0 -8.09961 -1.34961 -14.8496q-1.35059 -6.75098 -4.50098 -11.7012
q-3.14941 -4.9502 -9.4502 -4.9502q-6.2998 0 -9.4502 4.9502q-3.14941 4.9502 -4.5 11.7012q-1.34961 6.75 -1.34961 14.8496v13.501v77.4023v13.5q0 8.09961 1.34961 14.8506q1.35059 6.75 4.5 11.7002q3.15039 4.9502 9.4502 4.9502q6.30078 0 9.4502 -4.9502
q3.15039 -4.9502 4.50098 -11.7002q1.34961 -6.75098 1.34961 -14.8506v-13.5v-77.4023zM1483.74 249.002l-39.6006 110.703h-29.7012v-231.307h36.001v113.403l40.501 -113.403h28.8008v231.307h-36.001v-110.703z" />
    <glyph glyph-name="ordmasculine" unicode="&#xba;" horiz-adv-x="528" 
d="M167 460q0 -77 7 -127t20 -79t30 -41t38 -12q22 0 40.5 12t31.5 41t20 79t7 127q0 81 -8 135.5t-21.5 87t-31.5 46t-38 13.5q-19 0 -36 -13.5t-30 -46t-21 -87t-8 -135.5zM50 460q0 76 18 131.5t48 92t68 54t78 17.5q42 0 81 -17.5t69 -54t48 -92t18 -131.5
q0 -69 -16 -120.5t-44.5 -85t-68 -50t-87.5 -16.5q-46 0 -85 16.5t-67 50t-44 85t-16 120.5z" />
    <glyph glyph-name="guillemotright" unicode="&#xbb;" horiz-adv-x="667" 
d="M330 21l151 228l-152 228l8 8l235 -235v-12l-233 -225zM115 21l151 228l-152 228l8 8l235 -235v-12l-233 -225z" />
    </font>
</defs>
</svg>
